# Tiled2Unity generated file. Do not modify by hand.
# Wavefront file for 'Portada_mesh_0003.obj'

# Vertices (Count = 216)
v -11 -5.5 0
v -11.5 -5.5 0
v -11.5 -5 0
v -11 -5 0
v -11.5 -5.5 0
v -12 -5.5 0
v -12 -5 0
v -11.5 -5 0
v -11 -6 0
v -11.5 -6 0
v -11.5 -5.5 0
v -11 -5.5 0
v -11.5 -6 0
v -12 -6 0
v -12 -5.5 0
v -11.5 -5.5 0
v 0 -6.5 0
v -0.5 -6.5 0
v -0.5 -6 0
v 0 -6 0
v -0.5 -6.5 0
v -1 -6.5 0
v -1 -6 0
v -0.5 -6 0
v -1 -6.5 0
v -1.5 -6.5 0
v -1.5 -6 0
v -1 -6 0
v -1.5 -6.5 0
v -2 -6.5 0
v -2 -6 0
v -1.5 -6 0
v -3 -6.5 0
v -3.5 -6.5 0
v -3.5 -6 0
v -3 -6 0
v -10 -6.5 0
v -10.5 -6.5 0
v -10.5 -6 0
v -10 -6 0
v -10.5 -6.5 0
v -11 -6.5 0
v -11 -6 0
v -10.5 -6 0
v -11 -6.5 0
v -11.5 -6.5 0
v -11.5 -6 0
v -11 -6 0
v -11.5 -6.5 0
v -12 -6.5 0
v -12 -6 0
v -11.5 -6 0
v 0 -7 0
v -0.5 -7 0
v -0.5 -6.5 0
v 0 -6.5 0
v -0.5 -7 0
v -1 -7 0
v -1 -6.5 0
v -0.5 -6.5 0
v -1 -7 0
v -1.5 -7 0
v -1.5 -6.5 0
v -1 -6.5 0
v -1.5 -7 0
v -2 -7 0
v -2 -6.5 0
v -1.5 -6.5 0
v -3 -7 0
v -3.5 -7 0
v -3.5 -6.5 0
v -3 -6.5 0
v -10 -7 0
v -10.5 -7 0
v -10.5 -6.5 0
v -10 -6.5 0
v -10.5 -7 0
v -11 -7 0
v -11 -6.5 0
v -10.5 -6.5 0
v -11 -7 0
v -11.5 -7 0
v -11.5 -6.5 0
v -11 -6.5 0
v -11.5 -7 0
v -12 -7 0
v -12 -6.5 0
v -11.5 -6.5 0
v 0 -7.5 0
v -0.5 -7.5 0
v -0.5 -7 0
v 0 -7 0
v -0.5 -7.5 0
v -1 -7.5 0
v -1 -7 0
v -0.5 -7 0
v -1 -7.5 0
v -1.5 -7.5 0
v -1.5 -7 0
v -1 -7 0
v -1.5 -7.5 0
v -2 -7.5 0
v -2 -7 0
v -1.5 -7 0
v -2 -7.5 0
v -2.5 -7.5 0
v -2.5 -7 0
v -2 -7 0
v -2.5 -7.5 0
v -3 -7.5 0
v -3 -7 0
v -2.5 -7 0
v -3 -7.5 0
v -3.5 -7.5 0
v -3.5 -7 0
v -3 -7 0
v -3.5 -7.5 0
v -4 -7.5 0
v -4 -7 0
v -3.5 -7 0
v -4 -7.5 0
v -4.5 -7.5 0
v -4.5 -7 0
v -4 -7 0
v -8.5 -7.5 0
v -9 -7.5 0
v -9 -7 0
v -8.5 -7 0
v -9 -7.5 0
v -9.5 -7.5 0
v -9.5 -7 0
v -9 -7 0
v -9.5 -7.5 0
v -10 -7.5 0
v -10 -7 0
v -9.5 -7 0
v -10 -7.5 0
v -10.5 -7.5 0
v -10.5 -7 0
v -10 -7 0
v -10.5 -7.5 0
v -11 -7.5 0
v -11 -7 0
v -10.5 -7 0
v -11 -7.5 0
v -11.5 -7.5 0
v -11.5 -7 0
v -11 -7 0
v -11.5 -7.5 0
v -12 -7.5 0
v -12 -7 0
v -11.5 -7 0
v 0 -8 0
v -0.5 -8 0
v -0.5 -7.5 0
v 0 -7.5 0
v -0.5 -8 0
v -1 -8 0
v -1 -7.5 0
v -0.5 -7.5 0
v -1 -8 0
v -1.5 -8 0
v -1.5 -7.5 0
v -1 -7.5 0
v -1.5 -8 0
v -2 -8 0
v -2 -7.5 0
v -1.5 -7.5 0
v -2 -8 0
v -2.5 -8 0
v -2.5 -7.5 0
v -2 -7.5 0
v -2.5 -8 0
v -3 -8 0
v -3 -7.5 0
v -2.5 -7.5 0
v -3 -8 0
v -3.5 -8 0
v -3.5 -7.5 0
v -3 -7.5 0
v -3.5 -8 0
v -4 -8 0
v -4 -7.5 0
v -3.5 -7.5 0
v -4 -8 0
v -4.5 -8 0
v -4.5 -7.5 0
v -4 -7.5 0
v -8.5 -8 0
v -9 -8 0
v -9 -7.5 0
v -8.5 -7.5 0
v -9 -8 0
v -9.5 -8 0
v -9.5 -7.5 0
v -9 -7.5 0
v -9.5 -8 0
v -10 -8 0
v -10 -7.5 0
v -9.5 -7.5 0
v -10 -8 0
v -10.5 -8 0
v -10.5 -7.5 0
v -10 -7.5 0
v -10.5 -8 0
v -11 -8 0
v -11 -7.5 0
v -10.5 -7.5 0
v -11 -8 0
v -11.5 -8 0
v -11.5 -7.5 0
v -11 -7.5 0
v -11.5 -8 0
v -12 -8 0
v -12 -7.5 0
v -11.5 -7.5 0

# Texture cooridinates (Count = 84)
vt 0.2 0.775
vt 0.2333333 0.775
vt 0.2333333 0.8
vt 0.2 0.8
vt 0.2666667 0.775
vt 0.2666667 0.8
vt 0.2 0.75
vt 0.2333333 0.75
vt 0.2666667 0.75
vt 0.4666667 0.575
vt 0.5 0.575
vt 0.5 0.6
vt 0.4666667 0.6
vt 0.5333334 0.575
vt 0.5333334 0.6
vt 0.5666667 0.575
vt 0.5666667 0.6
vt 0.6 0.575
vt 0.6 0.6
vt 0.6666667 0.575
vt 0.7 0.575
vt 0.7 0.6
vt 0.6666667 0.6
vt 0.2 0.175
vt 0.2333333 0.175
vt 0.2333333 0.2
vt 0.2 0.2
vt 0.2666667 0.175
vt 0.2666667 0.2
vt 0.2 0.725
vt 0.2333333 0.725
vt 0.2666667 0.725
vt 0.4666667 0.55
vt 0.5 0.55
vt 0.5333334 0.55
vt 0.5666667 0.55
vt 0.6 0.55
vt 0.6666667 0.55
vt 0.7 0.55
vt 0.2 0.15
vt 0.2333333 0.15
vt 0.2666667 0.15
vt 0.2 0.7
vt 0.2333333 0.7
vt 0.2666667 0.7
vt 0.6 0.525
vt 0.6333333 0.525
vt 0.6333333 0.55
vt 0.6666667 0.525
vt 0.7 0.525
vt 0.1333333 0.575
vt 0.1666667 0.575
vt 0.1666667 0.6
vt 0.1333333 0.6
vt 0.2 0.575
vt 0.2 0.6
vt 0 0.175
vt 0.03333334 0.175
vt 0.03333334 0.2
vt 0 0.2
vt 0.06666667 0.175
vt 0.06666667 0.2
vt 0.1 0.175
vt 0.1 0.2
vt 0.2 0.125
vt 0.2333333 0.125
vt 0.2666667 0.125
vt 0.2 0.675
vt 0.2333333 0.675
vt 0.2666667 0.675
vt 0.6 0.5
vt 0.6333333 0.5
vt 0.6666667 0.5
vt 0.7 0.5
vt 0.1333333 0.55
vt 0.1666667 0.55
vt 0.2 0.55
vt 0 0.15
vt 0.03333334 0.15
vt 0.06666667 0.15
vt 0.1 0.15
vt 0.2 0.1
vt 0.2333333 0.1
vt 0.2666667 0.1

# Normal
vn 0 0 -1

# Mesh description
g Portada_mesh_0003

# Faces
f 1/1/1 2/2/1 3/3/1 4/4/1
f 5/2/1 6/5/1 7/6/1 8/3/1
f 9/7/1 10/8/1 11/2/1 12/1/1
f 13/8/1 14/9/1 15/5/1 16/2/1
f 17/10/1 18/11/1 19/12/1 20/13/1
f 21/11/1 22/14/1 23/15/1 24/12/1
f 25/14/1 26/16/1 27/17/1 28/15/1
f 29/16/1 30/18/1 31/19/1 32/17/1
f 33/20/1 34/21/1 35/22/1 36/23/1
f 37/24/1 38/25/1 39/26/1 40/27/1
f 41/25/1 42/28/1 43/29/1 44/26/1
f 45/30/1 46/31/1 47/8/1 48/7/1
f 49/31/1 50/32/1 51/9/1 52/8/1
f 53/33/1 54/34/1 55/11/1 56/10/1
f 57/34/1 58/35/1 59/14/1 60/11/1
f 61/35/1 62/36/1 63/16/1 64/14/1
f 65/36/1 66/37/1 67/18/1 68/16/1
f 69/38/1 70/39/1 71/21/1 72/20/1
f 73/40/1 74/41/1 75/25/1 76/24/1
f 77/41/1 78/42/1 79/28/1 80/25/1
f 81/43/1 82/44/1 83/31/1 84/30/1
f 85/44/1 86/45/1 87/32/1 88/31/1
f 89/46/1 90/47/1 91/48/1 92/37/1
f 93/46/1 94/47/1 95/48/1 96/37/1
f 97/46/1 98/47/1 99/48/1 100/37/1
f 101/46/1 102/47/1 103/48/1 104/37/1
f 105/46/1 106/47/1 107/48/1 108/37/1
f 109/47/1 110/49/1 111/38/1 112/48/1
f 113/49/1 114/50/1 115/39/1 116/38/1
f 117/51/1 118/52/1 119/53/1 120/54/1
f 121/52/1 122/55/1 123/56/1 124/53/1
f 125/57/1 126/58/1 127/59/1 128/60/1
f 129/58/1 130/61/1 131/62/1 132/59/1
f 133/61/1 134/63/1 135/64/1 136/62/1
f 137/65/1 138/66/1 139/41/1 140/40/1
f 141/66/1 142/67/1 143/42/1 144/41/1
f 145/68/1 146/69/1 147/44/1 148/43/1
f 149/69/1 150/70/1 151/45/1 152/44/1
f 153/71/1 154/72/1 155/47/1 156/46/1
f 157/71/1 158/72/1 159/47/1 160/46/1
f 161/71/1 162/72/1 163/47/1 164/46/1
f 165/71/1 166/72/1 167/47/1 168/46/1
f 169/71/1 170/72/1 171/47/1 172/46/1
f 173/46/1 174/47/1 175/48/1 176/37/1
f 177/73/1 178/74/1 179/50/1 180/49/1
f 181/75/1 182/76/1 183/52/1 184/51/1
f 185/76/1 186/77/1 187/55/1 188/52/1
f 189/78/1 190/79/1 191/58/1 192/57/1
f 193/79/1 194/80/1 195/61/1 196/58/1
f 197/80/1 198/81/1 199/63/1 200/61/1
f 201/82/1 202/83/1 203/66/1 204/65/1
f 205/83/1 206/84/1 207/67/1 208/66/1
f 209/68/1 210/69/1 211/44/1 212/43/1
f 213/69/1 214/70/1 215/45/1 216/44/1

