# Tiled2Unity generated file. Do not modify by hand.
# Wavefront file for 'Portada_mesh_0004.obj'

# Vertices (Count = 248)
v -12 -0.5 0
v -12.5 -0.5 0
v -12.5 0 0
v -12 0 0
v -12.5 -0.5 0
v -13 -0.5 0
v -13 0 0
v -12.5 0 0
v -13 -0.5 0
v -13.5 -0.5 0
v -13.5 0 0
v -13 0 0
v -13.5 -0.5 0
v -14 -0.5 0
v -14 0 0
v -13.5 0 0
v -14 -0.5 0
v -14.5 -0.5 0
v -14.5 0 0
v -14 0 0
v -14.5 -0.5 0
v -15 -0.5 0
v -15 0 0
v -14.5 0 0
v -12 -1 0
v -12.5 -1 0
v -12.5 -0.5 0
v -12 -0.5 0
v -12.5 -1 0
v -13 -1 0
v -13 -0.5 0
v -12.5 -0.5 0
v -13 -1 0
v -13.5 -1 0
v -13.5 -0.5 0
v -13 -0.5 0
v -13.5 -1 0
v -14 -1 0
v -14 -0.5 0
v -13.5 -0.5 0
v -14 -1 0
v -14.5 -1 0
v -14.5 -0.5 0
v -14 -0.5 0
v -14.5 -1 0
v -15 -1 0
v -15 -0.5 0
v -14.5 -0.5 0
v -1 -1.5 0
v -1.5 -1.5 0
v -1.5 -1 0
v -1 -1 0
v -1.5 -1.5 0
v -2 -1.5 0
v -2 -1 0
v -1.5 -1 0
v -12 -1.5 0
v -12.5 -1.5 0
v -12.5 -1 0
v -12 -1 0
v -12.5 -1.5 0
v -13 -1.5 0
v -13 -1 0
v -12.5 -1 0
v -13 -1.5 0
v -13.5 -1.5 0
v -13.5 -1 0
v -13 -1 0
v -13.5 -1.5 0
v -14 -1.5 0
v -14 -1 0
v -13.5 -1 0
v -14 -1.5 0
v -14.5 -1.5 0
v -14.5 -1 0
v -14 -1 0
v -14.5 -1.5 0
v -15 -1.5 0
v -15 -1 0
v -14.5 -1 0
v -12 -2 0
v -12.5 -2 0
v -12.5 -1.5 0
v -12 -1.5 0
v -12.5 -2 0
v -13 -2 0
v -13 -1.5 0
v -12.5 -1.5 0
v -13 -2 0
v -13.5 -2 0
v -13.5 -1.5 0
v -13 -1.5 0
v -13.5 -2 0
v -14 -2 0
v -14 -1.5 0
v -13.5 -1.5 0
v -14 -2 0
v -14.5 -2 0
v -14.5 -1.5 0
v -14 -1.5 0
v -14.5 -2 0
v -15 -2 0
v -15 -1.5 0
v -14.5 -1.5 0
v -12 -2.5 0
v -12.5 -2.5 0
v -12.5 -2 0
v -12 -2 0
v -12.5 -2.5 0
v -13 -2.5 0
v -13 -2 0
v -12.5 -2 0
v -13 -2.5 0
v -13.5 -2.5 0
v -13.5 -2 0
v -13 -2 0
v -13.5 -2.5 0
v -14 -2.5 0
v -14 -2 0
v -13.5 -2 0
v -14 -2.5 0
v -14.5 -2.5 0
v -14.5 -2 0
v -14 -2 0
v -14.5 -2.5 0
v -15 -2.5 0
v -15 -2 0
v -14.5 -2 0
v -12 -3 0
v -12.5 -3 0
v -12.5 -2.5 0
v -12 -2.5 0
v -12.5 -3 0
v -13 -3 0
v -13 -2.5 0
v -12.5 -2.5 0
v -13 -3 0
v -13.5 -3 0
v -13.5 -2.5 0
v -13 -2.5 0
v -13.5 -3 0
v -14 -3 0
v -14 -2.5 0
v -13.5 -2.5 0
v -14 -3 0
v -14.5 -3 0
v -14.5 -2.5 0
v -14 -2.5 0
v -14.5 -3 0
v -15 -3 0
v -15 -2.5 0
v -14.5 -2.5 0
v -7 -5 0
v -7.5 -5 0
v -7.5 -4.5 0
v -7 -4.5 0
v -7.5 -5 0
v -8 -5 0
v -8 -4.5 0
v -7.5 -4.5 0
v -8 -5 0
v -8.5 -5 0
v -8.5 -4.5 0
v -8 -4.5 0
v -2 -5.5 0
v -2.5 -5.5 0
v -2.5 -5 0
v -2 -5 0
v -2.5 -5.5 0
v -3 -5.5 0
v -3 -5 0
v -2.5 -5 0
v -7 -5.5 0
v -7.5 -5.5 0
v -7.5 -5 0
v -7 -5 0
v -7.5 -5.5 0
v -8 -5.5 0
v -8 -5 0
v -7.5 -5 0
v -8 -5.5 0
v -8.5 -5.5 0
v -8.5 -5 0
v -8 -5 0
v -5 -6 0
v -5.5 -6 0
v -5.5 -5.5 0
v -5 -5.5 0
v -5.5 -6 0
v -6 -6 0
v -6 -5.5 0
v -5.5 -5.5 0
v -6 -6 0
v -6.5 -6 0
v -6.5 -5.5 0
v -6 -5.5 0
v -6.5 -6 0
v -7 -6 0
v -7 -5.5 0
v -6.5 -5.5 0
v -7 -6 0
v -7.5 -6 0
v -7.5 -5.5 0
v -7 -5.5 0
v -7.5 -6 0
v -8 -6 0
v -8 -5.5 0
v -7.5 -5.5 0
v -3.5 -6.5 0
v -4 -6.5 0
v -4 -6 0
v -3.5 -6 0
v -4 -6.5 0
v -4.5 -6.5 0
v -4.5 -6 0
v -4 -6 0
v -5 -6.5 0
v -5.5 -6.5 0
v -5.5 -6 0
v -5 -6 0
v -5.5 -6.5 0
v -6 -6.5 0
v -6 -6 0
v -5.5 -6 0
v -6 -6.5 0
v -6.5 -6.5 0
v -6.5 -6 0
v -6 -6 0
v -6.5 -6.5 0
v -7 -6.5 0
v -7 -6 0
v -6.5 -6 0
v -7 -6.5 0
v -7.5 -6.5 0
v -7.5 -6 0
v -7 -6 0
v -7.5 -6.5 0
v -8 -6.5 0
v -8 -6 0
v -7.5 -6 0
v -3.5 -7 0
v -4 -7 0
v -4 -6.5 0
v -3.5 -6.5 0
v -4 -7 0
v -4.5 -7 0
v -4.5 -6.5 0
v -4 -6.5 0

# Texture cooridinates (Count = 109)
vt 0.4166667 0.9772727
vt 0.4583333 0.9772727
vt 0.4583333 1
vt 0.4166667 1
vt 0.5 0.9772727
vt 0.5 1
vt 0.5416667 0.9772727
vt 0.5416667 1
vt 0.5833333 0.9772727
vt 0.5833333 1
vt 0.625 0.9772727
vt 0.625 1
vt 0.6666667 0.9772727
vt 0.6666667 1
vt 0.4166667 0.9545454
vt 0.4583333 0.9545454
vt 0.5 0.9545454
vt 0.5416667 0.9545454
vt 0.5833333 0.9545454
vt 0.625 0.9545454
vt 0.6666667 0.9545454
vt 0.6666667 0.7954546
vt 0.7083333 0.7954546
vt 0.7083333 0.8181818
vt 0.6666667 0.8181818
vt 0.75 0.7954546
vt 0.75 0.8181818
vt 0.4166667 0.9318182
vt 0.4583333 0.9318182
vt 0.5 0.9318182
vt 0.5416667 0.9318182
vt 0.5833333 0.9318182
vt 0.625 0.9318182
vt 0.6666667 0.9318182
vt 0.4166667 0.9090909
vt 0.4583333 0.9090909
vt 0.5 0.9090909
vt 0.5416667 0.9090909
vt 0.5833333 0.9090909
vt 0.625 0.9090909
vt 0.6666667 0.9090909
vt 0.4166667 0.8863636
vt 0.4583333 0.8863636
vt 0.5 0.8863636
vt 0.5416667 0.8863636
vt 0.5833333 0.8863636
vt 0.625 0.8863636
vt 0.6666667 0.8863636
vt 0.4166667 0.8636364
vt 0.4583333 0.8636364
vt 0.5 0.8636364
vt 0.5416667 0.8636364
vt 0.5833333 0.8636364
vt 0.625 0.8636364
vt 0.6666667 0.8636364
vt 0.25 0.5681818
vt 0.2916667 0.5681818
vt 0.2916667 0.5909091
vt 0.25 0.5909091
vt 0.3333333 0.5681818
vt 0.3333333 0.5909091
vt 0.5416667 0.4772727
vt 0.5833333 0.4772727
vt 0.5833333 0.5
vt 0.5416667 0.5
vt 0.2916667 0.9090909
vt 0.3333333 0.9090909
vt 0.3333333 0.9318182
vt 0.2916667 0.9318182
vt 0.375 0.9090909
vt 0.375 0.9318182
vt 0.25 0.5454545
vt 0.2916667 0.5454545
vt 0.3333333 0.5454545
vt 0.5416667 0.4545454
vt 0.5833333 0.4545454
vt 0.4166667 0.4772727
vt 0.4583333 0.4772727
vt 0.4583333 0.5
vt 0.4166667 0.5
vt 0.5 0.4772727
vt 0.5 0.5
vt 0.3333333 0.4318182
vt 0.375 0.4318182
vt 0.375 0.4545454
vt 0.3333333 0.4545454
vt 0.4166667 0.4318182
vt 0.4166667 0.4545454
vt 0.3333333 0.5227273
vt 0.375 0.5227273
vt 0.375 0.5454545
vt 0.4166667 0.5227273
vt 0.4166667 0.5454545
vt 0.08333334 0.7045455
vt 0.125 0.7045455
vt 0.125 0.7272727
vt 0.08333334 0.7272727
vt 0.1666667 0.7045455
vt 0.1666667 0.7272727
vt 0.4583333 0.4545454
vt 0.5 0.4545454
vt 0.3333333 0.4090909
vt 0.375 0.4090909
vt 0.4166667 0.4090909
vt 0.3333333 0.5
vt 0.375 0.5
vt 0.08333334 0.6818182
vt 0.125 0.6818182
vt 0.1666667 0.6818182

# Normal
vn 0 0 -1

# Mesh description
g Portada_mesh_0004

# Faces
f 1/1/1 2/2/1 3/3/1 4/4/1
f 5/2/1 6/5/1 7/6/1 8/3/1
f 9/5/1 10/7/1 11/8/1 12/6/1
f 13/7/1 14/9/1 15/10/1 16/8/1
f 17/9/1 18/11/1 19/12/1 20/10/1
f 21/11/1 22/13/1 23/14/1 24/12/1
f 25/15/1 26/16/1 27/2/1 28/1/1
f 29/16/1 30/17/1 31/5/1 32/2/1
f 33/17/1 34/18/1 35/7/1 36/5/1
f 37/18/1 38/19/1 39/9/1 40/7/1
f 41/19/1 42/20/1 43/11/1 44/9/1
f 45/20/1 46/21/1 47/13/1 48/11/1
f 49/22/1 50/23/1 51/24/1 52/25/1
f 53/23/1 54/26/1 55/27/1 56/24/1
f 57/28/1 58/29/1 59/16/1 60/15/1
f 61/29/1 62/30/1 63/17/1 64/16/1
f 65/30/1 66/31/1 67/18/1 68/17/1
f 69/31/1 70/32/1 71/19/1 72/18/1
f 73/32/1 74/33/1 75/20/1 76/19/1
f 77/33/1 78/34/1 79/21/1 80/20/1
f 81/35/1 82/36/1 83/29/1 84/28/1
f 85/36/1 86/37/1 87/30/1 88/29/1
f 89/37/1 90/38/1 91/31/1 92/30/1
f 93/38/1 94/39/1 95/32/1 96/31/1
f 97/39/1 98/40/1 99/33/1 100/32/1
f 101/40/1 102/41/1 103/34/1 104/33/1
f 105/42/1 106/43/1 107/36/1 108/35/1
f 109/43/1 110/44/1 111/37/1 112/36/1
f 113/44/1 114/45/1 115/38/1 116/37/1
f 117/45/1 118/46/1 119/39/1 120/38/1
f 121/46/1 122/47/1 123/40/1 124/39/1
f 125/47/1 126/48/1 127/41/1 128/40/1
f 129/49/1 130/50/1 131/43/1 132/42/1
f 133/50/1 134/51/1 135/44/1 136/43/1
f 137/51/1 138/52/1 139/45/1 140/44/1
f 141/52/1 142/53/1 143/46/1 144/45/1
f 145/53/1 146/54/1 147/47/1 148/46/1
f 149/54/1 150/55/1 151/48/1 152/47/1
f 153/56/1 154/57/1 155/58/1 156/59/1
f 157/57/1 158/60/1 159/61/1 160/58/1
f 161/62/1 162/63/1 163/64/1 164/65/1
f 165/66/1 166/67/1 167/68/1 168/69/1
f 169/67/1 170/70/1 171/71/1 172/68/1
f 173/72/1 174/73/1 175/57/1 176/56/1
f 177/73/1 178/74/1 179/60/1 180/57/1
f 181/75/1 182/76/1 183/63/1 184/62/1
f 185/77/1 186/78/1 187/79/1 188/80/1
f 189/78/1 190/81/1 191/82/1 192/79/1
f 193/83/1 194/84/1 195/85/1 196/86/1
f 197/84/1 198/87/1 199/88/1 200/85/1
f 201/89/1 202/90/1 203/91/1 204/74/1
f 205/90/1 206/92/1 207/93/1 208/91/1
f 209/94/1 210/95/1 211/96/1 212/97/1
f 213/95/1 214/98/1 215/99/1 216/96/1
f 217/88/1 218/100/1 219/78/1 220/77/1
f 221/100/1 222/101/1 223/81/1 224/78/1
f 225/102/1 226/103/1 227/84/1 228/83/1
f 229/103/1 230/104/1 231/87/1 232/84/1
f 233/105/1 234/106/1 235/90/1 236/89/1
f 237/106/1 238/80/1 239/92/1 240/90/1
f 241/107/1 242/108/1 243/95/1 244/94/1
f 245/108/1 246/109/1 247/98/1 248/95/1

