# Tiled2Unity generated file. Do not modify by hand.
# Wavefront file for 'CasaDeSara_mesh_0004.obj'

# Vertices (Count = 240)
v -6 -3 0
v -7 -3 0
v -7 -2 0
v -6 -2 0
v -7 -3 0
v -8 -3 0
v -8 -2 0
v -7 -2 0
v -12 -3 0
v -13 -3 0
v -13 -2 0
v -12 -2 0
v -13 -3 0
v -14 -3 0
v -14 -2 0
v -13 -2 0
v -6 -4 0
v -7 -4 0
v -7 -3 0
v -6 -3 0
v -7 -4 0
v -8 -4 0
v -8 -3 0
v -7 -3 0
v -12 -4 0
v -13 -4 0
v -13 -3 0
v -12 -3 0
v -13 -4 0
v -14 -4 0
v -14 -3 0
v -13 -3 0
v -12 -5 0
v -13 -5 0
v -13 -4 0
v -12 -4 0
v -13 -5 0
v -14 -5 0
v -14 -4 0
v -13 -4 0
v -6 -6 0
v -7 -6 0
v -7 -5 0
v -6 -5 0
v -7 -6 0
v -8 -6 0
v -8 -5 0
v -7 -5 0
v -12 -6 0
v -13 -6 0
v -13 -5 0
v -12 -5 0
v -13 -6 0
v -14 -6 0
v -14 -5 0
v -13 -5 0
v -6 -7 0
v -7 -7 0
v -7 -6 0
v -6 -6 0
v -7 -7 0
v -8 -7 0
v -8 -6 0
v -7 -6 0
v -12 -7 0
v -13 -7 0
v -13 -6 0
v -12 -6 0
v -13 -7 0
v -14 -7 0
v -14 -6 0
v -13 -6 0
v -12 -8 0
v -13 -8 0
v -13 -7 0
v -12 -7 0
v -13 -8 0
v -14 -8 0
v -14 -7 0
v -13 -7 0
v -7 -12 0
v -8 -12 0
v -8 -11 0
v -7 -11 0
v -8 -12 0
v -9 -12 0
v -9 -11 0
v -8 -11 0
v -9 -12 0
v -10 -12 0
v -10 -11 0
v -9 -11 0
v -10 -12 0
v -11 -12 0
v -11 -11 0
v -10 -11 0
v -11 -12 0
v -12 -12 0
v -12 -11 0
v -11 -11 0
v -12 -12 0
v -13 -12 0
v -13 -11 0
v -12 -11 0
v -7 -13 0
v -8 -13 0
v -8 -12 0
v -7 -12 0
v -8 -13 0
v -9 -13 0
v -9 -12 0
v -8 -12 0
v -9 -13 0
v -10 -13 0
v -10 -12 0
v -9 -12 0
v -10 -13 0
v -11 -13 0
v -11 -12 0
v -10 -12 0
v -11 -13 0
v -12 -13 0
v -12 -12 0
v -11 -12 0
v -12 -13 0
v -13 -13 0
v -13 -12 0
v -12 -12 0
v -7 -14 0
v -8 -14 0
v -8 -13 0
v -7 -13 0
v -8 -14 0
v -9 -14 0
v -9 -13 0
v -8 -13 0
v -9 -14 0
v -10 -14 0
v -10 -13 0
v -9 -13 0
v -10 -14 0
v -11 -14 0
v -11 -13 0
v -10 -13 0
v -11 -14 0
v -12 -14 0
v -12 -13 0
v -11 -13 0
v -12 -14 0
v -13 -14 0
v -13 -13 0
v -12 -13 0
v -7 -15 0
v -8 -15 0
v -8 -14 0
v -7 -14 0
v -8 -15 0
v -9 -15 0
v -9 -14 0
v -8 -14 0
v -9 -15 0
v -10 -15 0
v -10 -14 0
v -9 -14 0
v -10 -15 0
v -11 -15 0
v -11 -14 0
v -10 -14 0
v -11 -15 0
v -12 -15 0
v -12 -14 0
v -11 -14 0
v -12 -15 0
v -13 -15 0
v -13 -14 0
v -12 -14 0
v -7 -16 0
v -8 -16 0
v -8 -15 0
v -7 -15 0
v -8 -16 0
v -9 -16 0
v -9 -15 0
v -8 -15 0
v -9 -16 0
v -10 -16 0
v -10 -15 0
v -9 -15 0
v -10 -16 0
v -11 -16 0
v -11 -15 0
v -10 -15 0
v -11 -16 0
v -12 -16 0
v -12 -15 0
v -11 -15 0
v -12 -16 0
v -13 -16 0
v -13 -15 0
v -12 -15 0
v -13 -16 0
v -14 -16 0
v -14 -15 0
v -13 -15 0
v -14 -16 0
v -15 -16 0
v -15 -15 0
v -14 -15 0
v -7 -17 0
v -8 -17 0
v -8 -16 0
v -7 -16 0
v -8 -17 0
v -9 -17 0
v -9 -16 0
v -8 -16 0
v -9 -17 0
v -10 -17 0
v -10 -16 0
v -9 -16 0
v -10 -17 0
v -11 -17 0
v -11 -16 0
v -10 -16 0
v -11 -17 0
v -12 -17 0
v -12 -16 0
v -11 -16 0
v -12 -17 0
v -13 -17 0
v -13 -16 0
v -12 -16 0
v -13 -17 0
v -14 -17 0
v -14 -16 0
v -13 -16 0
v -14 -17 0
v -15 -17 0
v -15 -16 0
v -14 -16 0

# Texture cooridinates (Count = 91)
vt 0.75 0.6111111
vt 0.8125 0.6111111
vt 0.8125 0.6666666
vt 0.75 0.6666666
vt 0.875 0.6111111
vt 0.875 0.6666666
vt 0.625 0.6111111
vt 0.6875 0.6111111
vt 0.6875 0.6666666
vt 0.625 0.6666666
vt 0.75 0.5555556
vt 0.8125 0.5555556
vt 0.875 0.5555556
vt 0.625 0.5555556
vt 0.6875 0.5555556
vt 0.125 0.5
vt 0.1875 0.5
vt 0.1875 0.5555556
vt 0.125 0.5555556
vt 0.25 0.5
vt 0.25 0.5555556
vt 0.375 0.2777778
vt 0.4375 0.2777778
vt 0.4375 0.3333333
vt 0.375 0.3333333
vt 0.5 0.2777778
vt 0.5 0.3333333
vt 0.125 0.4444444
vt 0.1875 0.4444444
vt 0.25 0.4444444
vt 0.375 0.2222222
vt 0.4375 0.2222222
vt 0.5 0.2222222
vt 0.125 0.3888889
vt 0.1875 0.3888889
vt 0.25 0.3888889
vt 0.125 0.3333333
vt 0.1875 0.3333333
vt 0.25 0.3333333
vt 0 0.2777778
vt 0.0625 0.2777778
vt 0.0625 0.3333333
vt 0 0.3333333
vt 0.125 0.2777778
vt 0.1875 0.2777778
vt 0.25 0.2777778
vt 0.3125 0.2777778
vt 0.3125 0.3333333
vt 0 0.2222222
vt 0.0625 0.2222222
vt 0.125 0.2222222
vt 0.1875 0.2222222
vt 0.25 0.2222222
vt 0.3125 0.2222222
vt 0 0.1666667
vt 0.0625 0.1666667
vt 0.125 0.1666667
vt 0.1875 0.1666667
vt 0.25 0.1666667
vt 0.3125 0.1666667
vt 0.375 0.1666667
vt 0 0.1111111
vt 0.0625 0.1111111
vt 0.125 0.1111111
vt 0.1875 0.1111111
vt 0.25 0.1111111
vt 0.3125 0.1111111
vt 0.375 0.1111111
vt 0 0.05555558
vt 0.0625 0.05555558
vt 0.125 0.05555558
vt 0.1875 0.05555558
vt 0.25 0.05555558
vt 0.3125 0.05555558
vt 0.375 0.05555558
vt 0.5 0.05555558
vt 0.5625 0.05555558
vt 0.5625 0.1111111
vt 0.5 0.1111111
vt 0.625 0.05555558
vt 0.625 0.1111111
vt 0 0
vt 0.0625 0
vt 0.125 0
vt 0.1875 0
vt 0.25 0
vt 0.3125 0
vt 0.375 0
vt 0.5 0
vt 0.5625 0
vt 0.625 0

# Normal
vn 0 0 -1

# Mesh description
g CasaDeSara_mesh_0004

# Faces
f 1/1/1 2/2/1 3/3/1 4/4/1
f 5/2/1 6/5/1 7/6/1 8/3/1
f 9/7/1 10/8/1 11/9/1 12/10/1
f 13/8/1 14/1/1 15/4/1 16/9/1
f 17/11/1 18/12/1 19/2/1 20/1/1
f 21/12/1 22/13/1 23/5/1 24/2/1
f 25/14/1 26/15/1 27/8/1 28/7/1
f 29/15/1 30/11/1 31/1/1 32/8/1
f 33/16/1 34/17/1 35/18/1 36/19/1
f 37/17/1 38/20/1 39/21/1 40/18/1
f 41/22/1 42/23/1 43/24/1 44/25/1
f 45/23/1 46/26/1 47/27/1 48/24/1
f 49/28/1 50/29/1 51/17/1 52/16/1
f 53/29/1 54/30/1 55/20/1 56/17/1
f 57/31/1 58/32/1 59/23/1 60/22/1
f 61/32/1 62/33/1 63/26/1 64/23/1
f 65/34/1 66/35/1 67/29/1 68/28/1
f 69/35/1 70/36/1 71/30/1 72/29/1
f 73/37/1 74/38/1 75/35/1 76/34/1
f 77/38/1 78/39/1 79/36/1 80/35/1
f 81/40/1 82/41/1 83/42/1 84/43/1
f 85/41/1 86/44/1 87/37/1 88/42/1
f 89/44/1 90/45/1 91/38/1 92/37/1
f 93/45/1 94/46/1 95/39/1 96/38/1
f 97/46/1 98/47/1 99/48/1 100/39/1
f 101/47/1 102/22/1 103/25/1 104/48/1
f 105/49/1 106/50/1 107/41/1 108/40/1
f 109/50/1 110/51/1 111/44/1 112/41/1
f 113/51/1 114/52/1 115/45/1 116/44/1
f 117/52/1 118/53/1 119/46/1 120/45/1
f 121/53/1 122/54/1 123/47/1 124/46/1
f 125/54/1 126/31/1 127/22/1 128/47/1
f 129/55/1 130/56/1 131/50/1 132/49/1
f 133/56/1 134/57/1 135/51/1 136/50/1
f 137/57/1 138/58/1 139/52/1 140/51/1
f 141/58/1 142/59/1 143/53/1 144/52/1
f 145/59/1 146/60/1 147/54/1 148/53/1
f 149/60/1 150/61/1 151/31/1 152/54/1
f 153/62/1 154/63/1 155/56/1 156/55/1
f 157/63/1 158/64/1 159/57/1 160/56/1
f 161/64/1 162/65/1 163/58/1 164/57/1
f 165/65/1 166/66/1 167/59/1 168/58/1
f 169/66/1 170/67/1 171/60/1 172/59/1
f 173/67/1 174/68/1 175/61/1 176/60/1
f 177/69/1 178/70/1 179/63/1 180/62/1
f 181/70/1 182/71/1 183/64/1 184/63/1
f 185/71/1 186/72/1 187/65/1 188/64/1
f 189/72/1 190/73/1 191/66/1 192/65/1
f 193/73/1 194/74/1 195/67/1 196/66/1
f 197/74/1 198/75/1 199/68/1 200/67/1
f 201/76/1 202/77/1 203/78/1 204/79/1
f 205/77/1 206/80/1 207/81/1 208/78/1
f 209/82/1 210/83/1 211/70/1 212/69/1
f 213/83/1 214/84/1 215/71/1 216/70/1
f 217/84/1 218/85/1 219/72/1 220/71/1
f 221/85/1 222/86/1 223/73/1 224/72/1
f 225/86/1 226/87/1 227/74/1 228/73/1
f 229/87/1 230/88/1 231/75/1 232/74/1
f 233/89/1 234/90/1 235/77/1 236/76/1
f 237/90/1 238/91/1 239/80/1 240/77/1

