# Tiled2Unity generated file. Do not modify by hand.
# Wavefront file for 'ciudadPrincipal_mesh_0016.obj'

# Vertices (Count = 688)
v -0.5 -5.5 0
v -1 -5.5 0
v -1 -5 0
v -0.5 -5 0
v -1 -5.5 0
v -1.5 -5.5 0
v -1.5 -5 0
v -1 -5 0
v -1.5 -5.5 0
v -2 -5.5 0
v -2 -5 0
v -1.5 -5 0
v -2 -5.5 0
v -2.5 -5.5 0
v -2.5 -5 0
v -2 -5 0
v -2.5 -5.5 0
v -3 -5.5 0
v -3 -5 0
v -2.5 -5 0
v -3 -5.5 0
v -3.5 -5.5 0
v -3.5 -5 0
v -3 -5 0
v -0.5 -6 0
v -1 -6 0
v -1 -5.5 0
v -0.5 -5.5 0
v -1 -6 0
v -1.5 -6 0
v -1.5 -5.5 0
v -1 -5.5 0
v -2.5 -6 0
v -3 -6 0
v -3 -5.5 0
v -2.5 -5.5 0
v -3 -6 0
v -3.5 -6 0
v -3.5 -5.5 0
v -3 -5.5 0
v -0.5 -6.5 0
v -1 -6.5 0
v -1 -6 0
v -0.5 -6 0
v -1 -6.5 0
v -1.5 -6.5 0
v -1.5 -6 0
v -1 -6 0
v -2.5 -6.5 0
v -3 -6.5 0
v -3 -6 0
v -2.5 -6 0
v -3 -6.5 0
v -3.5 -6.5 0
v -3.5 -6 0
v -3 -6 0
v -0.5 -7 0
v -1 -7 0
v -1 -6.5 0
v -0.5 -6.5 0
v -1 -7 0
v -1.5 -7 0
v -1.5 -6.5 0
v -1 -6.5 0
v -2.5 -7 0
v -3 -7 0
v -3 -6.5 0
v -2.5 -6.5 0
v -3 -7 0
v -3.5 -7 0
v -3.5 -6.5 0
v -3 -6.5 0
v -73 -16 0
v -73.5 -16 0
v -73.5 -15.5 0
v -73 -15.5 0
v -73.5 -16 0
v -74 -16 0
v -74 -15.5 0
v -73.5 -15.5 0
v -74 -16 0
v -74.5 -16 0
v -74.5 -15.5 0
v -74 -15.5 0
v -74.5 -16 0
v -75 -16 0
v -75 -15.5 0
v -74.5 -15.5 0
v -75 -16 0
v -75.5 -16 0
v -75.5 -15.5 0
v -75 -15.5 0
v -75.5 -16 0
v -76 -16 0
v -76 -15.5 0
v -75.5 -15.5 0
v -76 -16 0
v -76.5 -16 0
v -76.5 -15.5 0
v -76 -15.5 0
v -76.5 -16 0
v -77 -16 0
v -77 -15.5 0
v -76.5 -15.5 0
v -77 -16 0
v -77.5 -16 0
v -77.5 -15.5 0
v -77 -15.5 0
v -77.5 -16 0
v -78 -16 0
v -78 -15.5 0
v -77.5 -15.5 0
v -78 -16 0
v -78.5 -16 0
v -78.5 -15.5 0
v -78 -15.5 0
v -78.5 -16 0
v -79 -16 0
v -79 -15.5 0
v -78.5 -15.5 0
v -79 -16 0
v -79.5 -16 0
v -79.5 -15.5 0
v -79 -15.5 0
v -79.5 -16 0
v -80 -16 0
v -80 -15.5 0
v -79.5 -15.5 0
v -80 -16 0
v -80.5 -16 0
v -80.5 -15.5 0
v -80 -15.5 0
v -80.5 -16 0
v -81 -16 0
v -81 -15.5 0
v -80.5 -15.5 0
v -81 -16 0
v -81.5 -16 0
v -81.5 -15.5 0
v -81 -15.5 0
v -73 -16.5 0
v -73.5 -16.5 0
v -73.5 -16 0
v -73 -16 0
v -73.5 -16.5 0
v -74 -16.5 0
v -74 -16 0
v -73.5 -16 0
v -74 -16.5 0
v -74.5 -16.5 0
v -74.5 -16 0
v -74 -16 0
v -74.5 -16.5 0
v -75 -16.5 0
v -75 -16 0
v -74.5 -16 0
v -75 -16.5 0
v -75.5 -16.5 0
v -75.5 -16 0
v -75 -16 0
v -75.5 -16.5 0
v -76 -16.5 0
v -76 -16 0
v -75.5 -16 0
v -76 -16.5 0
v -76.5 -16.5 0
v -76.5 -16 0
v -76 -16 0
v -76.5 -16.5 0
v -77 -16.5 0
v -77 -16 0
v -76.5 -16 0
v -77 -16.5 0
v -77.5 -16.5 0
v -77.5 -16 0
v -77 -16 0
v -77.5 -16.5 0
v -78 -16.5 0
v -78 -16 0
v -77.5 -16 0
v -78 -16.5 0
v -78.5 -16.5 0
v -78.5 -16 0
v -78 -16 0
v -78.5 -16.5 0
v -79 -16.5 0
v -79 -16 0
v -78.5 -16 0
v -79 -16.5 0
v -79.5 -16.5 0
v -79.5 -16 0
v -79 -16 0
v -79.5 -16.5 0
v -80 -16.5 0
v -80 -16 0
v -79.5 -16 0
v -80 -16.5 0
v -80.5 -16.5 0
v -80.5 -16 0
v -80 -16 0
v -80.5 -16.5 0
v -81 -16.5 0
v -81 -16 0
v -80.5 -16 0
v -81 -16.5 0
v -81.5 -16.5 0
v -81.5 -16 0
v -81 -16 0
v -73 -17 0
v -73.5 -17 0
v -73.5 -16.5 0
v -73 -16.5 0
v -73.5 -17 0
v -74 -17 0
v -74 -16.5 0
v -73.5 -16.5 0
v -74 -17 0
v -74.5 -17 0
v -74.5 -16.5 0
v -74 -16.5 0
v -74.5 -17 0
v -75 -17 0
v -75 -16.5 0
v -74.5 -16.5 0
v -75 -17 0
v -75.5 -17 0
v -75.5 -16.5 0
v -75 -16.5 0
v -75.5 -17 0
v -76 -17 0
v -76 -16.5 0
v -75.5 -16.5 0
v -76 -17 0
v -76.5 -17 0
v -76.5 -16.5 0
v -76 -16.5 0
v -76.5 -17 0
v -77 -17 0
v -77 -16.5 0
v -76.5 -16.5 0
v -77 -17 0
v -77.5 -17 0
v -77.5 -16.5 0
v -77 -16.5 0
v -77.5 -17 0
v -78 -17 0
v -78 -16.5 0
v -77.5 -16.5 0
v -78 -17 0
v -78.5 -17 0
v -78.5 -16.5 0
v -78 -16.5 0
v -78.5 -17 0
v -79 -17 0
v -79 -16.5 0
v -78.5 -16.5 0
v -79 -17 0
v -79.5 -17 0
v -79.5 -16.5 0
v -79 -16.5 0
v -79.5 -17 0
v -80 -17 0
v -80 -16.5 0
v -79.5 -16.5 0
v -80 -17 0
v -80.5 -17 0
v -80.5 -16.5 0
v -80 -16.5 0
v -80.5 -17 0
v -81 -17 0
v -81 -16.5 0
v -80.5 -16.5 0
v -81 -17 0
v -81.5 -17 0
v -81.5 -16.5 0
v -81 -16.5 0
v -73 -17.5 0
v -73.5 -17.5 0
v -73.5 -17 0
v -73 -17 0
v -73.5 -17.5 0
v -74 -17.5 0
v -74 -17 0
v -73.5 -17 0
v -74 -17.5 0
v -74.5 -17.5 0
v -74.5 -17 0
v -74 -17 0
v -74.5 -17.5 0
v -75 -17.5 0
v -75 -17 0
v -74.5 -17 0
v -75 -17.5 0
v -75.5 -17.5 0
v -75.5 -17 0
v -75 -17 0
v -75.5 -17.5 0
v -76 -17.5 0
v -76 -17 0
v -75.5 -17 0
v -76 -17.5 0
v -76.5 -17.5 0
v -76.5 -17 0
v -76 -17 0
v -76.5 -17.5 0
v -77 -17.5 0
v -77 -17 0
v -76.5 -17 0
v -77 -17.5 0
v -77.5 -17.5 0
v -77.5 -17 0
v -77 -17 0
v -77.5 -17.5 0
v -78 -17.5 0
v -78 -17 0
v -77.5 -17 0
v -78 -17.5 0
v -78.5 -17.5 0
v -78.5 -17 0
v -78 -17 0
v -78.5 -17.5 0
v -79 -17.5 0
v -79 -17 0
v -78.5 -17 0
v -79 -17.5 0
v -79.5 -17.5 0
v -79.5 -17 0
v -79 -17 0
v -79.5 -17.5 0
v -80 -17.5 0
v -80 -17 0
v -79.5 -17 0
v -80 -17.5 0
v -80.5 -17.5 0
v -80.5 -17 0
v -80 -17 0
v -80.5 -17.5 0
v -81 -17.5 0
v -81 -17 0
v -80.5 -17 0
v -81 -17.5 0
v -81.5 -17.5 0
v -81.5 -17 0
v -81 -17 0
v -73 -18 0
v -73.5 -18 0
v -73.5 -17.5 0
v -73 -17.5 0
v -73.5 -18 0
v -74 -18 0
v -74 -17.5 0
v -73.5 -17.5 0
v -74 -18 0
v -74.5 -18 0
v -74.5 -17.5 0
v -74 -17.5 0
v -74.5 -18 0
v -75 -18 0
v -75 -17.5 0
v -74.5 -17.5 0
v -75 -18 0
v -75.5 -18 0
v -75.5 -17.5 0
v -75 -17.5 0
v -75.5 -18 0
v -76 -18 0
v -76 -17.5 0
v -75.5 -17.5 0
v -76 -18 0
v -76.5 -18 0
v -76.5 -17.5 0
v -76 -17.5 0
v -76.5 -18 0
v -77 -18 0
v -77 -17.5 0
v -76.5 -17.5 0
v -77 -18 0
v -77.5 -18 0
v -77.5 -17.5 0
v -77 -17.5 0
v -77.5 -18 0
v -78 -18 0
v -78 -17.5 0
v -77.5 -17.5 0
v -78 -18 0
v -78.5 -18 0
v -78.5 -17.5 0
v -78 -17.5 0
v -78.5 -18 0
v -79 -18 0
v -79 -17.5 0
v -78.5 -17.5 0
v -79 -18 0
v -79.5 -18 0
v -79.5 -17.5 0
v -79 -17.5 0
v -79.5 -18 0
v -80 -18 0
v -80 -17.5 0
v -79.5 -17.5 0
v -80 -18 0
v -80.5 -18 0
v -80.5 -17.5 0
v -80 -17.5 0
v -80.5 -18 0
v -81 -18 0
v -81 -17.5 0
v -80.5 -17.5 0
v -81 -18 0
v -81.5 -18 0
v -81.5 -17.5 0
v -81 -17.5 0
v -73 -18.5 0
v -73.5 -18.5 0
v -73.5 -18 0
v -73 -18 0
v -73.5 -18.5 0
v -74 -18.5 0
v -74 -18 0
v -73.5 -18 0
v -74 -18.5 0
v -74.5 -18.5 0
v -74.5 -18 0
v -74 -18 0
v -74.5 -18.5 0
v -75 -18.5 0
v -75 -18 0
v -74.5 -18 0
v -75 -18.5 0
v -75.5 -18.5 0
v -75.5 -18 0
v -75 -18 0
v -75.5 -18.5 0
v -76 -18.5 0
v -76 -18 0
v -75.5 -18 0
v -76 -18.5 0
v -76.5 -18.5 0
v -76.5 -18 0
v -76 -18 0
v -76.5 -18.5 0
v -77 -18.5 0
v -77 -18 0
v -76.5 -18 0
v -77 -18.5 0
v -77.5 -18.5 0
v -77.5 -18 0
v -77 -18 0
v -77.5 -18.5 0
v -78 -18.5 0
v -78 -18 0
v -77.5 -18 0
v -78 -18.5 0
v -78.5 -18.5 0
v -78.5 -18 0
v -78 -18 0
v -78.5 -18.5 0
v -79 -18.5 0
v -79 -18 0
v -78.5 -18 0
v -79 -18.5 0
v -79.5 -18.5 0
v -79.5 -18 0
v -79 -18 0
v -79.5 -18.5 0
v -80 -18.5 0
v -80 -18 0
v -79.5 -18 0
v -80 -18.5 0
v -80.5 -18.5 0
v -80.5 -18 0
v -80 -18 0
v -80.5 -18.5 0
v -81 -18.5 0
v -81 -18 0
v -80.5 -18 0
v -81 -18.5 0
v -81.5 -18.5 0
v -81.5 -18 0
v -81 -18 0
v -73 -19 0
v -73.5 -19 0
v -73.5 -18.5 0
v -73 -18.5 0
v -73.5 -19 0
v -74 -19 0
v -74 -18.5 0
v -73.5 -18.5 0
v -74 -19 0
v -74.5 -19 0
v -74.5 -18.5 0
v -74 -18.5 0
v -74.5 -19 0
v -75 -19 0
v -75 -18.5 0
v -74.5 -18.5 0
v -75 -19 0
v -75.5 -19 0
v -75.5 -18.5 0
v -75 -18.5 0
v -75.5 -19 0
v -76 -19 0
v -76 -18.5 0
v -75.5 -18.5 0
v -76 -19 0
v -76.5 -19 0
v -76.5 -18.5 0
v -76 -18.5 0
v -76.5 -19 0
v -77 -19 0
v -77 -18.5 0
v -76.5 -18.5 0
v -77 -19 0
v -77.5 -19 0
v -77.5 -18.5 0
v -77 -18.5 0
v -77.5 -19 0
v -78 -19 0
v -78 -18.5 0
v -77.5 -18.5 0
v -78 -19 0
v -78.5 -19 0
v -78.5 -18.5 0
v -78 -18.5 0
v -78.5 -19 0
v -79 -19 0
v -79 -18.5 0
v -78.5 -18.5 0
v -79 -19 0
v -79.5 -19 0
v -79.5 -18.5 0
v -79 -18.5 0
v -79.5 -19 0
v -80 -19 0
v -80 -18.5 0
v -79.5 -18.5 0
v -80 -19 0
v -80.5 -19 0
v -80.5 -18.5 0
v -80 -18.5 0
v -80.5 -19 0
v -81 -19 0
v -81 -18.5 0
v -80.5 -18.5 0
v -81 -19 0
v -81.5 -19 0
v -81.5 -18.5 0
v -81 -18.5 0
v -73 -19.5 0
v -73.5 -19.5 0
v -73.5 -19 0
v -73 -19 0
v -73.5 -19.5 0
v -74 -19.5 0
v -74 -19 0
v -73.5 -19 0
v -74 -19.5 0
v -74.5 -19.5 0
v -74.5 -19 0
v -74 -19 0
v -74.5 -19.5 0
v -75 -19.5 0
v -75 -19 0
v -74.5 -19 0
v -75 -19.5 0
v -75.5 -19.5 0
v -75.5 -19 0
v -75 -19 0
v -75.5 -19.5 0
v -76 -19.5 0
v -76 -19 0
v -75.5 -19 0
v -76 -19.5 0
v -76.5 -19.5 0
v -76.5 -19 0
v -76 -19 0
v -76.5 -19.5 0
v -77 -19.5 0
v -77 -19 0
v -76.5 -19 0
v -77 -19.5 0
v -77.5 -19.5 0
v -77.5 -19 0
v -77 -19 0
v -77.5 -19.5 0
v -78 -19.5 0
v -78 -19 0
v -77.5 -19 0
v -78 -19.5 0
v -78.5 -19.5 0
v -78.5 -19 0
v -78 -19 0
v -78.5 -19.5 0
v -79 -19.5 0
v -79 -19 0
v -78.5 -19 0
v -79 -19.5 0
v -79.5 -19.5 0
v -79.5 -19 0
v -79 -19 0
v -79.5 -19.5 0
v -80 -19.5 0
v -80 -19 0
v -79.5 -19 0
v -80 -19.5 0
v -80.5 -19.5 0
v -80.5 -19 0
v -80 -19 0
v -80.5 -19.5 0
v -81 -19.5 0
v -81 -19 0
v -80.5 -19 0
v -81 -19.5 0
v -81.5 -19.5 0
v -81.5 -19 0
v -81 -19 0
v -1.5 -59.5 0
v -2 -59.5 0
v -2 -59 0
v -1.5 -59 0
v -2 -59.5 0
v -2.5 -59.5 0
v -2.5 -59 0
v -2 -59 0
v -2.5 -59.5 0
v -3 -59.5 0
v -3 -59 0
v -2.5 -59 0
v -3 -59.5 0
v -3.5 -59.5 0
v -3.5 -59 0
v -3 -59 0
v -3.5 -59.5 0
v -4 -59.5 0
v -4 -59 0
v -3.5 -59 0
v -4 -59.5 0
v -4.5 -59.5 0
v -4.5 -59 0
v -4 -59 0
v -1.5 -60 0
v -2 -60 0
v -2 -59.5 0
v -1.5 -59.5 0
v -2 -60 0
v -2.5 -60 0
v -2.5 -59.5 0
v -2 -59.5 0
v -3.5 -60 0
v -4 -60 0
v -4 -59.5 0
v -3.5 -59.5 0
v -4 -60 0
v -4.5 -60 0
v -4.5 -59.5 0
v -4 -59.5 0
v -1.5 -60.5 0
v -2 -60.5 0
v -2 -60 0
v -1.5 -60 0
v -2 -60.5 0
v -2.5 -60.5 0
v -2.5 -60 0
v -2 -60 0
v -3.5 -60.5 0
v -4 -60.5 0
v -4 -60 0
v -3.5 -60 0
v -4 -60.5 0
v -4.5 -60.5 0
v -4.5 -60 0
v -4 -60 0
v -1.5 -61 0
v -2 -61 0
v -2 -60.5 0
v -1.5 -60.5 0
v -2 -61 0
v -2.5 -61 0
v -2.5 -60.5 0
v -2 -60.5 0
v -3.5 -61 0
v -4 -61 0
v -4 -60.5 0
v -3.5 -60.5 0
v -4 -61 0
v -4.5 -61 0
v -4.5 -60.5 0
v -4 -60.5 0

# Texture cooridinates (Count = 86)
vt 0.125 0.6875
vt 0.15625 0.6875
vt 0.15625 0.75
vt 0.125 0.75
vt 0.1875 0.6875
vt 0.1875 0.75
vt 0.21875 0.6875
vt 0.21875 0.75
vt 0.25 0.6875
vt 0.25 0.75
vt 0.125 0.625
vt 0.15625 0.625
vt 0.1875 0.625
vt 0.21875 0.625
vt 0.25 0.625
vt 0.125 0.5625
vt 0.15625 0.5625
vt 0.1875 0.5625
vt 0.21875 0.5625
vt 0.25 0.5625
vt 0.125 0.5
vt 0.15625 0.5
vt 0.1875 0.5
vt 0.21875 0.5
vt 0.25 0.5
vt 0.625 0.9375
vt 0.65625 0.9375
vt 0.65625 1
vt 0.625 1
vt 0.6875 0.9375
vt 0.6875 1
vt 0.71875 0.9375
vt 0.71875 1
vt 0.75 0.9375
vt 0.75 1
vt 0.625 0.875
vt 0.65625 0.875
vt 0.6875 0.875
vt 0.71875 0.875
vt 0.75 0.875
vt 0.625 0.8125
vt 0.65625 0.8125
vt 0.6875 0.8125
vt 0.71875 0.8125
vt 0.75 0.8125
vt 0.625 0.75
vt 0.65625 0.75
vt 0.6875 0.75
vt 0.71875 0.75
vt 0.75 0.75
vt 0.625 0.6875
vt 0.65625 0.6875
vt 0.6875 0.6875
vt 0.71875 0.6875
vt 0.75 0.6875
vt 0.625 0.625
vt 0.65625 0.625
vt 0.6875 0.625
vt 0.71875 0.625
vt 0.75 0.625
vt 0.625 0.5625
vt 0.65625 0.5625
vt 0.6875 0.5625
vt 0.71875 0.5625
vt 0.75 0.5625
vt 0.625 0.5
vt 0.65625 0.5
vt 0.6875 0.5
vt 0.71875 0.5
vt 0.75 0.5
vt 0.28125 0.625
vt 0.28125 0.6875
vt 0.3125 0.625
vt 0.3125 0.6875
vt 0.34375 0.625
vt 0.34375 0.6875
vt 0.375 0.625
vt 0.375 0.6875
vt 0.28125 0.5625
vt 0.3125 0.5625
vt 0.34375 0.5625
vt 0.375 0.5625
vt 0.28125 0.5
vt 0.3125 0.5
vt 0.34375 0.5
vt 0.375 0.5

# Normal
vn 0 0 -1

# Mesh description
g ciudadPrincipal_mesh_0016

# Faces
f 1/1/1 2/2/1 3/3/1 4/4/1
f 5/2/1 6/5/1 7/6/1 8/3/1
f 9/2/1 10/5/1 11/6/1 12/3/1
f 13/5/1 14/7/1 15/8/1 16/6/1
f 17/5/1 18/7/1 19/8/1 20/6/1
f 21/7/1 22/9/1 23/10/1 24/8/1
f 25/11/1 26/12/1 27/2/1 28/1/1
f 29/12/1 30/13/1 31/5/1 32/2/1
f 33/13/1 34/14/1 35/7/1 36/5/1
f 37/14/1 38/15/1 39/9/1 40/7/1
f 41/16/1 42/17/1 43/12/1 44/11/1
f 45/17/1 46/18/1 47/13/1 48/12/1
f 49/18/1 50/19/1 51/14/1 52/13/1
f 53/19/1 54/20/1 55/15/1 56/14/1
f 57/21/1 58/22/1 59/17/1 60/16/1
f 61/22/1 62/23/1 63/18/1 64/17/1
f 65/23/1 66/24/1 67/19/1 68/18/1
f 69/24/1 70/25/1 71/20/1 72/19/1
f 73/26/1 74/27/1 75/28/1 76/29/1
f 77/27/1 78/30/1 79/31/1 80/28/1
f 81/30/1 82/32/1 83/33/1 84/31/1
f 85/27/1 86/30/1 87/31/1 88/28/1
f 89/30/1 90/32/1 91/33/1 92/31/1
f 93/27/1 94/30/1 95/31/1 96/28/1
f 97/30/1 98/32/1 99/33/1 100/31/1
f 101/27/1 102/30/1 103/31/1 104/28/1
f 105/30/1 106/32/1 107/33/1 108/31/1
f 109/27/1 110/30/1 111/31/1 112/28/1
f 113/30/1 114/32/1 115/33/1 116/31/1
f 117/27/1 118/30/1 119/31/1 120/28/1
f 121/30/1 122/32/1 123/33/1 124/31/1
f 125/27/1 126/30/1 127/31/1 128/28/1
f 129/30/1 130/32/1 131/33/1 132/31/1
f 133/30/1 134/32/1 135/33/1 136/31/1
f 137/32/1 138/34/1 139/35/1 140/33/1
f 141/36/1 142/37/1 143/27/1 144/26/1
f 145/37/1 146/38/1 147/30/1 148/27/1
f 149/38/1 150/39/1 151/32/1 152/30/1
f 153/37/1 154/38/1 155/30/1 156/27/1
f 157/38/1 158/39/1 159/32/1 160/30/1
f 161/37/1 162/38/1 163/30/1 164/27/1
f 165/38/1 166/39/1 167/32/1 168/30/1
f 169/37/1 170/38/1 171/30/1 172/27/1
f 173/38/1 174/39/1 175/32/1 176/30/1
f 177/37/1 178/38/1 179/30/1 180/27/1
f 181/38/1 182/39/1 183/32/1 184/30/1
f 185/37/1 186/38/1 187/30/1 188/27/1
f 189/38/1 190/39/1 191/32/1 192/30/1
f 193/37/1 194/38/1 195/30/1 196/27/1
f 197/38/1 198/39/1 199/32/1 200/30/1
f 201/38/1 202/39/1 203/32/1 204/30/1
f 205/39/1 206/40/1 207/34/1 208/32/1
f 209/41/1 210/42/1 211/37/1 212/36/1
f 213/42/1 214/43/1 215/38/1 216/37/1
f 217/43/1 218/44/1 219/39/1 220/38/1
f 221/42/1 222/43/1 223/38/1 224/37/1
f 225/43/1 226/44/1 227/39/1 228/38/1
f 229/42/1 230/43/1 231/38/1 232/37/1
f 233/43/1 234/44/1 235/39/1 236/38/1
f 237/42/1 238/43/1 239/38/1 240/37/1
f 241/43/1 242/44/1 243/39/1 244/38/1
f 245/42/1 246/43/1 247/38/1 248/37/1
f 249/43/1 250/44/1 251/39/1 252/38/1
f 253/42/1 254/43/1 255/38/1 256/37/1
f 257/43/1 258/44/1 259/39/1 260/38/1
f 261/42/1 262/43/1 263/38/1 264/37/1
f 265/43/1 266/44/1 267/39/1 268/38/1
f 269/43/1 270/44/1 271/39/1 272/38/1
f 273/44/1 274/45/1 275/40/1 276/39/1
f 277/46/1 278/47/1 279/42/1 280/41/1
f 281/47/1 282/48/1 283/43/1 284/42/1
f 285/48/1 286/49/1 287/44/1 288/43/1
f 289/47/1 290/48/1 291/43/1 292/42/1
f 293/48/1 294/49/1 295/44/1 296/43/1
f 297/47/1 298/48/1 299/43/1 300/42/1
f 301/48/1 302/49/1 303/44/1 304/43/1
f 305/47/1 306/48/1 307/43/1 308/42/1
f 309/48/1 310/49/1 311/44/1 312/43/1
f 313/47/1 314/48/1 315/43/1 316/42/1
f 317/48/1 318/49/1 319/44/1 320/43/1
f 321/47/1 322/48/1 323/43/1 324/42/1
f 325/48/1 326/49/1 327/44/1 328/43/1
f 329/47/1 330/48/1 331/43/1 332/42/1
f 333/48/1 334/49/1 335/44/1 336/43/1
f 337/48/1 338/49/1 339/44/1 340/43/1
f 341/49/1 342/50/1 343/45/1 344/44/1
f 345/51/1 346/52/1 347/47/1 348/46/1
f 349/52/1 350/53/1 351/48/1 352/47/1
f 353/53/1 354/54/1 355/49/1 356/48/1
f 357/52/1 358/53/1 359/48/1 360/47/1
f 361/53/1 362/54/1 363/49/1 364/48/1
f 365/52/1 366/53/1 367/48/1 368/47/1
f 369/53/1 370/54/1 371/49/1 372/48/1
f 373/52/1 374/53/1 375/48/1 376/47/1
f 377/53/1 378/54/1 379/49/1 380/48/1
f 381/52/1 382/53/1 383/48/1 384/47/1
f 385/53/1 386/54/1 387/49/1 388/48/1
f 389/52/1 390/53/1 391/48/1 392/47/1
f 393/53/1 394/54/1 395/49/1 396/48/1
f 397/52/1 398/53/1 399/48/1 400/47/1
f 401/53/1 402/54/1 403/49/1 404/48/1
f 405/53/1 406/54/1 407/49/1 408/48/1
f 409/54/1 410/55/1 411/50/1 412/49/1
f 413/56/1 414/57/1 415/52/1 416/51/1
f 417/57/1 418/58/1 419/53/1 420/52/1
f 421/58/1 422/59/1 423/54/1 424/53/1
f 425/57/1 426/58/1 427/53/1 428/52/1
f 429/58/1 430/59/1 431/54/1 432/53/1
f 433/57/1 434/58/1 435/53/1 436/52/1
f 437/58/1 438/59/1 439/54/1 440/53/1
f 441/57/1 442/58/1 443/53/1 444/52/1
f 445/58/1 446/59/1 447/54/1 448/53/1
f 449/57/1 450/58/1 451/53/1 452/52/1
f 453/58/1 454/59/1 455/54/1 456/53/1
f 457/57/1 458/58/1 459/53/1 460/52/1
f 461/58/1 462/59/1 463/54/1 464/53/1
f 465/57/1 466/58/1 467/53/1 468/52/1
f 469/58/1 470/59/1 471/54/1 472/53/1
f 473/58/1 474/59/1 475/54/1 476/53/1
f 477/59/1 478/60/1 479/55/1 480/54/1
f 481/61/1 482/62/1 483/57/1 484/56/1
f 485/62/1 486/63/1 487/58/1 488/57/1
f 489/63/1 490/64/1 491/59/1 492/58/1
f 493/62/1 494/63/1 495/58/1 496/57/1
f 497/63/1 498/64/1 499/59/1 500/58/1
f 501/62/1 502/63/1 503/58/1 504/57/1
f 505/63/1 506/64/1 507/59/1 508/58/1
f 509/62/1 510/63/1 511/58/1 512/57/1
f 513/63/1 514/64/1 515/59/1 516/58/1
f 517/62/1 518/63/1 519/58/1 520/57/1
f 521/63/1 522/64/1 523/59/1 524/58/1
f 525/62/1 526/63/1 527/58/1 528/57/1
f 529/63/1 530/64/1 531/59/1 532/58/1
f 533/62/1 534/63/1 535/58/1 536/57/1
f 537/63/1 538/64/1 539/59/1 540/58/1
f 541/63/1 542/64/1 543/59/1 544/58/1
f 545/64/1 546/65/1 547/60/1 548/59/1
f 549/66/1 550/67/1 551/62/1 552/61/1
f 553/67/1 554/68/1 555/63/1 556/62/1
f 557/68/1 558/69/1 559/64/1 560/63/1
f 561/67/1 562/68/1 563/63/1 564/62/1
f 565/68/1 566/69/1 567/64/1 568/63/1
f 569/67/1 570/68/1 571/63/1 572/62/1
f 573/68/1 574/69/1 575/64/1 576/63/1
f 577/67/1 578/68/1 579/63/1 580/62/1
f 581/68/1 582/69/1 583/64/1 584/63/1
f 585/67/1 586/68/1 587/63/1 588/62/1
f 589/68/1 590/69/1 591/64/1 592/63/1
f 593/67/1 594/68/1 595/63/1 596/62/1
f 597/68/1 598/69/1 599/64/1 600/63/1
f 601/67/1 602/68/1 603/63/1 604/62/1
f 605/68/1 606/69/1 607/64/1 608/63/1
f 609/68/1 610/69/1 611/64/1 612/63/1
f 613/69/1 614/70/1 615/65/1 616/64/1
f 617/15/1 618/71/1 619/72/1 620/9/1
f 621/71/1 622/73/1 623/74/1 624/72/1
f 625/73/1 626/75/1 627/76/1 628/74/1
f 629/71/1 630/73/1 631/74/1 632/72/1
f 633/73/1 634/75/1 635/76/1 636/74/1
f 637/75/1 638/77/1 639/78/1 640/76/1
f 641/15/1 642/71/1 643/72/1 644/9/1
f 645/71/1 646/73/1 647/74/1 648/72/1
f 649/73/1 650/75/1 651/76/1 652/74/1
f 653/75/1 654/77/1 655/78/1 656/76/1
f 657/20/1 658/79/1 659/71/1 660/15/1
f 661/79/1 662/80/1 663/73/1 664/71/1
f 665/80/1 666/81/1 667/75/1 668/73/1
f 669/81/1 670/82/1 671/77/1 672/75/1
f 673/25/1 674/83/1 675/79/1 676/20/1
f 677/83/1 678/84/1 679/80/1 680/79/1
f 681/84/1 682/85/1 683/81/1 684/80/1
f 685/85/1 686/86/1 687/82/1 688/81/1

