# Tiled2Unity generated file. Do not modify by hand.
# Wavefront file for 'ciudadPrincipal_mesh_0043.obj'

# Vertices (Count = 48)
v -45.5 -24.5 0
v -46 -24.5 0
v -46 -24 0
v -45.5 -24 0
v -46 -24.5 0
v -46.5 -24.5 0
v -46.5 -24 0
v -46 -24 0
v -45.5 -25 0
v -46 -25 0
v -46 -24.5 0
v -45.5 -24.5 0
v -46 -25 0
v -46.5 -25 0
v -46.5 -24.5 0
v -46 -24.5 0
v -45 -25.5 0
v -45.5 -25.5 0
v -45.5 -25 0
v -45 -25 0
v -45.5 -25.5 0
v -46 -25.5 0
v -46 -25 0
v -45.5 -25 0
v -45 -26 0
v -45.5 -26 0
v -45.5 -25.5 0
v -45 -25.5 0
v -45.5 -26 0
v -46 -26 0
v -46 -25.5 0
v -45.5 -25.5 0
v -43 -32 0
v -43.5 -32 0
v -43.5 -31.5 0
v -43 -31.5 0
v -43.5 -32 0
v -44 -32 0
v -44 -31.5 0
v -43.5 -31.5 0
v -43 -32.5 0
v -43.5 -32.5 0
v -43.5 -32 0
v -43 -32 0
v -43.5 -32.5 0
v -44 -32.5 0
v -44 -32 0
v -43.5 -32 0

# Texture cooridinates (Count = 27)
vt 0.875 0.0403226
vt 0.9375 0.0403226
vt 0.9375 0.04838711
vt 0.875 0.04838711
vt 1 0.0403226
vt 1 0.04838711
vt 0.875 0.03225809
vt 0.9375 0.03225809
vt 1 0.03225809
vt 0.5 0.2177419
vt 0.5625 0.2177419
vt 0.5625 0.2258065
vt 0.5 0.2258065
vt 0.625 0.2177419
vt 0.625 0.2258065
vt 0.5 0.2096774
vt 0.5625 0.2096774
vt 0.625 0.2096774
vt 0.375 0.008064508
vt 0.4375 0.008064508
vt 0.4375 0.01612902
vt 0.375 0.01612902
vt 0.5 0.008064508
vt 0.5 0.01612902
vt 0.375 0
vt 0.4375 0
vt 0.5 0

# Normal
vn 0 0 -1

# Mesh description
g ciudadPrincipal_mesh_0043

# Faces
f 1/1/1 2/2/1 3/3/1 4/4/1
f 5/2/1 6/5/1 7/6/1 8/3/1
f 9/7/1 10/8/1 11/2/1 12/1/1
f 13/8/1 14/9/1 15/5/1 16/2/1
f 17/10/1 18/11/1 19/12/1 20/13/1
f 21/11/1 22/14/1 23/15/1 24/12/1
f 25/16/1 26/17/1 27/11/1 28/10/1
f 29/17/1 30/18/1 31/14/1 32/11/1
f 33/19/1 34/20/1 35/21/1 36/22/1
f 37/20/1 38/23/1 39/24/1 40/21/1
f 41/25/1 42/26/1 43/20/1 44/19/1
f 45/26/1 46/27/1 47/23/1 48/20/1

