# Tiled2Unity generated file. Do not modify by hand.
# Wavefront file for 'ciudadPrincipal_mesh_0047.obj'

# Vertices (Count = 48)
v -38.5 -39 0
v -39 -39 0
v -39 -38.5 0
v -38.5 -38.5 0
v -39 -39 0
v -39.5 -39 0
v -39.5 -38.5 0
v -39 -38.5 0
v -39.5 -39 0
v -40 -39 0
v -40 -38.5 0
v -39.5 -38.5 0
v -40 -39 0
v -40.5 -39 0
v -40.5 -38.5 0
v -40 -38.5 0
v -40.5 -39 0
v -41 -39 0
v -41 -38.5 0
v -40.5 -38.5 0
v -41 -39 0
v -41.5 -39 0
v -41.5 -38.5 0
v -41 -38.5 0
v -38.5 -39.5 0
v -39 -39.5 0
v -39 -39 0
v -38.5 -39 0
v -39 -39.5 0
v -39.5 -39.5 0
v -39.5 -39 0
v -39 -39 0
v -39.5 -39.5 0
v -40 -39.5 0
v -40 -39 0
v -39.5 -39 0
v -40 -39.5 0
v -40.5 -39.5 0
v -40.5 -39 0
v -40 -39 0
v -40.5 -39.5 0
v -41 -39.5 0
v -41 -39 0
v -40.5 -39 0
v -41 -39.5 0
v -41.5 -39.5 0
v -41.5 -39 0
v -41 -39 0

# Texture cooridinates (Count = 21)
vt 0.75 0.3888889
vt 0.8125 0.3888889
vt 0.8125 0.4444444
vt 0.75 0.4444444
vt 0.875 0.3888889
vt 0.875 0.4444444
vt 0.9375 0.3888889
vt 0.9375 0.4444444
vt 1 0.3888889
vt 1 0.4444444
vt 0.75 0.2777778
vt 0.8125 0.2777778
vt 0.8125 0.3333333
vt 0.75 0.3333333
vt 0.875 0.2777778
vt 0.875 0.3333333
vt 0.9375 0.3333333
vt 1 0.3333333
vt 0.75 0.2222222
vt 0.8125 0.2222222
vt 0.875 0.2222222

# Normal
vn 0 0 -1

# Mesh description
g ciudadPrincipal_mesh_0047

# Faces
f 1/1/1 2/2/1 3/3/1 4/4/1
f 5/2/1 6/5/1 7/6/1 8/3/1
f 9/5/1 10/7/1 11/8/1 12/6/1
f 13/7/1 14/9/1 15/10/1 16/8/1
f 17/11/1 18/12/1 19/13/1 20/14/1
f 21/12/1 22/15/1 23/16/1 24/13/1
f 25/14/1 26/13/1 27/2/1 28/1/1
f 29/13/1 30/16/1 31/5/1 32/2/1
f 33/16/1 34/17/1 35/7/1 36/5/1
f 37/17/1 38/18/1 39/9/1 40/7/1
f 41/19/1 42/20/1 43/12/1 44/11/1
f 45/20/1 46/21/1 47/15/1 48/12/1

