# Tiled2Unity generated file. Do not modify by hand.
# Wavefront file for 'ciudadPrincipal_mesh_0034.obj'

# Vertices (Count = 64)
v -42.5 -24.5 0
v -43 -24.5 0
v -43 -24 0
v -42.5 -24 0
v -43 -24.5 0
v -43.5 -24.5 0
v -43.5 -24 0
v -43 -24 0
v -42.5 -25 0
v -43 -25 0
v -43 -24.5 0
v -42.5 -24.5 0
v -43 -25 0
v -43.5 -25 0
v -43.5 -24.5 0
v -43 -24.5 0
v -42.5 -31.5 0
v -43 -31.5 0
v -43 -31 0
v -42.5 -31 0
v -43 -31.5 0
v -43.5 -31.5 0
v -43.5 -31 0
v -43 -31 0
v -45.5 -31.5 0
v -46 -31.5 0
v -46 -31 0
v -45.5 -31 0
v -46 -31.5 0
v -46.5 -31.5 0
v -46.5 -31 0
v -46 -31 0
v -42.5 -32 0
v -43 -32 0
v -43 -31.5 0
v -42.5 -31.5 0
v -43 -32 0
v -43.5 -32 0
v -43.5 -31.5 0
v -43 -31.5 0
v -44 -32 0
v -44.5 -32 0
v -44.5 -31.5 0
v -44 -31.5 0
v -44.5 -32 0
v -45 -32 0
v -45 -31.5 0
v -44.5 -31.5 0
v -45.5 -32 0
v -46 -32 0
v -46 -31.5 0
v -45.5 -31.5 0
v -46 -32 0
v -46.5 -32 0
v -46.5 -31.5 0
v -46 -31.5 0
v -44 -32.5 0
v -44.5 -32.5 0
v -44.5 -32 0
v -44 -32 0
v -44.5 -32.5 0
v -45 -32.5 0
v -45 -32 0
v -44.5 -32 0

# Texture cooridinates (Count = 30)
vt 0.5 0.2016129
vt 0.5625 0.2016129
vt 0.5625 0.2096774
vt 0.5 0.2096774
vt 0.625 0.2016129
vt 0.625 0.2096774
vt 0.5 0.1935484
vt 0.5625 0.1935484
vt 0.625 0.1935484
vt 0.375 0.008064508
vt 0.4375 0.008064508
vt 0.4375 0.01612902
vt 0.375 0.01612902
vt 0.5 0.008064508
vt 0.5 0.01612902
vt 0.25 0.008064508
vt 0.3125 0.008064508
vt 0.3125 0.01612902
vt 0.25 0.01612902
vt 0.375 0
vt 0.4375 0
vt 0.5 0
vt 0.125 0.008064508
vt 0.1875 0.008064508
vt 0.1875 0.01612902
vt 0.125 0.01612902
vt 0.25 0
vt 0.3125 0
vt 0.125 0
vt 0.1875 0

# Normal
vn 0 0 -1

# Mesh description
g ciudadPrincipal_mesh_0034

# Faces
f 1/1/1 2/2/1 3/3/1 4/4/1
f 5/2/1 6/5/1 7/6/1 8/3/1
f 9/7/1 10/8/1 11/2/1 12/1/1
f 13/8/1 14/9/1 15/5/1 16/2/1
f 17/10/1 18/11/1 19/12/1 20/13/1
f 21/11/1 22/14/1 23/15/1 24/12/1
f 25/16/1 26/17/1 27/18/1 28/19/1
f 29/17/1 30/10/1 31/13/1 32/18/1
f 33/20/1 34/21/1 35/11/1 36/10/1
f 37/21/1 38/22/1 39/14/1 40/11/1
f 41/23/1 42/24/1 43/25/1 44/26/1
f 45/24/1 46/16/1 47/19/1 48/25/1
f 49/27/1 50/28/1 51/17/1 52/16/1
f 53/28/1 54/20/1 55/10/1 56/17/1
f 57/29/1 58/30/1 59/24/1 60/23/1
f 61/30/1 62/27/1 63/16/1 64/24/1

