# Tiled2Unity generated file. Do not modify by hand.
# Wavefront file for 'ciudadPrincipal_mesh_0040.obj'

# Vertices (Count = 144)
v 0 -16.5 0
v -0.5 -16.5 0
v -0.5 -16 0
v 0 -16 0
v -0.5 -16.5 0
v -1 -16.5 0
v -1 -16 0
v -0.5 -16 0
v 0 -17 0
v -0.5 -17 0
v -0.5 -16.5 0
v 0 -16.5 0
v -0.5 -17 0
v -1 -17 0
v -1 -16.5 0
v -0.5 -16.5 0
v 0 -17.5 0
v -0.5 -17.5 0
v -0.5 -17 0
v 0 -17 0
v -0.5 -17.5 0
v -1 -17.5 0
v -1 -17 0
v -0.5 -17 0
v 0 -18 0
v -0.5 -18 0
v -0.5 -17.5 0
v 0 -17.5 0
v -0.5 -18 0
v -1 -18 0
v -1 -17.5 0
v -0.5 -17.5 0
v -12 -25 0
v -12.5 -25 0
v -12.5 -24.5 0
v -12 -24.5 0
v -12.5 -25 0
v -13 -25 0
v -13 -24.5 0
v -12.5 -24.5 0
v -13 -25 0
v -13.5 -25 0
v -13.5 -24.5 0
v -13 -24.5 0
v -13.5 -25 0
v -14 -25 0
v -14 -24.5 0
v -13.5 -24.5 0
v -14 -25 0
v -14.5 -25 0
v -14.5 -24.5 0
v -14 -24.5 0
v -14.5 -25 0
v -15 -25 0
v -15 -24.5 0
v -14.5 -24.5 0
v -12 -25.5 0
v -12.5 -25.5 0
v -12.5 -25 0
v -12 -25 0
v -12.5 -25.5 0
v -13 -25.5 0
v -13 -25 0
v -12.5 -25 0
v -13 -25.5 0
v -13.5 -25.5 0
v -13.5 -25 0
v -13 -25 0
v -13.5 -25.5 0
v -14 -25.5 0
v -14 -25 0
v -13.5 -25 0
v -14 -25.5 0
v -14.5 -25.5 0
v -14.5 -25 0
v -14 -25 0
v -14.5 -25.5 0
v -15 -25.5 0
v -15 -25 0
v -14.5 -25 0
v -43 -25.5 0
v -43.5 -25.5 0
v -43.5 -25 0
v -43 -25 0
v -43.5 -25.5 0
v -44 -25.5 0
v -44 -25 0
v -43.5 -25 0
v -43 -26 0
v -43.5 -26 0
v -43.5 -25.5 0
v -43 -25.5 0
v -43.5 -26 0
v -44 -26 0
v -44 -25.5 0
v -43.5 -25.5 0
v -36 -32 0
v -36.5 -32 0
v -36.5 -31.5 0
v -36 -31.5 0
v -36.5 -32 0
v -37 -32 0
v -37 -31.5 0
v -36.5 -31.5 0
v -37 -32 0
v -37.5 -32 0
v -37.5 -31.5 0
v -37 -31.5 0
v -37.5 -32 0
v -38 -32 0
v -38 -31.5 0
v -37.5 -31.5 0
v -36 -32.5 0
v -36.5 -32.5 0
v -36.5 -32 0
v -36 -32 0
v -36.5 -32.5 0
v -37 -32.5 0
v -37 -32 0
v -36.5 -32 0
v -37 -32.5 0
v -37.5 -32.5 0
v -37.5 -32 0
v -37 -32 0
v -37.5 -32.5 0
v -38 -32.5 0
v -38 -32 0
v -37.5 -32 0
v -36 -33 0
v -36.5 -33 0
v -36.5 -32.5 0
v -36 -32.5 0
v -36.5 -33 0
v -37 -33 0
v -37 -32.5 0
v -36.5 -32.5 0
v -37 -33 0
v -37.5 -33 0
v -37.5 -32.5 0
v -37 -32.5 0
v -37.5 -33 0
v -38 -33 0
v -38 -32.5 0
v -37.5 -32.5 0

# Texture cooridinates (Count = 44)
vt 0.625 0.21875
vt 0.65625 0.21875
vt 0.65625 0.25
vt 0.625 0.25
vt 0.6875 0.21875
vt 0.6875 0.25
vt 0.3125 0.71875
vt 0.34375 0.71875
vt 0.34375 0.75
vt 0.3125 0.75
vt 0.375 0.71875
vt 0.375 0.75
vt 0.3125 0.6875
vt 0.34375 0.6875
vt 0.375 0.6875
vt 0.5625 0.78125
vt 0.59375 0.78125
vt 0.59375 0.8125
vt 0.5625 0.8125
vt 0.625 0.78125
vt 0.625 0.8125
vt 0.5625 0.75
vt 0.59375 0.75
vt 0.625 0.75
vt 0.625 0.9375
vt 0.65625 0.9375
vt 0.65625 0.96875
vt 0.625 0.96875
vt 0.6875 0.9375
vt 0.6875 0.96875
vt 0.71875 0.9375
vt 0.71875 0.96875
vt 0.75 0.9375
vt 0.75 0.96875
vt 0.625 0.90625
vt 0.65625 0.90625
vt 0.6875 0.90625
vt 0.71875 0.90625
vt 0.75 0.90625
vt 0.625 0.875
vt 0.65625 0.875
vt 0.6875 0.875
vt 0.71875 0.875
vt 0.75 0.875

# Normal
vn 0 0 -1

# Mesh description
g ciudadPrincipal_mesh_0040

# Faces
f 1/1/1 2/2/1 3/3/1 4/4/1
f 5/2/1 6/5/1 7/6/1 8/3/1
f 9/1/1 10/2/1 11/3/1 12/4/1
f 13/2/1 14/5/1 15/6/1 16/3/1
f 17/1/1 18/2/1 19/3/1 20/4/1
f 21/2/1 22/5/1 23/6/1 24/3/1
f 25/1/1 26/2/1 27/3/1 28/4/1
f 29/2/1 30/5/1 31/6/1 32/3/1
f 33/7/1 34/8/1 35/9/1 36/10/1
f 37/8/1 38/11/1 39/12/1 40/9/1
f 41/7/1 42/8/1 43/9/1 44/10/1
f 45/8/1 46/11/1 47/12/1 48/9/1
f 49/7/1 50/8/1 51/9/1 52/10/1
f 53/8/1 54/11/1 55/12/1 56/9/1
f 57/13/1 58/14/1 59/8/1 60/7/1
f 61/14/1 62/15/1 63/11/1 64/8/1
f 65/13/1 66/14/1 67/8/1 68/7/1
f 69/14/1 70/15/1 71/11/1 72/8/1
f 73/13/1 74/14/1 75/8/1 76/7/1
f 77/14/1 78/15/1 79/11/1 80/8/1
f 81/16/1 82/17/1 83/18/1 84/19/1
f 85/17/1 86/20/1 87/21/1 88/18/1
f 89/22/1 90/23/1 91/17/1 92/16/1
f 93/23/1 94/24/1 95/20/1 96/17/1
f 97/25/1 98/26/1 99/27/1 100/28/1
f 101/26/1 102/29/1 103/30/1 104/27/1
f 105/29/1 106/31/1 107/32/1 108/30/1
f 109/31/1 110/33/1 111/34/1 112/32/1
f 113/35/1 114/36/1 115/26/1 116/25/1
f 117/36/1 118/37/1 119/29/1 120/26/1
f 121/37/1 122/38/1 123/31/1 124/29/1
f 125/38/1 126/39/1 127/33/1 128/31/1
f 129/40/1 130/41/1 131/36/1 132/35/1
f 133/41/1 134/42/1 135/37/1 136/36/1
f 137/42/1 138/43/1 139/38/1 140/37/1
f 141/43/1 142/44/1 143/39/1 144/38/1

