# Tiled2Unity generated file. Do not modify by hand.
# Wavefront file for 'ciudadPrincipal_mesh_0005.obj'

# Vertices (Count = 560)
v -6.5 -12.5 0
v -7 -12.5 0
v -7 -12 0
v -6.5 -12 0
v -7 -12.5 0
v -7.5 -12.5 0
v -7.5 -12 0
v -7 -12 0
v -7.5 -12.5 0
v -8 -12.5 0
v -8 -12 0
v -7.5 -12 0
v -8 -12.5 0
v -8.5 -12.5 0
v -8.5 -12 0
v -8 -12 0
v -8.5 -12.5 0
v -9 -12.5 0
v -9 -12 0
v -8.5 -12 0
v -9 -12.5 0
v -9.5 -12.5 0
v -9.5 -12 0
v -9 -12 0
v -9.5 -12.5 0
v -10 -12.5 0
v -10 -12 0
v -9.5 -12 0
v -10 -12.5 0
v -10.5 -12.5 0
v -10.5 -12 0
v -10 -12 0
v -10.5 -12.5 0
v -11 -12.5 0
v -11 -12 0
v -10.5 -12 0
v -11 -12.5 0
v -11.5 -12.5 0
v -11.5 -12 0
v -11 -12 0
v -11.5 -12.5 0
v -12 -12.5 0
v -12 -12 0
v -11.5 -12 0
v -12 -12.5 0
v -12.5 -12.5 0
v -12.5 -12 0
v -12 -12 0
v -12.5 -12.5 0
v -13 -12.5 0
v -13 -12 0
v -12.5 -12 0
v -13 -12.5 0
v -13.5 -12.5 0
v -13.5 -12 0
v -13 -12 0
v -13.5 -12.5 0
v -14 -12.5 0
v -14 -12 0
v -13.5 -12 0
v -6.5 -13 0
v -7 -13 0
v -7 -12.5 0
v -6.5 -12.5 0
v -7 -13 0
v -7.5 -13 0
v -7.5 -12.5 0
v -7 -12.5 0
v -7.5 -13 0
v -8 -13 0
v -8 -12.5 0
v -7.5 -12.5 0
v -8 -13 0
v -8.5 -13 0
v -8.5 -12.5 0
v -8 -12.5 0
v -8.5 -13 0
v -9 -13 0
v -9 -12.5 0
v -8.5 -12.5 0
v -9 -13 0
v -9.5 -13 0
v -9.5 -12.5 0
v -9 -12.5 0
v -9.5 -13 0
v -10 -13 0
v -10 -12.5 0
v -9.5 -12.5 0
v -10 -13 0
v -10.5 -13 0
v -10.5 -12.5 0
v -10 -12.5 0
v -10.5 -13 0
v -11 -13 0
v -11 -12.5 0
v -10.5 -12.5 0
v -11 -13 0
v -11.5 -13 0
v -11.5 -12.5 0
v -11 -12.5 0
v -11.5 -13 0
v -12 -13 0
v -12 -12.5 0
v -11.5 -12.5 0
v -12 -13 0
v -12.5 -13 0
v -12.5 -12.5 0
v -12 -12.5 0
v -12.5 -13 0
v -13 -13 0
v -13 -12.5 0
v -12.5 -12.5 0
v -13 -13 0
v -13.5 -13 0
v -13.5 -12.5 0
v -13 -12.5 0
v -13.5 -13 0
v -14 -13 0
v -14 -12.5 0
v -13.5 -12.5 0
v -6.5 -13.5 0
v -7 -13.5 0
v -7 -13 0
v -6.5 -13 0
v -7 -13.5 0
v -7.5 -13.5 0
v -7.5 -13 0
v -7 -13 0
v -7.5 -13.5 0
v -8 -13.5 0
v -8 -13 0
v -7.5 -13 0
v -8 -13.5 0
v -8.5 -13.5 0
v -8.5 -13 0
v -8 -13 0
v -8.5 -13.5 0
v -9 -13.5 0
v -9 -13 0
v -8.5 -13 0
v -9 -13.5 0
v -9.5 -13.5 0
v -9.5 -13 0
v -9 -13 0
v -9.5 -13.5 0
v -10 -13.5 0
v -10 -13 0
v -9.5 -13 0
v -10 -13.5 0
v -10.5 -13.5 0
v -10.5 -13 0
v -10 -13 0
v -10.5 -13.5 0
v -11 -13.5 0
v -11 -13 0
v -10.5 -13 0
v -11 -13.5 0
v -11.5 -13.5 0
v -11.5 -13 0
v -11 -13 0
v -11.5 -13.5 0
v -12 -13.5 0
v -12 -13 0
v -11.5 -13 0
v -12 -13.5 0
v -12.5 -13.5 0
v -12.5 -13 0
v -12 -13 0
v -12.5 -13.5 0
v -13 -13.5 0
v -13 -13 0
v -12.5 -13 0
v -13 -13.5 0
v -13.5 -13.5 0
v -13.5 -13 0
v -13 -13 0
v -13.5 -13.5 0
v -14 -13.5 0
v -14 -13 0
v -13.5 -13 0
v -6.5 -14 0
v -7 -14 0
v -7 -13.5 0
v -6.5 -13.5 0
v -7 -14 0
v -7.5 -14 0
v -7.5 -13.5 0
v -7 -13.5 0
v -7.5 -14 0
v -8 -14 0
v -8 -13.5 0
v -7.5 -13.5 0
v -8 -14 0
v -8.5 -14 0
v -8.5 -13.5 0
v -8 -13.5 0
v -8.5 -14 0
v -9 -14 0
v -9 -13.5 0
v -8.5 -13.5 0
v -9 -14 0
v -9.5 -14 0
v -9.5 -13.5 0
v -9 -13.5 0
v -9.5 -14 0
v -10 -14 0
v -10 -13.5 0
v -9.5 -13.5 0
v -10 -14 0
v -10.5 -14 0
v -10.5 -13.5 0
v -10 -13.5 0
v -10.5 -14 0
v -11 -14 0
v -11 -13.5 0
v -10.5 -13.5 0
v -11 -14 0
v -11.5 -14 0
v -11.5 -13.5 0
v -11 -13.5 0
v -11.5 -14 0
v -12 -14 0
v -12 -13.5 0
v -11.5 -13.5 0
v -12 -14 0
v -12.5 -14 0
v -12.5 -13.5 0
v -12 -13.5 0
v -12.5 -14 0
v -13 -14 0
v -13 -13.5 0
v -12.5 -13.5 0
v -13 -14 0
v -13.5 -14 0
v -13.5 -13.5 0
v -13 -13.5 0
v -13.5 -14 0
v -14 -14 0
v -14 -13.5 0
v -13.5 -13.5 0
v -20.5 -40 0
v -21 -40 0
v -21 -39.5 0
v -20.5 -39.5 0
v -21 -40 0
v -21.5 -40 0
v -21.5 -39.5 0
v -21 -39.5 0
v -21.5 -40 0
v -22 -40 0
v -22 -39.5 0
v -21.5 -39.5 0
v -22 -40 0
v -22.5 -40 0
v -22.5 -39.5 0
v -22 -39.5 0
v -22.5 -40 0
v -23 -40 0
v -23 -39.5 0
v -22.5 -39.5 0
v -23 -40 0
v -23.5 -40 0
v -23.5 -39.5 0
v -23 -39.5 0
v -23.5 -40 0
v -24 -40 0
v -24 -39.5 0
v -23.5 -39.5 0
v -24 -40 0
v -24.5 -40 0
v -24.5 -39.5 0
v -24 -39.5 0
v -24.5 -40 0
v -25 -40 0
v -25 -39.5 0
v -24.5 -39.5 0
v -25 -40 0
v -25.5 -40 0
v -25.5 -39.5 0
v -25 -39.5 0
v -25.5 -40 0
v -26 -40 0
v -26 -39.5 0
v -25.5 -39.5 0
v -26 -40 0
v -26.5 -40 0
v -26.5 -39.5 0
v -26 -39.5 0
v -26.5 -40 0
v -27 -40 0
v -27 -39.5 0
v -26.5 -39.5 0
v -27 -40 0
v -27.5 -40 0
v -27.5 -39.5 0
v -27 -39.5 0
v -27.5 -40 0
v -28 -40 0
v -28 -39.5 0
v -27.5 -39.5 0
v -28 -40 0
v -28.5 -40 0
v -28.5 -39.5 0
v -28 -39.5 0
v -20.5 -40.5 0
v -21 -40.5 0
v -21 -40 0
v -20.5 -40 0
v -21 -40.5 0
v -21.5 -40.5 0
v -21.5 -40 0
v -21 -40 0
v -21.5 -40.5 0
v -22 -40.5 0
v -22 -40 0
v -21.5 -40 0
v -22 -40.5 0
v -22.5 -40.5 0
v -22.5 -40 0
v -22 -40 0
v -22.5 -40.5 0
v -23 -40.5 0
v -23 -40 0
v -22.5 -40 0
v -23 -40.5 0
v -23.5 -40.5 0
v -23.5 -40 0
v -23 -40 0
v -23.5 -40.5 0
v -24 -40.5 0
v -24 -40 0
v -23.5 -40 0
v -24 -40.5 0
v -24.5 -40.5 0
v -24.5 -40 0
v -24 -40 0
v -24.5 -40.5 0
v -25 -40.5 0
v -25 -40 0
v -24.5 -40 0
v -25 -40.5 0
v -25.5 -40.5 0
v -25.5 -40 0
v -25 -40 0
v -25.5 -40.5 0
v -26 -40.5 0
v -26 -40 0
v -25.5 -40 0
v -26 -40.5 0
v -26.5 -40.5 0
v -26.5 -40 0
v -26 -40 0
v -26.5 -40.5 0
v -27 -40.5 0
v -27 -40 0
v -26.5 -40 0
v -27 -40.5 0
v -27.5 -40.5 0
v -27.5 -40 0
v -27 -40 0
v -27.5 -40.5 0
v -28 -40.5 0
v -28 -40 0
v -27.5 -40 0
v -28 -40.5 0
v -28.5 -40.5 0
v -28.5 -40 0
v -28 -40 0
v -20.5 -41 0
v -21 -41 0
v -21 -40.5 0
v -20.5 -40.5 0
v -21 -41 0
v -21.5 -41 0
v -21.5 -40.5 0
v -21 -40.5 0
v -21.5 -41 0
v -22 -41 0
v -22 -40.5 0
v -21.5 -40.5 0
v -22 -41 0
v -22.5 -41 0
v -22.5 -40.5 0
v -22 -40.5 0
v -22.5 -41 0
v -23 -41 0
v -23 -40.5 0
v -22.5 -40.5 0
v -23 -41 0
v -23.5 -41 0
v -23.5 -40.5 0
v -23 -40.5 0
v -23.5 -41 0
v -24 -41 0
v -24 -40.5 0
v -23.5 -40.5 0
v -24 -41 0
v -24.5 -41 0
v -24.5 -40.5 0
v -24 -40.5 0
v -24.5 -41 0
v -25 -41 0
v -25 -40.5 0
v -24.5 -40.5 0
v -25 -41 0
v -25.5 -41 0
v -25.5 -40.5 0
v -25 -40.5 0
v -25.5 -41 0
v -26 -41 0
v -26 -40.5 0
v -25.5 -40.5 0
v -26 -41 0
v -26.5 -41 0
v -26.5 -40.5 0
v -26 -40.5 0
v -26.5 -41 0
v -27 -41 0
v -27 -40.5 0
v -26.5 -40.5 0
v -27 -41 0
v -27.5 -41 0
v -27.5 -40.5 0
v -27 -40.5 0
v -27.5 -41 0
v -28 -41 0
v -28 -40.5 0
v -27.5 -40.5 0
v -28 -41 0
v -28.5 -41 0
v -28.5 -40.5 0
v -28 -40.5 0
v -20.5 -41.5 0
v -21 -41.5 0
v -21 -41 0
v -20.5 -41 0
v -21 -41.5 0
v -21.5 -41.5 0
v -21.5 -41 0
v -21 -41 0
v -21.5 -41.5 0
v -22 -41.5 0
v -22 -41 0
v -21.5 -41 0
v -22 -41.5 0
v -22.5 -41.5 0
v -22.5 -41 0
v -22 -41 0
v -22.5 -41.5 0
v -23 -41.5 0
v -23 -41 0
v -22.5 -41 0
v -23 -41.5 0
v -23.5 -41.5 0
v -23.5 -41 0
v -23 -41 0
v -23.5 -41.5 0
v -24 -41.5 0
v -24 -41 0
v -23.5 -41 0
v -24 -41.5 0
v -24.5 -41.5 0
v -24.5 -41 0
v -24 -41 0
v -24.5 -41.5 0
v -25 -41.5 0
v -25 -41 0
v -24.5 -41 0
v -25 -41.5 0
v -25.5 -41.5 0
v -25.5 -41 0
v -25 -41 0
v -25.5 -41.5 0
v -26 -41.5 0
v -26 -41 0
v -25.5 -41 0
v -26 -41.5 0
v -26.5 -41.5 0
v -26.5 -41 0
v -26 -41 0
v -26.5 -41.5 0
v -27 -41.5 0
v -27 -41 0
v -26.5 -41 0
v -27 -41.5 0
v -27.5 -41.5 0
v -27.5 -41 0
v -27 -41 0
v -27.5 -41.5 0
v -28 -41.5 0
v -28 -41 0
v -27.5 -41 0
v -28 -41.5 0
v -28.5 -41.5 0
v -28.5 -41 0
v -28 -41 0
v -20.5 -42 0
v -21 -42 0
v -21 -41.5 0
v -20.5 -41.5 0
v -21 -42 0
v -21.5 -42 0
v -21.5 -41.5 0
v -21 -41.5 0
v -21.5 -42 0
v -22 -42 0
v -22 -41.5 0
v -21.5 -41.5 0
v -22 -42 0
v -22.5 -42 0
v -22.5 -41.5 0
v -22 -41.5 0
v -22.5 -42 0
v -23 -42 0
v -23 -41.5 0
v -22.5 -41.5 0
v -23 -42 0
v -23.5 -42 0
v -23.5 -41.5 0
v -23 -41.5 0
v -23.5 -42 0
v -24 -42 0
v -24 -41.5 0
v -23.5 -41.5 0
v -24 -42 0
v -24.5 -42 0
v -24.5 -41.5 0
v -24 -41.5 0
v -24.5 -42 0
v -25 -42 0
v -25 -41.5 0
v -24.5 -41.5 0
v -25 -42 0
v -25.5 -42 0
v -25.5 -41.5 0
v -25 -41.5 0
v -25.5 -42 0
v -26 -42 0
v -26 -41.5 0
v -25.5 -41.5 0
v -26 -42 0
v -26.5 -42 0
v -26.5 -41.5 0
v -26 -41.5 0
v -26.5 -42 0
v -27 -42 0
v -27 -41.5 0
v -26.5 -41.5 0
v -27 -42 0
v -27.5 -42 0
v -27.5 -41.5 0
v -27 -41.5 0
v -27.5 -42 0
v -28 -42 0
v -28 -41.5 0
v -27.5 -41.5 0
v -28 -42 0
v -28.5 -42 0
v -28.5 -41.5 0
v -28 -41.5 0

# Texture cooridinates (Count = 27)
vt 0.15625 0.6875
vt 0.1875 0.6875
vt 0.1875 0.75
vt 0.15625 0.75
vt 0.21875 0.6875
vt 0.21875 0.75
vt 0.15625 0.625
vt 0.1875 0.625
vt 0.21875 0.625
vt 0.15625 0.5625
vt 0.1875 0.5625
vt 0.21875 0.5625
vt 0.15625 0.5
vt 0.1875 0.5
vt 0.21875 0.5
vt 0.40625 0.625
vt 0.4375 0.625
vt 0.4375 0.6875
vt 0.40625 0.6875
vt 0.46875 0.625
vt 0.46875 0.6875
vt 0.40625 0.5625
vt 0.4375 0.5625
vt 0.46875 0.5625
vt 0.40625 0.5
vt 0.4375 0.5
vt 0.46875 0.5

# Normal
vn 0 0 -1

# Mesh description
g ciudadPrincipal_mesh_0005

# Faces
f 1/1/1 2/2/1 3/3/1 4/4/1
f 5/1/1 6/2/1 7/3/1 8/4/1
f 9/1/1 10/2/1 11/3/1 12/4/1
f 13/1/1 14/2/1 15/3/1 16/4/1
f 17/1/1 18/2/1 19/3/1 20/4/1
f 21/1/1 22/2/1 23/3/1 24/4/1
f 25/1/1 26/2/1 27/3/1 28/4/1
f 29/1/1 30/2/1 31/3/1 32/4/1
f 33/1/1 34/2/1 35/3/1 36/4/1
f 37/1/1 38/2/1 39/3/1 40/4/1
f 41/1/1 42/2/1 43/3/1 44/4/1
f 45/1/1 46/2/1 47/3/1 48/4/1
f 49/1/1 50/2/1 51/3/1 52/4/1
f 53/1/1 54/2/1 55/3/1 56/4/1
f 57/2/1 58/5/1 59/6/1 60/3/1
f 61/7/1 62/8/1 63/2/1 64/1/1
f 65/7/1 66/8/1 67/2/1 68/1/1
f 69/7/1 70/8/1 71/2/1 72/1/1
f 73/7/1 74/8/1 75/2/1 76/1/1
f 77/7/1 78/8/1 79/2/1 80/1/1
f 81/7/1 82/8/1 83/2/1 84/1/1
f 85/7/1 86/8/1 87/2/1 88/1/1
f 89/7/1 90/8/1 91/2/1 92/1/1
f 93/7/1 94/8/1 95/2/1 96/1/1
f 97/7/1 98/8/1 99/2/1 100/1/1
f 101/7/1 102/8/1 103/2/1 104/1/1
f 105/7/1 106/8/1 107/2/1 108/1/1
f 109/7/1 110/8/1 111/2/1 112/1/1
f 113/7/1 114/8/1 115/2/1 116/1/1
f 117/8/1 118/9/1 119/5/1 120/2/1
f 121/10/1 122/11/1 123/8/1 124/7/1
f 125/10/1 126/11/1 127/8/1 128/7/1
f 129/10/1 130/11/1 131/8/1 132/7/1
f 133/10/1 134/11/1 135/8/1 136/7/1
f 137/10/1 138/11/1 139/8/1 140/7/1
f 141/10/1 142/11/1 143/8/1 144/7/1
f 145/10/1 146/11/1 147/8/1 148/7/1
f 149/10/1 150/11/1 151/8/1 152/7/1
f 153/10/1 154/11/1 155/8/1 156/7/1
f 157/10/1 158/11/1 159/8/1 160/7/1
f 161/10/1 162/11/1 163/8/1 164/7/1
f 165/10/1 166/11/1 167/8/1 168/7/1
f 169/10/1 170/11/1 171/8/1 172/7/1
f 173/10/1 174/11/1 175/8/1 176/7/1
f 177/11/1 178/12/1 179/9/1 180/8/1
f 181/13/1 182/14/1 183/11/1 184/10/1
f 185/13/1 186/14/1 187/11/1 188/10/1
f 189/13/1 190/14/1 191/11/1 192/10/1
f 193/13/1 194/14/1 195/11/1 196/10/1
f 197/13/1 198/14/1 199/11/1 200/10/1
f 201/13/1 202/14/1 203/11/1 204/10/1
f 205/13/1 206/14/1 207/11/1 208/10/1
f 209/13/1 210/14/1 211/11/1 212/10/1
f 213/13/1 214/14/1 215/11/1 216/10/1
f 217/13/1 218/14/1 219/11/1 220/10/1
f 221/13/1 222/14/1 223/11/1 224/10/1
f 225/13/1 226/14/1 227/11/1 228/10/1
f 229/13/1 230/14/1 231/11/1 232/10/1
f 233/13/1 234/14/1 235/11/1 236/10/1
f 237/14/1 238/15/1 239/12/1 240/11/1
f 241/16/1 242/17/1 243/18/1 244/19/1
f 245/17/1 246/20/1 247/21/1 248/18/1
f 249/16/1 250/17/1 251/18/1 252/19/1
f 253/17/1 254/20/1 255/21/1 256/18/1
f 257/16/1 258/17/1 259/18/1 260/19/1
f 261/17/1 262/20/1 263/21/1 264/18/1
f 265/16/1 266/17/1 267/18/1 268/19/1
f 269/17/1 270/20/1 271/21/1 272/18/1
f 273/16/1 274/17/1 275/18/1 276/19/1
f 277/17/1 278/20/1 279/21/1 280/18/1
f 281/16/1 282/17/1 283/18/1 284/19/1
f 285/17/1 286/20/1 287/21/1 288/18/1
f 289/16/1 290/17/1 291/18/1 292/19/1
f 293/16/1 294/17/1 295/18/1 296/19/1
f 297/16/1 298/17/1 299/18/1 300/19/1
f 301/17/1 302/20/1 303/21/1 304/18/1
f 305/16/1 306/17/1 307/18/1 308/19/1
f 309/17/1 310/20/1 311/21/1 312/18/1
f 313/16/1 314/17/1 315/18/1 316/19/1
f 317/17/1 318/20/1 319/21/1 320/18/1
f 321/16/1 322/17/1 323/18/1 324/19/1
f 325/17/1 326/20/1 327/21/1 328/18/1
f 329/16/1 330/17/1 331/18/1 332/19/1
f 333/17/1 334/20/1 335/21/1 336/18/1
f 337/16/1 338/17/1 339/18/1 340/19/1
f 341/17/1 342/20/1 343/21/1 344/18/1
f 345/16/1 346/17/1 347/18/1 348/19/1
f 349/17/1 350/20/1 351/21/1 352/18/1
f 353/16/1 354/17/1 355/18/1 356/19/1
f 357/17/1 358/20/1 359/21/1 360/18/1
f 361/16/1 362/17/1 363/18/1 364/19/1
f 365/17/1 366/20/1 367/21/1 368/18/1
f 369/16/1 370/17/1 371/18/1 372/19/1
f 373/17/1 374/20/1 375/21/1 376/18/1
f 377/16/1 378/17/1 379/18/1 380/19/1
f 381/17/1 382/20/1 383/21/1 384/18/1
f 385/16/1 386/17/1 387/18/1 388/19/1
f 389/17/1 390/20/1 391/21/1 392/18/1
f 393/16/1 394/17/1 395/18/1 396/19/1
f 397/17/1 398/20/1 399/21/1 400/18/1
f 401/16/1 402/17/1 403/18/1 404/19/1
f 405/17/1 406/20/1 407/21/1 408/18/1
f 409/16/1 410/17/1 411/18/1 412/19/1
f 413/17/1 414/20/1 415/21/1 416/18/1
f 417/16/1 418/17/1 419/18/1 420/19/1
f 421/17/1 422/20/1 423/21/1 424/18/1
f 425/16/1 426/17/1 427/18/1 428/19/1
f 429/17/1 430/20/1 431/21/1 432/18/1
f 433/22/1 434/23/1 435/17/1 436/16/1
f 437/23/1 438/24/1 439/20/1 440/17/1
f 441/22/1 442/23/1 443/17/1 444/16/1
f 445/23/1 446/24/1 447/20/1 448/17/1
f 449/22/1 450/23/1 451/17/1 452/16/1
f 453/23/1 454/24/1 455/20/1 456/17/1
f 457/22/1 458/23/1 459/17/1 460/16/1
f 461/23/1 462/24/1 463/20/1 464/17/1
f 465/22/1 466/23/1 467/17/1 468/16/1
f 469/23/1 470/24/1 471/20/1 472/17/1
f 473/22/1 474/23/1 475/17/1 476/16/1
f 477/23/1 478/24/1 479/20/1 480/17/1
f 481/22/1 482/23/1 483/17/1 484/16/1
f 485/23/1 486/24/1 487/20/1 488/17/1
f 489/22/1 490/23/1 491/17/1 492/16/1
f 493/23/1 494/24/1 495/20/1 496/17/1
f 497/25/1 498/26/1 499/23/1 500/22/1
f 501/26/1 502/27/1 503/24/1 504/23/1
f 505/25/1 506/26/1 507/23/1 508/22/1
f 509/26/1 510/27/1 511/24/1 512/23/1
f 513/25/1 514/26/1 515/23/1 516/22/1
f 517/26/1 518/27/1 519/24/1 520/23/1
f 521/25/1 522/26/1 523/23/1 524/22/1
f 525/26/1 526/27/1 527/24/1 528/23/1
f 529/25/1 530/26/1 531/23/1 532/22/1
f 533/26/1 534/27/1 535/24/1 536/23/1
f 537/25/1 538/26/1 539/23/1 540/22/1
f 541/26/1 542/27/1 543/24/1 544/23/1
f 545/25/1 546/26/1 547/23/1 548/22/1
f 549/26/1 550/27/1 551/24/1 552/23/1
f 553/25/1 554/26/1 555/23/1 556/22/1
f 557/26/1 558/27/1 559/24/1 560/23/1

