# Tiled2Unity generated file. Do not modify by hand.
# Wavefront file for 'ciudadPrincipal_mesh_0010.obj'

# Vertices (Count = 620)
v -90.5 -50 0
v -91 -50 0
v -91 -49.5 0
v -90.5 -49.5 0
v -91 -50 0
v -91.5 -50 0
v -91.5 -49.5 0
v -91 -49.5 0
v -91.5 -50 0
v -92 -50 0
v -92 -49.5 0
v -91.5 -49.5 0
v -92 -50 0
v -92.5 -50 0
v -92.5 -49.5 0
v -92 -49.5 0
v -92.5 -50 0
v -93 -50 0
v -93 -49.5 0
v -92.5 -49.5 0
v -93 -50 0
v -93.5 -50 0
v -93.5 -49.5 0
v -93 -49.5 0
v -93.5 -50 0
v -94 -50 0
v -94 -49.5 0
v -93.5 -49.5 0
v -94 -50 0
v -94.5 -50 0
v -94.5 -49.5 0
v -94 -49.5 0
v -94.5 -50 0
v -95 -50 0
v -95 -49.5 0
v -94.5 -49.5 0
v -95 -50 0
v -95.5 -50 0
v -95.5 -49.5 0
v -95 -49.5 0
v -95.5 -50 0
v -96 -50 0
v -96 -49.5 0
v -95.5 -49.5 0
v -96 -50 0
v -96.5 -50 0
v -96.5 -49.5 0
v -96 -49.5 0
v -96.5 -50 0
v -97 -50 0
v -97 -49.5 0
v -96.5 -49.5 0
v -97 -50 0
v -97.5 -50 0
v -97.5 -49.5 0
v -97 -49.5 0
v -90.5 -50.5 0
v -91 -50.5 0
v -91 -50 0
v -90.5 -50 0
v -91 -50.5 0
v -91.5 -50.5 0
v -91.5 -50 0
v -91 -50 0
v -91.5 -50.5 0
v -92 -50.5 0
v -92 -50 0
v -91.5 -50 0
v -92 -50.5 0
v -92.5 -50.5 0
v -92.5 -50 0
v -92 -50 0
v -92.5 -50.5 0
v -93 -50.5 0
v -93 -50 0
v -92.5 -50 0
v -93 -50.5 0
v -93.5 -50.5 0
v -93.5 -50 0
v -93 -50 0
v -93.5 -50.5 0
v -94 -50.5 0
v -94 -50 0
v -93.5 -50 0
v -94 -50.5 0
v -94.5 -50.5 0
v -94.5 -50 0
v -94 -50 0
v -94.5 -50.5 0
v -95 -50.5 0
v -95 -50 0
v -94.5 -50 0
v -95 -50.5 0
v -95.5 -50.5 0
v -95.5 -50 0
v -95 -50 0
v -95.5 -50.5 0
v -96 -50.5 0
v -96 -50 0
v -95.5 -50 0
v -96 -50.5 0
v -96.5 -50.5 0
v -96.5 -50 0
v -96 -50 0
v -96.5 -50.5 0
v -97 -50.5 0
v -97 -50 0
v -96.5 -50 0
v -97 -50.5 0
v -97.5 -50.5 0
v -97.5 -50 0
v -97 -50 0
v -92 -51.5 0
v -92.5 -51.5 0
v -92.5 -51 0
v -92 -51 0
v -92.5 -51.5 0
v -93 -51.5 0
v -93 -51 0
v -92.5 -51 0
v -93 -51.5 0
v -93.5 -51.5 0
v -93.5 -51 0
v -93 -51 0
v -93.5 -51.5 0
v -94 -51.5 0
v -94 -51 0
v -93.5 -51 0
v -94 -51.5 0
v -94.5 -51.5 0
v -94.5 -51 0
v -94 -51 0
v -94.5 -51.5 0
v -95 -51.5 0
v -95 -51 0
v -94.5 -51 0
v -95 -51.5 0
v -95.5 -51.5 0
v -95.5 -51 0
v -95 -51 0
v -95.5 -51.5 0
v -96 -51.5 0
v -96 -51 0
v -95.5 -51 0
v -96 -51.5 0
v -96.5 -51.5 0
v -96.5 -51 0
v -96 -51 0
v -96.5 -51.5 0
v -97 -51.5 0
v -97 -51 0
v -96.5 -51 0
v -97 -51.5 0
v -97.5 -51.5 0
v -97.5 -51 0
v -97 -51 0
v -97.5 -51.5 0
v -98 -51.5 0
v -98 -51 0
v -97.5 -51 0
v -98 -51.5 0
v -98.5 -51.5 0
v -98.5 -51 0
v -98 -51 0
v -98.5 -51.5 0
v -99 -51.5 0
v -99 -51 0
v -98.5 -51 0
v -99 -51.5 0
v -99.5 -51.5 0
v -99.5 -51 0
v -99 -51 0
v -99.5 -51.5 0
v -100 -51.5 0
v -100 -51 0
v -99.5 -51 0
v -92 -52 0
v -92.5 -52 0
v -92.5 -51.5 0
v -92 -51.5 0
v -92.5 -52 0
v -93 -52 0
v -93 -51.5 0
v -92.5 -51.5 0
v -93 -52 0
v -93.5 -52 0
v -93.5 -51.5 0
v -93 -51.5 0
v -93.5 -52 0
v -94 -52 0
v -94 -51.5 0
v -93.5 -51.5 0
v -94 -52 0
v -94.5 -52 0
v -94.5 -51.5 0
v -94 -51.5 0
v -94.5 -52 0
v -95 -52 0
v -95 -51.5 0
v -94.5 -51.5 0
v -95 -52 0
v -95.5 -52 0
v -95.5 -51.5 0
v -95 -51.5 0
v -95.5 -52 0
v -96 -52 0
v -96 -51.5 0
v -95.5 -51.5 0
v -96 -52 0
v -96.5 -52 0
v -96.5 -51.5 0
v -96 -51.5 0
v -96.5 -52 0
v -97 -52 0
v -97 -51.5 0
v -96.5 -51.5 0
v -97 -52 0
v -97.5 -52 0
v -97.5 -51.5 0
v -97 -51.5 0
v -97.5 -52 0
v -98 -52 0
v -98 -51.5 0
v -97.5 -51.5 0
v -98 -52 0
v -98.5 -52 0
v -98.5 -51.5 0
v -98 -51.5 0
v -98.5 -52 0
v -99 -52 0
v -99 -51.5 0
v -98.5 -51.5 0
v -99 -52 0
v -99.5 -52 0
v -99.5 -51.5 0
v -99 -51.5 0
v -99.5 -52 0
v -100 -52 0
v -100 -51.5 0
v -99.5 -51.5 0
v -85 -55 0
v -85.5 -55 0
v -85.5 -54.5 0
v -85 -54.5 0
v -85.5 -55 0
v -86 -55 0
v -86 -54.5 0
v -85.5 -54.5 0
v -86 -55 0
v -86.5 -55 0
v -86.5 -54.5 0
v -86 -54.5 0
v -86.5 -55 0
v -87 -55 0
v -87 -54.5 0
v -86.5 -54.5 0
v -87 -55 0
v -87.5 -55 0
v -87.5 -54.5 0
v -87 -54.5 0
v -87.5 -55 0
v -88 -55 0
v -88 -54.5 0
v -87.5 -54.5 0
v -88 -55 0
v -88.5 -55 0
v -88.5 -54.5 0
v -88 -54.5 0
v -88.5 -55 0
v -89 -55 0
v -89 -54.5 0
v -88.5 -54.5 0
v -89 -55 0
v -89.5 -55 0
v -89.5 -54.5 0
v -89 -54.5 0
v -89.5 -55 0
v -90 -55 0
v -90 -54.5 0
v -89.5 -54.5 0
v -90 -55 0
v -90.5 -55 0
v -90.5 -54.5 0
v -90 -54.5 0
v -90.5 -55 0
v -91 -55 0
v -91 -54.5 0
v -90.5 -54.5 0
v -91 -55 0
v -91.5 -55 0
v -91.5 -54.5 0
v -91 -54.5 0
v -91.5 -55 0
v -92 -55 0
v -92 -54.5 0
v -91.5 -54.5 0
v -86 -55.5 0
v -86.5 -55.5 0
v -86.5 -55 0
v -86 -55 0
v -86.5 -55.5 0
v -87 -55.5 0
v -87 -55 0
v -86.5 -55 0
v -92 -55.5 0
v -92.5 -55.5 0
v -92.5 -55 0
v -92 -55 0
v -92.5 -55.5 0
v -93 -55.5 0
v -93 -55 0
v -92.5 -55 0
v -92 -56 0
v -92.5 -56 0
v -92.5 -55.5 0
v -92 -55.5 0
v -92.5 -56 0
v -93 -56 0
v -93 -55.5 0
v -92.5 -55.5 0
v -92 -56.5 0
v -92.5 -56.5 0
v -92.5 -56 0
v -92 -56 0
v -92.5 -56.5 0
v -93 -56.5 0
v -93 -56 0
v -92.5 -56 0
v -92 -57 0
v -92.5 -57 0
v -92.5 -56.5 0
v -92 -56.5 0
v -92.5 -57 0
v -93 -57 0
v -93 -56.5 0
v -92.5 -56.5 0
v -91 -57.5 0
v -91.5 -57.5 0
v -91.5 -57 0
v -91 -57 0
v -91.5 -57.5 0
v -92 -57.5 0
v -92 -57 0
v -91.5 -57 0
v -92 -57.5 0
v -92.5 -57.5 0
v -92.5 -57 0
v -92 -57 0
v -92.5 -57.5 0
v -93 -57.5 0
v -93 -57 0
v -92.5 -57 0
v -93 -57.5 0
v -93.5 -57.5 0
v -93.5 -57 0
v -93 -57 0
v -93.5 -57.5 0
v -94 -57.5 0
v -94 -57 0
v -93.5 -57 0
v -94 -57.5 0
v -94.5 -57.5 0
v -94.5 -57 0
v -94 -57 0
v -94.5 -57.5 0
v -95 -57.5 0
v -95 -57 0
v -94.5 -57 0
v -95 -57.5 0
v -95.5 -57.5 0
v -95.5 -57 0
v -95 -57 0
v -95.5 -57.5 0
v -96 -57.5 0
v -96 -57 0
v -95.5 -57 0
v -96 -57.5 0
v -96.5 -57.5 0
v -96.5 -57 0
v -96 -57 0
v -96.5 -57.5 0
v -97 -57.5 0
v -97 -57 0
v -96.5 -57 0
v -97 -57.5 0
v -97.5 -57.5 0
v -97.5 -57 0
v -97 -57 0
v -97.5 -57.5 0
v -98 -57.5 0
v -98 -57 0
v -97.5 -57 0
v -82 -58 0
v -82.5 -58 0
v -82.5 -57.5 0
v -82 -57.5 0
v -82.5 -58 0
v -83 -58 0
v -83 -57.5 0
v -82.5 -57.5 0
v -83 -58 0
v -83.5 -58 0
v -83.5 -57.5 0
v -83 -57.5 0
v -83.5 -58 0
v -84 -58 0
v -84 -57.5 0
v -83.5 -57.5 0
v -84 -58 0
v -84.5 -58 0
v -84.5 -57.5 0
v -84 -57.5 0
v -84.5 -58 0
v -85 -58 0
v -85 -57.5 0
v -84.5 -57.5 0
v -85 -58 0
v -85.5 -58 0
v -85.5 -57.5 0
v -85 -57.5 0
v -85.5 -58 0
v -86 -58 0
v -86 -57.5 0
v -85.5 -57.5 0
v -91 -58 0
v -91.5 -58 0
v -91.5 -57.5 0
v -91 -57.5 0
v -91.5 -58 0
v -92 -58 0
v -92 -57.5 0
v -91.5 -57.5 0
v -82 -58.5 0
v -82.5 -58.5 0
v -82.5 -58 0
v -82 -58 0
v -82.5 -58.5 0
v -83 -58.5 0
v -83 -58 0
v -82.5 -58 0
v -91 -58.5 0
v -91.5 -58.5 0
v -91.5 -58 0
v -91 -58 0
v -91.5 -58.5 0
v -92 -58.5 0
v -92 -58 0
v -91.5 -58 0
v -87 -59.5 0
v -87.5 -59.5 0
v -87.5 -59 0
v -87 -59 0
v -87.5 -59.5 0
v -88 -59.5 0
v -88 -59 0
v -87.5 -59 0
v -88 -59.5 0
v -88.5 -59.5 0
v -88.5 -59 0
v -88 -59 0
v -88.5 -59.5 0
v -89 -59.5 0
v -89 -59 0
v -88.5 -59 0
v -89 -59.5 0
v -89.5 -59.5 0
v -89.5 -59 0
v -89 -59 0
v -89.5 -59.5 0
v -90 -59.5 0
v -90 -59 0
v -89.5 -59 0
v -90 -59.5 0
v -90.5 -59.5 0
v -90.5 -59 0
v -90 -59 0
v -90.5 -59.5 0
v -91 -59.5 0
v -91 -59 0
v -90.5 -59 0
v -93 -59.5 0
v -93.5 -59.5 0
v -93.5 -59 0
v -93 -59 0
v -93.5 -59.5 0
v -94 -59.5 0
v -94 -59 0
v -93.5 -59 0
v -94 -59.5 0
v -94.5 -59.5 0
v -94.5 -59 0
v -94 -59 0
v -94.5 -59.5 0
v -95 -59.5 0
v -95 -59 0
v -94.5 -59 0
v -95 -59.5 0
v -95.5 -59.5 0
v -95.5 -59 0
v -95 -59 0
v -95.5 -59.5 0
v -96 -59.5 0
v -96 -59 0
v -95.5 -59 0
v -96 -59.5 0
v -96.5 -59.5 0
v -96.5 -59 0
v -96 -59 0
v -96.5 -59.5 0
v -97 -59.5 0
v -97 -59 0
v -96.5 -59 0
v -97 -59.5 0
v -97.5 -59.5 0
v -97.5 -59 0
v -97 -59 0
v -97.5 -59.5 0
v -98 -59.5 0
v -98 -59 0
v -97.5 -59 0
v -98 -59.5 0
v -98.5 -59.5 0
v -98.5 -59 0
v -98 -59 0
v -98.5 -59.5 0
v -99 -59.5 0
v -99 -59 0
v -98.5 -59 0
v -99 -59.5 0
v -99.5 -59.5 0
v -99.5 -59 0
v -99 -59 0
v -99.5 -59.5 0
v -100 -59.5 0
v -100 -59 0
v -99.5 -59 0
v -87 -60 0
v -87.5 -60 0
v -87.5 -59.5 0
v -87 -59.5 0
v -87.5 -60 0
v -88 -60 0
v -88 -59.5 0
v -87.5 -59.5 0
v -88 -60 0
v -88.5 -60 0
v -88.5 -59.5 0
v -88 -59.5 0
v -88.5 -60 0
v -89 -60 0
v -89 -59.5 0
v -88.5 -59.5 0
v -89 -60 0
v -89.5 -60 0
v -89.5 -59.5 0
v -89 -59.5 0
v -89.5 -60 0
v -90 -60 0
v -90 -59.5 0
v -89.5 -59.5 0
v -90 -60 0
v -90.5 -60 0
v -90.5 -59.5 0
v -90 -59.5 0
v -90.5 -60 0
v -91 -60 0
v -91 -59.5 0
v -90.5 -59.5 0
v -93 -60 0
v -93.5 -60 0
v -93.5 -59.5 0
v -93 -59.5 0
v -99 -60 0
v -99.5 -60 0
v -99.5 -59.5 0
v -99 -59.5 0
v -99.5 -60 0
v -100 -60 0
v -100 -59.5 0
v -99.5 -59.5 0
v -89 -61.5 0
v -89.5 -61.5 0
v -89.5 -61 0
v -89 -61 0
v -89.5 -61.5 0
v -90 -61.5 0
v -90 -61 0
v -89.5 -61 0
v -90 -61.5 0
v -90.5 -61.5 0
v -90.5 -61 0
v -90 -61 0
v -90.5 -61.5 0
v -91 -61.5 0
v -91 -61 0
v -90.5 -61 0
v -91 -61.5 0
v -91.5 -61.5 0
v -91.5 -61 0
v -91 -61 0
v -91.5 -61.5 0
v -92 -61.5 0
v -92 -61 0
v -91.5 -61 0
v -92 -61.5 0
v -92.5 -61.5 0
v -92.5 -61 0
v -92 -61 0
v -92.5 -61.5 0
v -93 -61.5 0
v -93 -61 0
v -92.5 -61 0
v -89 -62 0
v -89.5 -62 0
v -89.5 -61.5 0
v -89 -61.5 0
v -89.5 -62 0
v -90 -62 0
v -90 -61.5 0
v -89.5 -61.5 0

# Texture cooridinates (Count = 30)
vt 0 0.96875
vt 0.03125 0.96875
vt 0.03125 1
vt 0 1
vt 0.0625 0.96875
vt 0.0625 1
vt 0 0.9375
vt 0.03125 0.9375
vt 0.0625 0.9375
vt 0.40625 0.5
vt 0.4375 0.5
vt 0.4375 0.53125
vt 0.40625 0.53125
vt 0.46875 0.5
vt 0.46875 0.53125
vt 0.40625 0.46875
vt 0.4375 0.46875
vt 0.46875 0.46875
vt 0.375 0.625
vt 0.40625 0.625
vt 0.40625 0.65625
vt 0.375 0.65625
vt 0.4375 0.625
vt 0.4375 0.65625
vt 0.375 0.59375
vt 0.40625 0.59375
vt 0.4375 0.59375
vt 0.375 0.5625
vt 0.40625 0.5625
vt 0.4375 0.5625

# Normal
vn 0 0 -1

# Mesh description
g ciudadPrincipal_mesh_0010

# Faces
f 1/1/1 2/2/1 3/3/1 4/4/1
f 5/2/1 6/5/1 7/6/1 8/3/1
f 9/2/1 10/5/1 11/6/1 12/3/1
f 13/2/1 14/5/1 15/6/1 16/3/1
f 17/2/1 18/5/1 19/6/1 20/3/1
f 21/2/1 22/5/1 23/6/1 24/3/1
f 25/2/1 26/5/1 27/6/1 28/3/1
f 29/2/1 30/5/1 31/6/1 32/3/1
f 33/2/1 34/5/1 35/6/1 36/3/1
f 37/2/1 38/5/1 39/6/1 40/3/1
f 41/2/1 42/5/1 43/6/1 44/3/1
f 45/2/1 46/5/1 47/6/1 48/3/1
f 49/2/1 50/5/1 51/6/1 52/3/1
f 53/2/1 54/5/1 55/6/1 56/3/1
f 57/7/1 58/8/1 59/2/1 60/1/1
f 61/8/1 62/9/1 63/5/1 64/2/1
f 65/8/1 66/9/1 67/5/1 68/2/1
f 69/8/1 70/9/1 71/5/1 72/2/1
f 73/8/1 74/9/1 75/5/1 76/2/1
f 77/8/1 78/9/1 79/5/1 80/2/1
f 81/8/1 82/9/1 83/5/1 84/2/1
f 85/8/1 86/9/1 87/5/1 88/2/1
f 89/8/1 90/9/1 91/5/1 92/2/1
f 93/8/1 94/9/1 95/5/1 96/2/1
f 97/8/1 98/9/1 99/5/1 100/2/1
f 101/8/1 102/9/1 103/5/1 104/2/1
f 105/8/1 106/9/1 107/5/1 108/2/1
f 109/8/1 110/9/1 111/5/1 112/2/1
f 113/10/1 114/11/1 115/12/1 116/13/1
f 117/11/1 118/14/1 119/15/1 120/12/1
f 121/10/1 122/11/1 123/12/1 124/13/1
f 125/11/1 126/14/1 127/15/1 128/12/1
f 129/1/1 130/2/1 131/3/1 132/4/1
f 133/1/1 134/2/1 135/3/1 136/4/1
f 137/1/1 138/2/1 139/3/1 140/4/1
f 141/1/1 142/2/1 143/3/1 144/4/1
f 145/1/1 146/2/1 147/3/1 148/4/1
f 149/1/1 150/2/1 151/3/1 152/4/1
f 153/1/1 154/2/1 155/3/1 156/4/1
f 157/1/1 158/2/1 159/3/1 160/4/1
f 161/1/1 162/2/1 163/3/1 164/4/1
f 165/2/1 166/5/1 167/6/1 168/3/1
f 169/10/1 170/11/1 171/12/1 172/13/1
f 173/11/1 174/14/1 175/15/1 176/12/1
f 177/16/1 178/17/1 179/11/1 180/10/1
f 181/17/1 182/18/1 183/14/1 184/11/1
f 185/16/1 186/17/1 187/11/1 188/10/1
f 189/17/1 190/18/1 191/14/1 192/11/1
f 193/7/1 194/8/1 195/2/1 196/1/1
f 197/7/1 198/8/1 199/2/1 200/1/1
f 201/7/1 202/8/1 203/2/1 204/1/1
f 205/7/1 206/8/1 207/2/1 208/1/1
f 209/7/1 210/8/1 211/2/1 212/1/1
f 213/7/1 214/8/1 215/2/1 216/1/1
f 217/7/1 218/8/1 219/2/1 220/1/1
f 221/7/1 222/8/1 223/2/1 224/1/1
f 225/7/1 226/8/1 227/2/1 228/1/1
f 229/8/1 230/9/1 231/5/1 232/2/1
f 233/16/1 234/17/1 235/11/1 236/10/1
f 237/17/1 238/18/1 239/14/1 240/11/1
f 241/10/1 242/11/1 243/12/1 244/13/1
f 245/11/1 246/14/1 247/15/1 248/12/1
f 249/10/1 250/11/1 251/12/1 252/13/1
f 253/11/1 254/14/1 255/15/1 256/12/1
f 257/11/1 258/14/1 259/15/1 260/12/1
f 261/11/1 262/14/1 263/15/1 264/12/1
f 265/11/1 266/14/1 267/15/1 268/12/1
f 269/11/1 270/14/1 271/15/1 272/12/1
f 273/11/1 274/14/1 275/15/1 276/12/1
f 277/11/1 278/14/1 279/15/1 280/12/1
f 281/11/1 282/14/1 283/15/1 284/12/1
f 285/11/1 286/14/1 287/15/1 288/12/1
f 289/11/1 290/14/1 291/15/1 292/12/1
f 293/11/1 294/14/1 295/15/1 296/12/1
f 297/10/1 298/11/1 299/12/1 300/13/1
f 301/11/1 302/14/1 303/15/1 304/12/1
f 305/10/1 306/11/1 307/12/1 308/13/1
f 309/11/1 310/14/1 311/15/1 312/12/1
f 313/16/1 314/17/1 315/11/1 316/10/1
f 317/17/1 318/18/1 319/14/1 320/11/1
f 321/10/1 322/11/1 323/12/1 324/13/1
f 325/11/1 326/14/1 327/15/1 328/12/1
f 329/16/1 330/17/1 331/11/1 332/10/1
f 333/17/1 334/18/1 335/14/1 336/11/1
f 337/19/1 338/20/1 339/21/1 340/22/1
f 341/20/1 342/23/1 343/24/1 344/21/1
f 345/16/1 346/17/1 347/11/1 348/10/1
f 349/17/1 350/18/1 351/14/1 352/11/1
f 353/16/1 354/17/1 355/11/1 356/10/1
f 357/16/1 358/17/1 359/11/1 360/10/1
f 361/16/1 362/17/1 363/11/1 364/10/1
f 365/16/1 366/17/1 367/11/1 368/10/1
f 369/16/1 370/17/1 371/11/1 372/10/1
f 373/16/1 374/17/1 375/11/1 376/10/1
f 377/16/1 378/17/1 379/11/1 380/10/1
f 381/16/1 382/17/1 383/11/1 384/10/1
f 385/16/1 386/17/1 387/11/1 388/10/1
f 389/17/1 390/18/1 391/14/1 392/11/1
f 393/10/1 394/11/1 395/12/1 396/13/1
f 397/11/1 398/14/1 399/15/1 400/12/1
f 401/11/1 402/14/1 403/15/1 404/12/1
f 405/11/1 406/14/1 407/15/1 408/12/1
f 409/11/1 410/14/1 411/15/1 412/12/1
f 413/11/1 414/14/1 415/15/1 416/12/1
f 417/11/1 418/14/1 419/15/1 420/12/1
f 421/11/1 422/14/1 423/15/1 424/12/1
f 425/25/1 426/26/1 427/20/1 428/19/1
f 429/26/1 430/27/1 431/23/1 432/20/1
f 433/10/1 434/11/1 435/12/1 436/13/1
f 437/11/1 438/14/1 439/15/1 440/12/1
f 441/28/1 442/29/1 443/26/1 444/25/1
f 445/29/1 446/30/1 447/27/1 448/26/1
f 449/10/1 450/11/1 451/12/1 452/13/1
f 453/11/1 454/14/1 455/15/1 456/12/1
f 457/11/1 458/14/1 459/15/1 460/12/1
f 461/11/1 462/14/1 463/15/1 464/12/1
f 465/11/1 466/14/1 467/15/1 468/12/1
f 469/11/1 470/14/1 471/15/1 472/12/1
f 473/11/1 474/14/1 475/15/1 476/12/1
f 477/11/1 478/14/1 479/15/1 480/12/1
f 481/11/1 482/14/1 483/15/1 484/12/1
f 485/11/1 486/14/1 487/15/1 488/12/1
f 489/11/1 490/14/1 491/15/1 492/12/1
f 493/11/1 494/14/1 495/15/1 496/12/1
f 497/11/1 498/14/1 499/15/1 500/12/1
f 501/11/1 502/14/1 503/15/1 504/12/1
f 505/11/1 506/14/1 507/15/1 508/12/1
f 509/11/1 510/14/1 511/15/1 512/12/1
f 513/11/1 514/14/1 515/15/1 516/12/1
f 517/11/1 518/14/1 519/15/1 520/12/1
f 521/11/1 522/14/1 523/15/1 524/12/1
f 525/11/1 526/14/1 527/15/1 528/12/1
f 529/11/1 530/14/1 531/15/1 532/12/1
f 533/11/1 534/14/1 535/15/1 536/12/1
f 537/16/1 538/17/1 539/11/1 540/10/1
f 541/17/1 542/18/1 543/14/1 544/11/1
f 545/17/1 546/18/1 547/14/1 548/11/1
f 549/17/1 550/18/1 551/14/1 552/11/1
f 553/17/1 554/18/1 555/14/1 556/11/1
f 557/17/1 558/18/1 559/14/1 560/11/1
f 561/17/1 562/18/1 563/14/1 564/11/1
f 565/17/1 566/18/1 567/14/1 568/11/1
f 569/11/1 570/14/1 571/15/1 572/12/1
f 573/16/1 574/17/1 575/11/1 576/10/1
f 577/17/1 578/18/1 579/14/1 580/11/1
f 581/10/1 582/11/1 583/12/1 584/13/1
f 585/11/1 586/14/1 587/15/1 588/12/1
f 589/10/1 590/11/1 591/12/1 592/13/1
f 593/10/1 594/11/1 595/12/1 596/13/1
f 597/10/1 598/11/1 599/12/1 600/13/1
f 601/10/1 602/11/1 603/12/1 604/13/1
f 605/10/1 606/11/1 607/12/1 608/13/1
f 609/11/1 610/14/1 611/15/1 612/12/1
f 613/16/1 614/17/1 615/11/1 616/10/1
f 617/17/1 618/18/1 619/14/1 620/11/1

