# Tiled2Unity generated file. Do not modify by hand.
# Wavefront file for 'ciudadPrincipal_mesh_0004.obj'

# Vertices (Count = 240)
v -6.5 -12.5 0
v -7 -12.5 0
v -7 -12 0
v -6.5 -12 0
v -7 -12.5 0
v -7.5 -12.5 0
v -7.5 -12 0
v -7 -12 0
v -7.5 -12.5 0
v -8 -12.5 0
v -8 -12 0
v -7.5 -12 0
v -8 -12.5 0
v -8.5 -12.5 0
v -8.5 -12 0
v -8 -12 0
v -8.5 -12.5 0
v -9 -12.5 0
v -9 -12 0
v -8.5 -12 0
v -9 -12.5 0
v -9.5 -12.5 0
v -9.5 -12 0
v -9 -12 0
v -9.5 -12.5 0
v -10 -12.5 0
v -10 -12 0
v -9.5 -12 0
v -10 -12.5 0
v -10.5 -12.5 0
v -10.5 -12 0
v -10 -12 0
v -10.5 -12.5 0
v -11 -12.5 0
v -11 -12 0
v -10.5 -12 0
v -11 -12.5 0
v -11.5 -12.5 0
v -11.5 -12 0
v -11 -12 0
v -11.5 -12.5 0
v -12 -12.5 0
v -12 -12 0
v -11.5 -12 0
v -12 -12.5 0
v -12.5 -12.5 0
v -12.5 -12 0
v -12 -12 0
v -12.5 -12.5 0
v -13 -12.5 0
v -13 -12 0
v -12.5 -12 0
v -13 -12.5 0
v -13.5 -12.5 0
v -13.5 -12 0
v -13 -12 0
v -13.5 -12.5 0
v -14 -12.5 0
v -14 -12 0
v -13.5 -12 0
v -6.5 -13 0
v -7 -13 0
v -7 -12.5 0
v -6.5 -12.5 0
v -7 -13 0
v -7.5 -13 0
v -7.5 -12.5 0
v -7 -12.5 0
v -7.5 -13 0
v -8 -13 0
v -8 -12.5 0
v -7.5 -12.5 0
v -8 -13 0
v -8.5 -13 0
v -8.5 -12.5 0
v -8 -12.5 0
v -8.5 -13 0
v -9 -13 0
v -9 -12.5 0
v -8.5 -12.5 0
v -9 -13 0
v -9.5 -13 0
v -9.5 -12.5 0
v -9 -12.5 0
v -9.5 -13 0
v -10 -13 0
v -10 -12.5 0
v -9.5 -12.5 0
v -10 -13 0
v -10.5 -13 0
v -10.5 -12.5 0
v -10 -12.5 0
v -10.5 -13 0
v -11 -13 0
v -11 -12.5 0
v -10.5 -12.5 0
v -11 -13 0
v -11.5 -13 0
v -11.5 -12.5 0
v -11 -12.5 0
v -11.5 -13 0
v -12 -13 0
v -12 -12.5 0
v -11.5 -12.5 0
v -12 -13 0
v -12.5 -13 0
v -12.5 -12.5 0
v -12 -12.5 0
v -12.5 -13 0
v -13 -13 0
v -13 -12.5 0
v -12.5 -12.5 0
v -13 -13 0
v -13.5 -13 0
v -13.5 -12.5 0
v -13 -12.5 0
v -13.5 -13 0
v -14 -13 0
v -14 -12.5 0
v -13.5 -12.5 0
v -6.5 -13.5 0
v -7 -13.5 0
v -7 -13 0
v -6.5 -13 0
v -7 -13.5 0
v -7.5 -13.5 0
v -7.5 -13 0
v -7 -13 0
v -7.5 -13.5 0
v -8 -13.5 0
v -8 -13 0
v -7.5 -13 0
v -8 -13.5 0
v -8.5 -13.5 0
v -8.5 -13 0
v -8 -13 0
v -8.5 -13.5 0
v -9 -13.5 0
v -9 -13 0
v -8.5 -13 0
v -9 -13.5 0
v -9.5 -13.5 0
v -9.5 -13 0
v -9 -13 0
v -9.5 -13.5 0
v -10 -13.5 0
v -10 -13 0
v -9.5 -13 0
v -10 -13.5 0
v -10.5 -13.5 0
v -10.5 -13 0
v -10 -13 0
v -10.5 -13.5 0
v -11 -13.5 0
v -11 -13 0
v -10.5 -13 0
v -11 -13.5 0
v -11.5 -13.5 0
v -11.5 -13 0
v -11 -13 0
v -11.5 -13.5 0
v -12 -13.5 0
v -12 -13 0
v -11.5 -13 0
v -12 -13.5 0
v -12.5 -13.5 0
v -12.5 -13 0
v -12 -13 0
v -12.5 -13.5 0
v -13 -13.5 0
v -13 -13 0
v -12.5 -13 0
v -13 -13.5 0
v -13.5 -13.5 0
v -13.5 -13 0
v -13 -13 0
v -13.5 -13.5 0
v -14 -13.5 0
v -14 -13 0
v -13.5 -13 0
v -6.5 -14 0
v -7 -14 0
v -7 -13.5 0
v -6.5 -13.5 0
v -7 -14 0
v -7.5 -14 0
v -7.5 -13.5 0
v -7 -13.5 0
v -7.5 -14 0
v -8 -14 0
v -8 -13.5 0
v -7.5 -13.5 0
v -8 -14 0
v -8.5 -14 0
v -8.5 -13.5 0
v -8 -13.5 0
v -8.5 -14 0
v -9 -14 0
v -9 -13.5 0
v -8.5 -13.5 0
v -9 -14 0
v -9.5 -14 0
v -9.5 -13.5 0
v -9 -13.5 0
v -9.5 -14 0
v -10 -14 0
v -10 -13.5 0
v -9.5 -13.5 0
v -10 -14 0
v -10.5 -14 0
v -10.5 -13.5 0
v -10 -13.5 0
v -10.5 -14 0
v -11 -14 0
v -11 -13.5 0
v -10.5 -13.5 0
v -11 -14 0
v -11.5 -14 0
v -11.5 -13.5 0
v -11 -13.5 0
v -11.5 -14 0
v -12 -14 0
v -12 -13.5 0
v -11.5 -13.5 0
v -12 -14 0
v -12.5 -14 0
v -12.5 -13.5 0
v -12 -13.5 0
v -12.5 -14 0
v -13 -14 0
v -13 -13.5 0
v -12.5 -13.5 0
v -13 -14 0
v -13.5 -14 0
v -13.5 -13.5 0
v -13 -13.5 0
v -13.5 -14 0
v -14 -14 0
v -14 -13.5 0
v -13.5 -13.5 0

# Texture cooridinates (Count = 15)
vt 0.15625 0.6875
vt 0.1875 0.6875
vt 0.1875 0.75
vt 0.15625 0.75
vt 0.21875 0.6875
vt 0.21875 0.75
vt 0.15625 0.625
vt 0.1875 0.625
vt 0.21875 0.625
vt 0.15625 0.5625
vt 0.1875 0.5625
vt 0.21875 0.5625
vt 0.15625 0.5
vt 0.1875 0.5
vt 0.21875 0.5

# Normal
vn 0 0 -1

# Mesh description
g ciudadPrincipal_mesh_0004

# Faces
f 1/1/1 2/2/1 3/3/1 4/4/1
f 5/1/1 6/2/1 7/3/1 8/4/1
f 9/1/1 10/2/1 11/3/1 12/4/1
f 13/1/1 14/2/1 15/3/1 16/4/1
f 17/1/1 18/2/1 19/3/1 20/4/1
f 21/1/1 22/2/1 23/3/1 24/4/1
f 25/1/1 26/2/1 27/3/1 28/4/1
f 29/1/1 30/2/1 31/3/1 32/4/1
f 33/1/1 34/2/1 35/3/1 36/4/1
f 37/1/1 38/2/1 39/3/1 40/4/1
f 41/1/1 42/2/1 43/3/1 44/4/1
f 45/1/1 46/2/1 47/3/1 48/4/1
f 49/1/1 50/2/1 51/3/1 52/4/1
f 53/1/1 54/2/1 55/3/1 56/4/1
f 57/2/1 58/5/1 59/6/1 60/3/1
f 61/7/1 62/8/1 63/2/1 64/1/1
f 65/7/1 66/8/1 67/2/1 68/1/1
f 69/7/1 70/8/1 71/2/1 72/1/1
f 73/7/1 74/8/1 75/2/1 76/1/1
f 77/7/1 78/8/1 79/2/1 80/1/1
f 81/7/1 82/8/1 83/2/1 84/1/1
f 85/7/1 86/8/1 87/2/1 88/1/1
f 89/7/1 90/8/1 91/2/1 92/1/1
f 93/7/1 94/8/1 95/2/1 96/1/1
f 97/7/1 98/8/1 99/2/1 100/1/1
f 101/7/1 102/8/1 103/2/1 104/1/1
f 105/7/1 106/8/1 107/2/1 108/1/1
f 109/7/1 110/8/1 111/2/1 112/1/1
f 113/7/1 114/8/1 115/2/1 116/1/1
f 117/8/1 118/9/1 119/5/1 120/2/1
f 121/10/1 122/11/1 123/8/1 124/7/1
f 125/10/1 126/11/1 127/8/1 128/7/1
f 129/10/1 130/11/1 131/8/1 132/7/1
f 133/10/1 134/11/1 135/8/1 136/7/1
f 137/10/1 138/11/1 139/8/1 140/7/1
f 141/10/1 142/11/1 143/8/1 144/7/1
f 145/10/1 146/11/1 147/8/1 148/7/1
f 149/10/1 150/11/1 151/8/1 152/7/1
f 153/10/1 154/11/1 155/8/1 156/7/1
f 157/10/1 158/11/1 159/8/1 160/7/1
f 161/10/1 162/11/1 163/8/1 164/7/1
f 165/10/1 166/11/1 167/8/1 168/7/1
f 169/10/1 170/11/1 171/8/1 172/7/1
f 173/10/1 174/11/1 175/8/1 176/7/1
f 177/11/1 178/12/1 179/9/1 180/8/1
f 181/13/1 182/14/1 183/11/1 184/10/1
f 185/13/1 186/14/1 187/11/1 188/10/1
f 189/13/1 190/14/1 191/11/1 192/10/1
f 193/13/1 194/14/1 195/11/1 196/10/1
f 197/13/1 198/14/1 199/11/1 200/10/1
f 201/13/1 202/14/1 203/11/1 204/10/1
f 205/13/1 206/14/1 207/11/1 208/10/1
f 209/13/1 210/14/1 211/11/1 212/10/1
f 213/13/1 214/14/1 215/11/1 216/10/1
f 217/13/1 218/14/1 219/11/1 220/10/1
f 221/13/1 222/14/1 223/11/1 224/10/1
f 225/13/1 226/14/1 227/11/1 228/10/1
f 229/13/1 230/14/1 231/11/1 232/10/1
f 233/13/1 234/14/1 235/11/1 236/10/1
f 237/14/1 238/15/1 239/12/1 240/11/1

