# Tiled2Unity generated file. Do not modify by hand.
# Wavefront file for 'ciudadPrincipal_mesh_0035.obj'

# Vertices (Count = 748)
v -97.5 -30.5 0
v -98 -30.5 0
v -98 -30 0
v -97.5 -30 0
v -98 -30.5 0
v -98.5 -30.5 0
v -98.5 -30 0
v -98 -30 0
v -97.5 -31 0
v -98 -31 0
v -98 -30.5 0
v -97.5 -30.5 0
v -98 -31 0
v -98.5 -31 0
v -98.5 -30.5 0
v -98 -30.5 0
v -95 -31.5 0
v -95.5 -31.5 0
v -95.5 -31 0
v -95 -31 0
v -95.5 -31.5 0
v -96 -31.5 0
v -96 -31 0
v -95.5 -31 0
v -96 -31.5 0
v -96.5 -31.5 0
v -96.5 -31 0
v -96 -31 0
v -96.5 -31.5 0
v -97 -31.5 0
v -97 -31 0
v -96.5 -31 0
v -97.5 -31.5 0
v -98 -31.5 0
v -98 -31 0
v -97.5 -31 0
v -98 -31.5 0
v -98.5 -31.5 0
v -98.5 -31 0
v -98 -31 0
v -94 -32 0
v -94.5 -32 0
v -94.5 -31.5 0
v -94 -31.5 0
v -94.5 -32 0
v -95 -32 0
v -95 -31.5 0
v -94.5 -31.5 0
v -95 -32 0
v -95.5 -32 0
v -95.5 -31.5 0
v -95 -31.5 0
v -95.5 -32 0
v -96 -32 0
v -96 -31.5 0
v -95.5 -31.5 0
v -96 -32 0
v -96.5 -32 0
v -96.5 -31.5 0
v -96 -31.5 0
v -96.5 -32 0
v -97 -32 0
v -97 -31.5 0
v -96.5 -31.5 0
v -97.5 -32 0
v -98 -32 0
v -98 -31.5 0
v -97.5 -31.5 0
v -98 -32 0
v -98.5 -32 0
v -98.5 -31.5 0
v -98 -31.5 0
v -92 -32.5 0
v -92.5 -32.5 0
v -92.5 -32 0
v -92 -32 0
v -92.5 -32.5 0
v -93 -32.5 0
v -93 -32 0
v -92.5 -32 0
v -92 -33 0
v -92.5 -33 0
v -92.5 -32.5 0
v -92 -32.5 0
v -92.5 -33 0
v -93 -33 0
v -93 -32.5 0
v -92.5 -32.5 0
v -90 -33.5 0
v -90.5 -33.5 0
v -90.5 -33 0
v -90 -33 0
v -90.5 -33.5 0
v -91 -33.5 0
v -91 -33 0
v -90.5 -33 0
v -90 -34 0
v -90.5 -34 0
v -90.5 -33.5 0
v -90 -33.5 0
v -90.5 -34 0
v -91 -34 0
v -91 -33.5 0
v -90.5 -33.5 0
v -88.5 -34.5 0
v -89 -34.5 0
v -89 -34 0
v -88.5 -34 0
v -89 -34.5 0
v -89.5 -34.5 0
v -89.5 -34 0
v -89 -34 0
v -86.5 -35 0
v -87 -35 0
v -87 -34.5 0
v -86.5 -34.5 0
v -87 -35 0
v -87.5 -35 0
v -87.5 -34.5 0
v -87 -34.5 0
v -88.5 -35 0
v -89 -35 0
v -89 -34.5 0
v -88.5 -34.5 0
v -89 -35 0
v -89.5 -35 0
v -89.5 -34.5 0
v -89 -34.5 0
v -86.5 -35.5 0
v -87 -35.5 0
v -87 -35 0
v -86.5 -35 0
v -87 -35.5 0
v -87.5 -35.5 0
v -87.5 -35 0
v -87 -35 0
v -83.5 -36.5 0
v -84 -36.5 0
v -84 -36 0
v -83.5 -36 0
v -84 -36.5 0
v -84.5 -36.5 0
v -84.5 -36 0
v -84 -36 0
v -83.5 -37 0
v -84 -37 0
v -84 -36.5 0
v -83.5 -36.5 0
v -84 -37 0
v -84.5 -37 0
v -84.5 -36.5 0
v -84 -36.5 0
v -80.5 -38 0
v -81 -38 0
v -81 -37.5 0
v -80.5 -37.5 0
v -81 -38 0
v -81.5 -38 0
v -81.5 -37.5 0
v -81 -37.5 0
v -79.5 -38.5 0
v -80 -38.5 0
v -80 -38 0
v -79.5 -38 0
v -80 -38.5 0
v -80.5 -38.5 0
v -80.5 -38 0
v -80 -38 0
v -80.5 -38.5 0
v -81 -38.5 0
v -81 -38 0
v -80.5 -38 0
v -81 -38.5 0
v -81.5 -38.5 0
v -81.5 -38 0
v -81 -38 0
v -76 -39 0
v -76.5 -39 0
v -76.5 -38.5 0
v -76 -38.5 0
v -76.5 -39 0
v -77 -39 0
v -77 -38.5 0
v -76.5 -38.5 0
v -77 -39 0
v -77.5 -39 0
v -77.5 -38.5 0
v -77 -38.5 0
v -77.5 -39 0
v -78 -39 0
v -78 -38.5 0
v -77.5 -38.5 0
v -78 -39 0
v -78.5 -39 0
v -78.5 -38.5 0
v -78 -38.5 0
v -78.5 -39 0
v -79 -39 0
v -79 -38.5 0
v -78.5 -38.5 0
v -79 -39 0
v -79.5 -39 0
v -79.5 -38.5 0
v -79 -38.5 0
v -79.5 -39 0
v -80 -39 0
v -80 -38.5 0
v -79.5 -38.5 0
v -80 -39 0
v -80.5 -39 0
v -80.5 -38.5 0
v -80 -38.5 0
v -76 -39.5 0
v -76.5 -39.5 0
v -76.5 -39 0
v -76 -39 0
v -76.5 -39.5 0
v -77 -39.5 0
v -77 -39 0
v -76.5 -39 0
v -77 -39.5 0
v -77.5 -39.5 0
v -77.5 -39 0
v -77 -39 0
v -77.5 -39.5 0
v -78 -39.5 0
v -78 -39 0
v -77.5 -39 0
v -78 -39.5 0
v -78.5 -39.5 0
v -78.5 -39 0
v -78 -39 0
v -78.5 -39.5 0
v -79 -39.5 0
v -79 -39 0
v -78.5 -39 0
v -79 -39.5 0
v -79.5 -39.5 0
v -79.5 -39 0
v -79 -39 0
v -76 -40 0
v -76.5 -40 0
v -76.5 -39.5 0
v -76 -39.5 0
v -76.5 -40 0
v -77 -40 0
v -77 -39.5 0
v -76.5 -39.5 0
v -76 -40.5 0
v -76.5 -40.5 0
v -76.5 -40 0
v -76 -40 0
v -76.5 -40.5 0
v -77 -40.5 0
v -77 -40 0
v -76.5 -40 0
v -74 -42.5 0
v -74.5 -42.5 0
v -74.5 -42 0
v -74 -42 0
v -73.5 -43 0
v -74 -43 0
v -74 -42.5 0
v -73.5 -42.5 0
v -74 -43 0
v -74.5 -43 0
v -74.5 -42.5 0
v -74 -42.5 0
v -74.5 -43 0
v -75 -43 0
v -75 -42.5 0
v -74.5 -42.5 0
v -75 -43 0
v -75.5 -43 0
v -75.5 -42.5 0
v -75 -42.5 0
v -73.5 -43.5 0
v -74 -43.5 0
v -74 -43 0
v -73.5 -43 0
v -74 -43.5 0
v -74.5 -43.5 0
v -74.5 -43 0
v -74 -43 0
v -74.5 -43.5 0
v -75 -43.5 0
v -75 -43 0
v -74.5 -43 0
v -75 -43.5 0
v -75.5 -43.5 0
v -75.5 -43 0
v -75 -43 0
v -9 -44 0
v -9.5 -44 0
v -9.5 -43.5 0
v -9 -43.5 0
v -9.5 -44 0
v -10 -44 0
v -10 -43.5 0
v -9.5 -43.5 0
v -73.5 -44 0
v -74 -44 0
v -74 -43.5 0
v -73.5 -43.5 0
v -74 -44 0
v -74.5 -44 0
v -74.5 -43.5 0
v -74 -43.5 0
v -74.5 -44 0
v -75 -44 0
v -75 -43.5 0
v -74.5 -43.5 0
v -75 -44 0
v -75.5 -44 0
v -75.5 -43.5 0
v -75 -43.5 0
v -9 -44.5 0
v -9.5 -44.5 0
v -9.5 -44 0
v -9 -44 0
v -9.5 -44.5 0
v -10 -44.5 0
v -10 -44 0
v -9.5 -44 0
v -74.5 -44.5 0
v -75 -44.5 0
v -75 -44 0
v -74.5 -44 0
v -75 -44.5 0
v -75.5 -44.5 0
v -75.5 -44 0
v -75 -44 0
v -9 -45.5 0
v -9.5 -45.5 0
v -9.5 -45 0
v -9 -45 0
v -9.5 -45.5 0
v -10 -45.5 0
v -10 -45 0
v -9.5 -45 0
v -9 -46 0
v -9.5 -46 0
v -9.5 -45.5 0
v -9 -45.5 0
v -9.5 -46 0
v -10 -46 0
v -10 -45.5 0
v -9.5 -45.5 0
v -9 -47 0
v -9.5 -47 0
v -9.5 -46.5 0
v -9 -46.5 0
v -9.5 -47 0
v -10 -47 0
v -10 -46.5 0
v -9.5 -46.5 0
v -70 -47 0
v -70.5 -47 0
v -70.5 -46.5 0
v -70 -46.5 0
v -70.5 -47 0
v -71 -47 0
v -71 -46.5 0
v -70.5 -46.5 0
v -9 -47.5 0
v -9.5 -47.5 0
v -9.5 -47 0
v -9 -47 0
v -9.5 -47.5 0
v -10 -47.5 0
v -10 -47 0
v -9.5 -47 0
v -68.5 -47.5 0
v -69 -47.5 0
v -69 -47 0
v -68.5 -47 0
v -69 -47.5 0
v -69.5 -47.5 0
v -69.5 -47 0
v -69 -47 0
v -70 -47.5 0
v -70.5 -47.5 0
v -70.5 -47 0
v -70 -47 0
v -70.5 -47.5 0
v -71 -47.5 0
v -71 -47 0
v -70.5 -47 0
v -71.5 -47.5 0
v -72 -47.5 0
v -72 -47 0
v -71.5 -47 0
v -72 -47.5 0
v -72.5 -47.5 0
v -72.5 -47 0
v -72 -47 0
v -68.5 -48 0
v -69 -48 0
v -69 -47.5 0
v -68.5 -47.5 0
v -69 -48 0
v -69.5 -48 0
v -69.5 -47.5 0
v -69 -47.5 0
v -70 -48 0
v -70.5 -48 0
v -70.5 -47.5 0
v -70 -47.5 0
v -70.5 -48 0
v -71 -48 0
v -71 -47.5 0
v -70.5 -47.5 0
v -71.5 -48 0
v -72 -48 0
v -72 -47.5 0
v -71.5 -47.5 0
v -72 -48 0
v -72.5 -48 0
v -72.5 -47.5 0
v -72 -47.5 0
v -9 -48.5 0
v -9.5 -48.5 0
v -9.5 -48 0
v -9 -48 0
v -9.5 -48.5 0
v -10 -48.5 0
v -10 -48 0
v -9.5 -48 0
v -68.5 -48.5 0
v -69 -48.5 0
v -69 -48 0
v -68.5 -48 0
v -69 -48.5 0
v -69.5 -48.5 0
v -69.5 -48 0
v -69 -48 0
v -70 -48.5 0
v -70.5 -48.5 0
v -70.5 -48 0
v -70 -48 0
v -70.5 -48.5 0
v -71 -48.5 0
v -71 -48 0
v -70.5 -48 0
v -71.5 -48.5 0
v -72 -48.5 0
v -72 -48 0
v -71.5 -48 0
v -72 -48.5 0
v -72.5 -48.5 0
v -72.5 -48 0
v -72 -48 0
v -9 -49 0
v -9.5 -49 0
v -9.5 -48.5 0
v -9 -48.5 0
v -9.5 -49 0
v -10 -49 0
v -10 -48.5 0
v -9.5 -48.5 0
v -68.5 -49 0
v -69 -49 0
v -69 -48.5 0
v -68.5 -48.5 0
v -69 -49 0
v -69.5 -49 0
v -69.5 -48.5 0
v -69 -48.5 0
v -71.5 -49 0
v -72 -49 0
v -72 -48.5 0
v -71.5 -48.5 0
v -72 -49 0
v -72.5 -49 0
v -72.5 -48.5 0
v -72 -48.5 0
v -9 -50 0
v -9.5 -50 0
v -9.5 -49.5 0
v -9 -49.5 0
v -9.5 -50 0
v -10 -50 0
v -10 -49.5 0
v -9.5 -49.5 0
v -9 -50.5 0
v -9.5 -50.5 0
v -9.5 -50 0
v -9 -50 0
v -9.5 -50.5 0
v -10 -50.5 0
v -10 -50 0
v -9.5 -50 0
v -70 -52.5 0
v -70.5 -52.5 0
v -70.5 -52 0
v -70 -52 0
v -70.5 -52.5 0
v -71 -52.5 0
v -71 -52 0
v -70.5 -52 0
v -67 -53 0
v -67.5 -53 0
v -67.5 -52.5 0
v -67 -52.5 0
v -67.5 -53 0
v -68 -53 0
v -68 -52.5 0
v -67.5 -52.5 0
v -68 -53 0
v -68.5 -53 0
v -68.5 -52.5 0
v -68 -52.5 0
v -68.5 -53 0
v -69 -53 0
v -69 -52.5 0
v -68.5 -52.5 0
v -70 -53 0
v -70.5 -53 0
v -70.5 -52.5 0
v -70 -52.5 0
v -70.5 -53 0
v -71 -53 0
v -71 -52.5 0
v -70.5 -52.5 0
v -67 -53.5 0
v -67.5 -53.5 0
v -67.5 -53 0
v -67 -53 0
v -67.5 -53.5 0
v -68 -53.5 0
v -68 -53 0
v -67.5 -53 0
v -68 -53.5 0
v -68.5 -53.5 0
v -68.5 -53 0
v -68 -53 0
v -68.5 -53.5 0
v -69 -53.5 0
v -69 -53 0
v -68.5 -53 0
v -70 -53.5 0
v -70.5 -53.5 0
v -70.5 -53 0
v -70 -53 0
v -70.5 -53.5 0
v -71 -53.5 0
v -71 -53 0
v -70.5 -53 0
v -67 -54 0
v -67.5 -54 0
v -67.5 -53.5 0
v -67 -53.5 0
v -67.5 -54 0
v -68 -54 0
v -68 -53.5 0
v -67.5 -53.5 0
v -68 -54 0
v -68.5 -54 0
v -68.5 -53.5 0
v -68 -53.5 0
v -68.5 -54 0
v -69 -54 0
v -69 -53.5 0
v -68.5 -53.5 0
v -69 -54 0
v -69.5 -54 0
v -69.5 -53.5 0
v -69 -53.5 0
v -69.5 -54 0
v -70 -54 0
v -70 -53.5 0
v -69.5 -53.5 0
v -70 -54 0
v -70.5 -54 0
v -70.5 -53.5 0
v -70 -53.5 0
v -70.5 -54 0
v -71 -54 0
v -71 -53.5 0
v -70.5 -53.5 0
v -67 -54.5 0
v -67.5 -54.5 0
v -67.5 -54 0
v -67 -54 0
v -67.5 -54.5 0
v -68 -54.5 0
v -68 -54 0
v -67.5 -54 0
v -68 -54.5 0
v -68.5 -54.5 0
v -68.5 -54 0
v -68 -54 0
v -68.5 -54.5 0
v -69 -54.5 0
v -69 -54 0
v -68.5 -54 0
v -69 -54.5 0
v -69.5 -54.5 0
v -69.5 -54 0
v -69 -54 0
v -69.5 -54.5 0
v -70 -54.5 0
v -70 -54 0
v -69.5 -54 0
v -69 -55 0
v -69.5 -55 0
v -69.5 -54.5 0
v -69 -54.5 0
v -69.5 -55 0
v -70 -55 0
v -70 -54.5 0
v -69.5 -54.5 0
v -69 -55.5 0
v -69.5 -55.5 0
v -69.5 -55 0
v -69 -55 0
v -69.5 -55.5 0
v -70 -55.5 0
v -70 -55 0
v -69.5 -55 0
v -65 -56 0
v -65.5 -56 0
v -65.5 -55.5 0
v -65 -55.5 0
v -65.5 -56 0
v -66 -56 0
v -66 -55.5 0
v -65.5 -55.5 0
v -62.5 -56.5 0
v -63 -56.5 0
v -63 -56 0
v -62.5 -56 0
v -63 -56.5 0
v -63.5 -56.5 0
v -63.5 -56 0
v -63 -56 0
v -65 -56.5 0
v -65.5 -56.5 0
v -65.5 -56 0
v -65 -56 0
v -65.5 -56.5 0
v -66 -56.5 0
v -66 -56 0
v -65.5 -56 0
v -62.5 -57 0
v -63 -57 0
v -63 -56.5 0
v -62.5 -56.5 0
v -63 -57 0
v -63.5 -57 0
v -63.5 -56.5 0
v -63 -56.5 0
v -65 -57 0
v -65.5 -57 0
v -65.5 -56.5 0
v -65 -56.5 0
v -65.5 -57 0
v -66 -57 0
v -66 -56.5 0
v -65.5 -56.5 0
v -59.5 -57.5 0
v -60 -57.5 0
v -60 -57 0
v -59.5 -57 0
v -60 -57.5 0
v -60.5 -57.5 0
v -60.5 -57 0
v -60 -57 0
v -62.5 -57.5 0
v -63 -57.5 0
v -63 -57 0
v -62.5 -57 0
v -63 -57.5 0
v -63.5 -57.5 0
v -63.5 -57 0
v -63 -57 0
v -65 -57.5 0
v -65.5 -57.5 0
v -65.5 -57 0
v -65 -57 0
v -65.5 -57.5 0
v -66 -57.5 0
v -66 -57 0
v -65.5 -57 0
v -58.5 -58 0
v -59 -58 0
v -59 -57.5 0
v -58.5 -57.5 0
v -59 -58 0
v -59.5 -58 0
v -59.5 -57.5 0
v -59 -57.5 0
v -59.5 -58 0
v -60 -58 0
v -60 -57.5 0
v -59.5 -57.5 0
v -60 -58 0
v -60.5 -58 0
v -60.5 -57.5 0
v -60 -57.5 0
v -62.5 -58 0
v -63 -58 0
v -63 -57.5 0
v -62.5 -57.5 0
v -63 -58 0
v -63.5 -58 0
v -63.5 -57.5 0
v -63 -57.5 0
v -58.5 -58.5 0
v -59 -58.5 0
v -59 -58 0
v -58.5 -58 0
v -59 -58.5 0
v -59.5 -58.5 0
v -59.5 -58 0
v -59 -58 0
v -59.5 -58.5 0
v -60 -58.5 0
v -60 -58 0
v -59.5 -58 0
v -60 -58.5 0
v -60.5 -58.5 0
v -60.5 -58 0
v -60 -58 0
v -58.5 -59 0
v -59 -59 0
v -59 -58.5 0
v -58.5 -58.5 0
v -59 -59 0
v -59.5 -59 0
v -59.5 -58.5 0
v -59 -58.5 0
v -59.5 -59 0
v -60 -59 0
v -60 -58.5 0
v -59.5 -58.5 0
v -60 -59 0
v -60.5 -59 0
v -60.5 -58.5 0
v -60 -58.5 0
v -58.5 -59.5 0
v -59 -59.5 0
v -59 -59 0
v -58.5 -59 0
v -59 -59.5 0
v -59.5 -59.5 0
v -59.5 -59 0
v -59 -59 0

# Texture cooridinates (Count = 33)
vt 0.75 0.9878049
vt 0.8125 0.9878049
vt 0.8125 1
vt 0.75 1
vt 0.875 0.9878049
vt 0.875 1
vt 0.75 0.9756098
vt 0.8125 0.9756098
vt 0.875 0.9756098
vt 0.75 0.9634146
vt 0.8125 0.9634146
vt 0.875 0.9634146
vt 0.75 0.9512195
vt 0.8125 0.9512195
vt 0.875 0.9512195
vt 0 0.9634146
vt 0.0625 0.9634146
vt 0.0625 0.9756098
vt 0 0.9756098
vt 0.125 0.9634146
vt 0.125 0.9756098
vt 0 0.9512195
vt 0.0625 0.9512195
vt 0.125 0.9512195
vt 0.375 0.8170732
vt 0.4375 0.8170732
vt 0.4375 0.8292683
vt 0.375 0.8292683
vt 0.5 0.8170732
vt 0.5 0.8292683
vt 0.375 0.8048781
vt 0.4375 0.8048781
vt 0.5 0.8048781

# Normal
vn 0 0 -1

# Mesh description
g ciudadPrincipal_mesh_0035

# Faces
f 1/1/1 2/2/1 3/3/1 4/4/1
f 5/2/1 6/5/1 7/6/1 8/3/1
f 9/7/1 10/8/1 11/2/1 12/1/1
f 13/8/1 14/9/1 15/5/1 16/2/1
f 17/10/1 18/11/1 19/8/1 20/7/1
f 21/11/1 22/12/1 23/9/1 24/8/1
f 25/10/1 26/11/1 27/8/1 28/7/1
f 29/11/1 30/12/1 31/9/1 32/8/1
f 33/10/1 34/11/1 35/8/1 36/7/1
f 37/11/1 38/12/1 39/9/1 40/8/1
f 41/13/1 42/14/1 43/11/1 44/10/1
f 45/14/1 46/15/1 47/12/1 48/11/1
f 49/13/1 50/14/1 51/11/1 52/10/1
f 53/14/1 54/15/1 55/12/1 56/11/1
f 57/13/1 58/14/1 59/11/1 60/10/1
f 61/14/1 62/15/1 63/12/1 64/11/1
f 65/13/1 66/14/1 67/11/1 68/10/1
f 69/14/1 70/15/1 71/12/1 72/11/1
f 73/10/1 74/11/1 75/8/1 76/7/1
f 77/11/1 78/12/1 79/9/1 80/8/1
f 81/13/1 82/14/1 83/11/1 84/10/1
f 85/14/1 86/15/1 87/12/1 88/11/1
f 89/10/1 90/11/1 91/8/1 92/7/1
f 93/11/1 94/12/1 95/9/1 96/8/1
f 97/13/1 98/14/1 99/11/1 100/10/1
f 101/14/1 102/15/1 103/12/1 104/11/1
f 105/10/1 106/11/1 107/8/1 108/7/1
f 109/11/1 110/12/1 111/9/1 112/8/1
f 113/10/1 114/11/1 115/8/1 116/7/1
f 117/11/1 118/12/1 119/9/1 120/8/1
f 121/13/1 122/14/1 123/11/1 124/10/1
f 125/14/1 126/15/1 127/12/1 128/11/1
f 129/13/1 130/14/1 131/11/1 132/10/1
f 133/14/1 134/15/1 135/12/1 136/11/1
f 137/16/1 138/17/1 139/18/1 140/19/1
f 141/17/1 142/20/1 143/21/1 144/18/1
f 145/22/1 146/23/1 147/17/1 148/16/1
f 149/23/1 150/24/1 151/20/1 152/17/1
f 153/10/1 154/11/1 155/8/1 156/7/1
f 157/11/1 158/12/1 159/9/1 160/8/1
f 161/10/1 162/11/1 163/8/1 164/7/1
f 165/11/1 166/12/1 167/9/1 168/8/1
f 169/13/1 170/14/1 171/11/1 172/10/1
f 173/14/1 174/15/1 175/12/1 176/11/1
f 177/1/1 178/2/1 179/3/1 180/4/1
f 181/10/1 182/11/1 183/8/1 184/7/1
f 185/11/1 186/12/1 187/9/1 188/8/1
f 189/10/1 190/11/1 191/8/1 192/7/1
f 193/11/1 194/12/1 195/9/1 196/8/1
f 197/10/1 198/11/1 199/8/1 200/7/1
f 201/11/1 202/12/1 203/9/1 204/8/1
f 205/13/1 206/14/1 207/11/1 208/10/1
f 209/14/1 210/15/1 211/12/1 212/11/1
f 213/7/1 214/8/1 215/2/1 216/1/1
f 217/13/1 218/14/1 219/11/1 220/10/1
f 221/14/1 222/15/1 223/12/1 224/11/1
f 225/13/1 226/14/1 227/11/1 228/10/1
f 229/14/1 230/15/1 231/12/1 232/11/1
f 233/13/1 234/14/1 235/11/1 236/10/1
f 237/14/1 238/15/1 239/12/1 240/11/1
f 241/10/1 242/11/1 243/8/1 244/7/1
f 245/11/1 246/12/1 247/9/1 248/8/1
f 249/13/1 250/14/1 251/11/1 252/10/1
f 253/14/1 254/15/1 255/12/1 256/11/1
f 257/2/1 258/5/1 259/6/1 260/3/1
f 261/7/1 262/8/1 263/2/1 264/1/1
f 265/8/1 266/9/1 267/5/1 268/2/1
f 269/1/1 270/2/1 271/3/1 272/4/1
f 273/2/1 274/5/1 275/6/1 276/3/1
f 277/10/1 278/11/1 279/8/1 280/7/1
f 281/11/1 282/12/1 283/9/1 284/8/1
f 285/7/1 286/8/1 287/2/1 288/1/1
f 289/8/1 290/9/1 291/5/1 292/2/1
f 293/25/1 294/26/1 295/27/1 296/28/1
f 297/26/1 298/29/1 299/30/1 300/27/1
f 301/13/1 302/14/1 303/11/1 304/10/1
f 305/14/1 306/15/1 307/12/1 308/11/1
f 309/10/1 310/11/1 311/8/1 312/7/1
f 313/11/1 314/12/1 315/9/1 316/8/1
f 317/31/1 318/32/1 319/26/1 320/25/1
f 321/32/1 322/33/1 323/29/1 324/26/1
f 325/13/1 326/14/1 327/11/1 328/10/1
f 329/14/1 330/15/1 331/12/1 332/11/1
f 333/25/1 334/26/1 335/27/1 336/28/1
f 337/26/1 338/29/1 339/30/1 340/27/1
f 341/31/1 342/32/1 343/26/1 344/25/1
f 345/32/1 346/33/1 347/29/1 348/26/1
f 349/25/1 350/26/1 351/27/1 352/28/1
f 353/26/1 354/29/1 355/30/1 356/27/1
f 357/1/1 358/2/1 359/3/1 360/4/1
f 361/2/1 362/5/1 363/6/1 364/3/1
f 365/31/1 366/32/1 367/26/1 368/25/1
f 369/32/1 370/33/1 371/29/1 372/26/1
f 373/1/1 374/2/1 375/3/1 376/4/1
f 377/2/1 378/5/1 379/6/1 380/3/1
f 381/7/1 382/8/1 383/2/1 384/1/1
f 385/8/1 386/9/1 387/5/1 388/2/1
f 389/1/1 390/2/1 391/3/1 392/4/1
f 393/2/1 394/5/1 395/6/1 396/3/1
f 397/7/1 398/8/1 399/2/1 400/1/1
f 401/8/1 402/9/1 403/5/1 404/2/1
f 405/10/1 406/11/1 407/8/1 408/7/1
f 409/11/1 410/12/1 411/9/1 412/8/1
f 413/7/1 414/8/1 415/2/1 416/1/1
f 417/8/1 418/9/1 419/5/1 420/2/1
f 421/25/1 422/26/1 423/27/1 424/28/1
f 425/26/1 426/29/1 427/30/1 428/27/1
f 429/10/1 430/11/1 431/8/1 432/7/1
f 433/11/1 434/12/1 435/9/1 436/8/1
f 437/13/1 438/14/1 439/11/1 440/10/1
f 441/14/1 442/15/1 443/12/1 444/11/1
f 445/10/1 446/11/1 447/8/1 448/7/1
f 449/11/1 450/12/1 451/9/1 452/8/1
f 453/31/1 454/32/1 455/26/1 456/25/1
f 457/32/1 458/33/1 459/29/1 460/26/1
f 461/13/1 462/14/1 463/11/1 464/10/1
f 465/14/1 466/15/1 467/12/1 468/11/1
f 469/13/1 470/14/1 471/11/1 472/10/1
f 473/14/1 474/15/1 475/12/1 476/11/1
f 477/25/1 478/26/1 479/27/1 480/28/1
f 481/26/1 482/29/1 483/30/1 484/27/1
f 485/31/1 486/32/1 487/26/1 488/25/1
f 489/32/1 490/33/1 491/29/1 492/26/1
f 493/1/1 494/2/1 495/3/1 496/4/1
f 497/2/1 498/5/1 499/6/1 500/3/1
f 501/1/1 502/2/1 503/3/1 504/4/1
f 505/2/1 506/5/1 507/6/1 508/3/1
f 509/1/1 510/2/1 511/3/1 512/4/1
f 513/2/1 514/5/1 515/6/1 516/3/1
f 517/7/1 518/8/1 519/2/1 520/1/1
f 521/8/1 522/9/1 523/5/1 524/2/1
f 525/7/1 526/8/1 527/2/1 528/1/1
f 529/8/1 530/9/1 531/5/1 532/2/1
f 533/7/1 534/8/1 535/2/1 536/1/1
f 537/8/1 538/9/1 539/5/1 540/2/1
f 541/10/1 542/11/1 543/8/1 544/7/1
f 545/11/1 546/12/1 547/9/1 548/8/1
f 549/10/1 550/11/1 551/8/1 552/7/1
f 553/11/1 554/12/1 555/9/1 556/8/1
f 557/10/1 558/11/1 559/8/1 560/7/1
f 561/11/1 562/12/1 563/9/1 564/8/1
f 565/1/1 566/2/1 567/3/1 568/4/1
f 569/2/1 570/5/1 571/6/1 572/3/1
f 573/13/1 574/14/1 575/11/1 576/10/1
f 577/14/1 578/15/1 579/12/1 580/11/1
f 581/13/1 582/14/1 583/11/1 584/10/1
f 585/14/1 586/15/1 587/12/1 588/11/1
f 589/13/1 590/14/1 591/11/1 592/10/1
f 593/14/1 594/15/1 595/12/1 596/11/1
f 597/7/1 598/8/1 599/2/1 600/1/1
f 601/8/1 602/9/1 603/5/1 604/2/1
f 605/10/1 606/11/1 607/8/1 608/7/1
f 609/11/1 610/12/1 611/9/1 612/8/1
f 613/13/1 614/14/1 615/11/1 616/10/1
f 617/14/1 618/15/1 619/12/1 620/11/1
f 621/1/1 622/2/1 623/3/1 624/4/1
f 625/2/1 626/5/1 627/6/1 628/3/1
f 629/1/1 630/2/1 631/3/1 632/4/1
f 633/2/1 634/5/1 635/6/1 636/3/1
f 637/7/1 638/8/1 639/2/1 640/1/1
f 641/8/1 642/9/1 643/5/1 644/2/1
f 645/7/1 646/8/1 647/2/1 648/1/1
f 649/8/1 650/9/1 651/5/1 652/2/1
f 653/10/1 654/11/1 655/8/1 656/7/1
f 657/11/1 658/12/1 659/9/1 660/8/1
f 661/1/1 662/2/1 663/3/1 664/4/1
f 665/2/1 666/5/1 667/6/1 668/3/1
f 669/10/1 670/11/1 671/8/1 672/7/1
f 673/11/1 674/12/1 675/9/1 676/8/1
f 677/13/1 678/14/1 679/11/1 680/10/1
f 681/14/1 682/15/1 683/12/1 684/11/1
f 685/1/1 686/2/1 687/3/1 688/4/1
f 689/2/1 690/5/1 691/6/1 692/3/1
f 693/7/1 694/8/1 695/2/1 696/1/1
f 697/8/1 698/9/1 699/5/1 700/2/1
f 701/13/1 702/14/1 703/11/1 704/10/1
f 705/14/1 706/15/1 707/12/1 708/11/1
f 709/7/1 710/8/1 711/2/1 712/1/1
f 713/8/1 714/9/1 715/5/1 716/2/1
f 717/10/1 718/11/1 719/8/1 720/7/1
f 721/11/1 722/12/1 723/9/1 724/8/1
f 725/10/1 726/11/1 727/8/1 728/7/1
f 729/11/1 730/12/1 731/9/1 732/8/1
f 733/13/1 734/14/1 735/11/1 736/10/1
f 737/14/1 738/15/1 739/12/1 740/11/1
f 741/13/1 742/14/1 743/11/1 744/10/1
f 745/14/1 746/15/1 747/12/1 748/11/1

