# Tiled2Unity generated file. Do not modify by hand.
# Wavefront file for 'ciudadPrincipal_mesh_0022.obj'

# Vertices (Count = 432)
v -12 -0.5 0
v -12.5 -0.5 0
v -12.5 0 0
v -12 0 0
v -12.5 -0.5 0
v -13 -0.5 0
v -13 0 0
v -12.5 0 0
v -13 -0.5 0
v -13.5 -0.5 0
v -13.5 0 0
v -13 0 0
v -13.5 -0.5 0
v -14 -0.5 0
v -14 0 0
v -13.5 0 0
v -15.5 -0.5 0
v -16 -0.5 0
v -16 0 0
v -15.5 0 0
v -16 -0.5 0
v -16.5 -0.5 0
v -16.5 0 0
v -16 0 0
v -16.5 -0.5 0
v -17 -0.5 0
v -17 0 0
v -16.5 0 0
v -12 -1 0
v -12.5 -1 0
v -12.5 -0.5 0
v -12 -0.5 0
v -12.5 -1 0
v -13 -1 0
v -13 -0.5 0
v -12.5 -0.5 0
v -16.5 -1 0
v -17 -1 0
v -17 -0.5 0
v -16.5 -0.5 0
v -12 -2 0
v -12.5 -2 0
v -12.5 -1.5 0
v -12 -1.5 0
v -12.5 -2 0
v -13 -2 0
v -13 -1.5 0
v -12.5 -1.5 0
v -13 -2 0
v -13.5 -2 0
v -13.5 -1.5 0
v -13 -1.5 0
v -13.5 -2 0
v -14 -2 0
v -14 -1.5 0
v -13.5 -1.5 0
v -14 -2 0
v -14.5 -2 0
v -14.5 -1.5 0
v -14 -1.5 0
v -14.5 -2 0
v -15 -2 0
v -15 -1.5 0
v -14.5 -1.5 0
v -15 -2 0
v -15.5 -2 0
v -15.5 -1.5 0
v -15 -1.5 0
v -15.5 -2 0
v -16 -2 0
v -16 -1.5 0
v -15.5 -1.5 0
v -16 -2 0
v -16.5 -2 0
v -16.5 -1.5 0
v -16 -1.5 0
v -16.5 -2 0
v -17 -2 0
v -17 -1.5 0
v -16.5 -1.5 0
v -12 -2.5 0
v -12.5 -2.5 0
v -12.5 -2 0
v -12 -2 0
v -12.5 -2.5 0
v -13 -2.5 0
v -13 -2 0
v -12.5 -2 0
v -13 -2.5 0
v -13.5 -2.5 0
v -13.5 -2 0
v -13 -2 0
v -13.5 -2.5 0
v -14 -2.5 0
v -14 -2 0
v -13.5 -2 0
v -14 -2.5 0
v -14.5 -2.5 0
v -14.5 -2 0
v -14 -2 0
v -14.5 -2.5 0
v -15 -2.5 0
v -15 -2 0
v -14.5 -2 0
v -15 -2.5 0
v -15.5 -2.5 0
v -15.5 -2 0
v -15 -2 0
v -15.5 -2.5 0
v -16 -2.5 0
v -16 -2 0
v -15.5 -2 0
v -16 -2.5 0
v -16.5 -2.5 0
v -16.5 -2 0
v -16 -2 0
v -16.5 -2.5 0
v -17 -2.5 0
v -17 -2 0
v -16.5 -2 0
v -12 -3 0
v -12.5 -3 0
v -12.5 -2.5 0
v -12 -2.5 0
v -12.5 -3 0
v -13 -3 0
v -13 -2.5 0
v -12.5 -2.5 0
v -13 -3 0
v -13.5 -3 0
v -13.5 -2.5 0
v -13 -2.5 0
v -13.5 -3 0
v -14 -3 0
v -14 -2.5 0
v -13.5 -2.5 0
v -14 -3 0
v -14.5 -3 0
v -14.5 -2.5 0
v -14 -2.5 0
v -14.5 -3 0
v -15 -3 0
v -15 -2.5 0
v -14.5 -2.5 0
v -15 -3 0
v -15.5 -3 0
v -15.5 -2.5 0
v -15 -2.5 0
v -15.5 -3 0
v -16 -3 0
v -16 -2.5 0
v -15.5 -2.5 0
v -16 -3 0
v -16.5 -3 0
v -16.5 -2.5 0
v -16 -2.5 0
v -16.5 -3 0
v -17 -3 0
v -17 -2.5 0
v -16.5 -2.5 0
v -12 -3.5 0
v -12.5 -3.5 0
v -12.5 -3 0
v -12 -3 0
v -12.5 -3.5 0
v -13 -3.5 0
v -13 -3 0
v -12.5 -3 0
v -13 -3.5 0
v -13.5 -3.5 0
v -13.5 -3 0
v -13 -3 0
v -13.5 -3.5 0
v -14 -3.5 0
v -14 -3 0
v -13.5 -3 0
v -14 -3.5 0
v -14.5 -3.5 0
v -14.5 -3 0
v -14 -3 0
v -14.5 -3.5 0
v -15 -3.5 0
v -15 -3 0
v -14.5 -3 0
v -15 -3.5 0
v -15.5 -3.5 0
v -15.5 -3 0
v -15 -3 0
v -15.5 -3.5 0
v -16 -3.5 0
v -16 -3 0
v -15.5 -3 0
v -16 -3.5 0
v -16.5 -3.5 0
v -16.5 -3 0
v -16 -3 0
v -16.5 -3.5 0
v -17 -3.5 0
v -17 -3 0
v -16.5 -3 0
v -12 -4 0
v -12.5 -4 0
v -12.5 -3.5 0
v -12 -3.5 0
v -12.5 -4 0
v -13 -4 0
v -13 -3.5 0
v -12.5 -3.5 0
v -13 -4 0
v -13.5 -4 0
v -13.5 -3.5 0
v -13 -3.5 0
v -13.5 -4 0
v -14 -4 0
v -14 -3.5 0
v -13.5 -3.5 0
v -14 -4 0
v -14.5 -4 0
v -14.5 -3.5 0
v -14 -3.5 0
v -14.5 -4 0
v -15 -4 0
v -15 -3.5 0
v -14.5 -3.5 0
v -15 -4 0
v -15.5 -4 0
v -15.5 -3.5 0
v -15 -3.5 0
v -15.5 -4 0
v -16 -4 0
v -16 -3.5 0
v -15.5 -3.5 0
v -16 -4 0
v -16.5 -4 0
v -16.5 -3.5 0
v -16 -3.5 0
v -16.5 -4 0
v -17 -4 0
v -17 -3.5 0
v -16.5 -3.5 0
v -12 -4.5 0
v -12.5 -4.5 0
v -12.5 -4 0
v -12 -4 0
v -12.5 -4.5 0
v -13 -4.5 0
v -13 -4 0
v -12.5 -4 0
v -13 -4.5 0
v -13.5 -4.5 0
v -13.5 -4 0
v -13 -4 0
v -13.5 -4.5 0
v -14 -4.5 0
v -14 -4 0
v -13.5 -4 0
v -14 -4.5 0
v -14.5 -4.5 0
v -14.5 -4 0
v -14 -4 0
v -14.5 -4.5 0
v -15 -4.5 0
v -15 -4 0
v -14.5 -4 0
v -15 -4.5 0
v -15.5 -4.5 0
v -15.5 -4 0
v -15 -4 0
v -15.5 -4.5 0
v -16 -4.5 0
v -16 -4 0
v -15.5 -4 0
v -16 -4.5 0
v -16.5 -4.5 0
v -16.5 -4 0
v -16 -4 0
v -16.5 -4.5 0
v -17 -4.5 0
v -17 -4 0
v -16.5 -4 0
v -12 -5 0
v -12.5 -5 0
v -12.5 -4.5 0
v -12 -4.5 0
v -12.5 -5 0
v -13 -5 0
v -13 -4.5 0
v -12.5 -4.5 0
v -13 -5 0
v -13.5 -5 0
v -13.5 -4.5 0
v -13 -4.5 0
v -13.5 -5 0
v -14 -5 0
v -14 -4.5 0
v -13.5 -4.5 0
v -14 -5 0
v -14.5 -5 0
v -14.5 -4.5 0
v -14 -4.5 0
v -14.5 -5 0
v -15 -5 0
v -15 -4.5 0
v -14.5 -4.5 0
v -15 -5 0
v -15.5 -5 0
v -15.5 -4.5 0
v -15 -4.5 0
v -15.5 -5 0
v -16 -5 0
v -16 -4.5 0
v -15.5 -4.5 0
v -16 -5 0
v -16.5 -5 0
v -16.5 -4.5 0
v -16 -4.5 0
v -16.5 -5 0
v -17 -5 0
v -17 -4.5 0
v -16.5 -4.5 0
v -12 -5.5 0
v -12.5 -5.5 0
v -12.5 -5 0
v -12 -5 0
v -12.5 -5.5 0
v -13 -5.5 0
v -13 -5 0
v -12.5 -5 0
v -13 -5.5 0
v -13.5 -5.5 0
v -13.5 -5 0
v -13 -5 0
v -13.5 -5.5 0
v -14 -5.5 0
v -14 -5 0
v -13.5 -5 0
v -14 -5.5 0
v -14.5 -5.5 0
v -14.5 -5 0
v -14 -5 0
v -14.5 -5.5 0
v -15 -5.5 0
v -15 -5 0
v -14.5 -5 0
v -15 -5.5 0
v -15.5 -5.5 0
v -15.5 -5 0
v -15 -5 0
v -15.5 -5.5 0
v -16 -5.5 0
v -16 -5 0
v -15.5 -5 0
v -16 -5.5 0
v -16.5 -5.5 0
v -16.5 -5 0
v -16 -5 0
v -16.5 -5.5 0
v -17 -5.5 0
v -17 -5 0
v -16.5 -5 0
v -12 -6 0
v -12.5 -6 0
v -12.5 -5.5 0
v -12 -5.5 0
v -12.5 -6 0
v -13 -6 0
v -13 -5.5 0
v -12.5 -5.5 0
v -13 -6 0
v -13.5 -6 0
v -13.5 -5.5 0
v -13 -5.5 0
v -13.5 -6 0
v -14 -6 0
v -14 -5.5 0
v -13.5 -5.5 0
v -15 -6 0
v -15.5 -6 0
v -15.5 -5.5 0
v -15 -5.5 0
v -15.5 -6 0
v -16 -6 0
v -16 -5.5 0
v -15.5 -5.5 0
v -16 -6 0
v -16.5 -6 0
v -16.5 -5.5 0
v -16 -5.5 0
v -16.5 -6 0
v -17 -6 0
v -17 -5.5 0
v -16.5 -5.5 0
v -12 -6.5 0
v -12.5 -6.5 0
v -12.5 -6 0
v -12 -6 0
v -12.5 -6.5 0
v -13 -6.5 0
v -13 -6 0
v -12.5 -6 0
v -13 -6.5 0
v -13.5 -6.5 0
v -13.5 -6 0
v -13 -6 0
v -13.5 -6.5 0
v -14 -6.5 0
v -14 -6 0
v -13.5 -6 0
v -15 -6.5 0
v -15.5 -6.5 0
v -15.5 -6 0
v -15 -6 0
v -15.5 -6.5 0
v -16 -6.5 0
v -16 -6 0
v -15.5 -6 0
v -16 -6.5 0
v -16.5 -6.5 0
v -16.5 -6 0
v -16 -6 0
v -16.5 -6.5 0
v -17 -6.5 0
v -17 -6 0
v -16.5 -6 0
v -12 -7 0
v -12.5 -7 0
v -12.5 -6.5 0
v -12 -6.5 0
v -16.5 -7 0
v -17 -7 0
v -17 -6.5 0
v -16.5 -6.5 0

# Texture cooridinates (Count = 147)
vt 0 0.96875
vt 0.03125 0.96875
vt 0.03125 1
vt 0 1
vt 0.0625 0.96875
vt 0.0625 1
vt 0.09375 0.96875
vt 0.09375 1
vt 0.125 0.96875
vt 0.125 1
vt 0.21875 0.96875
vt 0.25 0.96875
vt 0.25 1
vt 0.21875 1
vt 0.28125 0.96875
vt 0.28125 1
vt 0.3125 0.96875
vt 0.3125 1
vt 0 0.9375
vt 0.03125 0.9375
vt 0.0625 0.9375
vt 0.28125 0.9375
vt 0.3125 0.9375
vt 0 0.875
vt 0.03125 0.875
vt 0.03125 0.90625
vt 0 0.90625
vt 0.0625 0.875
vt 0.0625 0.90625
vt 0.09375 0.875
vt 0.09375 0.90625
vt 0.125 0.875
vt 0.125 0.90625
vt 0.15625 0.875
vt 0.15625 0.90625
vt 0.1875 0.875
vt 0.1875 0.90625
vt 0.21875 0.875
vt 0.21875 0.90625
vt 0.25 0.875
vt 0.25 0.90625
vt 0.28125 0.875
vt 0.28125 0.90625
vt 0.3125 0.875
vt 0.3125 0.90625
vt 0 0.84375
vt 0.03125 0.84375
vt 0.0625 0.84375
vt 0.09375 0.84375
vt 0.125 0.84375
vt 0.15625 0.84375
vt 0.1875 0.84375
vt 0.21875 0.84375
vt 0.25 0.84375
vt 0.28125 0.84375
vt 0.3125 0.84375
vt 0 0.8125
vt 0.03125 0.8125
vt 0.0625 0.8125
vt 0.09375 0.8125
vt 0.125 0.8125
vt 0.15625 0.8125
vt 0.1875 0.8125
vt 0.21875 0.8125
vt 0.25 0.8125
vt 0.28125 0.8125
vt 0.3125 0.8125
vt 0 0.78125
vt 0.03125 0.78125
vt 0.0625 0.78125
vt 0.09375 0.78125
vt 0.125 0.78125
vt 0.15625 0.78125
vt 0.1875 0.78125
vt 0.21875 0.78125
vt 0.25 0.78125
vt 0.28125 0.78125
vt 0.3125 0.78125
vt 0 0.75
vt 0.03125 0.75
vt 0.0625 0.75
vt 0.09375 0.75
vt 0.125 0.75
vt 0.15625 0.75
vt 0.1875 0.75
vt 0.21875 0.75
vt 0.25 0.75
vt 0.28125 0.75
vt 0.3125 0.75
vt 0 0.71875
vt 0.03125 0.71875
vt 0.0625 0.71875
vt 0.09375 0.71875
vt 0.125 0.71875
vt 0.15625 0.71875
vt 0.1875 0.71875
vt 0.21875 0.71875
vt 0.25 0.71875
vt 0.28125 0.71875
vt 0.3125 0.71875
vt 0 0.6875
vt 0.03125 0.6875
vt 0.0625 0.6875
vt 0.09375 0.6875
vt 0.125 0.6875
vt 0.15625 0.6875
vt 0.1875 0.6875
vt 0.21875 0.6875
vt 0.25 0.6875
vt 0.28125 0.6875
vt 0.3125 0.6875
vt 0.3125 0.09375
vt 0.34375 0.09375
vt 0.34375 0.125
vt 0.3125 0.125
vt 0.375 0.09375
vt 0.375 0.125
vt 0.375 0.15625
vt 0.34375 0.15625
vt 0.40625 0.125
vt 0.40625 0.15625
vt 0.40625 0.09375
vt 0.4375 0.09375
vt 0.4375 0.125
vt 0.3125 0.0625
vt 0.34375 0.0625
vt 0.25 0.1875
vt 0.28125 0.1875
vt 0.28125 0.21875
vt 0.25 0.21875
vt 0.3125 0.1875
vt 0.3125 0.21875
vt 0.375 0.0625
vt 0.40625 0.0625
vt 0.4375 0.0625
vt 0.3125 0.03125
vt 0.34375 0.03125
vt 0.25 0.15625
vt 0.28125 0.15625
vt 0.3125 0.15625
vt 0.375 0.03125
vt 0.40625 0.03125
vt 0.4375 0.03125
vt 0.3125 0
vt 0.34375 0
vt 0.40625 0
vt 0.4375 0

# Normal
vn 0 0 -1

# Mesh description
g ciudadPrincipal_mesh_0022

# Faces
f 1/1/1 2/2/1 3/3/1 4/4/1
f 5/2/1 6/5/1 7/6/1 8/3/1
f 9/5/1 10/7/1 11/8/1 12/6/1
f 13/7/1 14/9/1 15/10/1 16/8/1
f 17/11/1 18/12/1 19/13/1 20/14/1
f 21/12/1 22/15/1 23/16/1 24/13/1
f 25/15/1 26/17/1 27/18/1 28/16/1
f 29/19/1 30/20/1 31/2/1 32/1/1
f 33/20/1 34/21/1 35/5/1 36/2/1
f 37/22/1 38/23/1 39/17/1 40/15/1
f 41/24/1 42/25/1 43/26/1 44/27/1
f 45/25/1 46/28/1 47/29/1 48/26/1
f 49/28/1 50/30/1 51/31/1 52/29/1
f 53/30/1 54/32/1 55/33/1 56/31/1
f 57/32/1 58/34/1 59/35/1 60/33/1
f 61/34/1 62/36/1 63/37/1 64/35/1
f 65/36/1 66/38/1 67/39/1 68/37/1
f 69/38/1 70/40/1 71/41/1 72/39/1
f 73/40/1 74/42/1 75/43/1 76/41/1
f 77/42/1 78/44/1 79/45/1 80/43/1
f 81/46/1 82/47/1 83/25/1 84/24/1
f 85/47/1 86/48/1 87/28/1 88/25/1
f 89/48/1 90/49/1 91/30/1 92/28/1
f 93/49/1 94/50/1 95/32/1 96/30/1
f 97/50/1 98/51/1 99/34/1 100/32/1
f 101/51/1 102/52/1 103/36/1 104/34/1
f 105/52/1 106/53/1 107/38/1 108/36/1
f 109/53/1 110/54/1 111/40/1 112/38/1
f 113/54/1 114/55/1 115/42/1 116/40/1
f 117/55/1 118/56/1 119/44/1 120/42/1
f 121/57/1 122/58/1 123/47/1 124/46/1
f 125/58/1 126/59/1 127/48/1 128/47/1
f 129/59/1 130/60/1 131/49/1 132/48/1
f 133/60/1 134/61/1 135/50/1 136/49/1
f 137/61/1 138/62/1 139/51/1 140/50/1
f 141/62/1 142/63/1 143/52/1 144/51/1
f 145/63/1 146/64/1 147/53/1 148/52/1
f 149/64/1 150/65/1 151/54/1 152/53/1
f 153/65/1 154/66/1 155/55/1 156/54/1
f 157/66/1 158/67/1 159/56/1 160/55/1
f 161/68/1 162/69/1 163/58/1 164/57/1
f 165/69/1 166/70/1 167/59/1 168/58/1
f 169/70/1 170/71/1 171/60/1 172/59/1
f 173/71/1 174/72/1 175/61/1 176/60/1
f 177/72/1 178/73/1 179/62/1 180/61/1
f 181/73/1 182/74/1 183/63/1 184/62/1
f 185/74/1 186/75/1 187/64/1 188/63/1
f 189/75/1 190/76/1 191/65/1 192/64/1
f 193/76/1 194/77/1 195/66/1 196/65/1
f 197/77/1 198/78/1 199/67/1 200/66/1
f 201/79/1 202/80/1 203/69/1 204/68/1
f 205/80/1 206/81/1 207/70/1 208/69/1
f 209/81/1 210/82/1 211/71/1 212/70/1
f 213/82/1 214/83/1 215/72/1 216/71/1
f 217/83/1 218/84/1 219/73/1 220/72/1
f 221/84/1 222/85/1 223/74/1 224/73/1
f 225/85/1 226/86/1 227/75/1 228/74/1
f 229/86/1 230/87/1 231/76/1 232/75/1
f 233/87/1 234/88/1 235/77/1 236/76/1
f 237/88/1 238/89/1 239/78/1 240/77/1
f 241/90/1 242/91/1 243/80/1 244/79/1
f 245/91/1 246/92/1 247/81/1 248/80/1
f 249/92/1 250/93/1 251/82/1 252/81/1
f 253/93/1 254/94/1 255/83/1 256/82/1
f 257/94/1 258/95/1 259/84/1 260/83/1
f 261/95/1 262/96/1 263/85/1 264/84/1
f 265/96/1 266/97/1 267/86/1 268/85/1
f 269/97/1 270/98/1 271/87/1 272/86/1
f 273/98/1 274/99/1 275/88/1 276/87/1
f 277/99/1 278/100/1 279/89/1 280/88/1
f 281/101/1 282/102/1 283/91/1 284/90/1
f 285/102/1 286/103/1 287/92/1 288/91/1
f 289/103/1 290/104/1 291/93/1 292/92/1
f 293/104/1 294/105/1 295/94/1 296/93/1
f 297/105/1 298/106/1 299/95/1 300/94/1
f 301/106/1 302/107/1 303/96/1 304/95/1
f 305/107/1 306/108/1 307/97/1 308/96/1
f 309/108/1 310/109/1 311/98/1 312/97/1
f 313/109/1 314/110/1 315/99/1 316/98/1
f 317/110/1 318/111/1 319/100/1 320/99/1
f 321/112/1 322/113/1 323/114/1 324/115/1
f 325/113/1 326/116/1 327/117/1 328/114/1
f 329/113/1 330/116/1 331/117/1 332/114/1
f 333/113/1 334/116/1 335/117/1 336/114/1
f 337/114/1 338/117/1 339/118/1 340/119/1
f 341/117/1 342/120/1 343/121/1 344/118/1
f 345/113/1 346/116/1 347/117/1 348/114/1
f 349/113/1 350/116/1 351/117/1 352/114/1
f 353/116/1 354/122/1 355/120/1 356/117/1
f 357/122/1 358/123/1 359/124/1 360/120/1
f 361/125/1 362/126/1 363/113/1 364/112/1
f 365/127/1 366/128/1 367/129/1 368/130/1
f 369/128/1 370/131/1 371/132/1 372/129/1
f 373/126/1 374/133/1 375/116/1 376/113/1
f 377/126/1 378/133/1 379/116/1 380/113/1
f 381/127/1 382/128/1 383/129/1 384/130/1
f 385/128/1 386/131/1 387/132/1 388/129/1
f 389/134/1 390/135/1 391/123/1 392/122/1
f 393/136/1 394/137/1 395/126/1 396/125/1
f 397/138/1 398/139/1 399/128/1 400/127/1
f 401/139/1 402/140/1 403/131/1 404/128/1
f 405/137/1 406/141/1 407/133/1 408/126/1
f 409/137/1 410/141/1 411/133/1 412/126/1
f 413/138/1 414/139/1 415/128/1 416/127/1
f 417/139/1 418/140/1 419/131/1 420/128/1
f 421/142/1 422/143/1 423/135/1 424/134/1
f 425/144/1 426/145/1 427/137/1 428/136/1
f 429/146/1 430/147/1 431/143/1 432/142/1

