# Tiled2Unity generated file. Do not modify by hand.
# Wavefront file for 'ciudadPrincipal_mesh_0004.obj'

# Vertices (Count = 16)
v -9 -6 0
v -9.5 -6 0
v -9.5 -5.5 0
v -9 -5.5 0
v -9.5 -6 0
v -10 -6 0
v -10 -5.5 0
v -9.5 -5.5 0
v -9 -6.5 0
v -9.5 -6.5 0
v -9.5 -6 0
v -9 -6 0
v -9.5 -6.5 0
v -10 -6.5 0
v -10 -6 0
v -9.5 -6 0

# Texture cooridinates (Count = 9)
vt 0 0.5625
vt 0.03125 0.5625
vt 0.03125 0.59375
vt 0 0.59375
vt 0.0625 0.5625
vt 0.0625 0.59375
vt 0 0.53125
vt 0.03125 0.53125
vt 0.0625 0.53125

# Normal
vn 0 0 -1

# Mesh description
g ciudadPrincipal_mesh_0004

# Faces
f 1/1/1 2/2/1 3/3/1 4/4/1
f 5/2/1 6/5/1 7/6/1 8/3/1
f 9/7/1 10/8/1 11/2/1 12/1/1
f 13/8/1 14/9/1 15/5/1 16/2/1

