# Tiled2Unity generated file. Do not modify by hand.
# Wavefront file for 'ciudadPrincipal_mesh_0050.obj'

# Vertices (Count = 160)
v -60 -9.5 0
v -60.5 -9.5 0
v -60.5 -9 0
v -60 -9 0
v -60.5 -9.5 0
v -61 -9.5 0
v -61 -9 0
v -60.5 -9 0
v -60 -10 0
v -60.5 -10 0
v -60.5 -9.5 0
v -60 -9.5 0
v -60.5 -10 0
v -61 -10 0
v -61 -9.5 0
v -60.5 -9.5 0
v -59 -11 0
v -59.5 -11 0
v -59.5 -10.5 0
v -59 -10.5 0
v -59.5 -11 0
v -60 -11 0
v -60 -10.5 0
v -59.5 -10.5 0
v -54 -11.5 0
v -54.5 -11.5 0
v -54.5 -11 0
v -54 -11 0
v -54.5 -11.5 0
v -55 -11.5 0
v -55 -11 0
v -54.5 -11 0
v -57 -11.5 0
v -57.5 -11.5 0
v -57.5 -11 0
v -57 -11 0
v -57.5 -11.5 0
v -58 -11.5 0
v -58 -11 0
v -57.5 -11 0
v -59 -11.5 0
v -59.5 -11.5 0
v -59.5 -11 0
v -59 -11 0
v -59.5 -11.5 0
v -60 -11.5 0
v -60 -11 0
v -59.5 -11 0
v -54 -12 0
v -54.5 -12 0
v -54.5 -11.5 0
v -54 -11.5 0
v -54.5 -12 0
v -55 -12 0
v -55 -11.5 0
v -54.5 -11.5 0
v -57 -12 0
v -57.5 -12 0
v -57.5 -11.5 0
v -57 -11.5 0
v -57.5 -12 0
v -58 -12 0
v -58 -11.5 0
v -57.5 -11.5 0
v -50.5 -12.5 0
v -51 -12.5 0
v -51 -12 0
v -50.5 -12 0
v -51 -12.5 0
v -51.5 -12.5 0
v -51.5 -12 0
v -51 -12 0
v -55 -12.5 0
v -55.5 -12.5 0
v -55.5 -12 0
v -55 -12 0
v -55.5 -12.5 0
v -56 -12.5 0
v -56 -12 0
v -55.5 -12 0
v -59 -12.5 0
v -59.5 -12.5 0
v -59.5 -12 0
v -59 -12 0
v -59.5 -12.5 0
v -60 -12.5 0
v -60 -12 0
v -59.5 -12 0
v -50.5 -13 0
v -51 -13 0
v -51 -12.5 0
v -50.5 -12.5 0
v -51 -13 0
v -51.5 -13 0
v -51.5 -12.5 0
v -51 -12.5 0
v -52.5 -13 0
v -53 -13 0
v -53 -12.5 0
v -52.5 -12.5 0
v -53 -13 0
v -53.5 -13 0
v -53.5 -12.5 0
v -53 -12.5 0
v -55 -13 0
v -55.5 -13 0
v -55.5 -12.5 0
v -55 -12.5 0
v -55.5 -13 0
v -56 -13 0
v -56 -12.5 0
v -55.5 -12.5 0
v -59 -13 0
v -59.5 -13 0
v -59.5 -12.5 0
v -59 -12.5 0
v -59.5 -13 0
v -60 -13 0
v -60 -12.5 0
v -59.5 -12.5 0
v -52.5 -13.5 0
v -53 -13.5 0
v -53 -13 0
v -52.5 -13 0
v -53 -13.5 0
v -53.5 -13.5 0
v -53.5 -13 0
v -53 -13 0
v -57 -13.5 0
v -57.5 -13.5 0
v -57.5 -13 0
v -57 -13 0
v -57.5 -13.5 0
v -58 -13.5 0
v -58 -13 0
v -57.5 -13 0
v -51 -14 0
v -51.5 -14 0
v -51.5 -13.5 0
v -51 -13.5 0
v -51.5 -14 0
v -52 -14 0
v -52 -13.5 0
v -51.5 -13.5 0
v -57 -14 0
v -57.5 -14 0
v -57.5 -13.5 0
v -57 -13.5 0
v -57.5 -14 0
v -58 -14 0
v -58 -13.5 0
v -57.5 -13.5 0
v -51 -14.5 0
v -51.5 -14.5 0
v -51.5 -14 0
v -51 -14 0
v -51.5 -14.5 0
v -52 -14.5 0
v -52 -14 0
v -51.5 -14 0

# Texture cooridinates (Count = 9)
vt 0.25 0.53125
vt 0.28125 0.53125
vt 0.28125 0.5625
vt 0.25 0.5625
vt 0.3125 0.53125
vt 0.3125 0.5625
vt 0.25 0.5
vt 0.28125 0.5
vt 0.3125 0.5

# Normal
vn 0 0 -1

# Mesh description
g ciudadPrincipal_mesh_0050

# Faces
f 1/1/1 2/2/1 3/3/1 4/4/1
f 5/2/1 6/5/1 7/6/1 8/3/1
f 9/7/1 10/8/1 11/2/1 12/1/1
f 13/8/1 14/9/1 15/5/1 16/2/1
f 17/1/1 18/2/1 19/3/1 20/4/1
f 21/2/1 22/5/1 23/6/1 24/3/1
f 25/1/1 26/2/1 27/3/1 28/4/1
f 29/2/1 30/5/1 31/6/1 32/3/1
f 33/1/1 34/2/1 35/3/1 36/4/1
f 37/2/1 38/5/1 39/6/1 40/3/1
f 41/7/1 42/8/1 43/2/1 44/1/1
f 45/8/1 46/9/1 47/5/1 48/2/1
f 49/7/1 50/8/1 51/2/1 52/1/1
f 53/8/1 54/9/1 55/5/1 56/2/1
f 57/7/1 58/8/1 59/2/1 60/1/1
f 61/8/1 62/9/1 63/5/1 64/2/1
f 65/1/1 66/2/1 67/3/1 68/4/1
f 69/2/1 70/5/1 71/6/1 72/3/1
f 73/1/1 74/2/1 75/3/1 76/4/1
f 77/2/1 78/5/1 79/6/1 80/3/1
f 81/1/1 82/2/1 83/3/1 84/4/1
f 85/2/1 86/5/1 87/6/1 88/3/1
f 89/7/1 90/8/1 91/2/1 92/1/1
f 93/8/1 94/9/1 95/5/1 96/2/1
f 97/1/1 98/2/1 99/3/1 100/4/1
f 101/2/1 102/5/1 103/6/1 104/3/1
f 105/7/1 106/8/1 107/2/1 108/1/1
f 109/8/1 110/9/1 111/5/1 112/2/1
f 113/7/1 114/8/1 115/2/1 116/1/1
f 117/8/1 118/9/1 119/5/1 120/2/1
f 121/7/1 122/8/1 123/2/1 124/1/1
f 125/8/1 126/9/1 127/5/1 128/2/1
f 129/1/1 130/2/1 131/3/1 132/4/1
f 133/2/1 134/5/1 135/6/1 136/3/1
f 137/1/1 138/2/1 139/3/1 140/4/1
f 141/2/1 142/5/1 143/6/1 144/3/1
f 145/7/1 146/8/1 147/2/1 148/1/1
f 149/8/1 150/9/1 151/5/1 152/2/1
f 153/7/1 154/8/1 155/2/1 156/1/1
f 157/8/1 158/9/1 159/5/1 160/2/1

