# Tiled2Unity generated file. Do not modify by hand.
# Wavefront file for 'ciudadPrincipal_mesh_0007.obj'

# Vertices (Count = 72)
v -16 -15 0
v -16.5 -15 0
v -16.5 -14.5 0
v -16 -14.5 0
v -16.5 -15 0
v -17 -15 0
v -17 -14.5 0
v -16.5 -14.5 0
v -17 -15 0
v -17.5 -15 0
v -17.5 -14.5 0
v -17 -14.5 0
v -18.5 -15 0
v -19 -15 0
v -19 -14.5 0
v -18.5 -14.5 0
v -19 -15 0
v -19.5 -15 0
v -19.5 -14.5 0
v -19 -14.5 0
v -19.5 -15 0
v -20 -15 0
v -20 -14.5 0
v -19.5 -14.5 0
v -16 -15.5 0
v -16.5 -15.5 0
v -16.5 -15 0
v -16 -15 0
v -16.5 -15.5 0
v -17 -15.5 0
v -17 -15 0
v -16.5 -15 0
v -17 -15.5 0
v -17.5 -15.5 0
v -17.5 -15 0
v -17 -15 0
v -18.5 -15.5 0
v -19 -15.5 0
v -19 -15 0
v -18.5 -15 0
v -19 -15.5 0
v -19.5 -15.5 0
v -19.5 -15 0
v -19 -15 0
v -19.5 -15.5 0
v -20 -15.5 0
v -20 -15 0
v -19.5 -15 0
v -16 -16 0
v -16.5 -16 0
v -16.5 -15.5 0
v -16 -15.5 0
v -16.5 -16 0
v -17 -16 0
v -17 -15.5 0
v -16.5 -15.5 0
v -17 -16 0
v -17.5 -16 0
v -17.5 -15.5 0
v -17 -15.5 0
v -18.5 -16 0
v -19 -16 0
v -19 -15.5 0
v -18.5 -15.5 0
v -19 -16 0
v -19.5 -16 0
v -19.5 -15.5 0
v -19 -15.5 0
v -19.5 -16 0
v -20 -16 0
v -20 -15.5 0
v -19.5 -15.5 0

# Texture cooridinates (Count = 12)
vt 0.15625 0.625
vt 0.1875 0.625
vt 0.1875 0.6875
vt 0.15625 0.6875
vt 0.21875 0.625
vt 0.21875 0.6875
vt 0.15625 0.5625
vt 0.1875 0.5625
vt 0.21875 0.5625
vt 0.15625 0.5
vt 0.1875 0.5
vt 0.21875 0.5

# Normal
vn 0 0 -1

# Mesh description
g ciudadPrincipal_mesh_0007

# Faces
f 1/1/1 2/2/1 3/3/1 4/4/1
f 5/2/1 6/5/1 7/6/1 8/3/1
f 9/1/1 10/2/1 11/3/1 12/4/1
f 13/2/1 14/5/1 15/6/1 16/3/1
f 17/1/1 18/2/1 19/3/1 20/4/1
f 21/2/1 22/5/1 23/6/1 24/3/1
f 25/7/1 26/8/1 27/2/1 28/1/1
f 29/8/1 30/9/1 31/5/1 32/2/1
f 33/7/1 34/8/1 35/2/1 36/1/1
f 37/8/1 38/9/1 39/5/1 40/2/1
f 41/7/1 42/8/1 43/2/1 44/1/1
f 45/8/1 46/9/1 47/5/1 48/2/1
f 49/10/1 50/11/1 51/8/1 52/7/1
f 53/11/1 54/12/1 55/9/1 56/8/1
f 57/10/1 58/11/1 59/8/1 60/7/1
f 61/11/1 62/12/1 63/9/1 64/8/1
f 65/10/1 66/11/1 67/8/1 68/7/1
f 69/11/1 70/12/1 71/9/1 72/8/1

