# Tiled2Unity generated file. Do not modify by hand.
# Wavefront file for 'ciudadPrincipal_mesh_0027.obj'

# Vertices (Count = 168)
v -14 -6 0
v -14.5 -6 0
v -14.5 -5.5 0
v -14 -5.5 0
v -14.5 -6 0
v -15 -6 0
v -15 -5.5 0
v -14.5 -5.5 0
v -20 -6 0
v -20.5 -6 0
v -20.5 -5.5 0
v -20 -5.5 0
v -20.5 -6 0
v -21 -6 0
v -21 -5.5 0
v -20.5 -5.5 0
v -14 -6.5 0
v -14.5 -6.5 0
v -14.5 -6 0
v -14 -6 0
v -14.5 -6.5 0
v -15 -6.5 0
v -15 -6 0
v -14.5 -6 0
v -20 -6.5 0
v -20.5 -6.5 0
v -20.5 -6 0
v -20 -6 0
v -20.5 -6.5 0
v -21 -6.5 0
v -21 -6 0
v -20.5 -6 0
v -14 -7 0
v -14.5 -7 0
v -14.5 -6.5 0
v -14 -6.5 0
v -14.5 -7 0
v -15 -7 0
v -15 -6.5 0
v -14.5 -6.5 0
v -20 -7 0
v -20.5 -7 0
v -20.5 -6.5 0
v -20 -6.5 0
v -20.5 -7 0
v -21 -7 0
v -21 -6.5 0
v -20.5 -6.5 0
v -11.5 -15 0
v -12 -15 0
v -12 -14.5 0
v -11.5 -14.5 0
v -12 -15 0
v -12.5 -15 0
v -12.5 -14.5 0
v -12 -14.5 0
v -11.5 -15.5 0
v -12 -15.5 0
v -12 -15 0
v -11.5 -15 0
v -12 -15.5 0
v -12.5 -15.5 0
v -12.5 -15 0
v -12 -15 0
v -11.5 -16 0
v -12 -16 0
v -12 -15.5 0
v -11.5 -15.5 0
v -12 -16 0
v -12.5 -16 0
v -12.5 -15.5 0
v -12 -15.5 0
v -11 -24 0
v -11.5 -24 0
v -11.5 -23.5 0
v -11 -23.5 0
v -11.5 -24 0
v -12 -24 0
v -12 -23.5 0
v -11.5 -23.5 0
v -20.5 -24 0
v -21 -24 0
v -21 -23.5 0
v -20.5 -23.5 0
v -21 -24 0
v -21.5 -24 0
v -21.5 -23.5 0
v -21 -23.5 0
v -11 -24.5 0
v -11.5 -24.5 0
v -11.5 -24 0
v -11 -24 0
v -11.5 -24.5 0
v -12 -24.5 0
v -12 -24 0
v -11.5 -24 0
v -20.5 -24.5 0
v -21 -24.5 0
v -21 -24 0
v -20.5 -24 0
v -21 -24.5 0
v -21.5 -24.5 0
v -21.5 -24 0
v -21 -24 0
v -11 -25 0
v -11.5 -25 0
v -11.5 -24.5 0
v -11 -24.5 0
v -11.5 -25 0
v -12 -25 0
v -12 -24.5 0
v -11.5 -24.5 0
v -20.5 -25 0
v -21 -25 0
v -21 -24.5 0
v -20.5 -24.5 0
v -21 -25 0
v -21.5 -25 0
v -21.5 -24.5 0
v -21 -24.5 0
v -15.5 -32.5 0
v -16 -32.5 0
v -16 -32 0
v -15.5 -32 0
v -16 -32.5 0
v -16.5 -32.5 0
v -16.5 -32 0
v -16 -32 0
v -15.5 -33 0
v -16 -33 0
v -16 -32.5 0
v -15.5 -32.5 0
v -16 -33 0
v -16.5 -33 0
v -16.5 -32.5 0
v -16 -32.5 0
v -15.5 -33.5 0
v -16 -33.5 0
v -16 -33 0
v -15.5 -33 0
v -16 -33.5 0
v -16.5 -33.5 0
v -16.5 -33 0
v -16 -33 0
v -24 -41 0
v -24.5 -41 0
v -24.5 -40.5 0
v -24 -40.5 0
v -24.5 -41 0
v -25 -41 0
v -25 -40.5 0
v -24.5 -40.5 0
v -24 -41.5 0
v -24.5 -41.5 0
v -24.5 -41 0
v -24 -41 0
v -24.5 -41.5 0
v -25 -41.5 0
v -25 -41 0
v -24.5 -41 0
v -24 -42 0
v -24.5 -42 0
v -24.5 -41.5 0
v -24 -41.5 0
v -24.5 -42 0
v -25 -42 0
v -25 -41.5 0
v -24.5 -41.5 0

# Texture cooridinates (Count = 24)
vt 0.6666667 0.9375
vt 0.8333333 0.9375
vt 0.8333333 1
vt 0.6666667 1
vt 1 0.9375
vt 1 1
vt 0.6666667 0.875
vt 0.8333333 0.875
vt 1 0.875
vt 0.6666667 0.8125
vt 0.8333333 0.8125
vt 1 0.8125
vt 0 0.9375
vt 0.1666667 0.9375
vt 0.1666667 1
vt 0 1
vt 0.3333333 0.9375
vt 0.3333333 1
vt 0 0.875
vt 0.1666667 0.875
vt 0.3333333 0.875
vt 0 0.8125
vt 0.1666667 0.8125
vt 0.3333333 0.8125

# Normal
vn 0 0 -1

# Mesh description
g ciudadPrincipal_mesh_0027

# Faces
f 1/1/1 2/2/1 3/3/1 4/4/1
f 5/2/1 6/5/1 7/6/1 8/3/1
f 9/1/1 10/2/1 11/3/1 12/4/1
f 13/2/1 14/5/1 15/6/1 16/3/1
f 17/7/1 18/8/1 19/2/1 20/1/1
f 21/8/1 22/9/1 23/5/1 24/2/1
f 25/7/1 26/8/1 27/2/1 28/1/1
f 29/8/1 30/9/1 31/5/1 32/2/1
f 33/10/1 34/11/1 35/8/1 36/7/1
f 37/11/1 38/12/1 39/9/1 40/8/1
f 41/10/1 42/11/1 43/8/1 44/7/1
f 45/11/1 46/12/1 47/9/1 48/8/1
f 49/1/1 50/2/1 51/3/1 52/4/1
f 53/2/1 54/5/1 55/6/1 56/3/1
f 57/7/1 58/8/1 59/2/1 60/1/1
f 61/8/1 62/9/1 63/5/1 64/2/1
f 65/10/1 66/11/1 67/8/1 68/7/1
f 69/11/1 70/12/1 71/9/1 72/8/1
f 73/13/1 74/14/1 75/15/1 76/16/1
f 77/14/1 78/17/1 79/18/1 80/15/1
f 81/13/1 82/14/1 83/15/1 84/16/1
f 85/14/1 86/17/1 87/18/1 88/15/1
f 89/19/1 90/20/1 91/14/1 92/13/1
f 93/20/1 94/21/1 95/17/1 96/14/1
f 97/19/1 98/20/1 99/14/1 100/13/1
f 101/20/1 102/21/1 103/17/1 104/14/1
f 105/22/1 106/23/1 107/20/1 108/19/1
f 109/23/1 110/24/1 111/21/1 112/20/1
f 113/22/1 114/23/1 115/20/1 116/19/1
f 117/23/1 118/24/1 119/21/1 120/20/1
f 121/13/1 122/14/1 123/15/1 124/16/1
f 125/14/1 126/17/1 127/18/1 128/15/1
f 129/19/1 130/20/1 131/14/1 132/13/1
f 133/20/1 134/21/1 135/17/1 136/14/1
f 137/22/1 138/23/1 139/20/1 140/19/1
f 141/23/1 142/24/1 143/21/1 144/20/1
f 145/13/1 146/14/1 147/15/1 148/16/1
f 149/14/1 150/17/1 151/18/1 152/15/1
f 153/19/1 154/20/1 155/14/1 156/13/1
f 157/20/1 158/21/1 159/17/1 160/14/1
f 161/22/1 162/23/1 163/20/1 164/19/1
f 165/23/1 166/24/1 167/21/1 168/20/1

