# Tiled2Unity generated file. Do not modify by hand.
# Wavefront file for 'ciudadPrincipal_mesh_0044.obj'

# Vertices (Count = 80)
v -41.5 -25 0
v -42 -25 0
v -42 -24.5 0
v -41.5 -24.5 0
v -42 -25 0
v -42.5 -25 0
v -42.5 -24.5 0
v -42 -24.5 0
v -37 -25.5 0
v -37.5 -25.5 0
v -37.5 -25 0
v -37 -25 0
v -37.5 -25.5 0
v -38 -25.5 0
v -38 -25 0
v -37.5 -25 0
v -41.5 -25.5 0
v -42 -25.5 0
v -42 -25 0
v -41.5 -25 0
v -42 -25.5 0
v -42.5 -25.5 0
v -42.5 -25 0
v -42 -25 0
v -37 -26 0
v -37.5 -26 0
v -37.5 -25.5 0
v -37 -25.5 0
v -37.5 -26 0
v -38 -26 0
v -38 -25.5 0
v -37.5 -25.5 0
v -41.5 -26 0
v -42 -26 0
v -42 -25.5 0
v -41.5 -25.5 0
v -42 -26 0
v -42.5 -26 0
v -42.5 -25.5 0
v -42 -25.5 0
v -37 -26.5 0
v -37.5 -26.5 0
v -37.5 -26 0
v -37 -26 0
v -37.5 -26.5 0
v -38 -26.5 0
v -38 -26 0
v -37.5 -26 0
v -41.5 -26.5 0
v -42 -26.5 0
v -42 -26 0
v -41.5 -26 0
v -42 -26.5 0
v -42.5 -26.5 0
v -42.5 -26 0
v -42 -26 0
v -37 -27 0
v -37.5 -27 0
v -37.5 -26.5 0
v -37 -26.5 0
v -37.5 -27 0
v -38 -27 0
v -38 -26.5 0
v -37.5 -26.5 0
v -45.5 -30.5 0
v -46 -30.5 0
v -46 -30 0
v -45.5 -30 0
v -46 -30.5 0
v -46.5 -30.5 0
v -46.5 -30 0
v -46 -30 0
v -45.5 -31 0
v -46 -31 0
v -46 -30.5 0
v -45.5 -30.5 0
v -46 -31 0
v -46.5 -31 0
v -46.5 -30.5 0
v -46 -30.5 0

# Texture cooridinates (Count = 39)
vt 0.625 0.2142857
vt 0.6875 0.2142857
vt 0.6875 0.2222222
vt 0.625 0.2222222
vt 0.75 0.2142857
vt 0.75 0.2222222
vt 0.125 0.1190476
vt 0.1875 0.1190476
vt 0.1875 0.1269841
vt 0.125 0.1269841
vt 0.25 0.1190476
vt 0.25 0.1269841
vt 0.625 0.2063492
vt 0.6875 0.2063492
vt 0.75 0.2063492
vt 0.125 0.1111111
vt 0.1875 0.1111111
vt 0.25 0.1111111
vt 0.625 0.1984127
vt 0.6875 0.1984127
vt 0.75 0.1984127
vt 0.125 0.1031746
vt 0.1875 0.1031746
vt 0.25 0.1031746
vt 0.625 0.1904762
vt 0.6875 0.1904762
vt 0.75 0.1904762
vt 0.125 0.09523809
vt 0.1875 0.09523809
vt 0.25 0.09523809
vt 0 0.515873
vt 0.0625 0.515873
vt 0.0625 0.5238096
vt 0 0.5238096
vt 0.125 0.515873
vt 0.125 0.5238096
vt 0 0.5079365
vt 0.0625 0.5079365
vt 0.125 0.5079365

# Normal
vn 0 0 -1

# Mesh description
g ciudadPrincipal_mesh_0044

# Faces
f 1/1/1 2/2/1 3/3/1 4/4/1
f 5/2/1 6/5/1 7/6/1 8/3/1
f 9/7/1 10/8/1 11/9/1 12/10/1
f 13/8/1 14/11/1 15/12/1 16/9/1
f 17/13/1 18/14/1 19/2/1 20/1/1
f 21/14/1 22/15/1 23/5/1 24/2/1
f 25/16/1 26/17/1 27/8/1 28/7/1
f 29/17/1 30/18/1 31/11/1 32/8/1
f 33/19/1 34/20/1 35/14/1 36/13/1
f 37/20/1 38/21/1 39/15/1 40/14/1
f 41/22/1 42/23/1 43/17/1 44/16/1
f 45/23/1 46/24/1 47/18/1 48/17/1
f 49/25/1 50/26/1 51/20/1 52/19/1
f 53/26/1 54/27/1 55/21/1 56/20/1
f 57/28/1 58/29/1 59/23/1 60/22/1
f 61/29/1 62/30/1 63/24/1 64/23/1
f 65/31/1 66/32/1 67/33/1 68/34/1
f 69/32/1 70/35/1 71/36/1 72/33/1
f 73/37/1 74/38/1 75/32/1 76/31/1
f 77/38/1 78/39/1 79/35/1 80/32/1

