# Tiled2Unity generated file. Do not modify by hand.
# Wavefront file for 'ciudadPrincipal_mesh_0016.obj'

# Vertices (Count = 368)
v -14 -7.5 0
v -14.5 -7.5 0
v -14.5 -7 0
v -14 -7 0
v -14.5 -7.5 0
v -15 -7.5 0
v -15 -7 0
v -14.5 -7 0
v -14 -8 0
v -14.5 -8 0
v -14.5 -7.5 0
v -14 -7.5 0
v -14.5 -8 0
v -15 -8 0
v -15 -7.5 0
v -14.5 -7.5 0
v -11.5 -8.5 0
v -12 -8.5 0
v -12 -8 0
v -11.5 -8 0
v -12 -8.5 0
v -12.5 -8.5 0
v -12.5 -8 0
v -12 -8 0
v -12.5 -8.5 0
v -13 -8.5 0
v -13 -8 0
v -12.5 -8 0
v -13 -8.5 0
v -13.5 -8.5 0
v -13.5 -8 0
v -13 -8 0
v -13.5 -8.5 0
v -14 -8.5 0
v -14 -8 0
v -13.5 -8 0
v -14 -8.5 0
v -14.5 -8.5 0
v -14.5 -8 0
v -14 -8 0
v -14.5 -8.5 0
v -15 -8.5 0
v -15 -8 0
v -14.5 -8 0
v -15 -8.5 0
v -15.5 -8.5 0
v -15.5 -8 0
v -15 -8 0
v -15.5 -8.5 0
v -16 -8.5 0
v -16 -8 0
v -15.5 -8 0
v -16 -8.5 0
v -16.5 -8.5 0
v -16.5 -8 0
v -16 -8 0
v -16.5 -8.5 0
v -17 -8.5 0
v -17 -8 0
v -16.5 -8 0
v -17 -8.5 0
v -17.5 -8.5 0
v -17.5 -8 0
v -17 -8 0
v -17.5 -8.5 0
v -18 -8.5 0
v -18 -8 0
v -17.5 -8 0
v -18 -8.5 0
v -18.5 -8.5 0
v -18.5 -8 0
v -18 -8 0
v -18.5 -8.5 0
v -19 -8.5 0
v -19 -8 0
v -18.5 -8 0
v -20.5 -8.5 0
v -21 -8.5 0
v -21 -8 0
v -20.5 -8 0
v -21 -8.5 0
v -21.5 -8.5 0
v -21.5 -8 0
v -21 -8 0
v -21.5 -8.5 0
v -22 -8.5 0
v -22 -8 0
v -21.5 -8 0
v -22 -8.5 0
v -22.5 -8.5 0
v -22.5 -8 0
v -22 -8 0
v 0 -9 0
v -0.5 -9 0
v -0.5 -8.5 0
v 0 -8.5 0
v -0.5 -9 0
v -1 -9 0
v -1 -8.5 0
v -0.5 -8.5 0
v -1 -9 0
v -1.5 -9 0
v -1.5 -8.5 0
v -1 -8.5 0
v -11 -9 0
v -11.5 -9 0
v -11.5 -8.5 0
v -11 -8.5 0
v -11.5 -9 0
v -12 -9 0
v -12 -8.5 0
v -11.5 -8.5 0
v -12 -9 0
v -12.5 -9 0
v -12.5 -8.5 0
v -12 -8.5 0
v -12.5 -9 0
v -13 -9 0
v -13 -8.5 0
v -12.5 -8.5 0
v -13 -9 0
v -13.5 -9 0
v -13.5 -8.5 0
v -13 -8.5 0
v -13.5 -9 0
v -14 -9 0
v -14 -8.5 0
v -13.5 -8.5 0
v -14 -9 0
v -14.5 -9 0
v -14.5 -8.5 0
v -14 -8.5 0
v -14.5 -9 0
v -15 -9 0
v -15 -8.5 0
v -14.5 -8.5 0
v -15 -9 0
v -15.5 -9 0
v -15.5 -8.5 0
v -15 -8.5 0
v -15.5 -9 0
v -16 -9 0
v -16 -8.5 0
v -15.5 -8.5 0
v -16 -9 0
v -16.5 -9 0
v -16.5 -8.5 0
v -16 -8.5 0
v -16.5 -9 0
v -17 -9 0
v -17 -8.5 0
v -16.5 -8.5 0
v -17 -9 0
v -17.5 -9 0
v -17.5 -8.5 0
v -17 -8.5 0
v -17.5 -9 0
v -18 -9 0
v -18 -8.5 0
v -17.5 -8.5 0
v -18 -9 0
v -18.5 -9 0
v -18.5 -8.5 0
v -18 -8.5 0
v -18.5 -9 0
v -19 -9 0
v -19 -8.5 0
v -18.5 -8.5 0
v -19 -9 0
v -19.5 -9 0
v -19.5 -8.5 0
v -19 -8.5 0
v -20.5 -9 0
v -21 -9 0
v -21 -8.5 0
v -20.5 -8.5 0
v -21 -9 0
v -21.5 -9 0
v -21.5 -8.5 0
v -21 -8.5 0
v -21.5 -9 0
v -22 -9 0
v -22 -8.5 0
v -21.5 -8.5 0
v -22 -9 0
v -22.5 -9 0
v -22.5 -8.5 0
v -22 -8.5 0
v -21.5 -9.5 0
v -22 -9.5 0
v -22 -9 0
v -21.5 -9 0
v -22 -9.5 0
v -22.5 -9.5 0
v -22.5 -9 0
v -22 -9 0
v -21.5 -10 0
v -22 -10 0
v -22 -9.5 0
v -21.5 -9.5 0
v -22 -10 0
v -22.5 -10 0
v -22.5 -9.5 0
v -22 -9.5 0
v -21.5 -10.5 0
v -22 -10.5 0
v -22 -10 0
v -21.5 -10 0
v -22 -10.5 0
v -22.5 -10.5 0
v -22.5 -10 0
v -22 -10 0
v -21.5 -11 0
v -22 -11 0
v -22 -10.5 0
v -21.5 -10.5 0
v -22 -11 0
v -22.5 -11 0
v -22.5 -10.5 0
v -22 -10.5 0
v -21.5 -11.5 0
v -22 -11.5 0
v -22 -11 0
v -21.5 -11 0
v -22 -11.5 0
v -22.5 -11.5 0
v -22.5 -11 0
v -22 -11 0
v -21.5 -12 0
v -22 -12 0
v -22 -11.5 0
v -21.5 -11.5 0
v -22 -12 0
v -22.5 -12 0
v -22.5 -11.5 0
v -22 -11.5 0
v -21.5 -12.5 0
v -22 -12.5 0
v -22 -12 0
v -21.5 -12 0
v -22 -12.5 0
v -22.5 -12.5 0
v -22.5 -12 0
v -22 -12 0
v -21.5 -13 0
v -22 -13 0
v -22 -12.5 0
v -21.5 -12.5 0
v -22 -13 0
v -22.5 -13 0
v -22.5 -12.5 0
v -22 -12.5 0
v -21.5 -13.5 0
v -22 -13.5 0
v -22 -13 0
v -21.5 -13 0
v -22 -13.5 0
v -22.5 -13.5 0
v -22.5 -13 0
v -22 -13 0
v -21.5 -14 0
v -22 -14 0
v -22 -13.5 0
v -21.5 -13.5 0
v -22 -14 0
v -22.5 -14 0
v -22.5 -13.5 0
v -22 -13.5 0
v -21.5 -14.5 0
v -22 -14.5 0
v -22 -14 0
v -21.5 -14 0
v -22 -14.5 0
v -22.5 -14.5 0
v -22.5 -14 0
v -22 -14 0
v -21.5 -15 0
v -22 -15 0
v -22 -14.5 0
v -21.5 -14.5 0
v -22 -15 0
v -22.5 -15 0
v -22.5 -14.5 0
v -22 -14.5 0
v -21.5 -15.5 0
v -22 -15.5 0
v -22 -15 0
v -21.5 -15 0
v -22 -15.5 0
v -22.5 -15.5 0
v -22.5 -15 0
v -22 -15 0
v -21.5 -16 0
v -22 -16 0
v -22 -15.5 0
v -21.5 -15.5 0
v -22 -16 0
v -22.5 -16 0
v -22.5 -15.5 0
v -22 -15.5 0
v -21.5 -16.5 0
v -22 -16.5 0
v -22 -16 0
v -21.5 -16 0
v -22 -16.5 0
v -22.5 -16.5 0
v -22.5 -16 0
v -22 -16 0
v -21.5 -17 0
v -22 -17 0
v -22 -16.5 0
v -21.5 -16.5 0
v -22 -17 0
v -22.5 -17 0
v -22.5 -16.5 0
v -22 -16.5 0
v -18.5 -17.5 0
v -19 -17.5 0
v -19 -17 0
v -18.5 -17 0
v -19 -17.5 0
v -19.5 -17.5 0
v -19.5 -17 0
v -19 -17 0
v -19.5 -17.5 0
v -20 -17.5 0
v -20 -17 0
v -19.5 -17 0
v -20 -17.5 0
v -20.5 -17.5 0
v -20.5 -17 0
v -20 -17 0
v -20.5 -17.5 0
v -21 -17.5 0
v -21 -17 0
v -20.5 -17 0
v -21 -17.5 0
v -21.5 -17.5 0
v -21.5 -17 0
v -21 -17 0
v -21.5 -17.5 0
v -22 -17.5 0
v -22 -17 0
v -21.5 -17 0
v -22 -17.5 0
v -22.5 -17.5 0
v -22.5 -17 0
v -22 -17 0
v -20 -18 0
v -20.5 -18 0
v -20.5 -17.5 0
v -20 -17.5 0
v -20.5 -18 0
v -21 -18 0
v -21 -17.5 0
v -20.5 -17.5 0
v -21 -18 0
v -21.5 -18 0
v -21.5 -17.5 0
v -21 -17.5 0
v -21.5 -18 0
v -22 -18 0
v -22 -17.5 0
v -21.5 -17.5 0
v -22 -18 0
v -22.5 -18 0
v -22.5 -17.5 0
v -22 -17.5 0

# Texture cooridinates (Count = 32)
vt 0.375 0.8333333
vt 0.40625 0.8333333
vt 0.40625 0.875
vt 0.375 0.875
vt 0.46875 0.8333333
vt 0.5 0.8333333
vt 0.5 0.875
vt 0.46875 0.875
vt 0.375 0.7916667
vt 0.40625 0.7916667
vt 0.46875 0.7916667
vt 0.5 0.7916667
vt 0.4375 0.875
vt 0.4375 0.9166667
vt 0.40625 0.9166667
vt 0.46875 0.9166667
vt 0.4375 0.9583333
vt 0.46875 0.9583333
vt 0.46875 1
vt 0.4375 1
vt 0.5 0.9583333
vt 0.5 1
vt 0.5 0.9166667
vt 0.03125 0.875
vt 0.0625 0.875
vt 0.0625 0.9166667
vt 0.03125 0.9166667
vt 0.40625 0.75
vt 0.4375 0.75
vt 0.4375 0.7916667
vt 0.46875 0.75
vt 0.5 0.75

# Normal
vn 0 0 -1

# Mesh description
g ciudadPrincipal_mesh_0016

# Faces
f 1/1/1 2/2/1 3/3/1 4/4/1
f 5/5/1 6/6/1 7/7/1 8/8/1
f 9/9/1 10/10/1 11/2/1 12/1/1
f 13/11/1 14/12/1 15/6/1 16/5/1
f 17/3/1 18/13/1 19/14/1 20/15/1
f 21/13/1 22/8/1 23/16/1 24/14/1
f 25/3/1 26/13/1 27/14/1 28/15/1
f 29/3/1 30/13/1 31/14/1 32/15/1
f 33/13/1 34/8/1 35/16/1 36/14/1
f 37/17/1 38/18/1 39/19/1 40/20/1
f 41/18/1 42/21/1 43/22/1 44/19/1
f 45/3/1 46/13/1 47/14/1 48/15/1
f 49/13/1 50/8/1 51/16/1 52/14/1
f 53/3/1 54/13/1 55/14/1 56/15/1
f 57/13/1 58/8/1 59/16/1 60/14/1
f 61/3/1 62/13/1 63/14/1 64/15/1
f 65/13/1 66/8/1 67/16/1 68/14/1
f 69/3/1 70/13/1 71/14/1 72/15/1
f 73/13/1 74/8/1 75/16/1 76/14/1
f 77/18/1 78/21/1 79/22/1 80/19/1
f 81/3/1 82/13/1 83/14/1 84/15/1
f 85/13/1 86/8/1 87/16/1 88/14/1
f 89/8/1 90/7/1 91/23/1 92/16/1
f 93/24/1 94/25/1 95/26/1 96/27/1
f 97/24/1 98/25/1 99/26/1 100/27/1
f 101/24/1 102/25/1 103/26/1 104/27/1
f 105/28/1 106/29/1 107/30/1 108/10/1
f 109/29/1 110/31/1 111/11/1 112/30/1
f 113/28/1 114/29/1 115/30/1 116/10/1
f 117/29/1 118/31/1 119/11/1 120/30/1
f 121/28/1 122/29/1 123/30/1 124/10/1
f 125/29/1 126/31/1 127/11/1 128/30/1
f 129/28/1 130/29/1 131/30/1 132/10/1
f 133/29/1 134/31/1 135/11/1 136/30/1
f 137/28/1 138/29/1 139/30/1 140/10/1
f 141/29/1 142/31/1 143/11/1 144/30/1
f 145/29/1 146/31/1 147/11/1 148/30/1
f 149/28/1 150/29/1 151/30/1 152/10/1
f 153/28/1 154/29/1 155/30/1 156/10/1
f 157/29/1 158/31/1 159/11/1 160/30/1
f 161/28/1 162/29/1 163/30/1 164/10/1
f 165/28/1 166/29/1 167/30/1 168/10/1
f 169/29/1 170/31/1 171/11/1 172/30/1
f 173/28/1 174/29/1 175/30/1 176/10/1
f 177/29/1 178/31/1 179/11/1 180/30/1
f 181/14/1 182/16/1 183/18/1 184/17/1
f 185/5/1 186/6/1 187/7/1 188/8/1
f 189/1/1 190/2/1 191/3/1 192/4/1
f 193/11/1 194/12/1 195/6/1 196/5/1
f 197/1/1 198/2/1 199/3/1 200/4/1
f 201/11/1 202/12/1 203/6/1 204/5/1
f 205/1/1 206/2/1 207/3/1 208/4/1
f 209/11/1 210/12/1 211/6/1 212/5/1
f 213/1/1 214/2/1 215/3/1 216/4/1
f 217/11/1 218/12/1 219/6/1 220/5/1
f 221/1/1 222/2/1 223/3/1 224/4/1
f 225/11/1 226/12/1 227/6/1 228/5/1
f 229/1/1 230/2/1 231/3/1 232/4/1
f 233/11/1 234/12/1 235/6/1 236/5/1
f 237/1/1 238/2/1 239/3/1 240/4/1
f 241/11/1 242/12/1 243/6/1 244/5/1
f 245/1/1 246/2/1 247/3/1 248/4/1
f 249/11/1 250/12/1 251/6/1 252/5/1
f 253/1/1 254/2/1 255/3/1 256/4/1
f 257/11/1 258/12/1 259/6/1 260/5/1
f 261/1/1 262/2/1 263/3/1 264/4/1
f 265/11/1 266/12/1 267/6/1 268/5/1
f 269/1/1 270/2/1 271/3/1 272/4/1
f 273/11/1 274/12/1 275/6/1 276/5/1
f 277/1/1 278/2/1 279/3/1 280/4/1
f 281/11/1 282/12/1 283/6/1 284/5/1
f 285/1/1 286/2/1 287/3/1 288/4/1
f 289/11/1 290/12/1 291/6/1 292/5/1
f 293/1/1 294/2/1 295/3/1 296/4/1
f 297/11/1 298/12/1 299/6/1 300/5/1
f 301/1/1 302/2/1 303/3/1 304/4/1
f 305/11/1 306/12/1 307/6/1 308/5/1
f 309/9/1 310/10/1 311/2/1 312/1/1
f 313/5/1 314/6/1 315/7/1 316/8/1
f 317/3/1 318/13/1 319/14/1 320/15/1
f 321/13/1 322/8/1 323/16/1 324/14/1
f 325/3/1 326/13/1 327/14/1 328/15/1
f 329/13/1 330/8/1 331/16/1 332/14/1
f 333/3/1 334/13/1 335/14/1 336/15/1
f 337/13/1 338/8/1 339/16/1 340/14/1
f 341/17/1 342/18/1 343/19/1 344/20/1
f 345/11/1 346/12/1 347/6/1 348/5/1
f 349/28/1 350/29/1 351/30/1 352/10/1
f 353/29/1 354/31/1 355/11/1 356/30/1
f 357/28/1 358/29/1 359/30/1 360/10/1
f 361/29/1 362/31/1 363/11/1 364/30/1
f 365/31/1 366/32/1 367/12/1 368/11/1

