# Tiled2Unity generated file. Do not modify by hand.
# Wavefront file for 'ciudadPrincipal_mesh_0025.obj'

# Vertices (Count = 72)
v -4.48 -1.92 0
v -4.64 -1.92 0
v -4.64 -1.76 0
v -4.48 -1.76 0
v -4.64 -1.92 0
v -4.8 -1.92 0
v -4.8 -1.76 0
v -4.64 -1.76 0
v -6.4 -1.92 0
v -6.56 -1.92 0
v -6.56 -1.76 0
v -6.4 -1.76 0
v -6.56 -1.92 0
v -6.72 -1.92 0
v -6.72 -1.76 0
v -6.56 -1.76 0
v -4.48 -2.08 0
v -4.64 -2.08 0
v -4.64 -1.92 0
v -4.48 -1.92 0
v -4.64 -2.08 0
v -4.8 -2.08 0
v -4.8 -1.92 0
v -4.64 -1.92 0
v -6.4 -2.08 0
v -6.56 -2.08 0
v -6.56 -1.92 0
v -6.4 -1.92 0
v -6.56 -2.08 0
v -6.72 -2.08 0
v -6.72 -1.92 0
v -6.56 -1.92 0
v -4.48 -2.24 0
v -4.64 -2.24 0
v -4.64 -2.08 0
v -4.48 -2.08 0
v -4.64 -2.24 0
v -4.8 -2.24 0
v -4.8 -2.08 0
v -4.64 -2.08 0
v -6.4 -2.24 0
v -6.56 -2.24 0
v -6.56 -2.08 0
v -6.4 -2.08 0
v -6.56 -2.24 0
v -6.72 -2.24 0
v -6.72 -2.08 0
v -6.56 -2.08 0
v -3.68 -4.8 0
v -3.84 -4.8 0
v -3.84 -4.64 0
v -3.68 -4.64 0
v -3.84 -4.8 0
v -4 -4.8 0
v -4 -4.64 0
v -3.84 -4.64 0
v -3.68 -4.96 0
v -3.84 -4.96 0
v -3.84 -4.8 0
v -3.68 -4.8 0
v -3.84 -4.96 0
v -4 -4.96 0
v -4 -4.8 0
v -3.84 -4.8 0
v -3.68 -5.12 0
v -3.84 -5.12 0
v -3.84 -4.96 0
v -3.68 -4.96 0
v -3.84 -5.12 0
v -4 -5.12 0
v -4 -4.96 0
v -3.84 -4.96 0

# Texture cooridinates (Count = 12)
vt 0.6666667 0.9375
vt 0.8333333 0.9375
vt 0.8333333 1
vt 0.6666667 1
vt 1 0.9375
vt 1 1
vt 0.6666667 0.875
vt 0.8333333 0.875
vt 1 0.875
vt 0.6666667 0.8125
vt 0.8333333 0.8125
vt 1 0.8125

# Normal
vn 0 0 -1

# Mesh description
g ciudadPrincipal_mesh_0025

# Faces
f 1/1/1 2/2/1 3/3/1 4/4/1
f 5/2/1 6/5/1 7/6/1 8/3/1
f 9/1/1 10/2/1 11/3/1 12/4/1
f 13/2/1 14/5/1 15/6/1 16/3/1
f 17/7/1 18/8/1 19/2/1 20/1/1
f 21/8/1 22/9/1 23/5/1 24/2/1
f 25/7/1 26/8/1 27/2/1 28/1/1
f 29/8/1 30/9/1 31/5/1 32/2/1
f 33/10/1 34/11/1 35/8/1 36/7/1
f 37/11/1 38/12/1 39/9/1 40/8/1
f 41/10/1 42/11/1 43/8/1 44/7/1
f 45/11/1 46/12/1 47/9/1 48/8/1
f 49/1/1 50/2/1 51/3/1 52/4/1
f 53/2/1 54/5/1 55/6/1 56/3/1
f 57/7/1 58/8/1 59/2/1 60/1/1
f 61/8/1 62/9/1 63/5/1 64/2/1
f 65/10/1 66/11/1 67/8/1 68/7/1
f 69/11/1 70/12/1 71/9/1 72/8/1

