# Tiled2Unity generated file. Do not modify by hand.
# Wavefront file for 'ciudadPrincipal_mesh_0064.obj'

# Vertices (Count = 536)
v -70.5 -18 0
v -71 -18 0
v -71 -17.5 0
v -70.5 -17.5 0
v -71 -18 0
v -71.5 -18 0
v -71.5 -17.5 0
v -71 -17.5 0
v -71.5 -18 0
v -72 -18 0
v -72 -17.5 0
v -71.5 -17.5 0
v -72 -18 0
v -72.5 -18 0
v -72.5 -17.5 0
v -72 -17.5 0
v -70.5 -18.5 0
v -71 -18.5 0
v -71 -18 0
v -70.5 -18 0
v -71 -18.5 0
v -71.5 -18.5 0
v -71.5 -18 0
v -71 -18 0
v -71.5 -18.5 0
v -72 -18.5 0
v -72 -18 0
v -71.5 -18 0
v -72 -18.5 0
v -72.5 -18.5 0
v -72.5 -18 0
v -72 -18 0
v -38 -21 0
v -38.5 -21 0
v -38.5 -20.5 0
v -38 -20.5 0
v -38.5 -21 0
v -39 -21 0
v -39 -20.5 0
v -38.5 -20.5 0
v -39 -21 0
v -39.5 -21 0
v -39.5 -20.5 0
v -39 -20.5 0
v -39.5 -21 0
v -40 -21 0
v -40 -20.5 0
v -39.5 -20.5 0
v -40 -21 0
v -40.5 -21 0
v -40.5 -20.5 0
v -40 -20.5 0
v -40.5 -21 0
v -41 -21 0
v -41 -20.5 0
v -40.5 -20.5 0
v -41 -21 0
v -41.5 -21 0
v -41.5 -20.5 0
v -41 -20.5 0
v -41.5 -21 0
v -42 -21 0
v -42 -20.5 0
v -41.5 -20.5 0
v -42.5 -21 0
v -43 -21 0
v -43 -20.5 0
v -42.5 -20.5 0
v -43 -21 0
v -43.5 -21 0
v -43.5 -20.5 0
v -43 -20.5 0
v -43.5 -21 0
v -44 -21 0
v -44 -20.5 0
v -43.5 -20.5 0
v -44 -21 0
v -44.5 -21 0
v -44.5 -20.5 0
v -44 -20.5 0
v -44.5 -21 0
v -45 -21 0
v -45 -20.5 0
v -44.5 -20.5 0
v -45 -21 0
v -45.5 -21 0
v -45.5 -20.5 0
v -45 -20.5 0
v -45.5 -21 0
v -46 -21 0
v -46 -20.5 0
v -45.5 -20.5 0
v -46 -21 0
v -46.5 -21 0
v -46.5 -20.5 0
v -46 -20.5 0
v -38 -21.5 0
v -38.5 -21.5 0
v -38.5 -21 0
v -38 -21 0
v -38.5 -21.5 0
v -39 -21.5 0
v -39 -21 0
v -38.5 -21 0
v -39 -21.5 0
v -39.5 -21.5 0
v -39.5 -21 0
v -39 -21 0
v -39.5 -21.5 0
v -40 -21.5 0
v -40 -21 0
v -39.5 -21 0
v -40 -21.5 0
v -40.5 -21.5 0
v -40.5 -21 0
v -40 -21 0
v -40.5 -21.5 0
v -41 -21.5 0
v -41 -21 0
v -40.5 -21 0
v -41 -21.5 0
v -41.5 -21.5 0
v -41.5 -21 0
v -41 -21 0
v -41.5 -21.5 0
v -42 -21.5 0
v -42 -21 0
v -41.5 -21 0
v -42.5 -21.5 0
v -43 -21.5 0
v -43 -21 0
v -42.5 -21 0
v -43 -21.5 0
v -43.5 -21.5 0
v -43.5 -21 0
v -43 -21 0
v -43.5 -21.5 0
v -44 -21.5 0
v -44 -21 0
v -43.5 -21 0
v -44 -21.5 0
v -44.5 -21.5 0
v -44.5 -21 0
v -44 -21 0
v -44.5 -21.5 0
v -45 -21.5 0
v -45 -21 0
v -44.5 -21 0
v -45 -21.5 0
v -45.5 -21.5 0
v -45.5 -21 0
v -45 -21 0
v -45.5 -21.5 0
v -46 -21.5 0
v -46 -21 0
v -45.5 -21 0
v -46 -21.5 0
v -46.5 -21.5 0
v -46.5 -21 0
v -46 -21 0
v -87.5 -22 0
v -88 -22 0
v -88 -21.5 0
v -87.5 -21.5 0
v -88 -22 0
v -88.5 -22 0
v -88.5 -21.5 0
v -88 -21.5 0
v -87.5 -22.5 0
v -88 -22.5 0
v -88 -22 0
v -87.5 -22 0
v -88 -22.5 0
v -88.5 -22.5 0
v -88.5 -22 0
v -88 -22 0
v -87.5 -23 0
v -88 -23 0
v -88 -22.5 0
v -87.5 -22.5 0
v -88 -23 0
v -88.5 -23 0
v -88.5 -22.5 0
v -88 -22.5 0
v -78.5 -26 0
v -79 -26 0
v -79 -25.5 0
v -78.5 -25.5 0
v -79 -26 0
v -79.5 -26 0
v -79.5 -25.5 0
v -79 -25.5 0
v -79.5 -26 0
v -80 -26 0
v -80 -25.5 0
v -79.5 -25.5 0
v -80 -26 0
v -80.5 -26 0
v -80.5 -25.5 0
v -80 -25.5 0
v -78.5 -26.5 0
v -79 -26.5 0
v -79 -26 0
v -78.5 -26 0
v -79 -26.5 0
v -79.5 -26.5 0
v -79.5 -26 0
v -79 -26 0
v -79.5 -26.5 0
v -80 -26.5 0
v -80 -26 0
v -79.5 -26 0
v -80 -26.5 0
v -80.5 -26.5 0
v -80.5 -26 0
v -80 -26 0
v -38 -27.5 0
v -38.5 -27.5 0
v -38.5 -27 0
v -38 -27 0
v -38.5 -27.5 0
v -39 -27.5 0
v -39 -27 0
v -38.5 -27 0
v -39 -27.5 0
v -39.5 -27.5 0
v -39.5 -27 0
v -39 -27 0
v -39.5 -27.5 0
v -40 -27.5 0
v -40 -27 0
v -39.5 -27 0
v -40 -27.5 0
v -40.5 -27.5 0
v -40.5 -27 0
v -40 -27 0
v -40.5 -27.5 0
v -41 -27.5 0
v -41 -27 0
v -40.5 -27 0
v -41 -27.5 0
v -41.5 -27.5 0
v -41.5 -27 0
v -41 -27 0
v -41.5 -27.5 0
v -42 -27.5 0
v -42 -27 0
v -41.5 -27 0
v -42.5 -27.5 0
v -43 -27.5 0
v -43 -27 0
v -42.5 -27 0
v -43 -27.5 0
v -43.5 -27.5 0
v -43.5 -27 0
v -43 -27 0
v -43.5 -27.5 0
v -44 -27.5 0
v -44 -27 0
v -43.5 -27 0
v -44 -27.5 0
v -44.5 -27.5 0
v -44.5 -27 0
v -44 -27 0
v -44.5 -27.5 0
v -45 -27.5 0
v -45 -27 0
v -44.5 -27 0
v -45 -27.5 0
v -45.5 -27.5 0
v -45.5 -27 0
v -45 -27 0
v -45.5 -27.5 0
v -46 -27.5 0
v -46 -27 0
v -45.5 -27 0
v -46 -27.5 0
v -46.5 -27.5 0
v -46.5 -27 0
v -46 -27 0
v -38 -28 0
v -38.5 -28 0
v -38.5 -27.5 0
v -38 -27.5 0
v -38.5 -28 0
v -39 -28 0
v -39 -27.5 0
v -38.5 -27.5 0
v -39 -28 0
v -39.5 -28 0
v -39.5 -27.5 0
v -39 -27.5 0
v -39.5 -28 0
v -40 -28 0
v -40 -27.5 0
v -39.5 -27.5 0
v -40 -28 0
v -40.5 -28 0
v -40.5 -27.5 0
v -40 -27.5 0
v -40.5 -28 0
v -41 -28 0
v -41 -27.5 0
v -40.5 -27.5 0
v -41 -28 0
v -41.5 -28 0
v -41.5 -27.5 0
v -41 -27.5 0
v -41.5 -28 0
v -42 -28 0
v -42 -27.5 0
v -41.5 -27.5 0
v -42.5 -28 0
v -43 -28 0
v -43 -27.5 0
v -42.5 -27.5 0
v -43 -28 0
v -43.5 -28 0
v -43.5 -27.5 0
v -43 -27.5 0
v -43.5 -28 0
v -44 -28 0
v -44 -27.5 0
v -43.5 -27.5 0
v -44 -28 0
v -44.5 -28 0
v -44.5 -27.5 0
v -44 -27.5 0
v -44.5 -28 0
v -45 -28 0
v -45 -27.5 0
v -44.5 -27.5 0
v -45 -28 0
v -45.5 -28 0
v -45.5 -27.5 0
v -45 -27.5 0
v -45.5 -28 0
v -46 -28 0
v -46 -27.5 0
v -45.5 -27.5 0
v -46 -28 0
v -46.5 -28 0
v -46.5 -27.5 0
v -46 -27.5 0
v -38 -34.5 0
v -38.5 -34.5 0
v -38.5 -34 0
v -38 -34 0
v -38.5 -34.5 0
v -39 -34.5 0
v -39 -34 0
v -38.5 -34 0
v -39 -34.5 0
v -39.5 -34.5 0
v -39.5 -34 0
v -39 -34 0
v -39.5 -34.5 0
v -40 -34.5 0
v -40 -34 0
v -39.5 -34 0
v -40 -34.5 0
v -40.5 -34.5 0
v -40.5 -34 0
v -40 -34 0
v -40.5 -34.5 0
v -41 -34.5 0
v -41 -34 0
v -40.5 -34 0
v -41 -34.5 0
v -41.5 -34.5 0
v -41.5 -34 0
v -41 -34 0
v -41.5 -34.5 0
v -42 -34.5 0
v -42 -34 0
v -41.5 -34 0
v -42.5 -34.5 0
v -43 -34.5 0
v -43 -34 0
v -42.5 -34 0
v -43 -34.5 0
v -43.5 -34.5 0
v -43.5 -34 0
v -43 -34 0
v -43.5 -34.5 0
v -44 -34.5 0
v -44 -34 0
v -43.5 -34 0
v -44 -34.5 0
v -44.5 -34.5 0
v -44.5 -34 0
v -44 -34 0
v -44.5 -34.5 0
v -45 -34.5 0
v -45 -34 0
v -44.5 -34 0
v -45 -34.5 0
v -45.5 -34.5 0
v -45.5 -34 0
v -45 -34 0
v -45.5 -34.5 0
v -46 -34.5 0
v -46 -34 0
v -45.5 -34 0
v -46 -34.5 0
v -46.5 -34.5 0
v -46.5 -34 0
v -46 -34 0
v -38 -35 0
v -38.5 -35 0
v -38.5 -34.5 0
v -38 -34.5 0
v -38.5 -35 0
v -39 -35 0
v -39 -34.5 0
v -38.5 -34.5 0
v -39 -35 0
v -39.5 -35 0
v -39.5 -34.5 0
v -39 -34.5 0
v -39.5 -35 0
v -40 -35 0
v -40 -34.5 0
v -39.5 -34.5 0
v -40 -35 0
v -40.5 -35 0
v -40.5 -34.5 0
v -40 -34.5 0
v -40.5 -35 0
v -41 -35 0
v -41 -34.5 0
v -40.5 -34.5 0
v -41 -35 0
v -41.5 -35 0
v -41.5 -34.5 0
v -41 -34.5 0
v -41.5 -35 0
v -42 -35 0
v -42 -34.5 0
v -41.5 -34.5 0
v -42.5 -35 0
v -43 -35 0
v -43 -34.5 0
v -42.5 -34.5 0
v -43 -35 0
v -43.5 -35 0
v -43.5 -34.5 0
v -43 -34.5 0
v -43.5 -35 0
v -44 -35 0
v -44 -34.5 0
v -43.5 -34.5 0
v -44 -35 0
v -44.5 -35 0
v -44.5 -34.5 0
v -44 -34.5 0
v -44.5 -35 0
v -45 -35 0
v -45 -34.5 0
v -44.5 -34.5 0
v -45 -35 0
v -45.5 -35 0
v -45.5 -34.5 0
v -45 -34.5 0
v -45.5 -35 0
v -46 -35 0
v -46 -34.5 0
v -45.5 -34.5 0
v -46 -35 0
v -46.5 -35 0
v -46.5 -34.5 0
v -46 -34.5 0
v -9.5 -57.5 0
v -10 -57.5 0
v -10 -57 0
v -9.5 -57 0
v -10 -57.5 0
v -10.5 -57.5 0
v -10.5 -57 0
v -10 -57 0
v -10.5 -57.5 0
v -11 -57.5 0
v -11 -57 0
v -10.5 -57 0
v -11 -57.5 0
v -11.5 -57.5 0
v -11.5 -57 0
v -11 -57 0
v -9.5 -58 0
v -10 -58 0
v -10 -57.5 0
v -9.5 -57.5 0
v -10 -58 0
v -10.5 -58 0
v -10.5 -57.5 0
v -10 -57.5 0
v -10.5 -58 0
v -11 -58 0
v -11 -57.5 0
v -10.5 -57.5 0
v -11 -58 0
v -11.5 -58 0
v -11.5 -57.5 0
v -11 -57.5 0
v -9.5 -58.5 0
v -10 -58.5 0
v -10 -58 0
v -9.5 -58 0
v -10 -58.5 0
v -10.5 -58.5 0
v -10.5 -58 0
v -10 -58 0
v -10.5 -58.5 0
v -11 -58.5 0
v -11 -58 0
v -10.5 -58 0
v -11 -58.5 0
v -11.5 -58.5 0
v -11.5 -58 0
v -11 -58 0
v -9.5 -59 0
v -10 -59 0
v -10 -58.5 0
v -9.5 -58.5 0
v -10 -59 0
v -10.5 -59 0
v -10.5 -58.5 0
v -10 -58.5 0
v -10.5 -59 0
v -11 -59 0
v -11 -58.5 0
v -10.5 -58.5 0
v -11 -59 0
v -11.5 -59 0
v -11.5 -58.5 0
v -11 -58.5 0

# Texture cooridinates (Count = 79)
vt 0.6875 0.28125
vt 0.71875 0.28125
vt 0.71875 0.3125
vt 0.6875 0.3125
vt 0.75 0.28125
vt 0.75 0.3125
vt 0.78125 0.28125
vt 0.78125 0.3125
vt 0.8125 0.28125
vt 0.8125 0.3125
vt 0.6875 0.25
vt 0.71875 0.25
vt 0.75 0.25
vt 0.78125 0.25
vt 0.8125 0.25
vt 0.75 0.71875
vt 0.78125 0.71875
vt 0.78125 0.75
vt 0.75 0.75
vt 0.8125 0.71875
vt 0.8125 0.75
vt 0.84375 0.71875
vt 0.84375 0.75
vt 0.875 0.71875
vt 0.875 0.75
vt 0.90625 0.71875
vt 0.90625 0.75
vt 0.9375 0.71875
vt 0.9375 0.75
vt 0.96875 0.71875
vt 0.96875 0.75
vt 1 0.71875
vt 1 0.75
vt 0.75 0.6875
vt 0.78125 0.6875
vt 0.8125 0.6875
vt 0.84375 0.6875
vt 0.875 0.6875
vt 0.90625 0.6875
vt 0.9375 0.6875
vt 0.96875 0.6875
vt 1 0.6875
vt 0.0625 0.15625
vt 0.09375 0.15625
vt 0.09375 0.1875
vt 0.0625 0.1875
vt 0.125 0.15625
vt 0.125 0.1875
vt 0.0625 0.125
vt 0.09375 0.125
vt 0.125 0.125
vt 0.0625 0.09375
vt 0.09375 0.09375
vt 0.125 0.09375
vt 0.125 0.34375
vt 0.15625 0.34375
vt 0.15625 0.375
vt 0.125 0.375
vt 0.1875 0.34375
vt 0.1875 0.375
vt 0.21875 0.34375
vt 0.21875 0.375
vt 0.25 0.34375
vt 0.25 0.375
vt 0.125 0.3125
vt 0.15625 0.3125
vt 0.1875 0.3125
vt 0.21875 0.3125
vt 0.25 0.3125
vt 0.125 0.28125
vt 0.15625 0.28125
vt 0.1875 0.28125
vt 0.21875 0.28125
vt 0.25 0.28125
vt 0.125 0.25
vt 0.15625 0.25
vt 0.1875 0.25
vt 0.21875 0.25
vt 0.25 0.25

# Normal
vn 0 0 -1

# Mesh description
g ciudadPrincipal_mesh_0064

# Faces
f 1/1/1 2/2/1 3/3/1 4/4/1
f 5/2/1 6/5/1 7/6/1 8/3/1
f 9/5/1 10/7/1 11/8/1 12/6/1
f 13/7/1 14/9/1 15/10/1 16/8/1
f 17/11/1 18/12/1 19/2/1 20/1/1
f 21/12/1 22/13/1 23/5/1 24/2/1
f 25/13/1 26/14/1 27/7/1 28/5/1
f 29/14/1 30/15/1 31/9/1 32/7/1
f 33/16/1 34/17/1 35/18/1 36/19/1
f 37/17/1 38/20/1 39/21/1 40/18/1
f 41/20/1 42/22/1 43/23/1 44/21/1
f 45/22/1 46/24/1 47/25/1 48/23/1
f 49/24/1 50/26/1 51/27/1 52/25/1
f 53/26/1 54/28/1 55/29/1 56/27/1
f 57/28/1 58/30/1 59/31/1 60/29/1
f 61/30/1 62/32/1 63/33/1 64/31/1
f 65/16/1 66/17/1 67/18/1 68/19/1
f 69/17/1 70/20/1 71/21/1 72/18/1
f 73/20/1 74/22/1 75/23/1 76/21/1
f 77/22/1 78/24/1 79/25/1 80/23/1
f 81/24/1 82/26/1 83/27/1 84/25/1
f 85/26/1 86/28/1 87/29/1 88/27/1
f 89/28/1 90/30/1 91/31/1 92/29/1
f 93/30/1 94/32/1 95/33/1 96/31/1
f 97/34/1 98/35/1 99/17/1 100/16/1
f 101/35/1 102/36/1 103/20/1 104/17/1
f 105/36/1 106/37/1 107/22/1 108/20/1
f 109/37/1 110/38/1 111/24/1 112/22/1
f 113/38/1 114/39/1 115/26/1 116/24/1
f 117/39/1 118/40/1 119/28/1 120/26/1
f 121/40/1 122/41/1 123/30/1 124/28/1
f 125/41/1 126/42/1 127/32/1 128/30/1
f 129/34/1 130/35/1 131/17/1 132/16/1
f 133/35/1 134/36/1 135/20/1 136/17/1
f 137/36/1 138/37/1 139/22/1 140/20/1
f 141/37/1 142/38/1 143/24/1 144/22/1
f 145/38/1 146/39/1 147/26/1 148/24/1
f 149/39/1 150/40/1 151/28/1 152/26/1
f 153/40/1 154/41/1 155/30/1 156/28/1
f 157/41/1 158/42/1 159/32/1 160/30/1
f 161/43/1 162/44/1 163/45/1 164/46/1
f 165/44/1 166/47/1 167/48/1 168/45/1
f 169/49/1 170/50/1 171/44/1 172/43/1
f 173/50/1 174/51/1 175/47/1 176/44/1
f 177/52/1 178/53/1 179/50/1 180/49/1
f 181/53/1 182/54/1 183/51/1 184/50/1
f 185/1/1 186/2/1 187/3/1 188/4/1
f 189/2/1 190/5/1 191/6/1 192/3/1
f 193/5/1 194/7/1 195/8/1 196/6/1
f 197/7/1 198/9/1 199/10/1 200/8/1
f 201/11/1 202/12/1 203/2/1 204/1/1
f 205/12/1 206/13/1 207/5/1 208/2/1
f 209/13/1 210/14/1 211/7/1 212/5/1
f 213/14/1 214/15/1 215/9/1 216/7/1
f 217/16/1 218/17/1 219/18/1 220/19/1
f 221/17/1 222/20/1 223/21/1 224/18/1
f 225/20/1 226/22/1 227/23/1 228/21/1
f 229/22/1 230/24/1 231/25/1 232/23/1
f 233/24/1 234/26/1 235/27/1 236/25/1
f 237/26/1 238/28/1 239/29/1 240/27/1
f 241/28/1 242/30/1 243/31/1 244/29/1
f 245/30/1 246/32/1 247/33/1 248/31/1
f 249/16/1 250/17/1 251/18/1 252/19/1
f 253/17/1 254/20/1 255/21/1 256/18/1
f 257/20/1 258/22/1 259/23/1 260/21/1
f 261/22/1 262/24/1 263/25/1 264/23/1
f 265/24/1 266/26/1 267/27/1 268/25/1
f 269/26/1 270/28/1 271/29/1 272/27/1
f 273/28/1 274/30/1 275/31/1 276/29/1
f 277/30/1 278/32/1 279/33/1 280/31/1
f 281/34/1 282/35/1 283/17/1 284/16/1
f 285/35/1 286/36/1 287/20/1 288/17/1
f 289/36/1 290/37/1 291/22/1 292/20/1
f 293/37/1 294/38/1 295/24/1 296/22/1
f 297/38/1 298/39/1 299/26/1 300/24/1
f 301/39/1 302/40/1 303/28/1 304/26/1
f 305/40/1 306/41/1 307/30/1 308/28/1
f 309/41/1 310/42/1 311/32/1 312/30/1
f 313/34/1 314/35/1 315/17/1 316/16/1
f 317/35/1 318/36/1 319/20/1 320/17/1
f 321/36/1 322/37/1 323/22/1 324/20/1
f 325/37/1 326/38/1 327/24/1 328/22/1
f 329/38/1 330/39/1 331/26/1 332/24/1
f 333/39/1 334/40/1 335/28/1 336/26/1
f 337/40/1 338/41/1 339/30/1 340/28/1
f 341/41/1 342/42/1 343/32/1 344/30/1
f 345/16/1 346/17/1 347/18/1 348/19/1
f 349/17/1 350/20/1 351/21/1 352/18/1
f 353/20/1 354/22/1 355/23/1 356/21/1
f 357/22/1 358/24/1 359/25/1 360/23/1
f 361/24/1 362/26/1 363/27/1 364/25/1
f 365/26/1 366/28/1 367/29/1 368/27/1
f 369/28/1 370/30/1 371/31/1 372/29/1
f 373/30/1 374/32/1 375/33/1 376/31/1
f 377/16/1 378/17/1 379/18/1 380/19/1
f 381/17/1 382/20/1 383/21/1 384/18/1
f 385/20/1 386/22/1 387/23/1 388/21/1
f 389/22/1 390/24/1 391/25/1 392/23/1
f 393/24/1 394/26/1 395/27/1 396/25/1
f 397/26/1 398/28/1 399/29/1 400/27/1
f 401/28/1 402/30/1 403/31/1 404/29/1
f 405/30/1 406/32/1 407/33/1 408/31/1
f 409/34/1 410/35/1 411/17/1 412/16/1
f 413/35/1 414/36/1 415/20/1 416/17/1
f 417/36/1 418/37/1 419/22/1 420/20/1
f 421/37/1 422/38/1 423/24/1 424/22/1
f 425/38/1 426/39/1 427/26/1 428/24/1
f 429/39/1 430/40/1 431/28/1 432/26/1
f 433/40/1 434/41/1 435/30/1 436/28/1
f 437/41/1 438/42/1 439/32/1 440/30/1
f 441/34/1 442/35/1 443/17/1 444/16/1
f 445/35/1 446/36/1 447/20/1 448/17/1
f 449/36/1 450/37/1 451/22/1 452/20/1
f 453/37/1 454/38/1 455/24/1 456/22/1
f 457/38/1 458/39/1 459/26/1 460/24/1
f 461/39/1 462/40/1 463/28/1 464/26/1
f 465/40/1 466/41/1 467/30/1 468/28/1
f 469/41/1 470/42/1 471/32/1 472/30/1
f 473/55/1 474/56/1 475/57/1 476/58/1
f 477/56/1 478/59/1 479/60/1 480/57/1
f 481/59/1 482/61/1 483/62/1 484/60/1
f 485/61/1 486/63/1 487/64/1 488/62/1
f 489/65/1 490/66/1 491/56/1 492/55/1
f 493/66/1 494/67/1 495/59/1 496/56/1
f 497/67/1 498/68/1 499/61/1 500/59/1
f 501/68/1 502/69/1 503/63/1 504/61/1
f 505/70/1 506/71/1 507/66/1 508/65/1
f 509/71/1 510/72/1 511/67/1 512/66/1
f 513/72/1 514/73/1 515/68/1 516/67/1
f 517/73/1 518/74/1 519/69/1 520/68/1
f 521/75/1 522/76/1 523/71/1 524/70/1
f 525/76/1 526/77/1 527/72/1 528/71/1
f 529/77/1 530/78/1 531/73/1 532/72/1
f 533/78/1 534/79/1 535/74/1 536/73/1

