# Tiled2Unity generated file. Do not modify by hand.
# Wavefront file for 'ciudadPrincipal_mesh_0013.obj'

# Vertices (Count = 840)
v -6.4 -0.64 0
v -6.56 -0.64 0
v -6.56 -0.48 0
v -6.4 -0.48 0
v -6.56 -0.64 0
v -6.72 -0.64 0
v -6.72 -0.48 0
v -6.56 -0.48 0
v -6.08 -0.8 0
v -6.24 -0.8 0
v -6.24 -0.64 0
v -6.08 -0.64 0
v -6.24 -0.8 0
v -6.4 -0.8 0
v -6.4 -0.64 0
v -6.24 -0.64 0
v -6.4 -0.8 0
v -6.56 -0.8 0
v -6.56 -0.64 0
v -6.4 -0.64 0
v -6.56 -0.8 0
v -6.72 -0.8 0
v -6.72 -0.64 0
v -6.56 -0.64 0
v -6.72 -0.8 0
v -6.88 -0.8 0
v -6.88 -0.64 0
v -6.72 -0.64 0
v -6.88 -0.8 0
v -7.04 -0.8 0
v -7.04 -0.64 0
v -6.88 -0.64 0
v -6.08 -0.96 0
v -6.24 -0.96 0
v -6.24 -0.8 0
v -6.08 -0.8 0
v -6.24 -0.96 0
v -6.4 -0.96 0
v -6.4 -0.8 0
v -6.24 -0.8 0
v -6.4 -0.96 0
v -6.56 -0.96 0
v -6.56 -0.8 0
v -6.4 -0.8 0
v -6.56 -0.96 0
v -6.72 -0.96 0
v -6.72 -0.8 0
v -6.56 -0.8 0
v -6.72 -0.96 0
v -6.88 -0.96 0
v -6.88 -0.8 0
v -6.72 -0.8 0
v -6.88 -0.96 0
v -7.04 -0.96 0
v -7.04 -0.8 0
v -6.88 -0.8 0
v -5.92 -1.12 0
v -6.08 -1.12 0
v -6.08 -0.96 0
v -5.92 -0.96 0
v -6.08 -1.12 0
v -6.24 -1.12 0
v -6.24 -0.96 0
v -6.08 -0.96 0
v -6.24 -1.12 0
v -6.4 -1.12 0
v -6.4 -0.96 0
v -6.24 -0.96 0
v -6.4 -1.12 0
v -6.56 -1.12 0
v -6.56 -0.96 0
v -6.4 -0.96 0
v -6.56 -1.12 0
v -6.72 -1.12 0
v -6.72 -0.96 0
v -6.56 -0.96 0
v -6.72 -1.12 0
v -6.88 -1.12 0
v -6.88 -0.96 0
v -6.72 -0.96 0
v -6.88 -1.12 0
v -7.04 -1.12 0
v -7.04 -0.96 0
v -6.88 -0.96 0
v -7.04 -1.12 0
v -7.2 -1.12 0
v -7.2 -0.96 0
v -7.04 -0.96 0
v -5.92 -1.28 0
v -6.08 -1.28 0
v -6.08 -1.12 0
v -5.92 -1.12 0
v -6.08 -1.28 0
v -6.24 -1.28 0
v -6.24 -1.12 0
v -6.08 -1.12 0
v -6.24 -1.28 0
v -6.4 -1.28 0
v -6.4 -1.12 0
v -6.24 -1.12 0
v -6.4 -1.28 0
v -6.56 -1.28 0
v -6.56 -1.12 0
v -6.4 -1.12 0
v -6.56 -1.28 0
v -6.72 -1.28 0
v -6.72 -1.12 0
v -6.56 -1.12 0
v -6.72 -1.28 0
v -6.88 -1.28 0
v -6.88 -1.12 0
v -6.72 -1.12 0
v -6.88 -1.28 0
v -7.04 -1.28 0
v -7.04 -1.12 0
v -6.88 -1.12 0
v -7.04 -1.28 0
v -7.2 -1.28 0
v -7.2 -1.12 0
v -7.04 -1.12 0
v -5.92 -1.44 0
v -6.08 -1.44 0
v -6.08 -1.28 0
v -5.92 -1.28 0
v -6.08 -1.44 0
v -6.24 -1.44 0
v -6.24 -1.28 0
v -6.08 -1.28 0
v -6.24 -1.44 0
v -6.4 -1.44 0
v -6.4 -1.28 0
v -6.24 -1.28 0
v -6.4 -1.44 0
v -6.56 -1.44 0
v -6.56 -1.28 0
v -6.4 -1.28 0
v -6.56 -1.44 0
v -6.72 -1.44 0
v -6.72 -1.28 0
v -6.56 -1.28 0
v -6.72 -1.44 0
v -6.88 -1.44 0
v -6.88 -1.28 0
v -6.72 -1.28 0
v -6.88 -1.44 0
v -7.04 -1.44 0
v -7.04 -1.28 0
v -6.88 -1.28 0
v -7.04 -1.44 0
v -7.2 -1.44 0
v -7.2 -1.28 0
v -7.04 -1.28 0
v -5.92 -1.6 0
v -6.08 -1.6 0
v -6.08 -1.44 0
v -5.92 -1.44 0
v -6.08 -1.6 0
v -6.24 -1.6 0
v -6.24 -1.44 0
v -6.08 -1.44 0
v -6.24 -1.6 0
v -6.4 -1.6 0
v -6.4 -1.44 0
v -6.24 -1.44 0
v -6.4 -1.6 0
v -6.56 -1.6 0
v -6.56 -1.44 0
v -6.4 -1.44 0
v -6.56 -1.6 0
v -6.72 -1.6 0
v -6.72 -1.44 0
v -6.56 -1.44 0
v -6.72 -1.6 0
v -6.88 -1.6 0
v -6.88 -1.44 0
v -6.72 -1.44 0
v -6.88 -1.6 0
v -7.04 -1.6 0
v -7.04 -1.44 0
v -6.88 -1.44 0
v -7.04 -1.6 0
v -7.2 -1.6 0
v -7.2 -1.44 0
v -7.04 -1.44 0
v -6.08 -1.76 0
v -6.24 -1.76 0
v -6.24 -1.6 0
v -6.08 -1.6 0
v -6.88 -1.76 0
v -7.04 -1.76 0
v -7.04 -1.6 0
v -6.88 -1.6 0
v -7.2 -2.4 0
v -7.36 -2.4 0
v -7.36 -2.24 0
v -7.2 -2.24 0
v -7.36 -2.4 0
v -7.52 -2.4 0
v -7.52 -2.24 0
v -7.36 -2.24 0
v -7.2 -2.56 0
v -7.36 -2.56 0
v -7.36 -2.4 0
v -7.2 -2.4 0
v -7.36 -2.56 0
v -7.52 -2.56 0
v -7.52 -2.4 0
v -7.36 -2.4 0
v -7.68 -2.72 0
v -7.84 -2.72 0
v -7.84 -2.56 0
v -7.68 -2.56 0
v -7.84 -2.72 0
v -8 -2.72 0
v -8 -2.56 0
v -7.84 -2.56 0
v -7.36 -2.88 0
v -7.52 -2.88 0
v -7.52 -2.72 0
v -7.36 -2.72 0
v -7.52 -2.88 0
v -7.68 -2.88 0
v -7.68 -2.72 0
v -7.52 -2.72 0
v -7.68 -2.88 0
v -7.84 -2.88 0
v -7.84 -2.72 0
v -7.68 -2.72 0
v -7.84 -2.88 0
v -8 -2.88 0
v -8 -2.72 0
v -7.84 -2.72 0
v -10.4 -2.88 0
v -10.56 -2.88 0
v -10.56 -2.72 0
v -10.4 -2.72 0
v -10.56 -2.88 0
v -10.72 -2.88 0
v -10.72 -2.72 0
v -10.56 -2.72 0
v -7.36 -3.04 0
v -7.52 -3.04 0
v -7.52 -2.88 0
v -7.36 -2.88 0
v -7.52 -3.04 0
v -7.68 -3.04 0
v -7.68 -2.88 0
v -7.52 -2.88 0
v -7.84 -3.04 0
v -8 -3.04 0
v -8 -2.88 0
v -7.84 -2.88 0
v -8 -3.04 0
v -8.16 -3.04 0
v -8.16 -2.88 0
v -8 -2.88 0
v -10.4 -3.04 0
v -10.56 -3.04 0
v -10.56 -2.88 0
v -10.4 -2.88 0
v -10.56 -3.04 0
v -10.72 -3.04 0
v -10.72 -2.88 0
v -10.56 -2.88 0
v -11.84 -3.04 0
v -12 -3.04 0
v -12 -2.88 0
v -11.84 -2.88 0
v -12 -3.04 0
v -12.16 -3.04 0
v -12.16 -2.88 0
v -12 -2.88 0
v -7.84 -3.2 0
v -8 -3.2 0
v -8 -3.04 0
v -7.84 -3.04 0
v -8 -3.2 0
v -8.16 -3.2 0
v -8.16 -3.04 0
v -8 -3.04 0
v -11.36 -3.2 0
v -11.52 -3.2 0
v -11.52 -3.04 0
v -11.36 -3.04 0
v -11.52 -3.2 0
v -11.68 -3.2 0
v -11.68 -3.04 0
v -11.52 -3.04 0
v -11.84 -3.2 0
v -12 -3.2 0
v -12 -3.04 0
v -11.84 -3.04 0
v -12 -3.2 0
v -12.16 -3.2 0
v -12.16 -3.04 0
v -12 -3.04 0
v -7.52 -3.36 0
v -7.68 -3.36 0
v -7.68 -3.2 0
v -7.52 -3.2 0
v -7.68 -3.36 0
v -7.84 -3.36 0
v -7.84 -3.2 0
v -7.68 -3.2 0
v -8.16 -3.36 0
v -8.32 -3.36 0
v -8.32 -3.2 0
v -8.16 -3.2 0
v -8.32 -3.36 0
v -8.48 -3.36 0
v -8.48 -3.2 0
v -8.32 -3.2 0
v -10.56 -3.36 0
v -10.72 -3.36 0
v -10.72 -3.2 0
v -10.56 -3.2 0
v -10.72 -3.36 0
v -10.88 -3.36 0
v -10.88 -3.2 0
v -10.72 -3.2 0
v -11.04 -3.36 0
v -11.2 -3.36 0
v -11.2 -3.2 0
v -11.04 -3.2 0
v -11.2 -3.36 0
v -11.36 -3.36 0
v -11.36 -3.2 0
v -11.2 -3.2 0
v -11.36 -3.36 0
v -11.52 -3.36 0
v -11.52 -3.2 0
v -11.36 -3.2 0
v -11.52 -3.36 0
v -11.68 -3.36 0
v -11.68 -3.2 0
v -11.52 -3.2 0
v -12 -3.36 0
v -12.16 -3.36 0
v -12.16 -3.2 0
v -12 -3.2 0
v -12.16 -3.36 0
v -12.32 -3.36 0
v -12.32 -3.2 0
v -12.16 -3.2 0
v -3.36 -3.52 0
v -3.52 -3.52 0
v -3.52 -3.36 0
v -3.36 -3.36 0
v -4.16 -3.52 0
v -4.32 -3.52 0
v -4.32 -3.36 0
v -4.16 -3.36 0
v -7.52 -3.52 0
v -7.68 -3.52 0
v -7.68 -3.36 0
v -7.52 -3.36 0
v -7.68 -3.52 0
v -7.84 -3.52 0
v -7.84 -3.36 0
v -7.68 -3.36 0
v -8.16 -3.52 0
v -8.32 -3.52 0
v -8.32 -3.36 0
v -8.16 -3.36 0
v -8.32 -3.52 0
v -8.48 -3.52 0
v -8.48 -3.36 0
v -8.32 -3.36 0
v -10.56 -3.52 0
v -10.72 -3.52 0
v -10.72 -3.36 0
v -10.56 -3.36 0
v -10.72 -3.52 0
v -10.88 -3.52 0
v -10.88 -3.36 0
v -10.72 -3.36 0
v -11.04 -3.52 0
v -11.2 -3.52 0
v -11.2 -3.36 0
v -11.04 -3.36 0
v -11.2 -3.52 0
v -11.36 -3.52 0
v -11.36 -3.36 0
v -11.2 -3.36 0
v -12 -3.52 0
v -12.16 -3.52 0
v -12.16 -3.36 0
v -12 -3.36 0
v -12.16 -3.52 0
v -12.32 -3.52 0
v -12.32 -3.36 0
v -12.16 -3.36 0
v -13.76 -3.52 0
v -13.92 -3.52 0
v -13.92 -3.36 0
v -13.76 -3.36 0
v -13.92 -3.52 0
v -14.08 -3.52 0
v -14.08 -3.36 0
v -13.92 -3.36 0
v -13.76 -3.68 0
v -13.92 -3.68 0
v -13.92 -3.52 0
v -13.76 -3.52 0
v -13.92 -3.68 0
v -14.08 -3.68 0
v -14.08 -3.52 0
v -13.92 -3.52 0
v -15.04 -3.68 0
v -15.2 -3.68 0
v -15.2 -3.52 0
v -15.04 -3.52 0
v -15.2 -3.68 0
v -15.36 -3.68 0
v -15.36 -3.52 0
v -15.2 -3.52 0
v -15.04 -3.84 0
v -15.2 -3.84 0
v -15.2 -3.68 0
v -15.04 -3.68 0
v -15.2 -3.84 0
v -15.36 -3.84 0
v -15.36 -3.68 0
v -15.2 -3.68 0
v -2.08 -4 0
v -2.24 -4 0
v -2.24 -3.84 0
v -2.08 -3.84 0
v -2.24 -4 0
v -2.4 -4 0
v -2.4 -3.84 0
v -2.24 -3.84 0
v -2.4 -4 0
v -2.56 -4 0
v -2.56 -3.84 0
v -2.4 -3.84 0
v -2.56 -4 0
v -2.72 -4 0
v -2.72 -3.84 0
v -2.56 -3.84 0
v -2.72 -4 0
v -2.88 -4 0
v -2.88 -3.84 0
v -2.72 -3.84 0
v -2.88 -4 0
v -3.04 -4 0
v -3.04 -3.84 0
v -2.88 -3.84 0
v -3.04 -4 0
v -3.2 -4 0
v -3.2 -3.84 0
v -3.04 -3.84 0
v -3.2 -4 0
v -3.36 -4 0
v -3.36 -3.84 0
v -3.2 -3.84 0
v -3.36 -4 0
v -3.52 -4 0
v -3.52 -3.84 0
v -3.36 -3.84 0
v -3.52 -4 0
v -3.68 -4 0
v -3.68 -3.84 0
v -3.52 -3.84 0
v -3.68 -4 0
v -3.84 -4 0
v -3.84 -3.84 0
v -3.68 -3.84 0
v -3.84 -4 0
v -4 -4 0
v -4 -3.84 0
v -3.84 -3.84 0
v -4 -4 0
v -4.16 -4 0
v -4.16 -3.84 0
v -4 -3.84 0
v -4.16 -4 0
v -4.32 -4 0
v -4.32 -3.84 0
v -4.16 -3.84 0
v -4.32 -4 0
v -4.48 -4 0
v -4.48 -3.84 0
v -4.32 -3.84 0
v -2.08 -4.16 0
v -2.24 -4.16 0
v -2.24 -4 0
v -2.08 -4 0
v -2.24 -4.16 0
v -2.4 -4.16 0
v -2.4 -4 0
v -2.24 -4 0
v -2.4 -4.16 0
v -2.56 -4.16 0
v -2.56 -4 0
v -2.4 -4 0
v -2.56 -4.16 0
v -2.72 -4.16 0
v -2.72 -4 0
v -2.56 -4 0
v -2.72 -4.16 0
v -2.88 -4.16 0
v -2.88 -4 0
v -2.72 -4 0
v -2.88 -4.16 0
v -3.04 -4.16 0
v -3.04 -4 0
v -2.88 -4 0
v -3.04 -4.16 0
v -3.2 -4.16 0
v -3.2 -4 0
v -3.04 -4 0
v -3.2 -4.16 0
v -3.36 -4.16 0
v -3.36 -4 0
v -3.2 -4 0
v -3.36 -4.16 0
v -3.52 -4.16 0
v -3.52 -4 0
v -3.36 -4 0
v -3.52 -4.16 0
v -3.68 -4.16 0
v -3.68 -4 0
v -3.52 -4 0
v -4 -4.16 0
v -4.16 -4.16 0
v -4.16 -4 0
v -4 -4 0
v -4.16 -4.16 0
v -4.32 -4.16 0
v -4.32 -4 0
v -4.16 -4 0
v -4.32 -4.16 0
v -4.48 -4.16 0
v -4.48 -4 0
v -4.32 -4 0
v -2.08 -4.32 0
v -2.24 -4.32 0
v -2.24 -4.16 0
v -2.08 -4.16 0
v -2.24 -4.32 0
v -2.4 -4.32 0
v -2.4 -4.16 0
v -2.24 -4.16 0
v -2.4 -4.32 0
v -2.56 -4.32 0
v -2.56 -4.16 0
v -2.4 -4.16 0
v -2.56 -4.32 0
v -2.72 -4.32 0
v -2.72 -4.16 0
v -2.56 -4.16 0
v -2.72 -4.32 0
v -2.88 -4.32 0
v -2.88 -4.16 0
v -2.72 -4.16 0
v -2.88 -4.32 0
v -3.04 -4.32 0
v -3.04 -4.16 0
v -2.88 -4.16 0
v -3.04 -4.32 0
v -3.2 -4.32 0
v -3.2 -4.16 0
v -3.04 -4.16 0
v -3.2 -4.32 0
v -3.36 -4.32 0
v -3.36 -4.16 0
v -3.2 -4.16 0
v -3.36 -4.32 0
v -3.52 -4.32 0
v -3.52 -4.16 0
v -3.36 -4.16 0
v -3.52 -4.32 0
v -3.68 -4.32 0
v -3.68 -4.16 0
v -3.52 -4.16 0
v -4 -4.32 0
v -4.16 -4.32 0
v -4.16 -4.16 0
v -4 -4.16 0
v -4.16 -4.32 0
v -4.32 -4.32 0
v -4.32 -4.16 0
v -4.16 -4.16 0
v -4.32 -4.32 0
v -4.48 -4.32 0
v -4.48 -4.16 0
v -4.32 -4.16 0
v -14.72 -4.32 0
v -14.88 -4.32 0
v -14.88 -4.16 0
v -14.72 -4.16 0
v -14.88 -4.32 0
v -15.04 -4.32 0
v -15.04 -4.16 0
v -14.88 -4.16 0
v -15.68 -4.32 0
v -15.84 -4.32 0
v -15.84 -4.16 0
v -15.68 -4.16 0
v -15.84 -4.32 0
v -16 -4.32 0
v -16 -4.16 0
v -15.84 -4.16 0
v -2.08 -4.48 0
v -2.24 -4.48 0
v -2.24 -4.32 0
v -2.08 -4.32 0
v -2.24 -4.48 0
v -2.4 -4.48 0
v -2.4 -4.32 0
v -2.24 -4.32 0
v -2.4 -4.48 0
v -2.56 -4.48 0
v -2.56 -4.32 0
v -2.4 -4.32 0
v -2.56 -4.48 0
v -2.72 -4.48 0
v -2.72 -4.32 0
v -2.56 -4.32 0
v -2.72 -4.48 0
v -2.88 -4.48 0
v -2.88 -4.32 0
v -2.72 -4.32 0
v -2.88 -4.48 0
v -3.04 -4.48 0
v -3.04 -4.32 0
v -2.88 -4.32 0
v -3.04 -4.48 0
v -3.2 -4.48 0
v -3.2 -4.32 0
v -3.04 -4.32 0
v -3.2 -4.48 0
v -3.36 -4.48 0
v -3.36 -4.32 0
v -3.2 -4.32 0
v -3.36 -4.48 0
v -3.52 -4.48 0
v -3.52 -4.32 0
v -3.36 -4.32 0
v -3.52 -4.48 0
v -3.68 -4.48 0
v -3.68 -4.32 0
v -3.52 -4.32 0
v -3.68 -4.48 0
v -3.84 -4.48 0
v -3.84 -4.32 0
v -3.68 -4.32 0
v -3.84 -4.48 0
v -4 -4.48 0
v -4 -4.32 0
v -3.84 -4.32 0
v -4 -4.48 0
v -4.16 -4.48 0
v -4.16 -4.32 0
v -4 -4.32 0
v -4.16 -4.48 0
v -4.32 -4.48 0
v -4.32 -4.32 0
v -4.16 -4.32 0
v -4.32 -4.48 0
v -4.48 -4.48 0
v -4.48 -4.32 0
v -4.32 -4.32 0
v -14.72 -4.48 0
v -14.88 -4.48 0
v -14.88 -4.32 0
v -14.72 -4.32 0
v -14.88 -4.48 0
v -15.04 -4.48 0
v -15.04 -4.32 0
v -14.88 -4.32 0
v -15.2 -4.48 0
v -15.36 -4.48 0
v -15.36 -4.32 0
v -15.2 -4.32 0
v -15.36 -4.48 0
v -15.52 -4.48 0
v -15.52 -4.32 0
v -15.36 -4.32 0
v -15.68 -4.48 0
v -15.84 -4.48 0
v -15.84 -4.32 0
v -15.68 -4.32 0
v -15.84 -4.48 0
v -16 -4.48 0
v -16 -4.32 0
v -15.84 -4.32 0
v -15.2 -4.64 0
v -15.36 -4.64 0
v -15.36 -4.48 0
v -15.2 -4.48 0
v -15.36 -4.64 0
v -15.52 -4.64 0
v -15.52 -4.48 0
v -15.36 -4.48 0
v -15.52 -4.8 0
v -15.68 -4.8 0
v -15.68 -4.64 0
v -15.52 -4.64 0
v -15.68 -4.8 0
v -15.84 -4.8 0
v -15.84 -4.64 0
v -15.68 -4.64 0
v -15.52 -4.96 0
v -15.68 -4.96 0
v -15.68 -4.8 0
v -15.52 -4.8 0
v -15.68 -4.96 0
v -15.84 -4.96 0
v -15.84 -4.8 0
v -15.68 -4.8 0
v -31.36 -12.48 0
v -31.52 -12.48 0
v -31.52 -12.32 0
v -31.36 -12.32 0
v -31.52 -12.48 0
v -31.68 -12.48 0
v -31.68 -12.32 0
v -31.52 -12.32 0
v -31.68 -12.48 0
v -31.84 -12.48 0
v -31.84 -12.32 0
v -31.68 -12.32 0
v -31.84 -12.48 0
v -32 -12.48 0
v -32 -12.32 0
v -31.84 -12.32 0
v -31.36 -12.64 0
v -31.52 -12.64 0
v -31.52 -12.48 0
v -31.36 -12.48 0
v -31.52 -12.64 0
v -31.68 -12.64 0
v -31.68 -12.48 0
v -31.52 -12.48 0
v -31.68 -12.64 0
v -31.84 -12.64 0
v -31.84 -12.48 0
v -31.68 -12.48 0
v -31.84 -12.64 0
v -32 -12.64 0
v -32 -12.48 0
v -31.84 -12.48 0
v -31.36 -12.8 0
v -31.52 -12.8 0
v -31.52 -12.64 0
v -31.36 -12.64 0
v -31.52 -12.8 0
v -31.68 -12.8 0
v -31.68 -12.64 0
v -31.52 -12.64 0
v -31.68 -12.8 0
v -31.84 -12.8 0
v -31.84 -12.64 0
v -31.68 -12.64 0
v -31.84 -12.8 0
v -32 -12.8 0
v -32 -12.64 0
v -31.84 -12.64 0
v -31.36 -12.96 0
v -31.52 -12.96 0
v -31.52 -12.8 0
v -31.36 -12.8 0
v -31.52 -12.96 0
v -31.68 -12.96 0
v -31.68 -12.8 0
v -31.52 -12.8 0
v -31.68 -12.96 0
v -31.84 -12.96 0
v -31.84 -12.8 0
v -31.68 -12.8 0
v -31.84 -12.96 0
v -32 -12.96 0
v -32 -12.8 0
v -31.84 -12.8 0
v -27.2 -14.56 0
v -27.36 -14.56 0
v -27.36 -14.4 0
v -27.2 -14.4 0
v -27.36 -14.56 0
v -27.52 -14.56 0
v -27.52 -14.4 0
v -27.36 -14.4 0
v -27.52 -14.56 0
v -27.68 -14.56 0
v -27.68 -14.4 0
v -27.52 -14.4 0
v -27.68 -14.56 0
v -27.84 -14.56 0
v -27.84 -14.4 0
v -27.68 -14.4 0
v -27.2 -14.72 0
v -27.36 -14.72 0
v -27.36 -14.56 0
v -27.2 -14.56 0
v -27.36 -14.72 0
v -27.52 -14.72 0
v -27.52 -14.56 0
v -27.36 -14.56 0
v -27.52 -14.72 0
v -27.68 -14.72 0
v -27.68 -14.56 0
v -27.52 -14.56 0
v -27.68 -14.72 0
v -27.84 -14.72 0
v -27.84 -14.56 0
v -27.68 -14.56 0
v -27.2 -14.88 0
v -27.36 -14.88 0
v -27.36 -14.72 0
v -27.2 -14.72 0
v -27.36 -14.88 0
v -27.52 -14.88 0
v -27.52 -14.72 0
v -27.36 -14.72 0
v -27.52 -14.88 0
v -27.68 -14.88 0
v -27.68 -14.72 0
v -27.52 -14.72 0
v -27.68 -14.88 0
v -27.84 -14.88 0
v -27.84 -14.72 0
v -27.68 -14.72 0
v -27.2 -15.04 0
v -27.36 -15.04 0
v -27.36 -14.88 0
v -27.2 -14.88 0
v -27.36 -15.04 0
v -27.52 -15.04 0
v -27.52 -14.88 0
v -27.36 -14.88 0
v -27.52 -15.04 0
v -27.68 -15.04 0
v -27.68 -14.88 0
v -27.52 -14.88 0
v -27.68 -15.04 0
v -27.84 -15.04 0
v -27.84 -14.88 0
v -27.68 -14.88 0

# Texture cooridinates (Count = 127)
vt 0.5625 0.375
vt 0.59375 0.375
vt 0.59375 0.40625
vt 0.5625 0.40625
vt 0.625 0.375
vt 0.625 0.40625
vt 0.5 0.34375
vt 0.53125 0.34375
vt 0.53125 0.375
vt 0.5 0.375
vt 0.5625 0.34375
vt 0.59375 0.34375
vt 0.625 0.34375
vt 0.65625 0.34375
vt 0.65625 0.375
vt 0.6875 0.34375
vt 0.6875 0.375
vt 0.5 0.3125
vt 0.53125 0.3125
vt 0.5625 0.3125
vt 0.59375 0.3125
vt 0.625 0.3125
vt 0.65625 0.3125
vt 0.6875 0.3125
vt 0.5 0.28125
vt 0.53125 0.28125
vt 0.5625 0.28125
vt 0.59375 0.28125
vt 0.625 0.28125
vt 0.65625 0.28125
vt 0.6875 0.28125
vt 0.5 0.25
vt 0.53125 0.25
vt 0.5625 0.25
vt 0.59375 0.25
vt 0.625 0.25
vt 0.65625 0.25
vt 0.6875 0.25
vt 0.5 0.21875
vt 0.53125 0.21875
vt 0.5625 0.21875
vt 0.8125 0.21875
vt 0.84375 0.21875
vt 0.84375 0.25
vt 0.8125 0.25
vt 0.875 0.21875
vt 0.875 0.25
vt 0.625 0.21875
vt 0.65625 0.21875
vt 0.6875 0.21875
vt 0.53125 0.40625
vt 0.5625 0.4375
vt 0.53125 0.4375
vt 0.53125 0.1875
vt 0.5625 0.1875
vt 0.8125 0.1875
vt 0.84375 0.1875
vt 0.875 0.1875
vt 0.625 0.1875
vt 0.65625 0.1875
vt 0.65625 0.40625
vt 0.65625 0.4375
vt 0.625 0.4375
vt 0.6875 0.40625
vt 0.6875 0.4375
vt 0.25 0.46875
vt 0.28125 0.46875
vt 0.28125 0.5
vt 0.25 0.5
vt 0.3125 0.46875
vt 0.3125 0.5
vt 0.25 0.4375
vt 0.28125 0.4375
vt 0.3125 0.4375
vt 0.25 0.53125
vt 0.28125 0.53125
vt 0.28125 0.5625
vt 0.25 0.5625
vt 0.3125 0.53125
vt 0.3125 0.5625
vt 0.5 0.09375
vt 0.53125 0.09375
vt 0.53125 0.125
vt 0.5 0.125
vt 0.5625 0.09375
vt 0.5625 0.125
vt 0.59375 0.09375
vt 0.59375 0.125
vt 0.625 0.09375
vt 0.625 0.125
vt 0.5 0.0625
vt 0.53125 0.0625
vt 0.5625 0.0625
vt 0.59375 0.0625
vt 0.625 0.0625
vt 0.5 0.03125
vt 0.53125 0.03125
vt 0.5625 0.03125
vt 0.59375 0.03125
vt 0.625 0.03125
vt 0.5 0.1875
vt 0.6875 0.1875
vt 0.5 0
vt 0.53125 0
vt 0.5625 0
vt 0.59375 0
vt 0.625 0
vt 0.375 0.09375
vt 0.40625 0.09375
vt 0.40625 0.125
vt 0.375 0.125
vt 0.4375 0.09375
vt 0.4375 0.125
vt 0.46875 0.09375
vt 0.46875 0.125
vt 0.375 0.0625
vt 0.40625 0.0625
vt 0.4375 0.0625
vt 0.46875 0.0625
vt 0.375 0.03125
vt 0.40625 0.03125
vt 0.4375 0.03125
vt 0.46875 0.03125
vt 0.375 0
vt 0.40625 0
vt 0.4375 0
vt 0.46875 0

# Normal
vn 0 0 -1

# Mesh description
g ciudadPrincipal_mesh_0013

# Faces
f 1/1/1 2/2/1 3/3/1 4/4/1
f 5/2/1 6/5/1 7/6/1 8/3/1
f 9/7/1 10/8/1 11/9/1 12/10/1
f 13/8/1 14/11/1 15/1/1 16/9/1
f 17/11/1 18/12/1 19/2/1 20/1/1
f 21/12/1 22/13/1 23/5/1 24/2/1
f 25/13/1 26/14/1 27/15/1 28/5/1
f 29/14/1 30/16/1 31/17/1 32/15/1
f 33/18/1 34/19/1 35/8/1 36/7/1
f 37/19/1 38/20/1 39/11/1 40/8/1
f 41/20/1 42/21/1 43/12/1 44/11/1
f 45/21/1 46/22/1 47/13/1 48/12/1
f 49/22/1 50/23/1 51/14/1 52/13/1
f 53/23/1 54/24/1 55/16/1 56/14/1
f 57/18/1 58/19/1 59/8/1 60/7/1
f 61/25/1 62/26/1 63/19/1 64/18/1
f 65/26/1 66/27/1 67/20/1 68/19/1
f 69/27/1 70/28/1 71/21/1 72/20/1
f 73/28/1 74/29/1 75/22/1 76/21/1
f 77/29/1 78/30/1 79/23/1 80/22/1
f 81/30/1 82/31/1 83/24/1 84/23/1
f 85/23/1 86/24/1 87/16/1 88/14/1
f 89/25/1 90/26/1 91/19/1 92/18/1
f 93/32/1 94/33/1 95/26/1 96/25/1
f 97/33/1 98/34/1 99/27/1 100/26/1
f 101/34/1 102/35/1 103/28/1 104/27/1
f 105/35/1 106/36/1 107/29/1 108/28/1
f 109/36/1 110/37/1 111/30/1 112/29/1
f 113/37/1 114/38/1 115/31/1 116/30/1
f 117/37/1 118/38/1 119/31/1 120/30/1
f 121/32/1 122/33/1 123/26/1 124/25/1
f 125/39/1 126/40/1 127/33/1 128/32/1
f 129/40/1 130/41/1 131/34/1 132/33/1
f 133/42/1 134/43/1 135/44/1 136/45/1
f 137/43/1 138/46/1 139/47/1 140/44/1
f 141/48/1 142/49/1 143/37/1 144/36/1
f 145/49/1 146/50/1 147/38/1 148/37/1
f 149/49/1 150/50/1 151/38/1 152/37/1
f 153/39/1 154/40/1 155/33/1 156/32/1
f 157/51/1 158/4/1 159/52/1 160/53/1
f 161/54/1 162/55/1 163/41/1 164/40/1
f 165/56/1 166/57/1 167/43/1 168/42/1
f 169/57/1 170/58/1 171/46/1 172/43/1
f 173/59/1 174/60/1 175/49/1 176/48/1
f 177/6/1 178/61/1 179/62/1 180/63/1
f 181/61/1 182/64/1 183/65/1 184/62/1
f 185/9/1 186/1/1 187/4/1 188/51/1
f 189/5/1 190/15/1 191/61/1 192/6/1
f 193/66/1 194/67/1 195/68/1 196/69/1
f 197/67/1 198/70/1 199/71/1 200/68/1
f 201/72/1 202/73/1 203/67/1 204/66/1
f 205/73/1 206/74/1 207/70/1 208/67/1
f 209/66/1 210/67/1 211/68/1 212/69/1
f 213/67/1 214/70/1 215/71/1 216/68/1
f 217/66/1 218/67/1 219/68/1 220/69/1
f 221/67/1 222/70/1 223/71/1 224/68/1
f 225/72/1 226/73/1 227/67/1 228/66/1
f 229/73/1 230/74/1 231/70/1 232/67/1
f 233/66/1 234/67/1 235/68/1 236/69/1
f 237/67/1 238/70/1 239/71/1 240/68/1
f 241/72/1 242/73/1 243/67/1 244/66/1
f 245/73/1 246/74/1 247/70/1 248/67/1
f 249/66/1 250/67/1 251/68/1 252/69/1
f 253/67/1 254/70/1 255/71/1 256/68/1
f 257/72/1 258/73/1 259/67/1 260/66/1
f 261/73/1 262/74/1 263/70/1 264/67/1
f 265/66/1 266/67/1 267/68/1 268/69/1
f 269/67/1 270/70/1 271/71/1 272/68/1
f 273/72/1 274/73/1 275/67/1 276/66/1
f 277/73/1 278/74/1 279/70/1 280/67/1
f 281/66/1 282/67/1 283/68/1 284/69/1
f 285/67/1 286/70/1 287/71/1 288/68/1
f 289/72/1 290/73/1 291/67/1 292/66/1
f 293/73/1 294/74/1 295/70/1 296/67/1
f 297/66/1 298/67/1 299/68/1 300/69/1
f 301/67/1 302/70/1 303/71/1 304/68/1
f 305/66/1 306/67/1 307/68/1 308/69/1
f 309/67/1 310/70/1 311/71/1 312/68/1
f 313/66/1 314/67/1 315/68/1 316/69/1
f 317/67/1 318/70/1 319/71/1 320/68/1
f 321/75/1 322/76/1 323/77/1 324/78/1
f 325/76/1 326/79/1 327/80/1 328/77/1
f 329/72/1 330/73/1 331/67/1 332/66/1
f 333/73/1 334/74/1 335/70/1 336/67/1
f 337/66/1 338/67/1 339/68/1 340/69/1
f 341/67/1 342/70/1 343/71/1 344/68/1
f 345/7/1 346/8/1 347/9/1 348/10/1
f 349/14/1 350/16/1 351/17/1 352/15/1
f 353/72/1 354/73/1 355/67/1 356/66/1
f 357/73/1 358/74/1 359/70/1 360/67/1
f 361/72/1 362/73/1 363/67/1 364/66/1
f 365/73/1 366/74/1 367/70/1 368/67/1
f 369/72/1 370/73/1 371/67/1 372/66/1
f 373/73/1 374/74/1 375/70/1 376/67/1
f 377/69/1 378/68/1 379/76/1 380/75/1
f 381/68/1 382/71/1 383/79/1 384/76/1
f 385/72/1 386/73/1 387/67/1 388/66/1
f 389/73/1 390/74/1 391/70/1 392/67/1
f 393/75/1 394/76/1 395/77/1 396/78/1
f 397/76/1 398/79/1 399/80/1 400/77/1
f 401/69/1 402/68/1 403/76/1 404/75/1
f 405/68/1 406/71/1 407/79/1 408/76/1
f 409/75/1 410/76/1 411/77/1 412/78/1
f 413/76/1 414/79/1 415/80/1 416/77/1
f 417/69/1 418/68/1 419/76/1 420/75/1
f 421/68/1 422/71/1 423/79/1 424/76/1
f 425/81/1 426/82/1 427/83/1 428/84/1
f 429/82/1 430/85/1 431/86/1 432/83/1
f 433/85/1 434/87/1 435/88/1 436/86/1
f 437/87/1 438/89/1 439/90/1 440/88/1
f 441/85/1 442/87/1 443/88/1 444/86/1
f 445/87/1 446/89/1 447/90/1 448/88/1
f 449/85/1 450/87/1 451/88/1 452/86/1
f 453/87/1 454/89/1 455/90/1 456/88/1
f 457/32/1 458/33/1 459/26/1 460/25/1
f 461/33/1 462/34/1 463/27/1 464/26/1
f 465/34/1 466/35/1 467/28/1 468/27/1
f 469/35/1 470/36/1 471/29/1 472/28/1
f 473/36/1 474/37/1 475/30/1 476/29/1
f 477/37/1 478/38/1 479/31/1 480/30/1
f 481/30/1 482/31/1 483/24/1 484/23/1
f 485/91/1 486/92/1 487/82/1 488/81/1
f 489/92/1 490/93/1 491/85/1 492/82/1
f 493/93/1 494/94/1 495/87/1 496/85/1
f 497/94/1 498/95/1 499/89/1 500/87/1
f 501/93/1 502/94/1 503/87/1 504/85/1
f 505/94/1 506/95/1 507/89/1 508/87/1
f 509/93/1 510/94/1 511/87/1 512/85/1
f 513/94/1 514/95/1 515/89/1 516/87/1
f 517/39/1 518/40/1 519/33/1 520/32/1
f 521/40/1 522/41/1 523/34/1 524/33/1
f 525/48/1 526/49/1 527/37/1 528/36/1
f 529/49/1 530/50/1 531/38/1 532/37/1
f 533/37/1 534/38/1 535/31/1 536/30/1
f 537/96/1 538/97/1 539/92/1 540/91/1
f 541/97/1 542/98/1 543/93/1 544/92/1
f 545/98/1 546/99/1 547/94/1 548/93/1
f 549/99/1 550/100/1 551/95/1 552/94/1
f 553/98/1 554/99/1 555/94/1 556/93/1
f 557/99/1 558/100/1 559/95/1 560/94/1
f 561/98/1 562/99/1 563/94/1 564/93/1
f 565/99/1 566/100/1 567/95/1 568/94/1
f 569/101/1 570/54/1 571/40/1 572/39/1
f 573/54/1 574/55/1 575/41/1 576/40/1
f 577/59/1 578/60/1 579/49/1 580/48/1
f 581/60/1 582/102/1 583/50/1 584/49/1
f 585/49/1 586/50/1 587/38/1 588/37/1
f 589/75/1 590/76/1 591/77/1 592/78/1
f 593/76/1 594/79/1 595/80/1 596/77/1
f 597/75/1 598/76/1 599/77/1 600/78/1
f 601/76/1 602/79/1 603/80/1 604/77/1
f 605/103/1 606/104/1 607/97/1 608/96/1
f 609/104/1 610/105/1 611/98/1 612/97/1
f 613/105/1 614/106/1 615/99/1 616/98/1
f 617/106/1 618/107/1 619/100/1 620/99/1
f 621/105/1 622/106/1 623/99/1 624/98/1
f 625/106/1 626/107/1 627/100/1 628/99/1
f 629/105/1 630/106/1 631/99/1 632/98/1
f 633/106/1 634/107/1 635/100/1 636/99/1
f 637/56/1 638/57/1 639/43/1 640/42/1
f 641/57/1 642/58/1 643/46/1 644/43/1
f 645/56/1 646/57/1 647/43/1 648/42/1
f 649/57/1 650/58/1 651/46/1 652/43/1
f 653/56/1 654/57/1 655/43/1 656/42/1
f 657/57/1 658/58/1 659/46/1 660/43/1
f 661/60/1 662/102/1 663/50/1 664/49/1
f 665/69/1 666/68/1 667/76/1 668/75/1
f 669/68/1 670/71/1 671/79/1 672/76/1
f 673/75/1 674/76/1 675/77/1 676/78/1
f 677/76/1 678/79/1 679/80/1 680/77/1
f 681/69/1 682/68/1 683/76/1 684/75/1
f 685/68/1 686/71/1 687/79/1 688/76/1
f 689/69/1 690/68/1 691/76/1 692/75/1
f 693/68/1 694/71/1 695/79/1 696/76/1
f 697/75/1 698/76/1 699/77/1 700/78/1
f 701/76/1 702/79/1 703/80/1 704/77/1
f 705/69/1 706/68/1 707/76/1 708/75/1
f 709/68/1 710/71/1 711/79/1 712/76/1
f 713/108/1 714/109/1 715/110/1 716/111/1
f 717/109/1 718/112/1 719/113/1 720/110/1
f 721/112/1 722/114/1 723/115/1 724/113/1
f 725/114/1 726/81/1 727/84/1 728/115/1
f 729/116/1 730/117/1 731/109/1 732/108/1
f 733/117/1 734/118/1 735/112/1 736/109/1
f 737/118/1 738/119/1 739/114/1 740/112/1
f 741/119/1 742/91/1 743/81/1 744/114/1
f 745/120/1 746/121/1 747/117/1 748/116/1
f 749/121/1 750/122/1 751/118/1 752/117/1
f 753/122/1 754/123/1 755/119/1 756/118/1
f 757/123/1 758/96/1 759/91/1 760/119/1
f 761/124/1 762/125/1 763/121/1 764/120/1
f 765/125/1 766/126/1 767/122/1 768/121/1
f 769/126/1 770/127/1 771/123/1 772/122/1
f 773/127/1 774/103/1 775/96/1 776/123/1
f 777/108/1 778/109/1 779/110/1 780/111/1
f 781/109/1 782/112/1 783/113/1 784/110/1
f 785/112/1 786/114/1 787/115/1 788/113/1
f 789/114/1 790/81/1 791/84/1 792/115/1
f 793/116/1 794/117/1 795/109/1 796/108/1
f 797/117/1 798/118/1 799/112/1 800/109/1
f 801/118/1 802/119/1 803/114/1 804/112/1
f 805/119/1 806/91/1 807/81/1 808/114/1
f 809/120/1 810/121/1 811/117/1 812/116/1
f 813/121/1 814/122/1 815/118/1 816/117/1
f 817/122/1 818/123/1 819/119/1 820/118/1
f 821/123/1 822/96/1 823/91/1 824/119/1
f 825/124/1 826/125/1 827/121/1 828/120/1
f 829/125/1 830/126/1 831/122/1 832/121/1
f 833/126/1 834/127/1 835/123/1 836/122/1
f 837/127/1 838/103/1 839/96/1 840/123/1

