# Tiled2Unity generated file. Do not modify by hand.
# Wavefront file for 'ciudadPrincipal_mesh_0030.obj'

# Vertices (Count = 364)
v -16 -15.5 0
v -16.5 -15.5 0
v -16.5 -15 0
v -16 -15 0
v -16.5 -15.5 0
v -17 -15.5 0
v -17 -15 0
v -16.5 -15 0
v -16 -16 0
v -16.5 -16 0
v -16.5 -15.5 0
v -16 -15.5 0
v -16.5 -16 0
v -17 -16 0
v -17 -15.5 0
v -16.5 -15.5 0
v -16 -16.5 0
v -16.5 -16.5 0
v -16.5 -16 0
v -16 -16 0
v -16.5 -16.5 0
v -17 -16.5 0
v -17 -16 0
v -16.5 -16 0
v -1 -25.5 0
v -1.5 -25.5 0
v -1.5 -25 0
v -1 -25 0
v -1.5 -25.5 0
v -2 -25.5 0
v -2 -25 0
v -1.5 -25 0
v -1 -26 0
v -1.5 -26 0
v -1.5 -25.5 0
v -1 -25.5 0
v -1.5 -26 0
v -2 -26 0
v -2 -25.5 0
v -1.5 -25.5 0
v -12.5 -45.5 0
v -13 -45.5 0
v -13 -45 0
v -12.5 -45 0
v -13 -45.5 0
v -13.5 -45.5 0
v -13.5 -45 0
v -13 -45 0
v -99 -45.5 0
v -99.5 -45.5 0
v -99.5 -45 0
v -99 -45 0
v -99.5 -45.5 0
v -100 -45.5 0
v -100 -45 0
v -99.5 -45 0
v -12.5 -46 0
v -13 -46 0
v -13 -45.5 0
v -12.5 -45.5 0
v -13 -46 0
v -13.5 -46 0
v -13.5 -45.5 0
v -13 -45.5 0
v -91.5 -46 0
v -92 -46 0
v -92 -45.5 0
v -91.5 -45.5 0
v -92 -46 0
v -92.5 -46 0
v -92.5 -45.5 0
v -92 -45.5 0
v -92.5 -46 0
v -93 -46 0
v -93 -45.5 0
v -92.5 -45.5 0
v -93 -46 0
v -93.5 -46 0
v -93.5 -45.5 0
v -93 -45.5 0
v -99 -46 0
v -99.5 -46 0
v -99.5 -45.5 0
v -99 -45.5 0
v -99.5 -46 0
v -100 -46 0
v -100 -45.5 0
v -99.5 -45.5 0
v -91.5 -46.5 0
v -92 -46.5 0
v -92 -46 0
v -91.5 -46 0
v -92 -46.5 0
v -92.5 -46.5 0
v -92.5 -46 0
v -92 -46 0
v -92.5 -46.5 0
v -93 -46.5 0
v -93 -46 0
v -92.5 -46 0
v -93 -46.5 0
v -93.5 -46.5 0
v -93.5 -46 0
v -93 -46 0
v -91.5 -47 0
v -92 -47 0
v -92 -46.5 0
v -91.5 -46.5 0
v -92 -47 0
v -92.5 -47 0
v -92.5 -46.5 0
v -92 -46.5 0
v -92.5 -47 0
v -93 -47 0
v -93 -46.5 0
v -92.5 -46.5 0
v -93 -47 0
v -93.5 -47 0
v -93.5 -46.5 0
v -93 -46.5 0
v -91.5 -47.5 0
v -92 -47.5 0
v -92 -47 0
v -91.5 -47 0
v -92 -47.5 0
v -92.5 -47.5 0
v -92.5 -47 0
v -92 -47 0
v -92.5 -47.5 0
v -93 -47.5 0
v -93 -47 0
v -92.5 -47 0
v -93 -47.5 0
v -93.5 -47.5 0
v -93.5 -47 0
v -93 -47 0
v -26 -48 0
v -26.5 -48 0
v -26.5 -47.5 0
v -26 -47.5 0
v -26.5 -48 0
v -27 -48 0
v -27 -47.5 0
v -26.5 -47.5 0
v -89.5 -48 0
v -90 -48 0
v -90 -47.5 0
v -89.5 -47.5 0
v -90 -48 0
v -90.5 -48 0
v -90.5 -47.5 0
v -90 -47.5 0
v -91.5 -48 0
v -92 -48 0
v -92 -47.5 0
v -91.5 -47.5 0
v -92 -48 0
v -92.5 -48 0
v -92.5 -47.5 0
v -92 -47.5 0
v -92.5 -48 0
v -93 -48 0
v -93 -47.5 0
v -92.5 -47.5 0
v -93 -48 0
v -93.5 -48 0
v -93.5 -47.5 0
v -93 -47.5 0
v -17.5 -48.5 0
v -18 -48.5 0
v -18 -48 0
v -17.5 -48 0
v -18 -48.5 0
v -18.5 -48.5 0
v -18.5 -48 0
v -18 -48 0
v -26 -48.5 0
v -26.5 -48.5 0
v -26.5 -48 0
v -26 -48 0
v -26.5 -48.5 0
v -27 -48.5 0
v -27 -48 0
v -26.5 -48 0
v -89.5 -48.5 0
v -90 -48.5 0
v -90 -48 0
v -89.5 -48 0
v -90 -48.5 0
v -90.5 -48.5 0
v -90.5 -48 0
v -90 -48 0
v -91.5 -48.5 0
v -92 -48.5 0
v -92 -48 0
v -91.5 -48 0
v -92 -48.5 0
v -92.5 -48.5 0
v -92.5 -48 0
v -92 -48 0
v -92.5 -48.5 0
v -93 -48.5 0
v -93 -48 0
v -92.5 -48 0
v -93 -48.5 0
v -93.5 -48.5 0
v -93.5 -48 0
v -93 -48 0
v -17.5 -49 0
v -18 -49 0
v -18 -48.5 0
v -17.5 -48.5 0
v -18 -49 0
v -18.5 -49 0
v -18.5 -48.5 0
v -18 -48.5 0
v -89.5 -49 0
v -90 -49 0
v -90 -48.5 0
v -89.5 -48.5 0
v -90 -49 0
v -90.5 -49 0
v -90.5 -48.5 0
v -90 -48.5 0
v -89.5 -49.5 0
v -90 -49.5 0
v -90 -49 0
v -89.5 -49 0
v -90 -49.5 0
v -90.5 -49.5 0
v -90.5 -49 0
v -90 -49 0
v -85.5 -51 0
v -86 -51 0
v -86 -50.5 0
v -85.5 -50.5 0
v -86 -51 0
v -86.5 -51 0
v -86.5 -50.5 0
v -86 -50.5 0
v -85.5 -51.5 0
v -86 -51.5 0
v -86 -51 0
v -85.5 -51 0
v -86 -51.5 0
v -86.5 -51.5 0
v -86.5 -51 0
v -86 -51 0
v -89.5 -53.5 0
v -90 -53.5 0
v -90 -53 0
v -89.5 -53 0
v -90 -53.5 0
v -90.5 -53.5 0
v -90.5 -53 0
v -90 -53 0
v -89.5 -54 0
v -90 -54 0
v -90 -53.5 0
v -89.5 -53.5 0
v -90 -54 0
v -90.5 -54 0
v -90.5 -53.5 0
v -90 -53.5 0
v -97 -56.5 0
v -97.5 -56.5 0
v -97.5 -56 0
v -97 -56 0
v -97.5 -56.5 0
v -98 -56.5 0
v -98 -56 0
v -97.5 -56 0
v -97 -57 0
v -97.5 -57 0
v -97.5 -56.5 0
v -97 -56.5 0
v -97.5 -57 0
v -98 -57 0
v -98 -56.5 0
v -97.5 -56.5 0
v -79.5 -61.5 0
v -80 -61.5 0
v -80 -61 0
v -79.5 -61 0
v -80 -61.5 0
v -80.5 -61.5 0
v -80.5 -61 0
v -80 -61 0
v -79.5 -62 0
v -80 -62 0
v -80 -61.5 0
v -79.5 -61.5 0
v -80 -62 0
v -80.5 -62 0
v -80.5 -61.5 0
v -80 -61.5 0
v -90 -62.5 0
v -90.5 -62.5 0
v -90.5 -62 0
v -90 -62 0
v -90.5 -62.5 0
v -91 -62.5 0
v -91 -62 0
v -90.5 -62 0
v -97 -62.5 0
v -97.5 -62.5 0
v -97.5 -62 0
v -97 -62 0
v -97.5 -62.5 0
v -98 -62.5 0
v -98 -62 0
v -97.5 -62 0
v -90 -63 0
v -90.5 -63 0
v -90.5 -62.5 0
v -90 -62.5 0
v -90.5 -63 0
v -91 -63 0
v -91 -62.5 0
v -90.5 -62.5 0
v -97 -63 0
v -97.5 -63 0
v -97.5 -62.5 0
v -97 -62.5 0
v -97.5 -63 0
v -98 -63 0
v -98 -62.5 0
v -97.5 -62.5 0
v -90 -63.5 0
v -90.5 -63.5 0
v -90.5 -63 0
v -90 -63 0
v -90.5 -63.5 0
v -91 -63.5 0
v -91 -63 0
v -90.5 -63 0
v -95.5 -63.5 0
v -96 -63.5 0
v -96 -63 0
v -95.5 -63 0
v -97 -63.5 0
v -97.5 -63.5 0
v -97.5 -63 0
v -97 -63 0
v -97.5 -63.5 0
v -98 -63.5 0
v -98 -63 0
v -97.5 -63 0
v -99 -64 0
v -99.5 -64 0
v -99.5 -63.5 0
v -99 -63.5 0
v -99.5 -64 0
v -100 -64 0
v -100 -63.5 0
v -99.5 -63.5 0
v -99 -64.5 0
v -99.5 -64.5 0
v -99.5 -64 0
v -99 -64 0
v -99.5 -64.5 0
v -100 -64.5 0
v -100 -64 0
v -99.5 -64 0

# Texture cooridinates (Count = 113)
vt 0.5 0.34375
vt 0.53125 0.34375
vt 0.53125 0.375
vt 0.5 0.375
vt 0.5625 0.34375
vt 0.5625 0.375
vt 0.5 0.3125
vt 0.53125 0.3125
vt 0.5625 0.3125
vt 0.5 0.28125
vt 0.53125 0.28125
vt 0.5625 0.28125
vt 0.5 0.40625
vt 0.53125 0.40625
vt 0.53125 0.4375
vt 0.5 0.4375
vt 0.5625 0.40625
vt 0.5625 0.4375
vt 0.6875 0.34375
vt 0.71875 0.34375
vt 0.71875 0.375
vt 0.6875 0.375
vt 0.75 0.34375
vt 0.75 0.375
vt 0.3125 0.84375
vt 0.34375 0.84375
vt 0.34375 0.875
vt 0.3125 0.875
vt 0.375 0.84375
vt 0.375 0.875
vt 0.6875 0.3125
vt 0.71875 0.3125
vt 0.75 0.3125
vt 0.0625 0.96875
vt 0.09375 0.96875
vt 0.09375 1
vt 0.0625 1
vt 0.125 0.96875
vt 0.125 1
vt 0.15625 0.96875
vt 0.15625 1
vt 0.1875 0.96875
vt 0.1875 1
vt 0.3125 0.8125
vt 0.34375 0.8125
vt 0.375 0.8125
vt 0.0625 0.9375
vt 0.09375 0.9375
vt 0.125 0.9375
vt 0.15625 0.9375
vt 0.1875 0.9375
vt 0.0625 0.90625
vt 0.09375 0.90625
vt 0.125 0.90625
vt 0.15625 0.90625
vt 0.1875 0.90625
vt 0.0625 0.875
vt 0.09375 0.875
vt 0.125 0.875
vt 0.15625 0.875
vt 0.1875 0.875
vt 0.40625 0.5
vt 0.4375 0.5
vt 0.4375 0.53125
vt 0.40625 0.53125
vt 0.46875 0.5
vt 0.46875 0.53125
vt 0.0625 0.84375
vt 0.09375 0.84375
vt 0.125 0.84375
vt 0.15625 0.84375
vt 0.1875 0.84375
vt 0.40625 0.46875
vt 0.4375 0.46875
vt 0.46875 0.46875
vt 0.0625 0.8125
vt 0.09375 0.8125
vt 0.125 0.8125
vt 0.15625 0.8125
vt 0.1875 0.8125
vt 0.3125 0.71875
vt 0.34375 0.71875
vt 0.34375 0.75
vt 0.3125 0.75
vt 0.375 0.71875
vt 0.375 0.75
vt 0.3125 0.6875
vt 0.34375 0.6875
vt 0.375 0.6875
vt 0.0625 0.46875
vt 0.09375 0.46875
vt 0.09375 0.5
vt 0.0625 0.5
vt 0.125 0.46875
vt 0.125 0.5
vt 0.15625 0.46875
vt 0.15625 0.5
vt 0.1875 0.46875
vt 0.1875 0.5
vt 0.0625 0.4375
vt 0.09375 0.4375
vt 0.125 0.4375
vt 0.15625 0.4375
vt 0.1875 0.4375
vt 0.0625 0.40625
vt 0.09375 0.40625
vt 0.125 0.40625
vt 0.375 0.5625
vt 0.40625 0.5625
vt 0.40625 0.59375
vt 0.375 0.59375
vt 0.15625 0.40625
vt 0.1875 0.40625

# Normal
vn 0 0 -1

# Mesh description
g ciudadPrincipal_mesh_0030

# Faces
f 1/1/1 2/2/1 3/3/1 4/4/1
f 5/2/1 6/5/1 7/6/1 8/3/1
f 9/7/1 10/8/1 11/2/1 12/1/1
f 13/8/1 14/9/1 15/5/1 16/2/1
f 17/10/1 18/11/1 19/8/1 20/7/1
f 21/11/1 22/12/1 23/9/1 24/8/1
f 25/13/1 26/14/1 27/15/1 28/16/1
f 29/14/1 30/17/1 31/18/1 32/15/1
f 33/4/1 34/3/1 35/14/1 36/13/1
f 37/3/1 38/6/1 39/17/1 40/14/1
f 41/19/1 42/20/1 43/21/1 44/22/1
f 45/20/1 46/23/1 47/24/1 48/21/1
f 49/25/1 50/26/1 51/27/1 52/28/1
f 53/26/1 54/29/1 55/30/1 56/27/1
f 57/31/1 58/32/1 59/20/1 60/19/1
f 61/32/1 62/33/1 63/23/1 64/20/1
f 65/34/1 66/35/1 67/36/1 68/37/1
f 69/35/1 70/38/1 71/39/1 72/36/1
f 73/38/1 74/40/1 75/41/1 76/39/1
f 77/40/1 78/42/1 79/43/1 80/41/1
f 81/44/1 82/45/1 83/26/1 84/25/1
f 85/45/1 86/46/1 87/29/1 88/26/1
f 89/47/1 90/48/1 91/35/1 92/34/1
f 93/48/1 94/49/1 95/38/1 96/35/1
f 97/49/1 98/50/1 99/40/1 100/38/1
f 101/50/1 102/51/1 103/42/1 104/40/1
f 105/52/1 106/53/1 107/48/1 108/47/1
f 109/53/1 110/54/1 111/49/1 112/48/1
f 113/54/1 114/55/1 115/50/1 116/49/1
f 117/55/1 118/56/1 119/51/1 120/50/1
f 121/57/1 122/58/1 123/53/1 124/52/1
f 125/58/1 126/59/1 127/54/1 128/53/1
f 129/59/1 130/60/1 131/55/1 132/54/1
f 133/60/1 134/61/1 135/56/1 136/55/1
f 137/19/1 138/20/1 139/21/1 140/22/1
f 141/20/1 142/23/1 143/24/1 144/21/1
f 145/62/1 146/63/1 147/64/1 148/65/1
f 149/63/1 150/66/1 151/67/1 152/64/1
f 153/68/1 154/69/1 155/58/1 156/57/1
f 157/69/1 158/70/1 159/59/1 160/58/1
f 161/70/1 162/71/1 163/60/1 164/59/1
f 165/71/1 166/72/1 167/61/1 168/60/1
f 169/19/1 170/20/1 171/21/1 172/22/1
f 173/20/1 174/23/1 175/24/1 176/21/1
f 177/31/1 178/32/1 179/20/1 180/19/1
f 181/32/1 182/33/1 183/23/1 184/20/1
f 185/73/1 186/74/1 187/63/1 188/62/1
f 189/74/1 190/75/1 191/66/1 192/63/1
f 193/76/1 194/77/1 195/69/1 196/68/1
f 197/77/1 198/78/1 199/70/1 200/69/1
f 201/78/1 202/79/1 203/71/1 204/70/1
f 205/79/1 206/80/1 207/72/1 208/71/1
f 209/31/1 210/32/1 211/20/1 212/19/1
f 213/32/1 214/33/1 215/23/1 216/20/1
f 217/81/1 218/82/1 219/83/1 220/84/1
f 221/82/1 222/85/1 223/86/1 224/83/1
f 225/87/1 226/88/1 227/82/1 228/81/1
f 229/88/1 230/89/1 231/85/1 232/82/1
f 233/25/1 234/26/1 235/27/1 236/28/1
f 237/26/1 238/29/1 239/30/1 240/27/1
f 241/44/1 242/45/1 243/26/1 244/25/1
f 245/45/1 246/46/1 247/29/1 248/26/1
f 249/25/1 250/26/1 251/27/1 252/28/1
f 253/26/1 254/29/1 255/30/1 256/27/1
f 257/44/1 258/45/1 259/26/1 260/25/1
f 261/45/1 262/46/1 263/29/1 264/26/1
f 265/25/1 266/26/1 267/27/1 268/28/1
f 269/26/1 270/29/1 271/30/1 272/27/1
f 273/44/1 274/45/1 275/26/1 276/25/1
f 277/45/1 278/46/1 279/29/1 280/26/1
f 281/25/1 282/26/1 283/27/1 284/28/1
f 285/26/1 286/29/1 287/30/1 288/27/1
f 289/44/1 290/45/1 291/26/1 292/25/1
f 293/45/1 294/46/1 295/29/1 296/26/1
f 297/90/1 298/91/1 299/92/1 300/93/1
f 301/91/1 302/94/1 303/95/1 304/92/1
f 305/94/1 306/96/1 307/97/1 308/95/1
f 309/96/1 310/98/1 311/99/1 312/97/1
f 313/100/1 314/101/1 315/91/1 316/90/1
f 317/101/1 318/102/1 319/94/1 320/91/1
f 321/102/1 322/103/1 323/96/1 324/94/1
f 325/103/1 326/104/1 327/98/1 328/96/1
f 329/105/1 330/106/1 331/101/1 332/100/1
f 333/106/1 334/107/1 335/102/1 336/101/1
f 337/108/1 338/109/1 339/110/1 340/111/1
f 341/107/1 342/112/1 343/103/1 344/102/1
f 345/112/1 346/113/1 347/104/1 348/103/1
f 349/25/1 350/26/1 351/27/1 352/28/1
f 353/26/1 354/29/1 355/30/1 356/27/1
f 357/44/1 358/45/1 359/26/1 360/25/1
f 361/45/1 362/46/1 363/29/1 364/26/1

