# Tiled2Unity generated file. Do not modify by hand.
# Wavefront file for 'ciudadPrincipal_mesh_0006.obj'

# Vertices (Count = 96)
v -11.5 -15 0
v -12 -15 0
v -12 -14.5 0
v -11.5 -14.5 0
v -12 -15 0
v -12.5 -15 0
v -12.5 -14.5 0
v -12 -14.5 0
v -17.5 -15 0
v -18 -15 0
v -18 -14.5 0
v -17.5 -14.5 0
v -18 -15 0
v -18.5 -15 0
v -18.5 -14.5 0
v -18 -14.5 0
v -11.5 -15.5 0
v -12 -15.5 0
v -12 -15 0
v -11.5 -15 0
v -12 -15.5 0
v -12.5 -15.5 0
v -12.5 -15 0
v -12 -15 0
v -17.5 -15.5 0
v -18 -15.5 0
v -18 -15 0
v -17.5 -15 0
v -18 -15.5 0
v -18.5 -15.5 0
v -18.5 -15 0
v -18 -15 0
v -11.5 -16 0
v -12 -16 0
v -12 -15.5 0
v -11.5 -15.5 0
v -12 -16 0
v -12.5 -16 0
v -12.5 -15.5 0
v -12 -15.5 0
v -17.5 -16 0
v -18 -16 0
v -18 -15.5 0
v -17.5 -15.5 0
v -18 -16 0
v -18.5 -16 0
v -18.5 -15.5 0
v -18 -15.5 0
v -2.5 -24 0
v -3 -24 0
v -3 -23.5 0
v -2.5 -23.5 0
v -3 -24 0
v -3.5 -24 0
v -3.5 -23.5 0
v -3 -23.5 0
v -2.5 -24.5 0
v -3 -24.5 0
v -3 -24 0
v -2.5 -24 0
v -3 -24.5 0
v -3.5 -24.5 0
v -3.5 -24 0
v -3 -24 0
v -2.5 -25 0
v -3 -25 0
v -3 -24.5 0
v -2.5 -24.5 0
v -3 -25 0
v -3.5 -25 0
v -3.5 -24.5 0
v -3 -24.5 0
v -15.5 -32.5 0
v -16 -32.5 0
v -16 -32 0
v -15.5 -32 0
v -16 -32.5 0
v -16.5 -32.5 0
v -16.5 -32 0
v -16 -32 0
v -15.5 -33 0
v -16 -33 0
v -16 -32.5 0
v -15.5 -32.5 0
v -16 -33 0
v -16.5 -33 0
v -16.5 -32.5 0
v -16 -32.5 0
v -15.5 -33.5 0
v -16 -33.5 0
v -16 -33 0
v -15.5 -33 0
v -16 -33.5 0
v -16.5 -33.5 0
v -16.5 -33 0
v -16 -33 0

# Texture cooridinates (Count = 24)
vt 0.6666667 0.9375
vt 0.8333333 0.9375
vt 0.8333333 1
vt 0.6666667 1
vt 1 0.9375
vt 1 1
vt 0.6666667 0.875
vt 0.8333333 0.875
vt 1 0.875
vt 0.6666667 0.8125
vt 0.8333333 0.8125
vt 1 0.8125
vt 0 0.9375
vt 0.1666667 0.9375
vt 0.1666667 1
vt 0 1
vt 0.3333333 0.9375
vt 0.3333333 1
vt 0 0.875
vt 0.1666667 0.875
vt 0.3333333 0.875
vt 0 0.8125
vt 0.1666667 0.8125
vt 0.3333333 0.8125

# Normal
vn 0 0 -1

# Mesh description
g ciudadPrincipal_mesh_0006

# Faces
f 1/1/1 2/2/1 3/3/1 4/4/1
f 5/2/1 6/5/1 7/6/1 8/3/1
f 9/1/1 10/2/1 11/3/1 12/4/1
f 13/2/1 14/5/1 15/6/1 16/3/1
f 17/7/1 18/8/1 19/2/1 20/1/1
f 21/8/1 22/9/1 23/5/1 24/2/1
f 25/7/1 26/8/1 27/2/1 28/1/1
f 29/8/1 30/9/1 31/5/1 32/2/1
f 33/10/1 34/11/1 35/8/1 36/7/1
f 37/11/1 38/12/1 39/9/1 40/8/1
f 41/10/1 42/11/1 43/8/1 44/7/1
f 45/11/1 46/12/1 47/9/1 48/8/1
f 49/13/1 50/14/1 51/15/1 52/16/1
f 53/14/1 54/17/1 55/18/1 56/15/1
f 57/19/1 58/20/1 59/14/1 60/13/1
f 61/20/1 62/21/1 63/17/1 64/14/1
f 65/22/1 66/23/1 67/20/1 68/19/1
f 69/23/1 70/24/1 71/21/1 72/20/1
f 73/13/1 74/14/1 75/15/1 76/16/1
f 77/14/1 78/17/1 79/18/1 80/15/1
f 81/19/1 82/20/1 83/14/1 84/13/1
f 85/20/1 86/21/1 87/17/1 88/14/1
f 89/22/1 90/23/1 91/20/1 92/19/1
f 93/23/1 94/24/1 95/21/1 96/20/1

