# Tiled2Unity generated file. Do not modify by hand.
# Wavefront file for 'ciudadPrincipal_mesh_0051.obj'

# Vertices (Count = 408)
v -99 -31.5 0
v -99.5 -31.5 0
v -99.5 -31 0
v -99 -31 0
v -99.5 -31.5 0
v -100 -31.5 0
v -100 -31 0
v -99.5 -31 0
v -88 -35 0
v -88.5 -35 0
v -88.5 -34.5 0
v -88 -34.5 0
v -88.5 -35 0
v -89 -35 0
v -89 -34.5 0
v -88.5 -34.5 0
v -88 -35.5 0
v -88.5 -35.5 0
v -88.5 -35 0
v -88 -35 0
v -88.5 -35.5 0
v -89 -35.5 0
v -89 -35 0
v -88.5 -35 0
v -88 -36 0
v -88.5 -36 0
v -88.5 -35.5 0
v -88 -35.5 0
v -88.5 -36 0
v -89 -36 0
v -89 -35.5 0
v -88.5 -35.5 0
v -84.5 -36.5 0
v -85 -36.5 0
v -85 -36 0
v -84.5 -36 0
v -85 -36.5 0
v -85.5 -36.5 0
v -85.5 -36 0
v -85 -36 0
v -88 -36.5 0
v -88.5 -36.5 0
v -88.5 -36 0
v -88 -36 0
v -88.5 -36.5 0
v -89 -36.5 0
v -89 -36 0
v -88.5 -36 0
v -84.5 -37 0
v -85 -37 0
v -85 -36.5 0
v -84.5 -36.5 0
v -85 -37 0
v -85.5 -37 0
v -85.5 -36.5 0
v -85 -36.5 0
v -84.5 -37.5 0
v -85 -37.5 0
v -85 -37 0
v -84.5 -37 0
v -85 -37.5 0
v -85.5 -37.5 0
v -85.5 -37 0
v -85 -37 0
v -84.5 -38 0
v -85 -38 0
v -85 -37.5 0
v -84.5 -37.5 0
v -85 -38 0
v -85.5 -38 0
v -85.5 -37.5 0
v -85 -37.5 0
v -75.5 -40 0
v -76 -40 0
v -76 -39.5 0
v -75.5 -39.5 0
v -76 -40 0
v -76.5 -40 0
v -76.5 -39.5 0
v -76 -39.5 0
v -75.5 -40.5 0
v -76 -40.5 0
v -76 -40 0
v -75.5 -40 0
v -76 -40.5 0
v -76.5 -40.5 0
v -76.5 -40 0
v -76 -40 0
v -74.5 -41 0
v -75 -41 0
v -75 -40.5 0
v -74.5 -40.5 0
v -75 -41 0
v -75.5 -41 0
v -75.5 -40.5 0
v -75 -40.5 0
v -75.5 -41 0
v -76 -41 0
v -76 -40.5 0
v -75.5 -40.5 0
v -76 -41 0
v -76.5 -41 0
v -76.5 -40.5 0
v -76 -40.5 0
v -74.5 -41.5 0
v -75 -41.5 0
v -75 -41 0
v -74.5 -41 0
v -75 -41.5 0
v -75.5 -41.5 0
v -75.5 -41 0
v -75 -41 0
v -75.5 -41.5 0
v -76 -41.5 0
v -76 -41 0
v -75.5 -41 0
v -76 -41.5 0
v -76.5 -41.5 0
v -76.5 -41 0
v -76 -41 0
v -72.5 -44.5 0
v -73 -44.5 0
v -73 -44 0
v -72.5 -44 0
v -73 -44.5 0
v -73.5 -44.5 0
v -73.5 -44 0
v -73 -44 0
v -71 -45 0
v -71.5 -45 0
v -71.5 -44.5 0
v -71 -44.5 0
v -71.5 -45 0
v -72 -45 0
v -72 -44.5 0
v -71.5 -44.5 0
v -72.5 -45 0
v -73 -45 0
v -73 -44.5 0
v -72.5 -44.5 0
v -73 -45 0
v -73.5 -45 0
v -73.5 -44.5 0
v -73 -44.5 0
v -71 -45.5 0
v -71.5 -45.5 0
v -71.5 -45 0
v -71 -45 0
v -71.5 -45.5 0
v -72 -45.5 0
v -72 -45 0
v -71.5 -45 0
v -72.5 -45.5 0
v -73 -45.5 0
v -73 -45 0
v -72.5 -45 0
v -73 -45.5 0
v -73.5 -45.5 0
v -73.5 -45 0
v -73 -45 0
v -71 -46 0
v -71.5 -46 0
v -71.5 -45.5 0
v -71 -45.5 0
v -71.5 -46 0
v -72 -46 0
v -72 -45.5 0
v -71.5 -45.5 0
v -72.5 -46 0
v -73 -46 0
v -73 -45.5 0
v -72.5 -45.5 0
v -73 -46 0
v -73.5 -46 0
v -73.5 -45.5 0
v -73 -45.5 0
v -71 -46.5 0
v -71.5 -46.5 0
v -71.5 -46 0
v -71 -46 0
v -71.5 -46.5 0
v -72 -46.5 0
v -72 -46 0
v -71.5 -46 0
v -67.5 -50 0
v -68 -50 0
v -68 -49.5 0
v -67.5 -49.5 0
v -68 -50 0
v -68.5 -50 0
v -68.5 -49.5 0
v -68 -49.5 0
v -69 -50 0
v -69.5 -50 0
v -69.5 -49.5 0
v -69 -49.5 0
v -69.5 -50 0
v -70 -50 0
v -70 -49.5 0
v -69.5 -49.5 0
v -67.5 -50.5 0
v -68 -50.5 0
v -68 -50 0
v -67.5 -50 0
v -68 -50.5 0
v -68.5 -50.5 0
v -68.5 -50 0
v -68 -50 0
v -69 -50.5 0
v -69.5 -50.5 0
v -69.5 -50 0
v -69 -50 0
v -69.5 -50.5 0
v -70 -50.5 0
v -70 -50 0
v -69.5 -50 0
v -67.5 -51 0
v -68 -51 0
v -68 -50.5 0
v -67.5 -50.5 0
v -68 -51 0
v -68.5 -51 0
v -68.5 -50.5 0
v -68 -50.5 0
v -69 -51 0
v -69.5 -51 0
v -69.5 -50.5 0
v -69 -50.5 0
v -69.5 -51 0
v -70 -51 0
v -70 -50.5 0
v -69.5 -50.5 0
v -67.5 -51.5 0
v -68 -51.5 0
v -68 -51 0
v -67.5 -51 0
v -68 -51.5 0
v -68.5 -51.5 0
v -68.5 -51 0
v -68 -51 0
v -69 -51.5 0
v -69.5 -51.5 0
v -69.5 -51 0
v -69 -51 0
v -69.5 -51.5 0
v -70 -51.5 0
v -70 -51 0
v -69.5 -51 0
v -67 -55.5 0
v -67.5 -55.5 0
v -67.5 -55 0
v -67 -55 0
v -67.5 -55.5 0
v -68 -55.5 0
v -68 -55 0
v -67.5 -55 0
v -67 -56 0
v -67.5 -56 0
v -67.5 -55.5 0
v -67 -55.5 0
v -67.5 -56 0
v -68 -56 0
v -68 -55.5 0
v -67.5 -55.5 0
v -68.5 -56 0
v -69 -56 0
v -69 -55.5 0
v -68.5 -55.5 0
v -69 -56 0
v -69.5 -56 0
v -69.5 -55.5 0
v -69 -55.5 0
v -67 -56.5 0
v -67.5 -56.5 0
v -67.5 -56 0
v -67 -56 0
v -67.5 -56.5 0
v -68 -56.5 0
v -68 -56 0
v -67.5 -56 0
v -68.5 -56.5 0
v -69 -56.5 0
v -69 -56 0
v -68.5 -56 0
v -69 -56.5 0
v -69.5 -56.5 0
v -69.5 -56 0
v -69 -56 0
v -67 -57 0
v -67.5 -57 0
v -67.5 -56.5 0
v -67 -56.5 0
v -67.5 -57 0
v -68 -57 0
v -68 -56.5 0
v -67.5 -56.5 0
v -68.5 -57 0
v -69 -57 0
v -69 -56.5 0
v -68.5 -56.5 0
v -69 -57 0
v -69.5 -57 0
v -69.5 -56.5 0
v -69 -56.5 0
v -65.5 -57.5 0
v -66 -57.5 0
v -66 -57 0
v -65.5 -57 0
v -66 -57.5 0
v -66.5 -57.5 0
v -66.5 -57 0
v -66 -57 0
v -68.5 -57.5 0
v -69 -57.5 0
v -69 -57 0
v -68.5 -57 0
v -69 -57.5 0
v -69.5 -57.5 0
v -69.5 -57 0
v -69 -57 0
v -65.5 -58 0
v -66 -58 0
v -66 -57.5 0
v -65.5 -57.5 0
v -66 -58 0
v -66.5 -58 0
v -66.5 -57.5 0
v -66 -57.5 0
v -65.5 -58.5 0
v -66 -58.5 0
v -66 -58 0
v -65.5 -58 0
v -66 -58.5 0
v -66.5 -58.5 0
v -66.5 -58 0
v -66 -58 0
v -59.5 -59 0
v -60 -59 0
v -60 -58.5 0
v -59.5 -58.5 0
v -60 -59 0
v -60.5 -59 0
v -60.5 -58.5 0
v -60 -58.5 0
v -65.5 -59 0
v -66 -59 0
v -66 -58.5 0
v -65.5 -58.5 0
v -66 -59 0
v -66.5 -59 0
v -66.5 -58.5 0
v -66 -58.5 0
v -59.5 -59.5 0
v -60 -59.5 0
v -60 -59 0
v -59.5 -59 0
v -60 -59.5 0
v -60.5 -59.5 0
v -60.5 -59 0
v -60 -59 0
v -59.5 -60 0
v -60 -60 0
v -60 -59.5 0
v -59.5 -59.5 0
v -60 -60 0
v -60.5 -60 0
v -60.5 -59.5 0
v -60 -59.5 0
v -58.5 -60.5 0
v -59 -60.5 0
v -59 -60 0
v -58.5 -60 0
v -59 -60.5 0
v -59.5 -60.5 0
v -59.5 -60 0
v -59 -60 0
v -59.5 -60.5 0
v -60 -60.5 0
v -60 -60 0
v -59.5 -60 0
v -60 -60.5 0
v -60.5 -60.5 0
v -60.5 -60 0
v -60 -60 0
v -58.5 -61 0
v -59 -61 0
v -59 -60.5 0
v -58.5 -60.5 0
v -59 -61 0
v -59.5 -61 0
v -59.5 -60.5 0
v -59 -60.5 0
v -58.5 -61.5 0
v -59 -61.5 0
v -59 -61 0
v -58.5 -61 0
v -59 -61.5 0
v -59.5 -61.5 0
v -59.5 -61 0
v -59 -61 0
v -58.5 -62 0
v -59 -62 0
v -59 -61.5 0
v -58.5 -61.5 0
v -59 -62 0
v -59.5 -62 0
v -59.5 -61.5 0
v -59 -61.5 0

# Texture cooridinates (Count = 15)
vt 0.75 0.9512195
vt 0.8125 0.9512195
vt 0.8125 0.9634146
vt 0.75 0.9634146
vt 0.875 0.9512195
vt 0.875 0.9634146
vt 0.75 0.9878049
vt 0.8125 0.9878049
vt 0.8125 1
vt 0.75 1
vt 0.875 0.9878049
vt 0.875 1
vt 0.75 0.9756098
vt 0.8125 0.9756098
vt 0.875 0.9756098

# Normal
vn 0 0 -1

# Mesh description
g ciudadPrincipal_mesh_0051

# Faces
f 1/1/1 2/2/1 3/3/1 4/4/1
f 5/2/1 6/5/1 7/6/1 8/3/1
f 9/7/1 10/8/1 11/9/1 12/10/1
f 13/8/1 14/11/1 15/12/1 16/9/1
f 17/13/1 18/14/1 19/8/1 20/7/1
f 21/14/1 22/15/1 23/11/1 24/8/1
f 25/4/1 26/3/1 27/14/1 28/13/1
f 29/3/1 30/6/1 31/15/1 32/14/1
f 33/7/1 34/8/1 35/9/1 36/10/1
f 37/8/1 38/11/1 39/12/1 40/9/1
f 41/1/1 42/2/1 43/3/1 44/4/1
f 45/2/1 46/5/1 47/6/1 48/3/1
f 49/13/1 50/14/1 51/8/1 52/7/1
f 53/14/1 54/15/1 55/11/1 56/8/1
f 57/4/1 58/3/1 59/14/1 60/13/1
f 61/3/1 62/6/1 63/15/1 64/14/1
f 65/1/1 66/2/1 67/3/1 68/4/1
f 69/2/1 70/5/1 71/6/1 72/3/1
f 73/7/1 74/8/1 75/9/1 76/10/1
f 77/8/1 78/11/1 79/12/1 80/9/1
f 81/13/1 82/14/1 83/8/1 84/7/1
f 85/14/1 86/15/1 87/11/1 88/8/1
f 89/4/1 90/3/1 91/14/1 92/13/1
f 93/3/1 94/6/1 95/15/1 96/14/1
f 97/4/1 98/3/1 99/14/1 100/13/1
f 101/3/1 102/6/1 103/15/1 104/14/1
f 105/1/1 106/2/1 107/3/1 108/4/1
f 109/2/1 110/5/1 111/6/1 112/3/1
f 113/1/1 114/2/1 115/3/1 116/4/1
f 117/2/1 118/5/1 119/6/1 120/3/1
f 121/7/1 122/8/1 123/9/1 124/10/1
f 125/8/1 126/11/1 127/12/1 128/9/1
f 129/7/1 130/8/1 131/9/1 132/10/1
f 133/8/1 134/11/1 135/12/1 136/9/1
f 137/13/1 138/14/1 139/8/1 140/7/1
f 141/14/1 142/15/1 143/11/1 144/8/1
f 145/13/1 146/14/1 147/8/1 148/7/1
f 149/14/1 150/15/1 151/11/1 152/8/1
f 153/4/1 154/3/1 155/14/1 156/13/1
f 157/3/1 158/6/1 159/15/1 160/14/1
f 161/4/1 162/3/1 163/14/1 164/13/1
f 165/3/1 166/6/1 167/15/1 168/14/1
f 169/1/1 170/2/1 171/3/1 172/4/1
f 173/2/1 174/5/1 175/6/1 176/3/1
f 177/1/1 178/2/1 179/3/1 180/4/1
f 181/2/1 182/5/1 183/6/1 184/3/1
f 185/7/1 186/8/1 187/9/1 188/10/1
f 189/8/1 190/11/1 191/12/1 192/9/1
f 193/7/1 194/8/1 195/9/1 196/10/1
f 197/8/1 198/11/1 199/12/1 200/9/1
f 201/13/1 202/14/1 203/8/1 204/7/1
f 205/14/1 206/15/1 207/11/1 208/8/1
f 209/13/1 210/14/1 211/8/1 212/7/1
f 213/14/1 214/15/1 215/11/1 216/8/1
f 217/4/1 218/3/1 219/14/1 220/13/1
f 221/3/1 222/6/1 223/15/1 224/14/1
f 225/4/1 226/3/1 227/14/1 228/13/1
f 229/3/1 230/6/1 231/15/1 232/14/1
f 233/1/1 234/2/1 235/3/1 236/4/1
f 237/2/1 238/5/1 239/6/1 240/3/1
f 241/1/1 242/2/1 243/3/1 244/4/1
f 245/2/1 246/5/1 247/6/1 248/3/1
f 249/7/1 250/8/1 251/9/1 252/10/1
f 253/8/1 254/11/1 255/12/1 256/9/1
f 257/13/1 258/14/1 259/8/1 260/7/1
f 261/14/1 262/15/1 263/11/1 264/8/1
f 265/7/1 266/8/1 267/9/1 268/10/1
f 269/8/1 270/11/1 271/12/1 272/9/1
f 273/4/1 274/3/1 275/14/1 276/13/1
f 277/3/1 278/6/1 279/15/1 280/14/1
f 281/13/1 282/14/1 283/8/1 284/7/1
f 285/14/1 286/15/1 287/11/1 288/8/1
f 289/1/1 290/2/1 291/3/1 292/4/1
f 293/2/1 294/5/1 295/6/1 296/3/1
f 297/4/1 298/3/1 299/14/1 300/13/1
f 301/3/1 302/6/1 303/15/1 304/14/1
f 305/7/1 306/8/1 307/9/1 308/10/1
f 309/8/1 310/11/1 311/12/1 312/9/1
f 313/1/1 314/2/1 315/3/1 316/4/1
f 317/2/1 318/5/1 319/6/1 320/3/1
f 321/13/1 322/14/1 323/8/1 324/7/1
f 325/14/1 326/15/1 327/11/1 328/8/1
f 329/4/1 330/3/1 331/14/1 332/13/1
f 333/3/1 334/6/1 335/15/1 336/14/1
f 337/7/1 338/8/1 339/9/1 340/10/1
f 341/8/1 342/11/1 343/12/1 344/9/1
f 345/1/1 346/2/1 347/3/1 348/4/1
f 349/2/1 350/5/1 351/6/1 352/3/1
f 353/13/1 354/14/1 355/8/1 356/7/1
f 357/14/1 358/15/1 359/11/1 360/8/1
f 361/4/1 362/3/1 363/14/1 364/13/1
f 365/3/1 366/6/1 367/15/1 368/14/1
f 369/7/1 370/8/1 371/9/1 372/10/1
f 373/8/1 374/11/1 375/12/1 376/9/1
f 377/1/1 378/2/1 379/3/1 380/4/1
f 381/2/1 382/5/1 383/6/1 384/3/1
f 385/13/1 386/14/1 387/8/1 388/7/1
f 389/14/1 390/15/1 391/11/1 392/8/1
f 393/4/1 394/3/1 395/14/1 396/13/1
f 397/3/1 398/6/1 399/15/1 400/14/1
f 401/1/1 402/2/1 403/3/1 404/4/1
f 405/2/1 406/5/1 407/6/1 408/3/1

