# Tiled2Unity generated file. Do not modify by hand.
# Wavefront file for 'ciudadPrincipal_mesh_0014.obj'

# Vertices (Count = 72)
v -0.16 -1.76 0
v -0.32 -1.76 0
v -0.32 -1.6 0
v -0.16 -1.6 0
v -0.32 -1.76 0
v -0.48 -1.76 0
v -0.48 -1.6 0
v -0.32 -1.6 0
v -0.48 -1.76 0
v -0.64 -1.76 0
v -0.64 -1.6 0
v -0.48 -1.6 0
v -0.64 -1.76 0
v -0.8 -1.76 0
v -0.8 -1.6 0
v -0.64 -1.6 0
v -0.8 -1.76 0
v -0.96 -1.76 0
v -0.96 -1.6 0
v -0.8 -1.6 0
v -0.96 -1.76 0
v -1.12 -1.76 0
v -1.12 -1.6 0
v -0.96 -1.6 0
v -0.16 -1.92 0
v -0.32 -1.92 0
v -0.32 -1.76 0
v -0.16 -1.76 0
v -0.32 -1.92 0
v -0.48 -1.92 0
v -0.48 -1.76 0
v -0.32 -1.76 0
v -0.8 -1.92 0
v -0.96 -1.92 0
v -0.96 -1.76 0
v -0.8 -1.76 0
v -0.96 -1.92 0
v -1.12 -1.92 0
v -1.12 -1.76 0
v -0.96 -1.76 0
v -0.16 -2.08 0
v -0.32 -2.08 0
v -0.32 -1.92 0
v -0.16 -1.92 0
v -0.32 -2.08 0
v -0.48 -2.08 0
v -0.48 -1.92 0
v -0.32 -1.92 0
v -0.8 -2.08 0
v -0.96 -2.08 0
v -0.96 -1.92 0
v -0.8 -1.92 0
v -0.96 -2.08 0
v -1.12 -2.08 0
v -1.12 -1.92 0
v -0.96 -1.92 0
v -0.16 -2.24 0
v -0.32 -2.24 0
v -0.32 -2.08 0
v -0.16 -2.08 0
v -0.32 -2.24 0
v -0.48 -2.24 0
v -0.48 -2.08 0
v -0.32 -2.08 0
v -0.8 -2.24 0
v -0.96 -2.24 0
v -0.96 -2.08 0
v -0.8 -2.08 0
v -0.96 -2.24 0
v -1.12 -2.24 0
v -1.12 -2.08 0
v -0.96 -2.08 0

# Texture cooridinates (Count = 25)
vt 0.125 0.6875
vt 0.15625 0.6875
vt 0.15625 0.75
vt 0.125 0.75
vt 0.1875 0.6875
vt 0.1875 0.75
vt 0.21875 0.6875
vt 0.21875 0.75
vt 0.25 0.6875
vt 0.25 0.75
vt 0.125 0.625
vt 0.15625 0.625
vt 0.1875 0.625
vt 0.21875 0.625
vt 0.25 0.625
vt 0.125 0.5625
vt 0.15625 0.5625
vt 0.1875 0.5625
vt 0.21875 0.5625
vt 0.25 0.5625
vt 0.125 0.5
vt 0.15625 0.5
vt 0.1875 0.5
vt 0.21875 0.5
vt 0.25 0.5

# Normal
vn 0 0 -1

# Mesh description
g ciudadPrincipal_mesh_0014

# Faces
f 1/1/1 2/2/1 3/3/1 4/4/1
f 5/2/1 6/5/1 7/6/1 8/3/1
f 9/2/1 10/5/1 11/6/1 12/3/1
f 13/5/1 14/7/1 15/8/1 16/6/1
f 17/5/1 18/7/1 19/8/1 20/6/1
f 21/7/1 22/9/1 23/10/1 24/8/1
f 25/11/1 26/12/1 27/2/1 28/1/1
f 29/12/1 30/13/1 31/5/1 32/2/1
f 33/13/1 34/14/1 35/7/1 36/5/1
f 37/14/1 38/15/1 39/9/1 40/7/1
f 41/16/1 42/17/1 43/12/1 44/11/1
f 45/17/1 46/18/1 47/13/1 48/12/1
f 49/18/1 50/19/1 51/14/1 52/13/1
f 53/19/1 54/20/1 55/15/1 56/14/1
f 57/21/1 58/22/1 59/17/1 60/16/1
f 61/22/1 62/23/1 63/18/1 64/17/1
f 65/23/1 66/24/1 67/19/1 68/18/1
f 69/24/1 70/25/1 71/20/1 72/19/1

