# Tiled2Unity generated file. Do not modify by hand.
# Wavefront file for 'ciudadPrincipal_mesh_0017.obj'

# Vertices (Count = 240)
v -2.08 -4.64 0
v -2.24 -4.64 0
v -2.24 -4.48 0
v -2.08 -4.48 0
v -2.24 -4.64 0
v -2.4 -4.64 0
v -2.4 -4.48 0
v -2.24 -4.48 0
v -2.4 -4.64 0
v -2.56 -4.64 0
v -2.56 -4.48 0
v -2.4 -4.48 0
v -2.56 -4.64 0
v -2.72 -4.64 0
v -2.72 -4.48 0
v -2.56 -4.48 0
v -2.72 -4.64 0
v -2.88 -4.64 0
v -2.88 -4.48 0
v -2.72 -4.48 0
v -2.88 -4.64 0
v -3.04 -4.64 0
v -3.04 -4.48 0
v -2.88 -4.48 0
v -3.04 -4.64 0
v -3.2 -4.64 0
v -3.2 -4.48 0
v -3.04 -4.48 0
v -3.2 -4.64 0
v -3.36 -4.64 0
v -3.36 -4.48 0
v -3.2 -4.48 0
v -3.36 -4.64 0
v -3.52 -4.64 0
v -3.52 -4.48 0
v -3.36 -4.48 0
v -3.52 -4.64 0
v -3.68 -4.64 0
v -3.68 -4.48 0
v -3.52 -4.48 0
v -3.68 -4.64 0
v -3.84 -4.64 0
v -3.84 -4.48 0
v -3.68 -4.48 0
v -3.84 -4.64 0
v -4 -4.64 0
v -4 -4.48 0
v -3.84 -4.48 0
v -4 -4.64 0
v -4.16 -4.64 0
v -4.16 -4.48 0
v -4 -4.48 0
v -4.16 -4.64 0
v -4.32 -4.64 0
v -4.32 -4.48 0
v -4.16 -4.48 0
v -4.32 -4.64 0
v -4.48 -4.64 0
v -4.48 -4.48 0
v -4.32 -4.48 0
v -2.08 -4.8 0
v -2.24 -4.8 0
v -2.24 -4.64 0
v -2.08 -4.64 0
v -2.24 -4.8 0
v -2.4 -4.8 0
v -2.4 -4.64 0
v -2.24 -4.64 0
v -2.4 -4.8 0
v -2.56 -4.8 0
v -2.56 -4.64 0
v -2.4 -4.64 0
v -2.56 -4.8 0
v -2.72 -4.8 0
v -2.72 -4.64 0
v -2.56 -4.64 0
v -2.72 -4.8 0
v -2.88 -4.8 0
v -2.88 -4.64 0
v -2.72 -4.64 0
v -2.88 -4.8 0
v -3.04 -4.8 0
v -3.04 -4.64 0
v -2.88 -4.64 0
v -3.04 -4.8 0
v -3.2 -4.8 0
v -3.2 -4.64 0
v -3.04 -4.64 0
v -3.2 -4.8 0
v -3.36 -4.8 0
v -3.36 -4.64 0
v -3.2 -4.64 0
v -3.36 -4.8 0
v -3.52 -4.8 0
v -3.52 -4.64 0
v -3.36 -4.64 0
v -3.52 -4.8 0
v -3.68 -4.8 0
v -3.68 -4.64 0
v -3.52 -4.64 0
v -3.68 -4.8 0
v -3.84 -4.8 0
v -3.84 -4.64 0
v -3.68 -4.64 0
v -3.84 -4.8 0
v -4 -4.8 0
v -4 -4.64 0
v -3.84 -4.64 0
v -4 -4.8 0
v -4.16 -4.8 0
v -4.16 -4.64 0
v -4 -4.64 0
v -4.16 -4.8 0
v -4.32 -4.8 0
v -4.32 -4.64 0
v -4.16 -4.64 0
v -4.32 -4.8 0
v -4.48 -4.8 0
v -4.48 -4.64 0
v -4.32 -4.64 0
v -2.08 -4.96 0
v -2.24 -4.96 0
v -2.24 -4.8 0
v -2.08 -4.8 0
v -2.24 -4.96 0
v -2.4 -4.96 0
v -2.4 -4.8 0
v -2.24 -4.8 0
v -2.4 -4.96 0
v -2.56 -4.96 0
v -2.56 -4.8 0
v -2.4 -4.8 0
v -2.56 -4.96 0
v -2.72 -4.96 0
v -2.72 -4.8 0
v -2.56 -4.8 0
v -2.72 -4.96 0
v -2.88 -4.96 0
v -2.88 -4.8 0
v -2.72 -4.8 0
v -2.88 -4.96 0
v -3.04 -4.96 0
v -3.04 -4.8 0
v -2.88 -4.8 0
v -3.04 -4.96 0
v -3.2 -4.96 0
v -3.2 -4.8 0
v -3.04 -4.8 0
v -3.2 -4.96 0
v -3.36 -4.96 0
v -3.36 -4.8 0
v -3.2 -4.8 0
v -3.36 -4.96 0
v -3.52 -4.96 0
v -3.52 -4.8 0
v -3.36 -4.8 0
v -3.52 -4.96 0
v -3.68 -4.96 0
v -3.68 -4.8 0
v -3.52 -4.8 0
v -3.68 -4.96 0
v -3.84 -4.96 0
v -3.84 -4.8 0
v -3.68 -4.8 0
v -3.84 -4.96 0
v -4 -4.96 0
v -4 -4.8 0
v -3.84 -4.8 0
v -4 -4.96 0
v -4.16 -4.96 0
v -4.16 -4.8 0
v -4 -4.8 0
v -4.16 -4.96 0
v -4.32 -4.96 0
v -4.32 -4.8 0
v -4.16 -4.8 0
v -4.32 -4.96 0
v -4.48 -4.96 0
v -4.48 -4.8 0
v -4.32 -4.8 0
v -2.08 -5.12 0
v -2.24 -5.12 0
v -2.24 -4.96 0
v -2.08 -4.96 0
v -2.24 -5.12 0
v -2.4 -5.12 0
v -2.4 -4.96 0
v -2.24 -4.96 0
v -2.4 -5.12 0
v -2.56 -5.12 0
v -2.56 -4.96 0
v -2.4 -4.96 0
v -2.56 -5.12 0
v -2.72 -5.12 0
v -2.72 -4.96 0
v -2.56 -4.96 0
v -2.72 -5.12 0
v -2.88 -5.12 0
v -2.88 -4.96 0
v -2.72 -4.96 0
v -2.88 -5.12 0
v -3.04 -5.12 0
v -3.04 -4.96 0
v -2.88 -4.96 0
v -3.04 -5.12 0
v -3.2 -5.12 0
v -3.2 -4.96 0
v -3.04 -4.96 0
v -3.2 -5.12 0
v -3.36 -5.12 0
v -3.36 -4.96 0
v -3.2 -4.96 0
v -3.36 -5.12 0
v -3.52 -5.12 0
v -3.52 -4.96 0
v -3.36 -4.96 0
v -3.52 -5.12 0
v -3.68 -5.12 0
v -3.68 -4.96 0
v -3.52 -4.96 0
v -3.68 -5.12 0
v -3.84 -5.12 0
v -3.84 -4.96 0
v -3.68 -4.96 0
v -3.84 -5.12 0
v -4 -5.12 0
v -4 -4.96 0
v -3.84 -4.96 0
v -4 -5.12 0
v -4.16 -5.12 0
v -4.16 -4.96 0
v -4 -4.96 0
v -4.16 -5.12 0
v -4.32 -5.12 0
v -4.32 -4.96 0
v -4.16 -4.96 0
v -4.32 -5.12 0
v -4.48 -5.12 0
v -4.48 -4.96 0
v -4.32 -4.96 0

# Texture cooridinates (Count = 25)
vt 0.125 0.6875
vt 0.15625 0.6875
vt 0.15625 0.75
vt 0.125 0.75
vt 0.1875 0.6875
vt 0.1875 0.75
vt 0.21875 0.6875
vt 0.21875 0.75
vt 0.25 0.6875
vt 0.25 0.75
vt 0.125 0.625
vt 0.15625 0.625
vt 0.1875 0.625
vt 0.21875 0.625
vt 0.25 0.625
vt 0.125 0.5625
vt 0.15625 0.5625
vt 0.1875 0.5625
vt 0.21875 0.5625
vt 0.25 0.5625
vt 0.125 0.5
vt 0.15625 0.5
vt 0.1875 0.5
vt 0.21875 0.5
vt 0.25 0.5

# Normal
vn 0 0 -1

# Mesh description
g ciudadPrincipal_mesh_0017

# Faces
f 1/1/1 2/2/1 3/3/1 4/4/1
f 5/2/1 6/5/1 7/6/1 8/3/1
f 9/2/1 10/5/1 11/6/1 12/3/1
f 13/2/1 14/5/1 15/6/1 16/3/1
f 17/2/1 18/5/1 19/6/1 20/3/1
f 21/2/1 22/5/1 23/6/1 24/3/1
f 25/2/1 26/5/1 27/6/1 28/3/1
f 29/2/1 30/5/1 31/6/1 32/3/1
f 33/2/1 34/5/1 35/6/1 36/3/1
f 37/2/1 38/5/1 39/6/1 40/3/1
f 41/2/1 42/5/1 43/6/1 44/3/1
f 45/2/1 46/5/1 47/6/1 48/3/1
f 49/2/1 50/5/1 51/6/1 52/3/1
f 53/5/1 54/7/1 55/8/1 56/6/1
f 57/7/1 58/9/1 59/10/1 60/8/1
f 61/11/1 62/12/1 63/2/1 64/1/1
f 65/12/1 66/13/1 67/5/1 68/2/1
f 69/12/1 70/13/1 71/5/1 72/2/1
f 73/12/1 74/13/1 75/5/1 76/2/1
f 77/12/1 78/13/1 79/5/1 80/2/1
f 81/12/1 82/13/1 83/5/1 84/2/1
f 85/12/1 86/13/1 87/5/1 88/2/1
f 89/12/1 90/13/1 91/5/1 92/2/1
f 93/12/1 94/13/1 95/5/1 96/2/1
f 97/12/1 98/13/1 99/5/1 100/2/1
f 101/12/1 102/13/1 103/5/1 104/2/1
f 105/12/1 106/13/1 107/5/1 108/2/1
f 109/12/1 110/13/1 111/5/1 112/2/1
f 113/13/1 114/14/1 115/7/1 116/5/1
f 117/14/1 118/15/1 119/9/1 120/7/1
f 121/16/1 122/17/1 123/12/1 124/11/1
f 125/17/1 126/18/1 127/13/1 128/12/1
f 129/17/1 130/18/1 131/13/1 132/12/1
f 133/17/1 134/18/1 135/13/1 136/12/1
f 137/17/1 138/18/1 139/13/1 140/12/1
f 141/17/1 142/18/1 143/13/1 144/12/1
f 145/17/1 146/18/1 147/13/1 148/12/1
f 149/17/1 150/18/1 151/13/1 152/12/1
f 153/17/1 154/18/1 155/13/1 156/12/1
f 157/17/1 158/18/1 159/13/1 160/12/1
f 161/17/1 162/18/1 163/13/1 164/12/1
f 165/17/1 166/18/1 167/13/1 168/12/1
f 169/17/1 170/18/1 171/13/1 172/12/1
f 173/18/1 174/19/1 175/14/1 176/13/1
f 177/19/1 178/20/1 179/15/1 180/14/1
f 181/21/1 182/22/1 183/17/1 184/16/1
f 185/22/1 186/23/1 187/18/1 188/17/1
f 189/22/1 190/23/1 191/18/1 192/17/1
f 193/22/1 194/23/1 195/18/1 196/17/1
f 197/22/1 198/23/1 199/18/1 200/17/1
f 201/22/1 202/23/1 203/18/1 204/17/1
f 205/22/1 206/23/1 207/18/1 208/17/1
f 209/22/1 210/23/1 211/18/1 212/17/1
f 213/22/1 214/23/1 215/18/1 216/17/1
f 217/22/1 218/23/1 219/18/1 220/17/1
f 221/22/1 222/23/1 223/18/1 224/17/1
f 225/22/1 226/23/1 227/18/1 228/17/1
f 229/22/1 230/23/1 231/18/1 232/17/1
f 233/23/1 234/24/1 235/19/1 236/18/1
f 237/24/1 238/25/1 239/20/1 240/19/1

