# Tiled2Unity generated file. Do not modify by hand.
# Wavefront file for 'ciudadPrincipal_mesh_0048.obj'

# Vertices (Count = 16)
v -47.5 -0.5 0
v -48 -0.5 0
v -48 0 0
v -47.5 0 0
v -48 -0.5 0
v -48.5 -0.5 0
v -48.5 0 0
v -48 0 0
v -47.5 -1 0
v -48 -1 0
v -48 -0.5 0
v -47.5 -0.5 0
v -48 -1 0
v -48.5 -1 0
v -48.5 -0.5 0
v -48 -0.5 0

# Texture cooridinates (Count = 9)
vt 0.25 0.71875
vt 0.28125 0.71875
vt 0.28125 0.75
vt 0.25 0.75
vt 0.3125 0.71875
vt 0.3125 0.75
vt 0.25 0.6875
vt 0.28125 0.6875
vt 0.3125 0.6875

# Normal
vn 0 0 -1

# Mesh description
g ciudadPrincipal_mesh_0048

# Faces
f 1/1/1 2/2/1 3/3/1 4/4/1
f 5/2/1 6/5/1 7/6/1 8/3/1
f 9/7/1 10/8/1 11/2/1 12/1/1
f 13/8/1 14/9/1 15/5/1 16/2/1

