# Tiled2Unity generated file. Do not modify by hand.
# Wavefront file for 'ciudadPrincipal_mesh_0029.obj'

# Vertices (Count = 592)
v -9 -6 0
v -9.5 -6 0
v -9.5 -5.5 0
v -9 -5.5 0
v -9.5 -6 0
v -10 -6 0
v -10 -5.5 0
v -9.5 -5.5 0
v -9 -6.5 0
v -9.5 -6.5 0
v -9.5 -6 0
v -9 -6 0
v -9.5 -6.5 0
v -10 -6.5 0
v -10 -6 0
v -9.5 -6 0
v -10 -6.5 0
v -10.5 -6.5 0
v -10.5 -6 0
v -10 -6 0
v -9 -7 0
v -9.5 -7 0
v -9.5 -6.5 0
v -9 -6.5 0
v -9.5 -7 0
v -10 -7 0
v -10 -6.5 0
v -9.5 -6.5 0
v -10 -7 0
v -10.5 -7 0
v -10.5 -6.5 0
v -10 -6.5 0
v -11.5 -13 0
v -12 -13 0
v -12 -12.5 0
v -11.5 -12.5 0
v -12 -13 0
v -12.5 -13 0
v -12.5 -12.5 0
v -12 -12.5 0
v -2.5 -13.5 0
v -3 -13.5 0
v -3 -13 0
v -2.5 -13 0
v -3 -13.5 0
v -3.5 -13.5 0
v -3.5 -13 0
v -3 -13 0
v -11.5 -13.5 0
v -12 -13.5 0
v -12 -13 0
v -11.5 -13 0
v -12 -13.5 0
v -12.5 -13.5 0
v -12.5 -13 0
v -12 -13 0
v -2.5 -14 0
v -3 -14 0
v -3 -13.5 0
v -2.5 -13.5 0
v -3 -14 0
v -3.5 -14 0
v -3.5 -13.5 0
v -3 -13.5 0
v -17.5 -14 0
v -18 -14 0
v -18 -13.5 0
v -17.5 -13.5 0
v -18 -14 0
v -18.5 -14 0
v -18.5 -13.5 0
v -18 -13.5 0
v -17.5 -14.5 0
v -18 -14.5 0
v -18 -14 0
v -17.5 -14 0
v -18 -14.5 0
v -18.5 -14.5 0
v -18.5 -14 0
v -18 -14 0
v -1 -15 0
v -1.5 -15 0
v -1.5 -14.5 0
v -1 -14.5 0
v -1.5 -15 0
v -2 -15 0
v -2 -14.5 0
v -1.5 -14.5 0
v -4 -15 0
v -4.5 -15 0
v -4.5 -14.5 0
v -4 -14.5 0
v -4.5 -15 0
v -5 -15 0
v -5 -14.5 0
v -4.5 -14.5 0
v -7 -15 0
v -7.5 -15 0
v -7.5 -14.5 0
v -7 -14.5 0
v -7.5 -15 0
v -8 -15 0
v -8 -14.5 0
v -7.5 -14.5 0
v -8.5 -15 0
v -9 -15 0
v -9 -14.5 0
v -8.5 -14.5 0
v -9 -15 0
v -9.5 -15 0
v -9.5 -14.5 0
v -9 -14.5 0
v -10 -15 0
v -10.5 -15 0
v -10.5 -14.5 0
v -10 -14.5 0
v -10.5 -15 0
v -11 -15 0
v -11 -14.5 0
v -10.5 -14.5 0
v -13 -15 0
v -13.5 -15 0
v -13.5 -14.5 0
v -13 -14.5 0
v -13.5 -15 0
v -14 -15 0
v -14 -14.5 0
v -13.5 -14.5 0
v -1 -15.5 0
v -1.5 -15.5 0
v -1.5 -15 0
v -1 -15 0
v -1.5 -15.5 0
v -2 -15.5 0
v -2 -15 0
v -1.5 -15 0
v -4 -15.5 0
v -4.5 -15.5 0
v -4.5 -15 0
v -4 -15 0
v -4.5 -15.5 0
v -5 -15.5 0
v -5 -15 0
v -4.5 -15 0
v -7 -15.5 0
v -7.5 -15.5 0
v -7.5 -15 0
v -7 -15 0
v -7.5 -15.5 0
v -8 -15.5 0
v -8 -15 0
v -7.5 -15 0
v -8.5 -15.5 0
v -9 -15.5 0
v -9 -15 0
v -8.5 -15 0
v -9 -15.5 0
v -9.5 -15.5 0
v -9.5 -15 0
v -9 -15 0
v -10 -15.5 0
v -10.5 -15.5 0
v -10.5 -15 0
v -10 -15 0
v -10.5 -15.5 0
v -11 -15.5 0
v -11 -15 0
v -10.5 -15 0
v -13 -15.5 0
v -13.5 -15.5 0
v -13.5 -15 0
v -13 -15 0
v -13.5 -15.5 0
v -14 -15.5 0
v -14 -15 0
v -13.5 -15 0
v -1 -16 0
v -1.5 -16 0
v -1.5 -15.5 0
v -1 -15.5 0
v -1.5 -16 0
v -2 -16 0
v -2 -15.5 0
v -1.5 -15.5 0
v -4 -16 0
v -4.5 -16 0
v -4.5 -15.5 0
v -4 -15.5 0
v -4.5 -16 0
v -5 -16 0
v -5 -15.5 0
v -4.5 -15.5 0
v -79.5 -19.5 0
v -80 -19.5 0
v -80 -19 0
v -79.5 -19 0
v -80 -19.5 0
v -80.5 -19.5 0
v -80.5 -19 0
v -80 -19 0
v -80.5 -19.5 0
v -81 -19.5 0
v -81 -19 0
v -80.5 -19 0
v -81 -19.5 0
v -81.5 -19.5 0
v -81.5 -19 0
v -81 -19 0
v -79.5 -20 0
v -80 -20 0
v -80 -19.5 0
v -79.5 -19.5 0
v -80 -20 0
v -80.5 -20 0
v -80.5 -19.5 0
v -80 -19.5 0
v -80.5 -20 0
v -81 -20 0
v -81 -19.5 0
v -80.5 -19.5 0
v -81 -20 0
v -81.5 -20 0
v -81.5 -19.5 0
v -81 -19.5 0
v -24 -21.5 0
v -24.5 -21.5 0
v -24.5 -21 0
v -24 -21 0
v -24.5 -21.5 0
v -25 -21.5 0
v -25 -21 0
v -24.5 -21 0
v -25.5 -21.5 0
v -26 -21.5 0
v -26 -21 0
v -25.5 -21 0
v -26 -21.5 0
v -26.5 -21.5 0
v -26.5 -21 0
v -26 -21 0
v -24 -22 0
v -24.5 -22 0
v -24.5 -21.5 0
v -24 -21.5 0
v -24.5 -22 0
v -25 -22 0
v -25 -21.5 0
v -24.5 -21.5 0
v -25.5 -22 0
v -26 -22 0
v -26 -21.5 0
v -25.5 -21.5 0
v -26 -22 0
v -26.5 -22 0
v -26.5 -21.5 0
v -26 -21.5 0
v -2 -39.5 0
v -2.5 -39.5 0
v -2.5 -39 0
v -2 -39 0
v -3.5 -47 0
v -4 -47 0
v -4 -46.5 0
v -3.5 -46.5 0
v -1.5 -54.5 0
v -2 -54.5 0
v -2 -54 0
v -1.5 -54 0
v -2 -54.5 0
v -2.5 -54.5 0
v -2.5 -54 0
v -2 -54 0
v -2.5 -54.5 0
v -3 -54.5 0
v -3 -54 0
v -2.5 -54 0
v -3 -54.5 0
v -3.5 -54.5 0
v -3.5 -54 0
v -3 -54 0
v -3.5 -54.5 0
v -4 -54.5 0
v -4 -54 0
v -3.5 -54 0
v -4 -54.5 0
v -4.5 -54.5 0
v -4.5 -54 0
v -4 -54 0
v -1.5 -55 0
v -2 -55 0
v -2 -54.5 0
v -1.5 -54.5 0
v -2 -55 0
v -2.5 -55 0
v -2.5 -54.5 0
v -2 -54.5 0
v -2.5 -55 0
v -3 -55 0
v -3 -54.5 0
v -2.5 -54.5 0
v -3 -55 0
v -3.5 -55 0
v -3.5 -54.5 0
v -3 -54.5 0
v -3.5 -55 0
v -4 -55 0
v -4 -54.5 0
v -3.5 -54.5 0
v -4 -55 0
v -4.5 -55 0
v -4.5 -54.5 0
v -4 -54.5 0
v -2 -55.5 0
v -2.5 -55.5 0
v -2.5 -55 0
v -2 -55 0
v -2.5 -55.5 0
v -3 -55.5 0
v -3 -55 0
v -2.5 -55 0
v -3 -55.5 0
v -3.5 -55.5 0
v -3.5 -55 0
v -3 -55 0
v -3.5 -55.5 0
v -4 -55.5 0
v -4 -55 0
v -3.5 -55 0
v -1.5 -56 0
v -2 -56 0
v -2 -55.5 0
v -1.5 -55.5 0
v -2 -56 0
v -2.5 -56 0
v -2.5 -55.5 0
v -2 -55.5 0
v -2.5 -56 0
v -3 -56 0
v -3 -55.5 0
v -2.5 -55.5 0
v -3 -56 0
v -3.5 -56 0
v -3.5 -55.5 0
v -3 -55.5 0
v -3.5 -56 0
v -4 -56 0
v -4 -55.5 0
v -3.5 -55.5 0
v -4 -56 0
v -4.5 -56 0
v -4.5 -55.5 0
v -4 -55.5 0
v -1.5 -56.5 0
v -2 -56.5 0
v -2 -56 0
v -1.5 -56 0
v -2 -56.5 0
v -2.5 -56.5 0
v -2.5 -56 0
v -2 -56 0
v -2.5 -56.5 0
v -3 -56.5 0
v -3 -56 0
v -2.5 -56 0
v -3 -56.5 0
v -3.5 -56.5 0
v -3.5 -56 0
v -3 -56 0
v -3.5 -56.5 0
v -4 -56.5 0
v -4 -56 0
v -3.5 -56 0
v -4 -56.5 0
v -4.5 -56.5 0
v -4.5 -56 0
v -4 -56 0
v -1.5 -57 0
v -2 -57 0
v -2 -56.5 0
v -1.5 -56.5 0
v -2 -57 0
v -2.5 -57 0
v -2.5 -56.5 0
v -2 -56.5 0
v -2.5 -57 0
v -3 -57 0
v -3 -56.5 0
v -2.5 -56.5 0
v -3 -57 0
v -3.5 -57 0
v -3.5 -56.5 0
v -3 -56.5 0
v -3.5 -57 0
v -4 -57 0
v -4 -56.5 0
v -3.5 -56.5 0
v -4 -57 0
v -4.5 -57 0
v -4.5 -56.5 0
v -4 -56.5 0
v -1.5 -57.5 0
v -2 -57.5 0
v -2 -57 0
v -1.5 -57 0
v -2 -57.5 0
v -2.5 -57.5 0
v -2.5 -57 0
v -2 -57 0
v -2.5 -57.5 0
v -3 -57.5 0
v -3 -57 0
v -2.5 -57 0
v -3 -57.5 0
v -3.5 -57.5 0
v -3.5 -57 0
v -3 -57 0
v -3.5 -57.5 0
v -4 -57.5 0
v -4 -57 0
v -3.5 -57 0
v -4 -57.5 0
v -4.5 -57.5 0
v -4.5 -57 0
v -4 -57 0
v -1.5 -58 0
v -2 -58 0
v -2 -57.5 0
v -1.5 -57.5 0
v -2 -58 0
v -2.5 -58 0
v -2.5 -57.5 0
v -2 -57.5 0
v -2.5 -58 0
v -3 -58 0
v -3 -57.5 0
v -2.5 -57.5 0
v -3 -58 0
v -3.5 -58 0
v -3.5 -57.5 0
v -3 -57.5 0
v -3.5 -58 0
v -4 -58 0
v -4 -57.5 0
v -3.5 -57.5 0
v -4 -58 0
v -4.5 -58 0
v -4.5 -57.5 0
v -4 -57.5 0
v -1.5 -58.5 0
v -2 -58.5 0
v -2 -58 0
v -1.5 -58 0
v -2 -58.5 0
v -2.5 -58.5 0
v -2.5 -58 0
v -2 -58 0
v -2.5 -58.5 0
v -3 -58.5 0
v -3 -58 0
v -2.5 -58 0
v -3 -58.5 0
v -3.5 -58.5 0
v -3.5 -58 0
v -3 -58 0
v -3.5 -58.5 0
v -4 -58.5 0
v -4 -58 0
v -3.5 -58 0
v -4 -58.5 0
v -4.5 -58.5 0
v -4.5 -58 0
v -4 -58 0
v -30 -58.5 0
v -30.5 -58.5 0
v -30.5 -58 0
v -30 -58 0
v -30.5 -58.5 0
v -31 -58.5 0
v -31 -58 0
v -30.5 -58 0
v -1.5 -59 0
v -2 -59 0
v -2 -58.5 0
v -1.5 -58.5 0
v -2 -59 0
v -2.5 -59 0
v -2.5 -58.5 0
v -2 -58.5 0
v -2.5 -59 0
v -3 -59 0
v -3 -58.5 0
v -2.5 -58.5 0
v -3 -59 0
v -3.5 -59 0
v -3.5 -58.5 0
v -3 -58.5 0
v -3.5 -59 0
v -4 -59 0
v -4 -58.5 0
v -3.5 -58.5 0
v -4 -59 0
v -4.5 -59 0
v -4.5 -58.5 0
v -4 -58.5 0
v -30 -59 0
v -30.5 -59 0
v -30.5 -58.5 0
v -30 -58.5 0
v -30.5 -59 0
v -31 -59 0
v -31 -58.5 0
v -30.5 -58.5 0
v -29.5 -60.5 0
v -30 -60.5 0
v -30 -60 0
v -29.5 -60 0
v -30 -60.5 0
v -30.5 -60.5 0
v -30.5 -60 0
v -30 -60 0
v -31.5 -60.5 0
v -32 -60.5 0
v -32 -60 0
v -31.5 -60 0
v -32 -60.5 0
v -32.5 -60.5 0
v -32.5 -60 0
v -32 -60 0
v -35.5 -60.5 0
v -36 -60.5 0
v -36 -60 0
v -35.5 -60 0
v -36 -60.5 0
v -36.5 -60.5 0
v -36.5 -60 0
v -36 -60 0
v -29.5 -61 0
v -30 -61 0
v -30 -60.5 0
v -29.5 -60.5 0
v -30 -61 0
v -30.5 -61 0
v -30.5 -60.5 0
v -30 -60.5 0
v -31.5 -61 0
v -32 -61 0
v -32 -60.5 0
v -31.5 -60.5 0
v -32 -61 0
v -32.5 -61 0
v -32.5 -60.5 0
v -32 -60.5 0
v -35.5 -61 0
v -36 -61 0
v -36 -60.5 0
v -35.5 -60.5 0
v -36 -61 0
v -36.5 -61 0
v -36.5 -60.5 0
v -36 -60.5 0
v -31 -63.5 0
v -31.5 -63.5 0
v -31.5 -63 0
v -31 -63 0
v -31.5 -63.5 0
v -32 -63.5 0
v -32 -63 0
v -31.5 -63 0
v -36 -63.5 0
v -36.5 -63.5 0
v -36.5 -63 0
v -36 -63 0
v -36.5 -63.5 0
v -37 -63.5 0
v -37 -63 0
v -36.5 -63 0
v -31 -64 0
v -31.5 -64 0
v -31.5 -63.5 0
v -31 -63.5 0
v -31.5 -64 0
v -32 -64 0
v -32 -63.5 0
v -31.5 -63.5 0
v -36 -64 0
v -36.5 -64 0
v -36.5 -63.5 0
v -36 -63.5 0
v -36.5 -64 0
v -37 -64 0
v -37 -63.5 0
v -36.5 -63.5 0

# Texture cooridinates (Count = 182)
vt 0 0.5625
vt 0.03125 0.5625
vt 0.03125 0.59375
vt 0 0.59375
vt 0.0625 0.5625
vt 0.0625 0.59375
vt 0.125 0.53125
vt 0.15625 0.53125
vt 0.15625 0.5625
vt 0.125 0.5625
vt 0.1875 0.53125
vt 0.1875 0.5625
vt 0.21875 0.53125
vt 0.21875 0.5625
vt 0.125 0.5
vt 0.15625 0.5
vt 0.1875 0.5
vt 0.21875 0.5
vt 0.3125 0.84375
vt 0.34375 0.84375
vt 0.34375 0.875
vt 0.3125 0.875
vt 0.375 0.84375
vt 0.375 0.875
vt 0.3125 0.8125
vt 0.34375 0.8125
vt 0.375 0.8125
vt 0.25 0.625
vt 0.28125 0.625
vt 0.28125 0.65625
vt 0.25 0.65625
vt 0.3125 0.625
vt 0.3125 0.65625
vt 0.25 0.59375
vt 0.28125 0.59375
vt 0.3125 0.59375
vt 0.3125 0.53125
vt 0.34375 0.53125
vt 0.34375 0.5625
vt 0.3125 0.5625
vt 0.375 0.53125
vt 0.375 0.5625
vt 0.3125 0.5
vt 0.34375 0.5
vt 0.375 0.5
vt 0.125 0.71875
vt 0.15625 0.71875
vt 0.15625 0.75
vt 0.125 0.75
vt 0.1875 0.71875
vt 0.1875 0.75
vt 0.125 0.6875
vt 0.15625 0.6875
vt 0.1875 0.6875
vt 0 0.84375
vt 0.03125 0.84375
vt 0.03125 0.875
vt 0 0.875
vt 0.0625 0.84375
vt 0.0625 0.875
vt 0.125 0.84375
vt 0.15625 0.84375
vt 0.15625 0.875
vt 0.125 0.875
vt 0.1875 0.84375
vt 0.1875 0.875
vt 0 0.8125
vt 0.03125 0.8125
vt 0.0625 0.8125
vt 0.125 0.8125
vt 0.15625 0.8125
vt 0.1875 0.8125
vt 0.875 0.90625
vt 0.90625 0.90625
vt 0.90625 0.9375
vt 0.875 0.9375
vt 0.25 0.5625
vt 0.28125 0.5625
vt 0.5625 0.59375
vt 0.59375 0.59375
vt 0.59375 0.625
vt 0.5625 0.625
vt 0.625 0.59375
vt 0.625 0.625
vt 0.65625 0.59375
vt 0.65625 0.625
vt 0.6875 0.59375
vt 0.6875 0.625
vt 0.71875 0.59375
vt 0.71875 0.625
vt 0.75 0.59375
vt 0.75 0.625
vt 0.5625 0.5625
vt 0.59375 0.5625
vt 0.625 0.5625
vt 0.65625 0.5625
vt 0.6875 0.5625
vt 0.71875 0.5625
vt 0.75 0.5625
vt 0.59375 0.53125
vt 0.625 0.53125
vt 0.65625 0.53125
vt 0.6875 0.53125
vt 0.71875 0.53125
vt 0.5625 0.5
vt 0.59375 0.5
vt 0.5625 0.53125
vt 0.625 0.5
vt 0.65625 0.5
vt 0.6875 0.5
vt 0.71875 0.5
vt 0.75 0.5
vt 0.75 0.53125
vt 0.5625 0.46875
vt 0.59375 0.46875
vt 0.625 0.46875
vt 0.65625 0.46875
vt 0.6875 0.46875
vt 0.71875 0.46875
vt 0.75 0.46875
vt 0.5625 0.4375
vt 0.59375 0.4375
vt 0.625 0.4375
vt 0.65625 0.4375
vt 0.6875 0.4375
vt 0.71875 0.4375
vt 0.75 0.4375
vt 0.5625 0.40625
vt 0.59375 0.40625
vt 0.625 0.40625
vt 0.65625 0.40625
vt 0.6875 0.40625
vt 0.71875 0.40625
vt 0.75 0.40625
vt 0.5625 0.375
vt 0.59375 0.375
vt 0.625 0.375
vt 0.65625 0.375
vt 0.6875 0.375
vt 0.71875 0.375
vt 0.75 0.375
vt 0.5625 0.34375
vt 0.59375 0.34375
vt 0.625 0.34375
vt 0.65625 0.34375
vt 0.6875 0.34375
vt 0.71875 0.34375
vt 0.75 0.34375
vt 0.25 0.71875
vt 0.28125 0.71875
vt 0.28125 0.75
vt 0.25 0.75
vt 0.3125 0.71875
vt 0.3125 0.75
vt 0.5625 0.3125
vt 0.59375 0.3125
vt 0.625 0.3125
vt 0.65625 0.3125
vt 0.6875 0.3125
vt 0.71875 0.3125
vt 0.75 0.3125
vt 0.25 0.6875
vt 0.28125 0.6875
vt 0.3125 0.6875
vt 0.21875 0.71875
vt 0.21875 0.75
vt 0.21875 0.6875
vt 0.1875 0.40625
vt 0.21875 0.40625
vt 0.21875 0.4375
vt 0.1875 0.4375
vt 0.25 0.40625
vt 0.25 0.4375
vt 0.125 0.40625
vt 0.15625 0.40625
vt 0.15625 0.4375
vt 0.125 0.4375
vt 0.1875 0.375
vt 0.21875 0.375
vt 0.25 0.375
vt 0.125 0.375
vt 0.15625 0.375

# Normal
vn 0 0 -1

# Mesh description
g ciudadPrincipal_mesh_0029

# Faces
f 1/1/1 2/2/1 3/3/1 4/4/1
f 5/2/1 6/5/1 7/6/1 8/3/1
f 9/7/1 10/8/1 11/9/1 12/10/1
f 13/8/1 14/11/1 15/12/1 16/9/1
f 17/11/1 18/13/1 19/14/1 20/12/1
f 21/15/1 22/16/1 23/8/1 24/7/1
f 25/16/1 26/17/1 27/11/1 28/8/1
f 29/17/1 30/18/1 31/13/1 32/11/1
f 33/19/1 34/20/1 35/21/1 36/22/1
f 37/20/1 38/23/1 39/24/1 40/21/1
f 41/19/1 42/20/1 43/21/1 44/22/1
f 45/20/1 46/23/1 47/24/1 48/21/1
f 49/25/1 50/26/1 51/20/1 52/19/1
f 53/26/1 54/27/1 55/23/1 56/20/1
f 57/25/1 58/26/1 59/20/1 60/19/1
f 61/26/1 62/27/1 63/23/1 64/20/1
f 65/28/1 66/29/1 67/30/1 68/31/1
f 69/29/1 70/32/1 71/33/1 72/30/1
f 73/34/1 74/35/1 75/29/1 76/28/1
f 77/35/1 78/36/1 79/32/1 80/29/1
f 81/28/1 82/29/1 83/30/1 84/31/1
f 85/29/1 86/32/1 87/33/1 88/30/1
f 89/28/1 90/29/1 91/30/1 92/31/1
f 93/29/1 94/32/1 95/33/1 96/30/1
f 97/19/1 98/20/1 99/21/1 100/22/1
f 101/20/1 102/23/1 103/24/1 104/21/1
f 105/19/1 106/20/1 107/21/1 108/22/1
f 109/20/1 110/23/1 111/24/1 112/21/1
f 113/19/1 114/20/1 115/21/1 116/22/1
f 117/20/1 118/23/1 119/24/1 120/21/1
f 121/19/1 122/20/1 123/21/1 124/22/1
f 125/20/1 126/23/1 127/24/1 128/21/1
f 129/37/1 130/38/1 131/39/1 132/40/1
f 133/38/1 134/41/1 135/42/1 136/39/1
f 137/37/1 138/38/1 139/39/1 140/40/1
f 141/38/1 142/41/1 143/42/1 144/39/1
f 145/25/1 146/26/1 147/20/1 148/19/1
f 149/26/1 150/27/1 151/23/1 152/20/1
f 153/25/1 154/26/1 155/20/1 156/19/1
f 157/26/1 158/27/1 159/23/1 160/20/1
f 161/25/1 162/26/1 163/20/1 164/19/1
f 165/26/1 166/27/1 167/23/1 168/20/1
f 169/25/1 170/26/1 171/20/1 172/19/1
f 173/26/1 174/27/1 175/23/1 176/20/1
f 177/43/1 178/44/1 179/38/1 180/37/1
f 181/44/1 182/45/1 183/41/1 184/38/1
f 185/43/1 186/44/1 187/38/1 188/37/1
f 189/44/1 190/45/1 191/41/1 192/38/1
f 193/46/1 194/47/1 195/48/1 196/49/1
f 197/47/1 198/50/1 199/51/1 200/48/1
f 201/46/1 202/47/1 203/48/1 204/49/1
f 205/47/1 206/50/1 207/51/1 208/48/1
f 209/52/1 210/53/1 211/47/1 212/46/1
f 213/53/1 214/54/1 215/50/1 216/47/1
f 217/52/1 218/53/1 219/47/1 220/46/1
f 221/53/1 222/54/1 223/50/1 224/47/1
f 225/55/1 226/56/1 227/57/1 228/58/1
f 229/56/1 230/59/1 231/60/1 232/57/1
f 233/61/1 234/62/1 235/63/1 236/64/1
f 237/62/1 238/65/1 239/66/1 240/63/1
f 241/67/1 242/68/1 243/56/1 244/55/1
f 245/68/1 246/69/1 247/59/1 248/56/1
f 249/70/1 250/71/1 251/62/1 252/61/1
f 253/71/1 254/72/1 255/65/1 256/62/1
f 257/73/1 258/74/1 259/75/1 260/76/1
f 261/77/1 262/78/1 263/35/1 264/34/1
f 265/79/1 266/80/1 267/81/1 268/82/1
f 269/80/1 270/83/1 271/84/1 272/81/1
f 273/83/1 274/85/1 275/86/1 276/84/1
f 277/85/1 278/87/1 279/88/1 280/86/1
f 281/87/1 282/89/1 283/90/1 284/88/1
f 285/89/1 286/91/1 287/92/1 288/90/1
f 289/93/1 290/94/1 291/80/1 292/79/1
f 293/94/1 294/95/1 295/83/1 296/80/1
f 297/95/1 298/96/1 299/85/1 300/83/1
f 301/96/1 302/97/1 303/87/1 304/85/1
f 305/97/1 306/98/1 307/89/1 308/87/1
f 309/98/1 310/99/1 311/91/1 312/89/1
f 313/100/1 314/101/1 315/95/1 316/94/1
f 317/101/1 318/102/1 319/96/1 320/95/1
f 321/102/1 322/103/1 323/97/1 324/96/1
f 325/103/1 326/104/1 327/98/1 328/97/1
f 329/105/1 330/106/1 331/100/1 332/107/1
f 333/106/1 334/108/1 335/101/1 336/100/1
f 337/108/1 338/109/1 339/102/1 340/101/1
f 341/109/1 342/110/1 343/103/1 344/102/1
f 345/110/1 346/111/1 347/104/1 348/103/1
f 349/111/1 350/112/1 351/113/1 352/104/1
f 353/114/1 354/115/1 355/106/1 356/105/1
f 357/115/1 358/116/1 359/108/1 360/106/1
f 361/116/1 362/117/1 363/109/1 364/108/1
f 365/117/1 366/118/1 367/110/1 368/109/1
f 369/118/1 370/119/1 371/111/1 372/110/1
f 373/119/1 374/120/1 375/112/1 376/111/1
f 377/121/1 378/122/1 379/115/1 380/114/1
f 381/122/1 382/123/1 383/116/1 384/115/1
f 385/123/1 386/124/1 387/117/1 388/116/1
f 389/124/1 390/125/1 391/118/1 392/117/1
f 393/125/1 394/126/1 395/119/1 396/118/1
f 397/126/1 398/127/1 399/120/1 400/119/1
f 401/128/1 402/129/1 403/122/1 404/121/1
f 405/129/1 406/130/1 407/123/1 408/122/1
f 409/130/1 410/131/1 411/124/1 412/123/1
f 413/131/1 414/132/1 415/125/1 416/124/1
f 417/132/1 418/133/1 419/126/1 420/125/1
f 421/133/1 422/134/1 423/127/1 424/126/1
f 425/135/1 426/136/1 427/129/1 428/128/1
f 429/136/1 430/137/1 431/130/1 432/129/1
f 433/137/1 434/138/1 435/131/1 436/130/1
f 437/138/1 438/139/1 439/132/1 440/131/1
f 441/139/1 442/140/1 443/133/1 444/132/1
f 445/140/1 446/141/1 447/134/1 448/133/1
f 449/142/1 450/143/1 451/136/1 452/135/1
f 453/143/1 454/144/1 455/137/1 456/136/1
f 457/144/1 458/145/1 459/138/1 460/137/1
f 461/145/1 462/146/1 463/139/1 464/138/1
f 465/146/1 466/147/1 467/140/1 468/139/1
f 469/147/1 470/148/1 471/141/1 472/140/1
f 473/149/1 474/150/1 475/151/1 476/152/1
f 477/150/1 478/153/1 479/154/1 480/151/1
f 481/155/1 482/156/1 483/143/1 484/142/1
f 485/156/1 486/157/1 487/144/1 488/143/1
f 489/157/1 490/158/1 491/145/1 492/144/1
f 493/158/1 494/159/1 495/146/1 496/145/1
f 497/159/1 498/160/1 499/147/1 500/146/1
f 501/160/1 502/161/1 503/148/1 504/147/1
f 505/162/1 506/163/1 507/150/1 508/149/1
f 509/163/1 510/164/1 511/153/1 512/150/1
f 513/149/1 514/150/1 515/151/1 516/152/1
f 517/150/1 518/153/1 519/154/1 520/151/1
f 521/149/1 522/150/1 523/151/1 524/152/1
f 525/150/1 526/153/1 527/154/1 528/151/1
f 529/50/1 530/165/1 531/166/1 532/51/1
f 533/165/1 534/149/1 535/152/1 536/166/1
f 537/162/1 538/163/1 539/150/1 540/149/1
f 541/163/1 542/164/1 543/153/1 544/150/1
f 545/162/1 546/163/1 547/150/1 548/149/1
f 549/163/1 550/164/1 551/153/1 552/150/1
f 553/54/1 554/167/1 555/165/1 556/50/1
f 557/167/1 558/162/1 559/149/1 560/165/1
f 561/168/1 562/169/1 563/170/1 564/171/1
f 565/169/1 566/172/1 567/173/1 568/170/1
f 569/174/1 570/175/1 571/176/1 572/177/1
f 573/175/1 574/168/1 575/171/1 576/176/1
f 577/178/1 578/179/1 579/169/1 580/168/1
f 581/179/1 582/180/1 583/172/1 584/169/1
f 585/181/1 586/182/1 587/175/1 588/174/1
f 589/182/1 590/178/1 591/168/1 592/175/1

