# Tiled2Unity generated file. Do not modify by hand.
# Wavefront file for 'ciudadPrincipal_mesh_0005.obj'

# Vertices (Count = 104)
v -16 -14.5 0
v -16.5 -14.5 0
v -16.5 -14 0
v -16 -14 0
v -16.5 -14.5 0
v -17 -14.5 0
v -17 -14 0
v -16.5 -14 0
v -17 -14.5 0
v -17.5 -14.5 0
v -17.5 -14 0
v -17 -14 0
v -17.5 -14.5 0
v -18 -14.5 0
v -18 -14 0
v -17.5 -14 0
v -18 -14.5 0
v -18.5 -14.5 0
v -18.5 -14 0
v -18 -14 0
v -18.5 -14.5 0
v -19 -14.5 0
v -19 -14 0
v -18.5 -14 0
v -19 -14.5 0
v -19.5 -14.5 0
v -19.5 -14 0
v -19 -14 0
v -19.5 -14.5 0
v -20 -14.5 0
v -20 -14 0
v -19.5 -14 0
v -16 -15 0
v -16.5 -15 0
v -16.5 -14.5 0
v -16 -14.5 0
v -16.5 -15 0
v -17 -15 0
v -17 -14.5 0
v -16.5 -14.5 0
v -17 -15 0
v -17.5 -15 0
v -17.5 -14.5 0
v -17 -14.5 0
v -18.5 -15 0
v -19 -15 0
v -19 -14.5 0
v -18.5 -14.5 0
v -19 -15 0
v -19.5 -15 0
v -19.5 -14.5 0
v -19 -14.5 0
v -19.5 -15 0
v -20 -15 0
v -20 -14.5 0
v -19.5 -14.5 0
v -16 -15.5 0
v -16.5 -15.5 0
v -16.5 -15 0
v -16 -15 0
v -16.5 -15.5 0
v -17 -15.5 0
v -17 -15 0
v -16.5 -15 0
v -17 -15.5 0
v -17.5 -15.5 0
v -17.5 -15 0
v -17 -15 0
v -18.5 -15.5 0
v -19 -15.5 0
v -19 -15 0
v -18.5 -15 0
v -19 -15.5 0
v -19.5 -15.5 0
v -19.5 -15 0
v -19 -15 0
v -19.5 -15.5 0
v -20 -15.5 0
v -20 -15 0
v -19.5 -15 0
v -16 -16 0
v -16.5 -16 0
v -16.5 -15.5 0
v -16 -15.5 0
v -16.5 -16 0
v -17 -16 0
v -17 -15.5 0
v -16.5 -15.5 0
v -17 -16 0
v -17.5 -16 0
v -17.5 -15.5 0
v -17 -15.5 0
v -18.5 -16 0
v -19 -16 0
v -19 -15.5 0
v -18.5 -15.5 0
v -19 -16 0
v -19.5 -16 0
v -19.5 -15.5 0
v -19 -15.5 0
v -19.5 -16 0
v -20 -16 0
v -20 -15.5 0
v -19.5 -15.5 0

# Texture cooridinates (Count = 15)
vt 0.15625 0.6875
vt 0.1875 0.6875
vt 0.1875 0.75
vt 0.15625 0.75
vt 0.21875 0.6875
vt 0.21875 0.75
vt 0.15625 0.625
vt 0.1875 0.625
vt 0.21875 0.625
vt 0.15625 0.5625
vt 0.1875 0.5625
vt 0.21875 0.5625
vt 0.15625 0.5
vt 0.1875 0.5
vt 0.21875 0.5

# Normal
vn 0 0 -1

# Mesh description
g ciudadPrincipal_mesh_0005

# Faces
f 1/1/1 2/2/1 3/3/1 4/4/1
f 5/1/1 6/2/1 7/3/1 8/4/1
f 9/1/1 10/2/1 11/3/1 12/4/1
f 13/1/1 14/2/1 15/3/1 16/4/1
f 17/1/1 18/2/1 19/3/1 20/4/1
f 21/1/1 22/2/1 23/3/1 24/4/1
f 25/1/1 26/2/1 27/3/1 28/4/1
f 29/2/1 30/5/1 31/6/1 32/3/1
f 33/7/1 34/8/1 35/2/1 36/1/1
f 37/8/1 38/9/1 39/5/1 40/2/1
f 41/7/1 42/8/1 43/2/1 44/1/1
f 45/8/1 46/9/1 47/5/1 48/2/1
f 49/7/1 50/8/1 51/2/1 52/1/1
f 53/8/1 54/9/1 55/5/1 56/2/1
f 57/10/1 58/11/1 59/8/1 60/7/1
f 61/11/1 62/12/1 63/9/1 64/8/1
f 65/10/1 66/11/1 67/8/1 68/7/1
f 69/11/1 70/12/1 71/9/1 72/8/1
f 73/10/1 74/11/1 75/8/1 76/7/1
f 77/11/1 78/12/1 79/9/1 80/8/1
f 81/13/1 82/14/1 83/11/1 84/10/1
f 85/14/1 86/15/1 87/12/1 88/11/1
f 89/13/1 90/14/1 91/11/1 92/10/1
f 93/14/1 94/15/1 95/12/1 96/11/1
f 97/13/1 98/14/1 99/11/1 100/10/1
f 101/14/1 102/15/1 103/12/1 104/11/1

