# Tiled2Unity generated file. Do not modify by hand.
# Wavefront file for 'ciudadPrincipal_mesh_0029.obj'

# Vertices (Count = 936)
v -7.5 -7.5 0
v -8 -7.5 0
v -8 -7 0
v -7.5 -7 0
v -8 -7.5 0
v -8.5 -7.5 0
v -8.5 -7 0
v -8 -7 0
v -7.5 -8 0
v -8 -8 0
v -8 -7.5 0
v -7.5 -7.5 0
v -8 -8 0
v -8.5 -8 0
v -8.5 -7.5 0
v -8 -7.5 0
v -1.5 -8.5 0
v -2 -8.5 0
v -2 -8 0
v -1.5 -8 0
v -4.5 -8.5 0
v -5 -8.5 0
v -5 -8 0
v -4.5 -8 0
v -5 -8.5 0
v -5.5 -8.5 0
v -5.5 -8 0
v -5 -8 0
v -5.5 -8.5 0
v -6 -8.5 0
v -6 -8 0
v -5.5 -8 0
v -6 -8.5 0
v -6.5 -8.5 0
v -6.5 -8 0
v -6 -8 0
v -6.5 -8.5 0
v -7 -8.5 0
v -7 -8 0
v -6.5 -8 0
v -7 -8.5 0
v -7.5 -8.5 0
v -7.5 -8 0
v -7 -8 0
v -7.5 -8.5 0
v -8 -8.5 0
v -8 -8 0
v -7.5 -8 0
v -8 -8.5 0
v -8.5 -8.5 0
v -8.5 -8 0
v -8 -8 0
v -8.5 -8.5 0
v -9 -8.5 0
v -9 -8 0
v -8.5 -8 0
v -9 -8.5 0
v -9.5 -8.5 0
v -9.5 -8 0
v -9 -8 0
v -9.5 -8.5 0
v -10 -8.5 0
v -10 -8 0
v -9.5 -8 0
v -10 -8.5 0
v -10.5 -8.5 0
v -10.5 -8 0
v -10 -8 0
v -10.5 -8.5 0
v -11 -8.5 0
v -11 -8 0
v -10.5 -8 0
v -11 -8.5 0
v -11.5 -8.5 0
v -11.5 -8 0
v -11 -8 0
v -1 -9 0
v -1.5 -9 0
v -1.5 -8.5 0
v -1 -8.5 0
v -1.5 -9 0
v -2 -9 0
v -2 -8.5 0
v -1.5 -8.5 0
v -2 -9 0
v -2.5 -9 0
v -2.5 -8.5 0
v -2 -8.5 0
v -2.5 -9 0
v -3 -9 0
v -3 -8.5 0
v -2.5 -8.5 0
v -3 -9 0
v -3.5 -9 0
v -3.5 -8.5 0
v -3 -8.5 0
v -3.5 -9 0
v -4 -9 0
v -4 -8.5 0
v -3.5 -8.5 0
v -4 -9 0
v -4.5 -9 0
v -4.5 -8.5 0
v -4 -8.5 0
v -4.5 -9 0
v -5 -9 0
v -5 -8.5 0
v -4.5 -8.5 0
v -5 -9 0
v -5.5 -9 0
v -5.5 -8.5 0
v -5 -8.5 0
v -5.5 -9 0
v -6 -9 0
v -6 -8.5 0
v -5.5 -8.5 0
v -6 -9 0
v -6.5 -9 0
v -6.5 -8.5 0
v -6 -8.5 0
v -6.5 -9 0
v -7 -9 0
v -7 -8.5 0
v -6.5 -8.5 0
v -7 -9 0
v -7.5 -9 0
v -7.5 -8.5 0
v -7 -8.5 0
v -7.5 -9 0
v -8 -9 0
v -8 -8.5 0
v -7.5 -8.5 0
v -8 -9 0
v -8.5 -9 0
v -8.5 -8.5 0
v -8 -8.5 0
v -8.5 -9 0
v -9 -9 0
v -9 -8.5 0
v -8.5 -8.5 0
v -9 -9 0
v -9.5 -9 0
v -9.5 -8.5 0
v -9 -8.5 0
v -9.5 -9 0
v -10 -9 0
v -10 -8.5 0
v -9.5 -8.5 0
v -10 -9 0
v -10.5 -9 0
v -10.5 -8.5 0
v -10 -8.5 0
v -10.5 -9 0
v -11 -9 0
v -11 -8.5 0
v -10.5 -8.5 0
v -1.5 -9.5 0
v -2 -9.5 0
v -2 -9 0
v -1.5 -9 0
v -11.5 -16.5 0
v -12 -16.5 0
v -12 -16 0
v -11.5 -16 0
v -12 -16.5 0
v -12.5 -16.5 0
v -12.5 -16 0
v -12 -16 0
v -17.5 -16.5 0
v -18 -16.5 0
v -18 -16 0
v -17.5 -16 0
v -18 -16.5 0
v -18.5 -16.5 0
v -18.5 -16 0
v -18 -16 0
v -11.5 -17 0
v -12 -17 0
v -12 -16.5 0
v -11.5 -16.5 0
v -12 -17 0
v -12.5 -17 0
v -12.5 -16.5 0
v -12 -16.5 0
v -17.5 -17 0
v -18 -17 0
v -18 -16.5 0
v -17.5 -16.5 0
v -18 -17 0
v -18.5 -17 0
v -18.5 -16.5 0
v -18 -16.5 0
v -8.5 -17.5 0
v -9 -17.5 0
v -9 -17 0
v -8.5 -17 0
v -9 -17.5 0
v -9.5 -17.5 0
v -9.5 -17 0
v -9 -17 0
v -9.5 -17.5 0
v -10 -17.5 0
v -10 -17 0
v -9.5 -17 0
v -10 -17.5 0
v -10.5 -17.5 0
v -10.5 -17 0
v -10 -17 0
v -10.5 -17.5 0
v -11 -17.5 0
v -11 -17 0
v -10.5 -17 0
v -11 -17.5 0
v -11.5 -17.5 0
v -11.5 -17 0
v -11 -17 0
v -11.5 -17.5 0
v -12 -17.5 0
v -12 -17 0
v -11.5 -17 0
v -12 -17.5 0
v -12.5 -17.5 0
v -12.5 -17 0
v -12 -17 0
v -12.5 -17.5 0
v -13 -17.5 0
v -13 -17 0
v -12.5 -17 0
v -13 -17.5 0
v -13.5 -17.5 0
v -13.5 -17 0
v -13 -17 0
v -13.5 -17.5 0
v -14 -17.5 0
v -14 -17 0
v -13.5 -17 0
v -14 -17.5 0
v -14.5 -17.5 0
v -14.5 -17 0
v -14 -17 0
v -14.5 -17.5 0
v -15 -17.5 0
v -15 -17 0
v -14.5 -17 0
v -15 -17.5 0
v -15.5 -17.5 0
v -15.5 -17 0
v -15 -17 0
v -15.5 -17.5 0
v -16 -17.5 0
v -16 -17 0
v -15.5 -17 0
v -16 -17.5 0
v -16.5 -17.5 0
v -16.5 -17 0
v -16 -17 0
v -16.5 -17.5 0
v -17 -17.5 0
v -17 -17 0
v -16.5 -17 0
v -17 -17.5 0
v -17.5 -17.5 0
v -17.5 -17 0
v -17 -17 0
v -17.5 -17.5 0
v -18 -17.5 0
v -18 -17 0
v -17.5 -17 0
v -18 -17.5 0
v -18.5 -17.5 0
v -18.5 -17 0
v -18 -17 0
v -11 -18 0
v -11.5 -18 0
v -11.5 -17.5 0
v -11 -17.5 0
v -11.5 -18 0
v -12 -18 0
v -12 -17.5 0
v -11.5 -17.5 0
v -12 -18 0
v -12.5 -18 0
v -12.5 -17.5 0
v -12 -17.5 0
v -12.5 -18 0
v -13 -18 0
v -13 -17.5 0
v -12.5 -17.5 0
v -13 -18 0
v -13.5 -18 0
v -13.5 -17.5 0
v -13 -17.5 0
v -13.5 -18 0
v -14 -18 0
v -14 -17.5 0
v -13.5 -17.5 0
v -14 -18 0
v -14.5 -18 0
v -14.5 -17.5 0
v -14 -17.5 0
v -14.5 -18 0
v -15 -18 0
v -15 -17.5 0
v -14.5 -17.5 0
v -15 -18 0
v -15.5 -18 0
v -15.5 -17.5 0
v -15 -17.5 0
v -15.5 -18 0
v -16 -18 0
v -16 -17.5 0
v -15.5 -17.5 0
v -16 -18 0
v -16.5 -18 0
v -16.5 -17.5 0
v -16 -17.5 0
v -16.5 -18 0
v -17 -18 0
v -17 -17.5 0
v -16.5 -17.5 0
v -17 -18 0
v -17.5 -18 0
v -17.5 -17.5 0
v -17 -17.5 0
v -17.5 -18 0
v -18 -18 0
v -18 -17.5 0
v -17.5 -17.5 0
v -18 -18 0
v -18.5 -18 0
v -18.5 -17.5 0
v -18 -17.5 0
v -18.5 -18 0
v -19 -18 0
v -19 -17.5 0
v -18.5 -17.5 0
v -19 -18 0
v -19.5 -18 0
v -19.5 -17.5 0
v -19 -17.5 0
v -19.5 -18 0
v -20 -18 0
v -20 -17.5 0
v -19.5 -17.5 0
v -2.5 -25.5 0
v -3 -25.5 0
v -3 -25 0
v -2.5 -25 0
v -3 -25.5 0
v -3.5 -25.5 0
v -3.5 -25 0
v -3 -25 0
v -2.5 -26 0
v -3 -26 0
v -3 -25.5 0
v -2.5 -25.5 0
v -3 -26 0
v -3.5 -26 0
v -3.5 -25.5 0
v -3 -25.5 0
v -3.5 -26 0
v -4 -26 0
v -4 -25.5 0
v -3.5 -25.5 0
v -4 -26 0
v -4.5 -26 0
v -4.5 -25.5 0
v -4 -25.5 0
v -4.5 -26 0
v -5 -26 0
v -5 -25.5 0
v -4.5 -25.5 0
v -5 -26 0
v -5.5 -26 0
v -5.5 -25.5 0
v -5 -25.5 0
v -5.5 -26 0
v -6 -26 0
v -6 -25.5 0
v -5.5 -25.5 0
v -6 -26 0
v -6.5 -26 0
v -6.5 -25.5 0
v -6 -25.5 0
v -6.5 -26 0
v -7 -26 0
v -7 -25.5 0
v -6.5 -25.5 0
v -27.5 -26 0
v -28 -26 0
v -28 -25.5 0
v -27.5 -25.5 0
v -28 -26 0
v -28.5 -26 0
v -28.5 -25.5 0
v -28 -25.5 0
v -28.5 -26 0
v -29 -26 0
v -29 -25.5 0
v -28.5 -25.5 0
v -2.5 -26.5 0
v -3 -26.5 0
v -3 -26 0
v -2.5 -26 0
v -3 -26.5 0
v -3.5 -26.5 0
v -3.5 -26 0
v -3 -26 0
v -3.5 -26.5 0
v -4 -26.5 0
v -4 -26 0
v -3.5 -26 0
v -4 -26.5 0
v -4.5 -26.5 0
v -4.5 -26 0
v -4 -26 0
v -4.5 -26.5 0
v -5 -26.5 0
v -5 -26 0
v -4.5 -26 0
v -5 -26.5 0
v -5.5 -26.5 0
v -5.5 -26 0
v -5 -26 0
v -5.5 -26.5 0
v -6 -26.5 0
v -6 -26 0
v -5.5 -26 0
v -6 -26.5 0
v -6.5 -26.5 0
v -6.5 -26 0
v -6 -26 0
v -6.5 -26.5 0
v -7 -26.5 0
v -7 -26 0
v -6.5 -26 0
v -27 -26.5 0
v -27.5 -26.5 0
v -27.5 -26 0
v -27 -26 0
v -27.5 -26.5 0
v -28 -26.5 0
v -28 -26 0
v -27.5 -26 0
v -28 -26.5 0
v -28.5 -26.5 0
v -28.5 -26 0
v -28 -26 0
v -28.5 -26.5 0
v -29 -26.5 0
v -29 -26 0
v -28.5 -26 0
v -28 -27 0
v -28.5 -27 0
v -28.5 -26.5 0
v -28 -26.5 0
v -28.5 -27 0
v -29 -27 0
v -29 -26.5 0
v -28.5 -26.5 0
v -28 -27.5 0
v -28.5 -27.5 0
v -28.5 -27 0
v -28 -27 0
v -28.5 -27.5 0
v -29 -27.5 0
v -29 -27 0
v -28.5 -27 0
v -28 -28 0
v -28.5 -28 0
v -28.5 -27.5 0
v -28 -27.5 0
v -28.5 -28 0
v -29 -28 0
v -29 -27.5 0
v -28.5 -27.5 0
v -28 -28.5 0
v -28.5 -28.5 0
v -28.5 -28 0
v -28 -28 0
v -28.5 -28.5 0
v -29 -28.5 0
v -29 -28 0
v -28.5 -28 0
v -28 -29 0
v -28.5 -29 0
v -28.5 -28.5 0
v -28 -28.5 0
v -28.5 -29 0
v -29 -29 0
v -29 -28.5 0
v -28.5 -28.5 0
v -28 -29.5 0
v -28.5 -29.5 0
v -28.5 -29 0
v -28 -29 0
v -28.5 -29.5 0
v -29 -29.5 0
v -29 -29 0
v -28.5 -29 0
v -28 -30 0
v -28.5 -30 0
v -28.5 -29.5 0
v -28 -29.5 0
v -28.5 -30 0
v -29 -30 0
v -29 -29.5 0
v -28.5 -29.5 0
v -28 -30.5 0
v -28.5 -30.5 0
v -28.5 -30 0
v -28 -30 0
v -28.5 -30.5 0
v -29 -30.5 0
v -29 -30 0
v -28.5 -30 0
v -28 -31 0
v -28.5 -31 0
v -28.5 -30.5 0
v -28 -30.5 0
v -28.5 -31 0
v -29 -31 0
v -29 -30.5 0
v -28.5 -30.5 0
v -28 -31.5 0
v -28.5 -31.5 0
v -28.5 -31 0
v -28 -31 0
v -28.5 -31.5 0
v -29 -31.5 0
v -29 -31 0
v -28.5 -31 0
v -28 -32 0
v -28.5 -32 0
v -28.5 -31.5 0
v -28 -31.5 0
v -28.5 -32 0
v -29 -32 0
v -29 -31.5 0
v -28.5 -31.5 0
v -28 -32.5 0
v -28.5 -32.5 0
v -28.5 -32 0
v -28 -32 0
v -28.5 -32.5 0
v -29 -32.5 0
v -29 -32 0
v -28.5 -32 0
v -11.5 -33 0
v -12 -33 0
v -12 -32.5 0
v -11.5 -32.5 0
v -28 -33 0
v -28.5 -33 0
v -28.5 -32.5 0
v -28 -32.5 0
v -28.5 -33 0
v -29 -33 0
v -29 -32.5 0
v -28.5 -32.5 0
v -11 -33.5 0
v -11.5 -33.5 0
v -11.5 -33 0
v -11 -33 0
v -11.5 -33.5 0
v -12 -33.5 0
v -12 -33 0
v -11.5 -33 0
v -28 -33.5 0
v -28.5 -33.5 0
v -28.5 -33 0
v -28 -33 0
v -28.5 -33.5 0
v -29 -33.5 0
v -29 -33 0
v -28.5 -33 0
v -11 -34 0
v -11.5 -34 0
v -11.5 -33.5 0
v -11 -33.5 0
v -11.5 -34 0
v -12 -34 0
v -12 -33.5 0
v -11.5 -33.5 0
v -15.5 -34 0
v -16 -34 0
v -16 -33.5 0
v -15.5 -33.5 0
v -16 -34 0
v -16.5 -34 0
v -16.5 -33.5 0
v -16 -33.5 0
v -25 -34 0
v -25.5 -34 0
v -25.5 -33.5 0
v -25 -33.5 0
v -25.5 -34 0
v -26 -34 0
v -26 -33.5 0
v -25.5 -33.5 0
v -28 -34 0
v -28.5 -34 0
v -28.5 -33.5 0
v -28 -33.5 0
v -28.5 -34 0
v -29 -34 0
v -29 -33.5 0
v -28.5 -33.5 0
v -11 -34.5 0
v -11.5 -34.5 0
v -11.5 -34 0
v -11 -34 0
v -11.5 -34.5 0
v -12 -34.5 0
v -12 -34 0
v -11.5 -34 0
v -15.5 -34.5 0
v -16 -34.5 0
v -16 -34 0
v -15.5 -34 0
v -16 -34.5 0
v -16.5 -34.5 0
v -16.5 -34 0
v -16 -34 0
v -25 -34.5 0
v -25.5 -34.5 0
v -25.5 -34 0
v -25 -34 0
v -25.5 -34.5 0
v -26 -34.5 0
v -26 -34 0
v -25.5 -34 0
v -28 -34.5 0
v -28.5 -34.5 0
v -28.5 -34 0
v -28 -34 0
v -28.5 -34.5 0
v -29 -34.5 0
v -29 -34 0
v -28.5 -34 0
v -11 -35 0
v -11.5 -35 0
v -11.5 -34.5 0
v -11 -34.5 0
v -11.5 -35 0
v -12 -35 0
v -12 -34.5 0
v -11.5 -34.5 0
v -12 -35 0
v -12.5 -35 0
v -12.5 -34.5 0
v -12 -34.5 0
v -12.5 -35 0
v -13 -35 0
v -13 -34.5 0
v -12.5 -34.5 0
v -13 -35 0
v -13.5 -35 0
v -13.5 -34.5 0
v -13 -34.5 0
v -13.5 -35 0
v -14 -35 0
v -14 -34.5 0
v -13.5 -34.5 0
v -14 -35 0
v -14.5 -35 0
v -14.5 -34.5 0
v -14 -34.5 0
v -14.5 -35 0
v -15 -35 0
v -15 -34.5 0
v -14.5 -34.5 0
v -15 -35 0
v -15.5 -35 0
v -15.5 -34.5 0
v -15 -34.5 0
v -15.5 -35 0
v -16 -35 0
v -16 -34.5 0
v -15.5 -34.5 0
v -16 -35 0
v -16.5 -35 0
v -16.5 -34.5 0
v -16 -34.5 0
v -16.5 -35 0
v -17 -35 0
v -17 -34.5 0
v -16.5 -34.5 0
v -17 -35 0
v -17.5 -35 0
v -17.5 -34.5 0
v -17 -34.5 0
v -17.5 -35 0
v -18 -35 0
v -18 -34.5 0
v -17.5 -34.5 0
v -18 -35 0
v -18.5 -35 0
v -18.5 -34.5 0
v -18 -34.5 0
v -18.5 -35 0
v -19 -35 0
v -19 -34.5 0
v -18.5 -34.5 0
v -19 -35 0
v -19.5 -35 0
v -19.5 -34.5 0
v -19 -34.5 0
v -19.5 -35 0
v -20 -35 0
v -20 -34.5 0
v -19.5 -34.5 0
v -20 -35 0
v -20.5 -35 0
v -20.5 -34.5 0
v -20 -34.5 0
v -20.5 -35 0
v -21 -35 0
v -21 -34.5 0
v -20.5 -34.5 0
v -21 -35 0
v -21.5 -35 0
v -21.5 -34.5 0
v -21 -34.5 0
v -21.5 -35 0
v -22 -35 0
v -22 -34.5 0
v -21.5 -34.5 0
v -22 -35 0
v -22.5 -35 0
v -22.5 -34.5 0
v -22 -34.5 0
v -22.5 -35 0
v -23 -35 0
v -23 -34.5 0
v -22.5 -34.5 0
v -23 -35 0
v -23.5 -35 0
v -23.5 -34.5 0
v -23 -34.5 0
v -23.5 -35 0
v -24 -35 0
v -24 -34.5 0
v -23.5 -34.5 0
v -24 -35 0
v -24.5 -35 0
v -24.5 -34.5 0
v -24 -34.5 0
v -24.5 -35 0
v -25 -35 0
v -25 -34.5 0
v -24.5 -34.5 0
v -25 -35 0
v -25.5 -35 0
v -25.5 -34.5 0
v -25 -34.5 0
v -25.5 -35 0
v -26 -35 0
v -26 -34.5 0
v -25.5 -34.5 0
v -26 -35 0
v -26.5 -35 0
v -26.5 -34.5 0
v -26 -34.5 0
v -26.5 -35 0
v -27 -35 0
v -27 -34.5 0
v -26.5 -34.5 0
v -27 -35 0
v -27.5 -35 0
v -27.5 -34.5 0
v -27 -34.5 0
v -27.5 -35 0
v -28 -35 0
v -28 -34.5 0
v -27.5 -34.5 0
v -28 -35 0
v -28.5 -35 0
v -28.5 -34.5 0
v -28 -34.5 0
v -28.5 -35 0
v -29 -35 0
v -29 -34.5 0
v -28.5 -34.5 0
v -11 -35.5 0
v -11.5 -35.5 0
v -11.5 -35 0
v -11 -35 0
v -11.5 -35.5 0
v -12 -35.5 0
v -12 -35 0
v -11.5 -35 0
v -12 -35.5 0
v -12.5 -35.5 0
v -12.5 -35 0
v -12 -35 0
v -12.5 -35.5 0
v -13 -35.5 0
v -13 -35 0
v -12.5 -35 0
v -13 -35.5 0
v -13.5 -35.5 0
v -13.5 -35 0
v -13 -35 0
v -13.5 -35.5 0
v -14 -35.5 0
v -14 -35 0
v -13.5 -35 0
v -14 -35.5 0
v -14.5 -35.5 0
v -14.5 -35 0
v -14 -35 0
v -14.5 -35.5 0
v -15 -35.5 0
v -15 -35 0
v -14.5 -35 0
v -15 -35.5 0
v -15.5 -35.5 0
v -15.5 -35 0
v -15 -35 0
v -15.5 -35.5 0
v -16 -35.5 0
v -16 -35 0
v -15.5 -35 0
v -16 -35.5 0
v -16.5 -35.5 0
v -16.5 -35 0
v -16 -35 0
v -16.5 -35.5 0
v -17 -35.5 0
v -17 -35 0
v -16.5 -35 0
v -17 -35.5 0
v -17.5 -35.5 0
v -17.5 -35 0
v -17 -35 0
v -17.5 -35.5 0
v -18 -35.5 0
v -18 -35 0
v -17.5 -35 0
v -18 -35.5 0
v -18.5 -35.5 0
v -18.5 -35 0
v -18 -35 0
v -18.5 -35.5 0
v -19 -35.5 0
v -19 -35 0
v -18.5 -35 0
v -19 -35.5 0
v -19.5 -35.5 0
v -19.5 -35 0
v -19 -35 0
v -19.5 -35.5 0
v -20 -35.5 0
v -20 -35 0
v -19.5 -35 0
v -20 -35.5 0
v -20.5 -35.5 0
v -20.5 -35 0
v -20 -35 0
v -20.5 -35.5 0
v -21 -35.5 0
v -21 -35 0
v -20.5 -35 0
v -21 -35.5 0
v -21.5 -35.5 0
v -21.5 -35 0
v -21 -35 0
v -21.5 -35.5 0
v -22 -35.5 0
v -22 -35 0
v -21.5 -35 0
v -22 -35.5 0
v -22.5 -35.5 0
v -22.5 -35 0
v -22 -35 0
v -22.5 -35.5 0
v -23 -35.5 0
v -23 -35 0
v -22.5 -35 0
v -23 -35.5 0
v -23.5 -35.5 0
v -23.5 -35 0
v -23 -35 0
v -23.5 -35.5 0
v -24 -35.5 0
v -24 -35 0
v -23.5 -35 0
v -24 -35.5 0
v -24.5 -35.5 0
v -24.5 -35 0
v -24 -35 0
v -24.5 -35.5 0
v -25 -35.5 0
v -25 -35 0
v -24.5 -35 0
v -25 -35.5 0
v -25.5 -35.5 0
v -25.5 -35 0
v -25 -35 0
v -25.5 -35.5 0
v -26 -35.5 0
v -26 -35 0
v -25.5 -35 0
v -26 -35.5 0
v -26.5 -35.5 0
v -26.5 -35 0
v -26 -35 0
v -26.5 -35.5 0
v -27 -35.5 0
v -27 -35 0
v -26.5 -35 0
v -27 -35.5 0
v -27.5 -35.5 0
v -27.5 -35 0
v -27 -35 0
v -27.5 -35.5 0
v -28 -35.5 0
v -28 -35 0
v -27.5 -35 0
v -28 -35.5 0
v -28.5 -35.5 0
v -28.5 -35 0
v -28 -35 0
v -28.5 -35.5 0
v -29 -35.5 0
v -29 -35 0
v -28.5 -35 0
v -7.5 -54.5 0
v -8 -54.5 0
v -8 -54 0
v -7.5 -54 0
v -7.5 -55 0
v -8 -55 0
v -8 -54.5 0
v -7.5 -54.5 0

# Texture cooridinates (Count = 39)
vt 0.375 0.8333333
vt 0.40625 0.8333333
vt 0.40625 0.875
vt 0.375 0.875
vt 0.46875 0.8333333
vt 0.5 0.8333333
vt 0.5 0.875
vt 0.46875 0.875
vt 0.375 0.7916667
vt 0.40625 0.7916667
vt 0.46875 0.7916667
vt 0.5 0.7916667
vt 0.4375 0.875
vt 0.4375 0.9166667
vt 0.40625 0.9166667
vt 0.46875 0.9166667
vt 0.4375 0.9583333
vt 0.46875 0.9583333
vt 0.46875 1
vt 0.4375 1
vt 0.5 0.9583333
vt 0.5 1
vt 0.03125 0.875
vt 0.0625 0.875
vt 0.0625 0.9166667
vt 0.03125 0.9166667
vt 0.375 0.75
vt 0.40625 0.75
vt 0.4375 0.75
vt 0.4375 0.7916667
vt 0.46875 0.75
vt 0.5 0.9166667
vt 0.5 0.75
vt 0.15625 0.9583333
vt 0.1875 0.9583333
vt 0.1875 1
vt 0.15625 1
vt 0.15625 0.9166667
vt 0.1875 0.9166667

# Normal
vn 0 0 -1

# Mesh description
g ciudadPrincipal_mesh_0029

# Faces
f 1/1/1 2/2/1 3/3/1 4/4/1
f 5/5/1 6/6/1 7/7/1 8/8/1
f 9/9/1 10/10/1 11/2/1 12/1/1
f 13/11/1 14/12/1 15/6/1 16/5/1
f 17/9/1 18/10/1 19/2/1 20/1/1
f 21/3/1 22/13/1 23/14/1 24/15/1
f 25/13/1 26/8/1 27/16/1 28/14/1
f 29/3/1 30/13/1 31/14/1 32/15/1
f 33/13/1 34/8/1 35/16/1 36/14/1
f 37/3/1 38/13/1 39/14/1 40/15/1
f 41/13/1 42/8/1 43/16/1 44/14/1
f 45/17/1 46/18/1 47/19/1 48/20/1
f 49/18/1 50/21/1 51/22/1 52/19/1
f 53/3/1 54/13/1 55/14/1 56/15/1
f 57/13/1 58/8/1 59/16/1 60/14/1
f 61/3/1 62/13/1 63/14/1 64/15/1
f 65/13/1 66/8/1 67/16/1 68/14/1
f 69/3/1 70/13/1 71/14/1 72/15/1
f 73/13/1 74/8/1 75/16/1 76/14/1
f 77/23/1 78/24/1 79/25/1 80/26/1
f 81/27/1 82/28/1 83/10/1 84/9/1
f 85/28/1 86/29/1 87/30/1 88/10/1
f 89/29/1 90/31/1 91/11/1 92/30/1
f 93/28/1 94/29/1 95/30/1 96/10/1
f 97/29/1 98/31/1 99/11/1 100/30/1
f 101/28/1 102/29/1 103/30/1 104/10/1
f 105/29/1 106/31/1 107/11/1 108/30/1
f 109/28/1 110/29/1 111/30/1 112/10/1
f 113/29/1 114/31/1 115/11/1 116/30/1
f 117/28/1 118/29/1 119/30/1 120/10/1
f 121/29/1 122/31/1 123/11/1 124/30/1
f 125/28/1 126/29/1 127/30/1 128/10/1
f 129/29/1 130/31/1 131/11/1 132/30/1
f 133/28/1 134/29/1 135/30/1 136/10/1
f 137/29/1 138/31/1 139/11/1 140/30/1
f 141/28/1 142/29/1 143/30/1 144/10/1
f 145/29/1 146/31/1 147/11/1 148/30/1
f 149/28/1 150/29/1 151/30/1 152/10/1
f 153/29/1 154/31/1 155/11/1 156/30/1
f 157/23/1 158/24/1 159/25/1 160/26/1
f 161/1/1 162/2/1 163/3/1 164/4/1
f 165/5/1 166/6/1 167/7/1 168/8/1
f 169/1/1 170/2/1 171/3/1 172/4/1
f 173/5/1 174/6/1 175/7/1 176/8/1
f 177/9/1 178/10/1 179/2/1 180/1/1
f 181/11/1 182/12/1 183/6/1 184/5/1
f 185/9/1 186/10/1 187/2/1 188/1/1
f 189/11/1 190/12/1 191/6/1 192/5/1
f 193/3/1 194/13/1 195/14/1 196/15/1
f 197/13/1 198/8/1 199/16/1 200/14/1
f 201/3/1 202/13/1 203/14/1 204/15/1
f 205/13/1 206/8/1 207/16/1 208/14/1
f 209/3/1 210/13/1 211/14/1 212/15/1
f 213/13/1 214/8/1 215/16/1 216/14/1
f 217/17/1 218/18/1 219/19/1 220/20/1
f 221/18/1 222/21/1 223/22/1 224/19/1
f 225/3/1 226/13/1 227/14/1 228/15/1
f 229/13/1 230/8/1 231/16/1 232/14/1
f 233/3/1 234/13/1 235/14/1 236/15/1
f 237/13/1 238/8/1 239/16/1 240/14/1
f 241/3/1 242/13/1 243/14/1 244/15/1
f 245/13/1 246/8/1 247/16/1 248/14/1
f 249/3/1 250/13/1 251/14/1 252/15/1
f 253/13/1 254/8/1 255/16/1 256/14/1
f 257/3/1 258/13/1 259/14/1 260/15/1
f 261/13/1 262/8/1 263/16/1 264/14/1
f 265/17/1 266/18/1 267/19/1 268/20/1
f 269/18/1 270/21/1 271/22/1 272/19/1
f 273/28/1 274/29/1 275/30/1 276/10/1
f 277/29/1 278/31/1 279/11/1 280/30/1
f 281/28/1 282/29/1 283/30/1 284/10/1
f 285/29/1 286/31/1 287/11/1 288/30/1
f 289/28/1 290/29/1 291/30/1 292/10/1
f 293/29/1 294/31/1 295/11/1 296/30/1
f 297/28/1 298/29/1 299/30/1 300/10/1
f 301/29/1 302/31/1 303/11/1 304/30/1
f 305/28/1 306/29/1 307/30/1 308/10/1
f 309/29/1 310/31/1 311/11/1 312/30/1
f 313/28/1 314/29/1 315/30/1 316/10/1
f 317/29/1 318/31/1 319/11/1 320/30/1
f 321/28/1 322/29/1 323/30/1 324/10/1
f 325/29/1 326/31/1 327/11/1 328/30/1
f 329/28/1 330/29/1 331/30/1 332/10/1
f 333/29/1 334/31/1 335/11/1 336/30/1
f 337/28/1 338/29/1 339/30/1 340/10/1
f 341/29/1 342/31/1 343/11/1 344/30/1
f 345/1/1 346/2/1 347/3/1 348/4/1
f 349/5/1 350/6/1 351/7/1 352/8/1
f 353/9/1 354/10/1 355/2/1 356/1/1
f 357/18/1 358/21/1 359/22/1 360/19/1
f 361/3/1 362/13/1 363/14/1 364/15/1
f 365/13/1 366/8/1 367/16/1 368/14/1
f 369/3/1 370/13/1 371/14/1 372/15/1
f 373/13/1 374/8/1 375/16/1 376/14/1
f 377/3/1 378/13/1 379/14/1 380/15/1
f 381/13/1 382/8/1 383/16/1 384/14/1
f 385/3/1 386/13/1 387/14/1 388/15/1
f 389/18/1 390/21/1 391/22/1 392/19/1
f 393/13/1 394/8/1 395/16/1 396/14/1
f 397/8/1 398/7/1 399/32/1 400/16/1
f 401/27/1 402/28/1 403/10/1 404/9/1
f 405/28/1 406/29/1 407/30/1 408/10/1
f 409/29/1 410/31/1 411/11/1 412/30/1
f 413/28/1 414/29/1 415/30/1 416/10/1
f 417/29/1 418/31/1 419/11/1 420/30/1
f 421/28/1 422/29/1 423/30/1 424/10/1
f 425/29/1 426/31/1 427/11/1 428/30/1
f 429/28/1 430/29/1 431/30/1 432/10/1
f 433/29/1 434/31/1 435/11/1 436/30/1
f 437/28/1 438/29/1 439/30/1 440/10/1
f 441/29/1 442/31/1 443/11/1 444/30/1
f 445/14/1 446/16/1 447/18/1 448/17/1
f 449/5/1 450/6/1 451/7/1 452/8/1
f 453/1/1 454/2/1 455/3/1 456/4/1
f 457/11/1 458/12/1 459/6/1 460/5/1
f 461/9/1 462/10/1 463/2/1 464/1/1
f 465/5/1 466/6/1 467/7/1 468/8/1
f 469/1/1 470/2/1 471/3/1 472/4/1
f 473/11/1 474/12/1 475/6/1 476/5/1
f 477/9/1 478/10/1 479/2/1 480/1/1
f 481/5/1 482/6/1 483/7/1 484/8/1
f 485/1/1 486/2/1 487/3/1 488/4/1
f 489/11/1 490/12/1 491/6/1 492/5/1
f 493/9/1 494/10/1 495/2/1 496/1/1
f 497/5/1 498/6/1 499/7/1 500/8/1
f 501/1/1 502/2/1 503/3/1 504/4/1
f 505/11/1 506/12/1 507/6/1 508/5/1
f 509/9/1 510/10/1 511/2/1 512/1/1
f 513/5/1 514/6/1 515/7/1 516/8/1
f 517/1/1 518/2/1 519/3/1 520/4/1
f 521/11/1 522/12/1 523/6/1 524/5/1
f 525/9/1 526/10/1 527/2/1 528/1/1
f 529/5/1 530/6/1 531/7/1 532/8/1
f 533/1/1 534/2/1 535/3/1 536/4/1
f 537/11/1 538/12/1 539/6/1 540/5/1
f 541/1/1 542/2/1 543/3/1 544/4/1
f 545/5/1 546/6/1 547/7/1 548/8/1
f 549/8/1 550/7/1 551/32/1 552/16/1
f 553/9/1 554/10/1 555/2/1 556/1/1
f 557/11/1 558/12/1 559/6/1 560/5/1
f 561/14/1 562/16/1 563/18/1 564/17/1
f 565/5/1 566/6/1 567/7/1 568/8/1
f 569/1/1 570/2/1 571/3/1 572/4/1
f 573/5/1 574/6/1 575/7/1 576/8/1
f 577/1/1 578/2/1 579/3/1 580/4/1
f 581/5/1 582/6/1 583/7/1 584/8/1
f 585/1/1 586/2/1 587/3/1 588/4/1
f 589/5/1 590/6/1 591/7/1 592/8/1
f 593/1/1 594/2/1 595/3/1 596/4/1
f 597/5/1 598/6/1 599/7/1 600/8/1
f 601/1/1 602/2/1 603/3/1 604/4/1
f 605/11/1 606/12/1 607/6/1 608/5/1
f 609/1/1 610/2/1 611/3/1 612/4/1
f 613/11/1 614/12/1 615/6/1 616/5/1
f 617/9/1 618/10/1 619/2/1 620/1/1
f 621/11/1 622/12/1 623/6/1 624/5/1
f 625/9/1 626/10/1 627/2/1 628/1/1
f 629/11/1 630/12/1 631/6/1 632/5/1
f 633/9/1 634/10/1 635/2/1 636/1/1
f 637/5/1 638/6/1 639/7/1 640/8/1
f 641/9/1 642/10/1 643/2/1 644/1/1
f 645/18/1 646/21/1 647/22/1 648/19/1
f 649/13/1 650/8/1 651/16/1 652/14/1
f 653/3/1 654/13/1 655/14/1 656/15/1
f 657/13/1 658/8/1 659/16/1 660/14/1
f 661/3/1 662/13/1 663/14/1 664/15/1
f 665/13/1 666/8/1 667/16/1 668/14/1
f 669/3/1 670/13/1 671/14/1 672/15/1
f 673/13/1 674/8/1 675/16/1 676/14/1
f 677/17/1 678/18/1 679/19/1 680/20/1
f 681/18/1 682/21/1 683/22/1 684/19/1
f 685/3/1 686/13/1 687/14/1 688/15/1
f 689/13/1 690/8/1 691/16/1 692/14/1
f 693/3/1 694/13/1 695/14/1 696/15/1
f 697/13/1 698/8/1 699/16/1 700/14/1
f 701/3/1 702/13/1 703/14/1 704/15/1
f 705/13/1 706/8/1 707/16/1 708/14/1
f 709/3/1 710/13/1 711/14/1 712/15/1
f 713/13/1 714/8/1 715/16/1 716/14/1
f 717/3/1 718/13/1 719/14/1 720/15/1
f 721/13/1 722/8/1 723/16/1 724/14/1
f 725/3/1 726/13/1 727/14/1 728/15/1
f 729/13/1 730/8/1 731/16/1 732/14/1
f 733/3/1 734/13/1 735/14/1 736/15/1
f 737/13/1 738/8/1 739/16/1 740/14/1
f 741/3/1 742/13/1 743/14/1 744/15/1
f 745/3/1 746/13/1 747/14/1 748/15/1
f 749/13/1 750/8/1 751/16/1 752/14/1
f 753/17/1 754/18/1 755/19/1 756/20/1
f 757/18/1 758/21/1 759/22/1 760/19/1
f 761/3/1 762/13/1 763/14/1 764/15/1
f 765/13/1 766/8/1 767/16/1 768/14/1
f 769/3/1 770/13/1 771/14/1 772/15/1
f 773/3/1 774/13/1 775/14/1 776/15/1
f 777/17/1 778/18/1 779/19/1 780/20/1
f 781/11/1 782/12/1 783/6/1 784/5/1
f 785/27/1 786/28/1 787/10/1 788/9/1
f 789/14/1 790/16/1 791/18/1 792/17/1
f 793/16/1 794/32/1 795/21/1 796/18/1
f 797/28/1 798/29/1 799/30/1 800/10/1
f 801/29/1 802/31/1 803/11/1 804/30/1
f 805/28/1 806/29/1 807/30/1 808/10/1
f 809/29/1 810/31/1 811/11/1 812/30/1
f 813/28/1 814/29/1 815/30/1 816/10/1
f 817/28/1 818/29/1 819/30/1 820/10/1
f 821/29/1 822/31/1 823/11/1 824/30/1
f 825/28/1 826/29/1 827/30/1 828/10/1
f 829/29/1 830/31/1 831/11/1 832/30/1
f 833/28/1 834/29/1 835/30/1 836/10/1
f 837/29/1 838/31/1 839/11/1 840/30/1
f 841/28/1 842/29/1 843/30/1 844/10/1
f 845/29/1 846/31/1 847/11/1 848/30/1
f 849/28/1 850/29/1 851/30/1 852/10/1
f 853/29/1 854/31/1 855/11/1 856/30/1
f 857/28/1 858/29/1 859/30/1 860/10/1
f 861/29/1 862/31/1 863/11/1 864/30/1
f 865/28/1 866/29/1 867/30/1 868/10/1
f 869/29/1 870/31/1 871/11/1 872/30/1
f 873/28/1 874/29/1 875/30/1 876/10/1
f 877/29/1 878/31/1 879/11/1 880/30/1
f 881/28/1 882/29/1 883/30/1 884/10/1
f 885/29/1 886/31/1 887/11/1 888/30/1
f 889/28/1 890/29/1 891/30/1 892/10/1
f 893/29/1 894/31/1 895/11/1 896/30/1
f 897/28/1 898/29/1 899/30/1 900/10/1
f 901/29/1 902/31/1 903/11/1 904/30/1
f 905/28/1 906/29/1 907/30/1 908/10/1
f 909/29/1 910/31/1 911/11/1 912/30/1
f 913/28/1 914/29/1 915/30/1 916/10/1
f 917/28/1 918/29/1 919/30/1 920/10/1
f 921/29/1 922/31/1 923/11/1 924/30/1
f 925/31/1 926/33/1 927/12/1 928/11/1
f 929/34/1 930/35/1 931/36/1 932/37/1
f 933/38/1 934/39/1 935/35/1 936/34/1

