# Tiled2Unity generated file. Do not modify by hand.
# Wavefront file for 'ciudadPrincipal_mesh_0016.obj'

# Vertices (Count = 144)
v -0.5 -5.5 0
v -1 -5.5 0
v -1 -5 0
v -0.5 -5 0
v -1 -5.5 0
v -1.5 -5.5 0
v -1.5 -5 0
v -1 -5 0
v -1.5 -5.5 0
v -2 -5.5 0
v -2 -5 0
v -1.5 -5 0
v -2 -5.5 0
v -2.5 -5.5 0
v -2.5 -5 0
v -2 -5 0
v -2.5 -5.5 0
v -3 -5.5 0
v -3 -5 0
v -2.5 -5 0
v -3 -5.5 0
v -3.5 -5.5 0
v -3.5 -5 0
v -3 -5 0
v -0.5 -6 0
v -1 -6 0
v -1 -5.5 0
v -0.5 -5.5 0
v -1 -6 0
v -1.5 -6 0
v -1.5 -5.5 0
v -1 -5.5 0
v -2.5 -6 0
v -3 -6 0
v -3 -5.5 0
v -2.5 -5.5 0
v -3 -6 0
v -3.5 -6 0
v -3.5 -5.5 0
v -3 -5.5 0
v -0.5 -6.5 0
v -1 -6.5 0
v -1 -6 0
v -0.5 -6 0
v -1 -6.5 0
v -1.5 -6.5 0
v -1.5 -6 0
v -1 -6 0
v -2.5 -6.5 0
v -3 -6.5 0
v -3 -6 0
v -2.5 -6 0
v -3 -6.5 0
v -3.5 -6.5 0
v -3.5 -6 0
v -3 -6 0
v -0.5 -7 0
v -1 -7 0
v -1 -6.5 0
v -0.5 -6.5 0
v -1 -7 0
v -1.5 -7 0
v -1.5 -6.5 0
v -1 -6.5 0
v -2.5 -7 0
v -3 -7 0
v -3 -6.5 0
v -2.5 -6.5 0
v -3 -7 0
v -3.5 -7 0
v -3.5 -6.5 0
v -3 -6.5 0
v -1.5 -59.5 0
v -2 -59.5 0
v -2 -59 0
v -1.5 -59 0
v -2 -59.5 0
v -2.5 -59.5 0
v -2.5 -59 0
v -2 -59 0
v -2.5 -59.5 0
v -3 -59.5 0
v -3 -59 0
v -2.5 -59 0
v -3 -59.5 0
v -3.5 -59.5 0
v -3.5 -59 0
v -3 -59 0
v -3.5 -59.5 0
v -4 -59.5 0
v -4 -59 0
v -3.5 -59 0
v -4 -59.5 0
v -4.5 -59.5 0
v -4.5 -59 0
v -4 -59 0
v -1.5 -60 0
v -2 -60 0
v -2 -59.5 0
v -1.5 -59.5 0
v -2 -60 0
v -2.5 -60 0
v -2.5 -59.5 0
v -2 -59.5 0
v -3.5 -60 0
v -4 -60 0
v -4 -59.5 0
v -3.5 -59.5 0
v -4 -60 0
v -4.5 -60 0
v -4.5 -59.5 0
v -4 -59.5 0
v -1.5 -60.5 0
v -2 -60.5 0
v -2 -60 0
v -1.5 -60 0
v -2 -60.5 0
v -2.5 -60.5 0
v -2.5 -60 0
v -2 -60 0
v -3.5 -60.5 0
v -4 -60.5 0
v -4 -60 0
v -3.5 -60 0
v -4 -60.5 0
v -4.5 -60.5 0
v -4.5 -60 0
v -4 -60 0
v -1.5 -61 0
v -2 -61 0
v -2 -60.5 0
v -1.5 -60.5 0
v -2 -61 0
v -2.5 -61 0
v -2.5 -60.5 0
v -2 -60.5 0
v -3.5 -61 0
v -4 -61 0
v -4 -60.5 0
v -3.5 -60.5 0
v -4 -61 0
v -4.5 -61 0
v -4.5 -60.5 0
v -4 -60.5 0

# Texture cooridinates (Count = 41)
vt 0.125 0.6875
vt 0.15625 0.6875
vt 0.15625 0.75
vt 0.125 0.75
vt 0.1875 0.6875
vt 0.1875 0.75
vt 0.21875 0.6875
vt 0.21875 0.75
vt 0.25 0.6875
vt 0.25 0.75
vt 0.125 0.625
vt 0.15625 0.625
vt 0.1875 0.625
vt 0.21875 0.625
vt 0.25 0.625
vt 0.125 0.5625
vt 0.15625 0.5625
vt 0.1875 0.5625
vt 0.21875 0.5625
vt 0.25 0.5625
vt 0.125 0.5
vt 0.15625 0.5
vt 0.1875 0.5
vt 0.21875 0.5
vt 0.25 0.5
vt 0.28125 0.625
vt 0.28125 0.6875
vt 0.3125 0.625
vt 0.3125 0.6875
vt 0.34375 0.625
vt 0.34375 0.6875
vt 0.375 0.625
vt 0.375 0.6875
vt 0.28125 0.5625
vt 0.3125 0.5625
vt 0.34375 0.5625
vt 0.375 0.5625
vt 0.28125 0.5
vt 0.3125 0.5
vt 0.34375 0.5
vt 0.375 0.5

# Normal
vn 0 0 -1

# Mesh description
g ciudadPrincipal_mesh_0016

# Faces
f 1/1/1 2/2/1 3/3/1 4/4/1
f 5/2/1 6/5/1 7/6/1 8/3/1
f 9/2/1 10/5/1 11/6/1 12/3/1
f 13/5/1 14/7/1 15/8/1 16/6/1
f 17/5/1 18/7/1 19/8/1 20/6/1
f 21/7/1 22/9/1 23/10/1 24/8/1
f 25/11/1 26/12/1 27/2/1 28/1/1
f 29/12/1 30/13/1 31/5/1 32/2/1
f 33/13/1 34/14/1 35/7/1 36/5/1
f 37/14/1 38/15/1 39/9/1 40/7/1
f 41/16/1 42/17/1 43/12/1 44/11/1
f 45/17/1 46/18/1 47/13/1 48/12/1
f 49/18/1 50/19/1 51/14/1 52/13/1
f 53/19/1 54/20/1 55/15/1 56/14/1
f 57/21/1 58/22/1 59/17/1 60/16/1
f 61/22/1 62/23/1 63/18/1 64/17/1
f 65/23/1 66/24/1 67/19/1 68/18/1
f 69/24/1 70/25/1 71/20/1 72/19/1
f 73/15/1 74/26/1 75/27/1 76/9/1
f 77/26/1 78/28/1 79/29/1 80/27/1
f 81/28/1 82/30/1 83/31/1 84/29/1
f 85/26/1 86/28/1 87/29/1 88/27/1
f 89/28/1 90/30/1 91/31/1 92/29/1
f 93/30/1 94/32/1 95/33/1 96/31/1
f 97/15/1 98/26/1 99/27/1 100/9/1
f 101/26/1 102/28/1 103/29/1 104/27/1
f 105/28/1 106/30/1 107/31/1 108/29/1
f 109/30/1 110/32/1 111/33/1 112/31/1
f 113/20/1 114/34/1 115/26/1 116/15/1
f 117/34/1 118/35/1 119/28/1 120/26/1
f 121/35/1 122/36/1 123/30/1 124/28/1
f 125/36/1 126/37/1 127/32/1 128/30/1
f 129/25/1 130/38/1 131/34/1 132/20/1
f 133/38/1 134/39/1 135/35/1 136/34/1
f 137/39/1 138/40/1 139/36/1 140/35/1
f 141/40/1 142/41/1 143/37/1 144/36/1

