# Tiled2Unity generated file. Do not modify by hand.
# Wavefront file for 'ciudadPrincipal_mesh_0011.obj'

# Vertices (Count = 356)
v -0.5 -0.5 0
v -1 -0.5 0
v -1 0 0
v -0.5 0 0
v -1 -0.5 0
v -1.5 -0.5 0
v -1.5 0 0
v -1 0 0
v -3 -0.5 0
v -3.5 -0.5 0
v -3.5 0 0
v -3 0 0
v -3 -1 0
v -3.5 -1 0
v -3.5 -0.5 0
v -3 -0.5 0
v -0.5 -2 0
v -1 -2 0
v -1 -1.5 0
v -0.5 -1.5 0
v -1 -2 0
v -1.5 -2 0
v -1.5 -1.5 0
v -1 -1.5 0
v -1.5 -2 0
v -2 -2 0
v -2 -1.5 0
v -1.5 -1.5 0
v -2 -2 0
v -2.5 -2 0
v -2.5 -1.5 0
v -2 -1.5 0
v -2.5 -2 0
v -3 -2 0
v -3 -1.5 0
v -2.5 -1.5 0
v -3 -2 0
v -3.5 -2 0
v -3.5 -1.5 0
v -3 -1.5 0
v -0.5 -2.5 0
v -1 -2.5 0
v -1 -2 0
v -0.5 -2 0
v -1 -2.5 0
v -1.5 -2.5 0
v -1.5 -2 0
v -1 -2 0
v -1.5 -2.5 0
v -2 -2.5 0
v -2 -2 0
v -1.5 -2 0
v -2 -2.5 0
v -2.5 -2.5 0
v -2.5 -2 0
v -2 -2 0
v -2.5 -2.5 0
v -3 -2.5 0
v -3 -2 0
v -2.5 -2 0
v -3 -2.5 0
v -3.5 -2.5 0
v -3.5 -2 0
v -3 -2 0
v -0.5 -3 0
v -1 -3 0
v -1 -2.5 0
v -0.5 -2.5 0
v -1 -3 0
v -1.5 -3 0
v -1.5 -2.5 0
v -1 -2.5 0
v -1.5 -3 0
v -2 -3 0
v -2 -2.5 0
v -1.5 -2.5 0
v -2 -3 0
v -2.5 -3 0
v -2.5 -2.5 0
v -2 -2.5 0
v -2.5 -3 0
v -3 -3 0
v -3 -2.5 0
v -2.5 -2.5 0
v -3 -3 0
v -3.5 -3 0
v -3.5 -2.5 0
v -3 -2.5 0
v -0.5 -3.5 0
v -1 -3.5 0
v -1 -3 0
v -0.5 -3 0
v -1 -3.5 0
v -1.5 -3.5 0
v -1.5 -3 0
v -1 -3 0
v -1.5 -3.5 0
v -2 -3.5 0
v -2 -3 0
v -1.5 -3 0
v -2 -3.5 0
v -2.5 -3.5 0
v -2.5 -3 0
v -2 -3 0
v -2.5 -3.5 0
v -3 -3.5 0
v -3 -3 0
v -2.5 -3 0
v -3 -3.5 0
v -3.5 -3.5 0
v -3.5 -3 0
v -3 -3 0
v -0.5 -4 0
v -1 -4 0
v -1 -3.5 0
v -0.5 -3.5 0
v -1 -4 0
v -1.5 -4 0
v -1.5 -3.5 0
v -1 -3.5 0
v -1.5 -4 0
v -2 -4 0
v -2 -3.5 0
v -1.5 -3.5 0
v -2 -4 0
v -2.5 -4 0
v -2.5 -3.5 0
v -2 -3.5 0
v -2.5 -4 0
v -3 -4 0
v -3 -3.5 0
v -2.5 -3.5 0
v -3 -4 0
v -3.5 -4 0
v -3.5 -3.5 0
v -3 -3.5 0
v -0.5 -4.5 0
v -1 -4.5 0
v -1 -4 0
v -0.5 -4 0
v -1 -4.5 0
v -1.5 -4.5 0
v -1.5 -4 0
v -1 -4 0
v -1.5 -4.5 0
v -2 -4.5 0
v -2 -4 0
v -1.5 -4 0
v -2 -4.5 0
v -2.5 -4.5 0
v -2.5 -4 0
v -2 -4 0
v -2.5 -4.5 0
v -3 -4.5 0
v -3 -4 0
v -2.5 -4 0
v -3 -4.5 0
v -3.5 -4.5 0
v -3.5 -4 0
v -3 -4 0
v -0.5 -5 0
v -1 -5 0
v -1 -4.5 0
v -0.5 -4.5 0
v -1 -5 0
v -1.5 -5 0
v -1.5 -4.5 0
v -1 -4.5 0
v -1.5 -5 0
v -2 -5 0
v -2 -4.5 0
v -1.5 -4.5 0
v -2 -5 0
v -2.5 -5 0
v -2.5 -4.5 0
v -2 -4.5 0
v -2.5 -5 0
v -3 -5 0
v -3 -4.5 0
v -2.5 -4.5 0
v -3 -5 0
v -3.5 -5 0
v -3.5 -4.5 0
v -3 -4.5 0
v -79 -22 0
v -79.5 -22 0
v -79.5 -21.5 0
v -79 -21.5 0
v -79.5 -22 0
v -80 -22 0
v -80 -21.5 0
v -79.5 -21.5 0
v -80.5 -22 0
v -81 -22 0
v -81 -21.5 0
v -80.5 -21.5 0
v -81 -22 0
v -81.5 -22 0
v -81.5 -21.5 0
v -81 -21.5 0
v -79 -22.5 0
v -79.5 -22.5 0
v -79.5 -22 0
v -79 -22 0
v -79.5 -22.5 0
v -80 -22.5 0
v -80 -22 0
v -79.5 -22 0
v -80.5 -22.5 0
v -81 -22.5 0
v -81 -22 0
v -80.5 -22 0
v -81 -22.5 0
v -81.5 -22.5 0
v -81.5 -22 0
v -81 -22 0
v -23.5 -32.5 0
v -24 -32.5 0
v -24 -32 0
v -23.5 -32 0
v -24 -32.5 0
v -24.5 -32.5 0
v -24.5 -32 0
v -24 -32 0
v -26.5 -32.5 0
v -27 -32.5 0
v -27 -32 0
v -26.5 -32 0
v -27 -32.5 0
v -27.5 -32.5 0
v -27.5 -32 0
v -27 -32 0
v -23.5 -33 0
v -24 -33 0
v -24 -32.5 0
v -23.5 -32.5 0
v -24 -33 0
v -24.5 -33 0
v -24.5 -32.5 0
v -24 -32.5 0
v -26.5 -33 0
v -27 -33 0
v -27 -32.5 0
v -26.5 -32.5 0
v -27 -33 0
v -27.5 -33 0
v -27.5 -32.5 0
v -27 -32.5 0
v -8 -37 0
v -8.5 -37 0
v -8.5 -36.5 0
v -8 -36.5 0
v -8.5 -37 0
v -9 -37 0
v -9 -36.5 0
v -8.5 -36.5 0
v -9 -37 0
v -9.5 -37 0
v -9.5 -36.5 0
v -9 -36.5 0
v -5.5 -57 0
v -6 -57 0
v -6 -56.5 0
v -5.5 -56.5 0
v -6 -57 0
v -6.5 -57 0
v -6.5 -56.5 0
v -6 -56.5 0
v -6.5 -57 0
v -7 -57 0
v -7 -56.5 0
v -6.5 -56.5 0
v -7 -57 0
v -7.5 -57 0
v -7.5 -56.5 0
v -7 -56.5 0
v -5.5 -57.5 0
v -6 -57.5 0
v -6 -57 0
v -5.5 -57 0
v -6 -57.5 0
v -6.5 -57.5 0
v -6.5 -57 0
v -6 -57 0
v -6.5 -57.5 0
v -7 -57.5 0
v -7 -57 0
v -6.5 -57 0
v -7 -57.5 0
v -7.5 -57.5 0
v -7.5 -57 0
v -7 -57 0
v -5.5 -58 0
v -6 -58 0
v -6 -57.5 0
v -5.5 -57.5 0
v -6 -58 0
v -6.5 -58 0
v -6.5 -57.5 0
v -6 -57.5 0
v -6.5 -58 0
v -7 -58 0
v -7 -57.5 0
v -6.5 -57.5 0
v -7 -58 0
v -7.5 -58 0
v -7.5 -57.5 0
v -7 -57.5 0
v -5.5 -58.5 0
v -6 -58.5 0
v -6 -58 0
v -5.5 -58 0
v -6 -58.5 0
v -6.5 -58.5 0
v -6.5 -58 0
v -6 -58 0
v -6.5 -58.5 0
v -7 -58.5 0
v -7 -58 0
v -6.5 -58 0
v -7 -58.5 0
v -7.5 -58.5 0
v -7.5 -58 0
v -7 -58 0
v -5.5 -59 0
v -6 -59 0
v -6 -58.5 0
v -5.5 -58.5 0
v -6 -59 0
v -6.5 -59 0
v -6.5 -58.5 0
v -6 -58.5 0
v -6.5 -59 0
v -7 -59 0
v -7 -58.5 0
v -6.5 -58.5 0
v -7 -59 0
v -7.5 -59 0
v -7.5 -58.5 0
v -7 -58.5 0
v -5.5 -59.5 0
v -6 -59.5 0
v -6 -59 0
v -5.5 -59 0
v -6 -59.5 0
v -6.5 -59.5 0
v -6.5 -59 0
v -6 -59 0
v -6.5 -59.5 0
v -7 -59.5 0
v -7 -59 0
v -6.5 -59 0
v -7 -59.5 0
v -7.5 -59.5 0
v -7.5 -59 0
v -7 -59 0

# Texture cooridinates (Count = 119)
vt 0.5625 0.28125
vt 0.59375 0.28125
vt 0.59375 0.3125
vt 0.5625 0.3125
vt 0.625 0.28125
vt 0.625 0.3125
vt 0.71875 0.28125
vt 0.75 0.28125
vt 0.75 0.3125
vt 0.71875 0.3125
vt 0.71875 0.25
vt 0.75 0.25
vt 0.5625 0.1875
vt 0.59375 0.1875
vt 0.59375 0.21875
vt 0.5625 0.21875
vt 0.625 0.1875
vt 0.625 0.21875
vt 0.65625 0.1875
vt 0.65625 0.21875
vt 0.6875 0.1875
vt 0.6875 0.21875
vt 0.71875 0.1875
vt 0.71875 0.21875
vt 0.75 0.1875
vt 0.75 0.21875
vt 0.5625 0.15625
vt 0.59375 0.15625
vt 0.625 0.15625
vt 0.65625 0.15625
vt 0.6875 0.15625
vt 0.71875 0.15625
vt 0.75 0.15625
vt 0.5625 0.125
vt 0.59375 0.125
vt 0.625 0.125
vt 0.65625 0.125
vt 0.6875 0.125
vt 0.71875 0.125
vt 0.75 0.125
vt 0.5625 0.09375
vt 0.59375 0.09375
vt 0.625 0.09375
vt 0.65625 0.09375
vt 0.6875 0.09375
vt 0.71875 0.09375
vt 0.75 0.09375
vt 0.5625 0.0625
vt 0.59375 0.0625
vt 0.625 0.0625
vt 0.65625 0.0625
vt 0.6875 0.0625
vt 0.71875 0.0625
vt 0.75 0.0625
vt 0.5625 0.03125
vt 0.59375 0.03125
vt 0.625 0.03125
vt 0.65625 0.03125
vt 0.6875 0.03125
vt 0.71875 0.03125
vt 0.75 0.03125
vt 0.5625 0
vt 0.59375 0
vt 0.625 0
vt 0.65625 0
vt 0.6875 0
vt 0.71875 0
vt 0.75 0
vt 0 0.71875
vt 0.03125 0.71875
vt 0.03125 0.75
vt 0 0.75
vt 0.0625 0.71875
vt 0.0625 0.75
vt 0.0625 0.65625
vt 0.09375 0.65625
vt 0.09375 0.6875
vt 0.0625 0.6875
vt 0.125 0.65625
vt 0.125 0.6875
vt 0 0.6875
vt 0.03125 0.6875
vt 0.0625 0.625
vt 0.09375 0.625
vt 0.125 0.625
vt 0 0.5625
vt 0.03125 0.5625
vt 0.03125 0.59375
vt 0 0.59375
vt 0.0625 0.5625
vt 0.0625 0.59375
vt 0 0.53125
vt 0.03125 0.53125
vt 0.0625 0.53125
vt 0.875 0.9375
vt 0.90625 0.9375
vt 0.90625 0.96875
vt 0.875 0.96875
vt 0.9375 0.9375
vt 0.9375 0.96875
vt 0.96875 0.9375
vt 0.96875 0.96875
vt 0.375 0.46875
vt 0.40625 0.46875
vt 0.40625 0.5
vt 0.375 0.5
vt 0.4375 0.46875
vt 0.4375 0.5
vt 0.4375 0.53125
vt 0.46875 0.53125
vt 0.46875 0.5625
vt 0.4375 0.5625
vt 0.5 0.53125
vt 0.5 0.5625
vt 0.375 0.4375
vt 0.40625 0.4375
vt 0.4375 0.4375
vt 0.46875 0.5
vt 0.5 0.5

# Normal
vn 0 0 -1

# Mesh description
g ciudadPrincipal_mesh_0011

# Faces
f 1/1/1 2/2/1 3/3/1 4/4/1
f 5/2/1 6/5/1 7/6/1 8/3/1
f 9/7/1 10/8/1 11/9/1 12/10/1
f 13/11/1 14/12/1 15/8/1 16/7/1
f 17/13/1 18/14/1 19/15/1 20/16/1
f 21/14/1 22/17/1 23/18/1 24/15/1
f 25/17/1 26/19/1 27/20/1 28/18/1
f 29/19/1 30/21/1 31/22/1 32/20/1
f 33/21/1 34/23/1 35/24/1 36/22/1
f 37/23/1 38/25/1 39/26/1 40/24/1
f 41/27/1 42/28/1 43/14/1 44/13/1
f 45/28/1 46/29/1 47/17/1 48/14/1
f 49/29/1 50/30/1 51/19/1 52/17/1
f 53/30/1 54/31/1 55/21/1 56/19/1
f 57/31/1 58/32/1 59/23/1 60/21/1
f 61/32/1 62/33/1 63/25/1 64/23/1
f 65/34/1 66/35/1 67/28/1 68/27/1
f 69/35/1 70/36/1 71/29/1 72/28/1
f 73/36/1 74/37/1 75/30/1 76/29/1
f 77/37/1 78/38/1 79/31/1 80/30/1
f 81/38/1 82/39/1 83/32/1 84/31/1
f 85/39/1 86/40/1 87/33/1 88/32/1
f 89/41/1 90/42/1 91/35/1 92/34/1
f 93/42/1 94/43/1 95/36/1 96/35/1
f 97/43/1 98/44/1 99/37/1 100/36/1
f 101/44/1 102/45/1 103/38/1 104/37/1
f 105/45/1 106/46/1 107/39/1 108/38/1
f 109/46/1 110/47/1 111/40/1 112/39/1
f 113/48/1 114/49/1 115/42/1 116/41/1
f 117/49/1 118/50/1 119/43/1 120/42/1
f 121/50/1 122/51/1 123/44/1 124/43/1
f 125/51/1 126/52/1 127/45/1 128/44/1
f 129/52/1 130/53/1 131/46/1 132/45/1
f 133/53/1 134/54/1 135/47/1 136/46/1
f 137/55/1 138/56/1 139/49/1 140/48/1
f 141/56/1 142/57/1 143/50/1 144/49/1
f 145/57/1 146/58/1 147/51/1 148/50/1
f 149/58/1 150/59/1 151/52/1 152/51/1
f 153/59/1 154/60/1 155/53/1 156/52/1
f 157/60/1 158/61/1 159/54/1 160/53/1
f 161/62/1 162/63/1 163/56/1 164/55/1
f 165/63/1 166/64/1 167/57/1 168/56/1
f 169/64/1 170/65/1 171/58/1 172/57/1
f 173/65/1 174/66/1 175/59/1 176/58/1
f 177/66/1 178/67/1 179/60/1 180/59/1
f 181/67/1 182/68/1 183/61/1 184/60/1
f 185/69/1 186/70/1 187/71/1 188/72/1
f 189/70/1 190/73/1 191/74/1 192/71/1
f 193/75/1 194/76/1 195/77/1 196/78/1
f 197/76/1 198/79/1 199/80/1 200/77/1
f 201/81/1 202/82/1 203/70/1 204/69/1
f 205/82/1 206/78/1 207/73/1 208/70/1
f 209/83/1 210/84/1 211/76/1 212/75/1
f 213/84/1 214/85/1 215/79/1 216/76/1
f 217/86/1 218/87/1 219/88/1 220/89/1
f 221/87/1 222/90/1 223/91/1 224/88/1
f 225/86/1 226/87/1 227/88/1 228/89/1
f 229/87/1 230/90/1 231/91/1 232/88/1
f 233/92/1 234/93/1 235/87/1 236/86/1
f 237/93/1 238/94/1 239/90/1 240/87/1
f 241/92/1 242/93/1 243/87/1 244/86/1
f 245/93/1 246/94/1 247/90/1 248/87/1
f 249/95/1 250/96/1 251/97/1 252/98/1
f 253/96/1 254/99/1 255/100/1 256/97/1
f 257/99/1 258/101/1 259/102/1 260/100/1
f 261/103/1 262/104/1 263/105/1 264/106/1
f 265/104/1 266/107/1 267/108/1 268/105/1
f 269/109/1 270/110/1 271/111/1 272/112/1
f 273/110/1 274/113/1 275/114/1 276/111/1
f 277/115/1 278/116/1 279/104/1 280/103/1
f 281/116/1 282/117/1 283/107/1 284/104/1
f 285/108/1 286/118/1 287/110/1 288/109/1
f 289/118/1 290/119/1 291/113/1 292/110/1
f 293/103/1 294/104/1 295/105/1 296/106/1
f 297/104/1 298/107/1 299/108/1 300/105/1
f 301/109/1 302/110/1 303/111/1 304/112/1
f 305/110/1 306/113/1 307/114/1 308/111/1
f 309/115/1 310/116/1 311/104/1 312/103/1
f 313/116/1 314/117/1 315/107/1 316/104/1
f 317/108/1 318/118/1 319/110/1 320/109/1
f 321/118/1 322/119/1 323/113/1 324/110/1
f 325/103/1 326/104/1 327/105/1 328/106/1
f 329/104/1 330/107/1 331/108/1 332/105/1
f 333/109/1 334/110/1 335/111/1 336/112/1
f 337/110/1 338/113/1 339/114/1 340/111/1
f 341/115/1 342/116/1 343/104/1 344/103/1
f 345/116/1 346/117/1 347/107/1 348/104/1
f 349/108/1 350/118/1 351/110/1 352/109/1
f 353/118/1 354/119/1 355/113/1 356/110/1

