# Tiled2Unity generated file. Do not modify by hand.
# Wavefront file for 'ciudadPrincipal_mesh_0002.obj'

# Vertices (Count = 464)
v -7.5 -4 0
v -8 -4 0
v -8 -3.5 0
v -7.5 -3.5 0
v -8 -4 0
v -8.5 -4 0
v -8.5 -3.5 0
v -8 -3.5 0
v -8.5 -4 0
v -9 -4 0
v -9 -3.5 0
v -8.5 -3.5 0
v -20 -4 0
v -20.5 -4 0
v -20.5 -3.5 0
v -20 -3.5 0
v -20.5 -4 0
v -21 -4 0
v -21 -3.5 0
v -20.5 -3.5 0
v -21 -4 0
v -21.5 -4 0
v -21.5 -3.5 0
v -21 -3.5 0
v -6.5 -4.5 0
v -7 -4.5 0
v -7 -4 0
v -6.5 -4 0
v -7 -4.5 0
v -7.5 -4.5 0
v -7.5 -4 0
v -7 -4 0
v -7.5 -4.5 0
v -8 -4.5 0
v -8 -4 0
v -7.5 -4 0
v -8 -4.5 0
v -8.5 -4.5 0
v -8.5 -4 0
v -8 -4 0
v -8.5 -4.5 0
v -9 -4.5 0
v -9 -4 0
v -8.5 -4 0
v -9 -4.5 0
v -9.5 -4.5 0
v -9.5 -4 0
v -9 -4 0
v -19 -4.5 0
v -19.5 -4.5 0
v -19.5 -4 0
v -19 -4 0
v -19.5 -4.5 0
v -20 -4.5 0
v -20 -4 0
v -19.5 -4 0
v -20 -4.5 0
v -20.5 -4.5 0
v -20.5 -4 0
v -20 -4 0
v -20.5 -4.5 0
v -21 -4.5 0
v -21 -4 0
v -20.5 -4 0
v -21 -4.5 0
v -21.5 -4.5 0
v -21.5 -4 0
v -21 -4 0
v -21.5 -4.5 0
v -22 -4.5 0
v -22 -4 0
v -21.5 -4 0
v -22 -4.5 0
v -22.5 -4.5 0
v -22.5 -4 0
v -22 -4 0
v -6.5 -5 0
v -7 -5 0
v -7 -4.5 0
v -6.5 -4.5 0
v -7 -5 0
v -7.5 -5 0
v -7.5 -4.5 0
v -7 -4.5 0
v -7.5 -5 0
v -8 -5 0
v -8 -4.5 0
v -7.5 -4.5 0
v -8 -5 0
v -8.5 -5 0
v -8.5 -4.5 0
v -8 -4.5 0
v -8.5 -5 0
v -9 -5 0
v -9 -4.5 0
v -8.5 -4.5 0
v -9 -5 0
v -9.5 -5 0
v -9.5 -4.5 0
v -9 -4.5 0
v -19 -5 0
v -19.5 -5 0
v -19.5 -4.5 0
v -19 -4.5 0
v -19.5 -5 0
v -20 -5 0
v -20 -4.5 0
v -19.5 -4.5 0
v -20 -5 0
v -20.5 -5 0
v -20.5 -4.5 0
v -20 -4.5 0
v -20.5 -5 0
v -21 -5 0
v -21 -4.5 0
v -20.5 -4.5 0
v -21 -5 0
v -21.5 -5 0
v -21.5 -4.5 0
v -21 -4.5 0
v -21.5 -5 0
v -22 -5 0
v -22 -4.5 0
v -21.5 -4.5 0
v -22 -5 0
v -22.5 -5 0
v -22.5 -4.5 0
v -22 -4.5 0
v -19 -5.5 0
v -19.5 -5.5 0
v -19.5 -5 0
v -19 -5 0
v -19.5 -5.5 0
v -20 -5.5 0
v -20 -5 0
v -19.5 -5 0
v -20 -5.5 0
v -20.5 -5.5 0
v -20.5 -5 0
v -20 -5 0
v -20.5 -5.5 0
v -21 -5.5 0
v -21 -5 0
v -20.5 -5 0
v -21 -5.5 0
v -21.5 -5.5 0
v -21.5 -5 0
v -21 -5 0
v -21.5 -5.5 0
v -22 -5.5 0
v -22 -5 0
v -21.5 -5 0
v -19 -6 0
v -19.5 -6 0
v -19.5 -5.5 0
v -19 -5.5 0
v -19.5 -6 0
v -20 -6 0
v -20 -5.5 0
v -19.5 -5.5 0
v -20 -6 0
v -20.5 -6 0
v -20.5 -5.5 0
v -20 -5.5 0
v -20.5 -6 0
v -21 -6 0
v -21 -5.5 0
v -20.5 -5.5 0
v -21 -6 0
v -21.5 -6 0
v -21.5 -5.5 0
v -21 -5.5 0
v -21.5 -6 0
v -22 -6 0
v -22 -5.5 0
v -21.5 -5.5 0
v -19 -6.5 0
v -19.5 -6.5 0
v -19.5 -6 0
v -19 -6 0
v -19.5 -6.5 0
v -20 -6.5 0
v -20 -6 0
v -19.5 -6 0
v -20 -6.5 0
v -20.5 -6.5 0
v -20.5 -6 0
v -20 -6 0
v -20.5 -6.5 0
v -21 -6.5 0
v -21 -6 0
v -20.5 -6 0
v -21 -6.5 0
v -21.5 -6.5 0
v -21.5 -6 0
v -21 -6 0
v -21.5 -6.5 0
v -22 -6.5 0
v -22 -6 0
v -21.5 -6 0
v -19 -7 0
v -19.5 -7 0
v -19.5 -6.5 0
v -19 -6.5 0
v -19.5 -7 0
v -20 -7 0
v -20 -6.5 0
v -19.5 -6.5 0
v -20 -7 0
v -20.5 -7 0
v -20.5 -6.5 0
v -20 -6.5 0
v -20.5 -7 0
v -21 -7 0
v -21 -6.5 0
v -20.5 -6.5 0
v -21 -7 0
v -21.5 -7 0
v -21.5 -6.5 0
v -21 -6.5 0
v -21.5 -7 0
v -22 -7 0
v -22 -6.5 0
v -21.5 -6.5 0
v -2 -12.5 0
v -2.5 -12.5 0
v -2.5 -12 0
v -2 -12 0
v -2.5 -12.5 0
v -3 -12.5 0
v -3 -12 0
v -2.5 -12 0
v -3 -12.5 0
v -3.5 -12.5 0
v -3.5 -12 0
v -3 -12 0
v -3.5 -12.5 0
v -4 -12.5 0
v -4 -12 0
v -3.5 -12 0
v -2 -13 0
v -2.5 -13 0
v -2.5 -12.5 0
v -2 -12.5 0
v -2.5 -13 0
v -3 -13 0
v -3 -12.5 0
v -2.5 -12.5 0
v -3 -13 0
v -3.5 -13 0
v -3.5 -12.5 0
v -3 -12.5 0
v -3.5 -13 0
v -4 -13 0
v -4 -12.5 0
v -3.5 -12.5 0
v -17.5 -13 0
v -18 -13 0
v -18 -12.5 0
v -17.5 -12.5 0
v -18 -13 0
v -18.5 -13 0
v -18.5 -12.5 0
v -18 -12.5 0
v -18.5 -13 0
v -19 -13 0
v -19 -12.5 0
v -18.5 -12.5 0
v -1 -13.5 0
v -1.5 -13.5 0
v -1.5 -13 0
v -1 -13 0
v -1.5 -13.5 0
v -2 -13.5 0
v -2 -13 0
v -1.5 -13 0
v -2 -13.5 0
v -2.5 -13.5 0
v -2.5 -13 0
v -2 -13 0
v -2.5 -13.5 0
v -3 -13.5 0
v -3 -13 0
v -2.5 -13 0
v -3 -13.5 0
v -3.5 -13.5 0
v -3.5 -13 0
v -3 -13 0
v -3.5 -13.5 0
v -4 -13.5 0
v -4 -13 0
v -3.5 -13 0
v -4 -13.5 0
v -4.5 -13.5 0
v -4.5 -13 0
v -4 -13 0
v -4.5 -13.5 0
v -5 -13.5 0
v -5 -13 0
v -4.5 -13 0
v -16 -13.5 0
v -16.5 -13.5 0
v -16.5 -13 0
v -16 -13 0
v -16.5 -13.5 0
v -17 -13.5 0
v -17 -13 0
v -16.5 -13 0
v -17 -13.5 0
v -17.5 -13.5 0
v -17.5 -13 0
v -17 -13 0
v -17.5 -13.5 0
v -18 -13.5 0
v -18 -13 0
v -17.5 -13 0
v -18 -13.5 0
v -18.5 -13.5 0
v -18.5 -13 0
v -18 -13 0
v -18.5 -13.5 0
v -19 -13.5 0
v -19 -13 0
v -18.5 -13 0
v -19 -13.5 0
v -19.5 -13.5 0
v -19.5 -13 0
v -19 -13 0
v -19.5 -13.5 0
v -20 -13.5 0
v -20 -13 0
v -19.5 -13 0
v -1 -14 0
v -1.5 -14 0
v -1.5 -13.5 0
v -1 -13.5 0
v -1.5 -14 0
v -2 -14 0
v -2 -13.5 0
v -1.5 -13.5 0
v -2 -14 0
v -2.5 -14 0
v -2.5 -13.5 0
v -2 -13.5 0
v -2.5 -14 0
v -3 -14 0
v -3 -13.5 0
v -2.5 -13.5 0
v -3 -14 0
v -3.5 -14 0
v -3.5 -13.5 0
v -3 -13.5 0
v -3.5 -14 0
v -4 -14 0
v -4 -13.5 0
v -3.5 -13.5 0
v -4 -14 0
v -4.5 -14 0
v -4.5 -13.5 0
v -4 -13.5 0
v -4.5 -14 0
v -5 -14 0
v -5 -13.5 0
v -4.5 -13.5 0
v -16 -14 0
v -16.5 -14 0
v -16.5 -13.5 0
v -16 -13.5 0
v -16.5 -14 0
v -17 -14 0
v -17 -13.5 0
v -16.5 -13.5 0
v -17 -14 0
v -17.5 -14 0
v -17.5 -13.5 0
v -17 -13.5 0
v -17.5 -14 0
v -18 -14 0
v -18 -13.5 0
v -17.5 -13.5 0
v -18 -14 0
v -18.5 -14 0
v -18.5 -13.5 0
v -18 -13.5 0
v -18.5 -14 0
v -19 -14 0
v -19 -13.5 0
v -18.5 -13.5 0
v -19 -14 0
v -19.5 -14 0
v -19.5 -13.5 0
v -19 -13.5 0
v -19.5 -14 0
v -20 -14 0
v -20 -13.5 0
v -19.5 -13.5 0
v -2 -22 0
v -2.5 -22 0
v -2.5 -21.5 0
v -2 -21.5 0
v -2.5 -22 0
v -3 -22 0
v -3 -21.5 0
v -2.5 -21.5 0
v -3 -22 0
v -3.5 -22 0
v -3.5 -21.5 0
v -3 -21.5 0
v -3.5 -22 0
v -4 -22 0
v -4 -21.5 0
v -3.5 -21.5 0
v -1.5 -22.5 0
v -2 -22.5 0
v -2 -22 0
v -1.5 -22 0
v -2 -22.5 0
v -2.5 -22.5 0
v -2.5 -22 0
v -2 -22 0
v -2.5 -22.5 0
v -3 -22.5 0
v -3 -22 0
v -2.5 -22 0
v -3 -22.5 0
v -3.5 -22.5 0
v -3.5 -22 0
v -3 -22 0
v -3.5 -22.5 0
v -4 -22.5 0
v -4 -22 0
v -3.5 -22 0
v -4 -22.5 0
v -4.5 -22.5 0
v -4.5 -22 0
v -4 -22 0
v -1 -23 0
v -1.5 -23 0
v -1.5 -22.5 0
v -1 -22.5 0
v -1.5 -23 0
v -2 -23 0
v -2 -22.5 0
v -1.5 -22.5 0
v -2 -23 0
v -2.5 -23 0
v -2.5 -22.5 0
v -2 -22.5 0
v -2.5 -23 0
v -3 -23 0
v -3 -22.5 0
v -2.5 -22.5 0
v -3 -23 0
v -3.5 -23 0
v -3.5 -22.5 0
v -3 -22.5 0
v -3.5 -23 0
v -4 -23 0
v -4 -22.5 0
v -3.5 -22.5 0
v -4 -23 0
v -4.5 -23 0
v -4.5 -22.5 0
v -4 -22.5 0

# Texture cooridinates (Count = 24)
vt 0 0.5
vt 0.03125 0.5
vt 0.03125 0.53125
vt 0 0.53125
vt 0.0625 0.5
vt 0.0625 0.53125
vt 0 0.46875
vt 0.03125 0.46875
vt 0.0625 0.46875
vt 0.15625 0.3125
vt 0.1875 0.3125
vt 0.1875 0.34375
vt 0.15625 0.34375
vt 0.21875 0.3125
vt 0.21875 0.34375
vt 0 0.65625
vt 0.03125 0.65625
vt 0.03125 0.6875
vt 0 0.6875
vt 0.0625 0.65625
vt 0.0625 0.6875
vt 0 0.625
vt 0.03125 0.625
vt 0.0625 0.625

# Normal
vn 0 0 -1

# Mesh description
g ciudadPrincipal_mesh_0002

# Faces
f 1/1/1 2/2/1 3/3/1 4/4/1
f 5/2/1 6/5/1 7/6/1 8/3/1
f 9/2/1 10/5/1 11/6/1 12/3/1
f 13/1/1 14/2/1 15/3/1 16/4/1
f 17/1/1 18/2/1 19/3/1 20/4/1
f 21/2/1 22/5/1 23/6/1 24/3/1
f 25/1/1 26/2/1 27/3/1 28/4/1
f 29/1/1 30/2/1 31/3/1 32/4/1
f 33/7/1 34/8/1 35/2/1 36/1/1
f 37/8/1 38/9/1 39/5/1 40/2/1
f 41/8/1 42/9/1 43/5/1 44/2/1
f 45/2/1 46/5/1 47/6/1 48/3/1
f 49/1/1 50/2/1 51/3/1 52/4/1
f 53/1/1 54/2/1 55/3/1 56/4/1
f 57/7/1 58/8/1 59/2/1 60/1/1
f 61/1/1 62/2/1 63/3/1 64/4/1
f 65/1/1 66/2/1 67/3/1 68/4/1
f 69/1/1 70/2/1 71/3/1 72/4/1
f 73/2/1 74/5/1 75/6/1 76/3/1
f 77/7/1 78/8/1 79/2/1 80/1/1
f 81/7/1 82/8/1 83/2/1 84/1/1
f 85/7/1 86/8/1 87/2/1 88/1/1
f 89/7/1 90/8/1 91/2/1 92/1/1
f 93/8/1 94/9/1 95/5/1 96/2/1
f 97/8/1 98/9/1 99/5/1 100/2/1
f 101/7/1 102/8/1 103/2/1 104/1/1
f 105/7/1 106/8/1 107/2/1 108/1/1
f 109/7/1 110/8/1 111/2/1 112/1/1
f 113/7/1 114/8/1 115/2/1 116/1/1
f 117/7/1 118/8/1 119/2/1 120/1/1
f 121/1/1 122/2/1 123/3/1 124/4/1
f 125/2/1 126/5/1 127/6/1 128/3/1
f 129/1/1 130/2/1 131/3/1 132/4/1
f 133/1/1 134/2/1 135/3/1 136/4/1
f 137/1/1 138/2/1 139/3/1 140/4/1
f 141/1/1 142/2/1 143/3/1 144/4/1
f 145/1/1 146/2/1 147/3/1 148/4/1
f 149/7/1 150/8/1 151/2/1 152/1/1
f 153/7/1 154/8/1 155/2/1 156/1/1
f 157/7/1 158/8/1 159/2/1 160/1/1
f 161/7/1 162/8/1 163/2/1 164/1/1
f 165/7/1 166/8/1 167/2/1 168/1/1
f 169/7/1 170/8/1 171/2/1 172/1/1
f 173/7/1 174/8/1 175/2/1 176/1/1
f 177/1/1 178/2/1 179/3/1 180/4/1
f 181/1/1 182/2/1 183/3/1 184/4/1
f 185/1/1 186/2/1 187/3/1 188/4/1
f 189/1/1 190/2/1 191/3/1 192/4/1
f 193/1/1 194/2/1 195/3/1 196/4/1
f 197/1/1 198/2/1 199/3/1 200/4/1
f 201/10/1 202/11/1 203/12/1 204/13/1
f 205/11/1 206/14/1 207/15/1 208/12/1
f 209/10/1 210/11/1 211/12/1 212/13/1
f 213/11/1 214/14/1 215/15/1 216/12/1
f 217/10/1 218/11/1 219/12/1 220/13/1
f 221/11/1 222/14/1 223/15/1 224/12/1
f 225/1/1 226/2/1 227/3/1 228/4/1
f 229/1/1 230/2/1 231/3/1 232/4/1
f 233/1/1 234/2/1 235/3/1 236/4/1
f 237/2/1 238/5/1 239/6/1 240/3/1
f 241/7/1 242/8/1 243/2/1 244/1/1
f 245/7/1 246/8/1 247/2/1 248/1/1
f 249/7/1 250/8/1 251/2/1 252/1/1
f 253/8/1 254/9/1 255/5/1 256/2/1
f 257/16/1 258/17/1 259/18/1 260/19/1
f 261/17/1 262/20/1 263/21/1 264/18/1
f 265/17/1 266/20/1 267/21/1 268/18/1
f 269/1/1 270/2/1 271/3/1 272/4/1
f 273/2/1 274/5/1 275/6/1 276/3/1
f 277/2/1 278/5/1 279/6/1 280/3/1
f 281/2/1 282/5/1 283/6/1 284/3/1
f 285/2/1 286/5/1 287/6/1 288/3/1
f 289/2/1 290/5/1 291/6/1 292/3/1
f 293/2/1 294/5/1 295/6/1 296/3/1
f 297/2/1 298/5/1 299/6/1 300/3/1
f 301/16/1 302/17/1 303/18/1 304/19/1
f 305/16/1 306/17/1 307/18/1 308/19/1
f 309/16/1 310/17/1 311/18/1 312/19/1
f 313/22/1 314/23/1 315/17/1 316/16/1
f 317/23/1 318/24/1 319/20/1 320/17/1
f 321/23/1 322/24/1 323/20/1 324/17/1
f 325/17/1 326/20/1 327/21/1 328/18/1
f 329/17/1 330/20/1 331/21/1 332/18/1
f 333/7/1 334/8/1 335/2/1 336/1/1
f 337/8/1 338/9/1 339/5/1 340/2/1
f 341/8/1 342/9/1 343/5/1 344/2/1
f 345/8/1 346/9/1 347/5/1 348/2/1
f 349/8/1 350/9/1 351/5/1 352/2/1
f 353/8/1 354/9/1 355/5/1 356/2/1
f 357/8/1 358/9/1 359/5/1 360/2/1
f 361/8/1 362/9/1 363/5/1 364/2/1
f 365/22/1 366/23/1 367/17/1 368/16/1
f 369/22/1 370/23/1 371/17/1 372/16/1
f 373/22/1 374/23/1 375/17/1 376/16/1
f 377/22/1 378/23/1 379/17/1 380/16/1
f 381/22/1 382/23/1 383/17/1 384/16/1
f 385/23/1 386/24/1 387/20/1 388/17/1
f 389/23/1 390/24/1 391/20/1 392/17/1
f 393/23/1 394/24/1 395/20/1 396/17/1
f 397/16/1 398/17/1 399/18/1 400/19/1
f 401/16/1 402/17/1 403/18/1 404/19/1
f 405/16/1 406/17/1 407/18/1 408/19/1
f 409/16/1 410/17/1 411/18/1 412/19/1
f 413/16/1 414/17/1 415/18/1 416/19/1
f 417/16/1 418/17/1 419/18/1 420/19/1
f 421/16/1 422/17/1 423/18/1 424/19/1
f 425/16/1 426/17/1 427/18/1 428/19/1
f 429/16/1 430/17/1 431/18/1 432/19/1
f 433/16/1 434/17/1 435/18/1 436/19/1
f 437/16/1 438/17/1 439/18/1 440/19/1
f 441/16/1 442/17/1 443/18/1 444/19/1
f 445/16/1 446/17/1 447/18/1 448/19/1
f 449/16/1 450/17/1 451/18/1 452/19/1
f 453/16/1 454/17/1 455/18/1 456/19/1
f 457/16/1 458/17/1 459/18/1 460/19/1
f 461/16/1 462/17/1 463/18/1 464/19/1

