# Tiled2Unity generated file. Do not modify by hand.
# Wavefront file for 'ciudadPrincipal_mesh_0036.obj'

# Vertices (Count = 80)
v -24.5 -21.5 0
v -25 -21.5 0
v -25 -21 0
v -24.5 -21 0
v -25 -21.5 0
v -25.5 -21.5 0
v -25.5 -21 0
v -25 -21 0
v -25.5 -21.5 0
v -26 -21.5 0
v -26 -21 0
v -25.5 -21 0
v -24.5 -22 0
v -25 -22 0
v -25 -21.5 0
v -24.5 -21.5 0
v -25 -22 0
v -25.5 -22 0
v -25.5 -21.5 0
v -25 -21.5 0
v -25.5 -22 0
v -26 -22 0
v -26 -21.5 0
v -25.5 -21.5 0
v -2 -51.5 0
v -2.5 -51.5 0
v -2.5 -51 0
v -2 -51 0
v -3.5 -51.5 0
v -4 -51.5 0
v -4 -51 0
v -3.5 -51 0
v -2 -52 0
v -2.5 -52 0
v -2.5 -51.5 0
v -2 -51.5 0
v -3.5 -52 0
v -4 -52 0
v -4 -51.5 0
v -3.5 -51.5 0
v -2.5 -56 0
v -3 -56 0
v -3 -55.5 0
v -2.5 -55.5 0
v -3 -56 0
v -3.5 -56 0
v -3.5 -55.5 0
v -3 -55.5 0
v -2 -58 0
v -2.5 -58 0
v -2.5 -57.5 0
v -2 -57.5 0
v -2.5 -58 0
v -3 -58 0
v -3 -57.5 0
v -2.5 -57.5 0
v -3 -58 0
v -3.5 -58 0
v -3.5 -57.5 0
v -3 -57.5 0
v -3.5 -58 0
v -4 -58 0
v -4 -57.5 0
v -3.5 -57.5 0
v -2 -58.5 0
v -2.5 -58.5 0
v -2.5 -58 0
v -2 -58 0
v -2.5 -58.5 0
v -3 -58.5 0
v -3 -58 0
v -2.5 -58 0
v -3 -58.5 0
v -3.5 -58.5 0
v -3.5 -58 0
v -3 -58 0
v -3.5 -58.5 0
v -4 -58.5 0
v -4 -58 0
v -3.5 -58 0

# Texture cooridinates (Count = 45)
vt 0.0625 0.78125
vt 0.09375 0.78125
vt 0.09375 0.8125
vt 0.0625 0.8125
vt 0.125 0.78125
vt 0.125 0.8125
vt 0.15625 0.78125
vt 0.15625 0.8125
vt 0.0625 0.75
vt 0.09375 0.75
vt 0.125 0.75
vt 0.15625 0.75
vt 0.875 0.90625
vt 0.90625 0.90625
vt 0.90625 0.9375
vt 0.875 0.9375
vt 0.96875 0.90625
vt 1 0.90625
vt 1 0.9375
vt 0.96875 0.9375
vt 0.875 0.875
vt 0.90625 0.875
vt 0.96875 0.875
vt 1 0.875
vt 0.90625 0.625
vt 0.9375 0.625
vt 0.9375 0.65625
vt 0.90625 0.65625
vt 0.96875 0.625
vt 0.96875 0.65625
vt 0.875 0.34375
vt 0.90625 0.34375
vt 0.90625 0.375
vt 0.875 0.375
vt 0.9375 0.34375
vt 0.9375 0.375
vt 0.96875 0.34375
vt 0.96875 0.375
vt 1 0.34375
vt 1 0.375
vt 0.875 0.3125
vt 0.90625 0.3125
vt 0.9375 0.3125
vt 0.96875 0.3125
vt 1 0.3125

# Normal
vn 0 0 -1

# Mesh description
g ciudadPrincipal_mesh_0036

# Faces
f 1/1/1 2/2/1 3/3/1 4/4/1
f 5/2/1 6/5/1 7/6/1 8/3/1
f 9/5/1 10/7/1 11/8/1 12/6/1
f 13/9/1 14/10/1 15/2/1 16/1/1
f 17/10/1 18/11/1 19/5/1 20/2/1
f 21/11/1 22/12/1 23/7/1 24/5/1
f 25/13/1 26/14/1 27/15/1 28/16/1
f 29/17/1 30/18/1 31/19/1 32/20/1
f 33/21/1 34/22/1 35/14/1 36/13/1
f 37/23/1 38/24/1 39/18/1 40/17/1
f 41/25/1 42/26/1 43/27/1 44/28/1
f 45/26/1 46/29/1 47/30/1 48/27/1
f 49/31/1 50/32/1 51/33/1 52/34/1
f 53/32/1 54/35/1 55/36/1 56/33/1
f 57/35/1 58/37/1 59/38/1 60/36/1
f 61/37/1 62/39/1 63/40/1 64/38/1
f 65/41/1 66/42/1 67/32/1 68/31/1
f 69/42/1 70/43/1 71/35/1 72/32/1
f 73/43/1 74/44/1 75/37/1 76/35/1
f 77/44/1 78/45/1 79/39/1 80/37/1

