# Tiled2Unity generated file. Do not modify by hand.
# Wavefront file for 'ciudadPrincipal_mesh_0057.obj'

# Vertices (Count = 32)
v -75 -41 0
v -75.5 -41 0
v -75.5 -40.5 0
v -75 -40.5 0
v -75.5 -41 0
v -76 -41 0
v -76 -40.5 0
v -75.5 -40.5 0
v -75 -41.5 0
v -75.5 -41.5 0
v -75.5 -41 0
v -75 -41 0
v -75.5 -41.5 0
v -76 -41.5 0
v -76 -41 0
v -75.5 -41 0
v -75 -42 0
v -75.5 -42 0
v -75.5 -41.5 0
v -75 -41.5 0
v -75.5 -42 0
v -76 -42 0
v -76 -41.5 0
v -75.5 -41.5 0
v -75 -42.5 0
v -75.5 -42.5 0
v -75.5 -42 0
v -75 -42 0
v -75.5 -42.5 0
v -76 -42.5 0
v -76 -42 0
v -75.5 -42 0

# Texture cooridinates (Count = 15)
vt 0.75 0.9878049
vt 0.8125 0.9878049
vt 0.8125 1
vt 0.75 1
vt 0.875 0.9878049
vt 0.875 1
vt 0.75 0.9756098
vt 0.8125 0.9756098
vt 0.875 0.9756098
vt 0.75 0.9634146
vt 0.8125 0.9634146
vt 0.875 0.9634146
vt 0.75 0.9512195
vt 0.8125 0.9512195
vt 0.875 0.9512195

# Normal
vn 0 0 -1

# Mesh description
g ciudadPrincipal_mesh_0057

# Faces
f 1/1/1 2/2/1 3/3/1 4/4/1
f 5/2/1 6/5/1 7/6/1 8/3/1
f 9/7/1 10/8/1 11/2/1 12/1/1
f 13/8/1 14/9/1 15/5/1 16/2/1
f 17/10/1 18/11/1 19/8/1 20/7/1
f 21/11/1 22/12/1 23/9/1 24/8/1
f 25/13/1 26/14/1 27/11/1 28/10/1
f 29/14/1 30/15/1 31/12/1 32/11/1

