# Tiled2Unity generated file. Do not modify by hand.
# Wavefront file for 'CasaDeLucas_mesh_0003.obj'

# Vertices (Count = 72)
v -4 -1 0
v -4.5 -1 0
v -4.5 -0.5 0
v -4 -0.5 0
v -4.5 -1 0
v -5 -1 0
v -5 -0.5 0
v -4.5 -0.5 0
v -4 -1.5 0
v -4.5 -1.5 0
v -4.5 -1 0
v -4 -1 0
v -4.5 -1.5 0
v -5 -1.5 0
v -5 -1 0
v -4.5 -1 0
v -4 -2 0
v -4.5 -2 0
v -4.5 -1.5 0
v -4 -1.5 0
v -4.5 -2 0
v -5 -2 0
v -5 -1.5 0
v -4.5 -1.5 0
v -3.5 -4.5 0
v -4 -4.5 0
v -4 -4 0
v -3.5 -4 0
v -4 -4.5 0
v -4.5 -4.5 0
v -4.5 -4 0
v -4 -4 0
v -4.5 -4.5 0
v -5 -4.5 0
v -5 -4 0
v -4.5 -4 0
v -5 -4.5 0
v -5.5 -4.5 0
v -5.5 -4 0
v -5 -4 0
v -5.5 -4.5 0
v -6 -4.5 0
v -6 -4 0
v -5.5 -4 0
v -6 -4.5 0
v -6.5 -4.5 0
v -6.5 -4 0
v -6 -4 0
v -3.5 -5 0
v -4 -5 0
v -4 -4.5 0
v -3.5 -4.5 0
v -4 -5 0
v -4.5 -5 0
v -4.5 -4.5 0
v -4 -4.5 0
v -4.5 -5 0
v -5 -5 0
v -5 -4.5 0
v -4.5 -4.5 0
v -5 -5 0
v -5.5 -5 0
v -5.5 -4.5 0
v -5 -4.5 0
v -5.5 -5 0
v -6 -5 0
v -6 -4.5 0
v -5.5 -4.5 0
v -6 -5 0
v -6.5 -5 0
v -6.5 -4.5 0
v -6 -4.5 0

# Texture cooridinates (Count = 30)
vt 0.75 0.78125
vt 0.78125 0.78125
vt 0.78125 0.8125
vt 0.75 0.8125
vt 0.8125 0.78125
vt 0.8125 0.8125
vt 0.75 0.75
vt 0.78125 0.75
vt 0.8125 0.75
vt 0.75 0.71875
vt 0.78125 0.71875
vt 0.8125 0.71875
vt 0.5 0.90625
vt 0.53125 0.90625
vt 0.53125 0.9375
vt 0.5 0.9375
vt 0.5625 0.90625
vt 0.5625 0.9375
vt 0.375 0.53125
vt 0.40625 0.53125
vt 0.40625 0.5625
vt 0.375 0.5625
vt 0.4375 0.53125
vt 0.4375 0.5625
vt 0.5 0.875
vt 0.53125 0.875
vt 0.5625 0.875
vt 0.375 0.5
vt 0.40625 0.5
vt 0.4375 0.5

# Normal
vn 0 0 -1

# Mesh description
g CasaDeLucas_mesh_0003

# Faces
f 1/1/1 2/2/1 3/3/1 4/4/1
f 5/2/1 6/5/1 7/6/1 8/3/1
f 9/7/1 10/8/1 11/2/1 12/1/1
f 13/8/1 14/9/1 15/5/1 16/2/1
f 17/10/1 18/11/1 19/8/1 20/7/1
f 21/11/1 22/12/1 23/9/1 24/8/1
f 25/13/1 26/14/1 27/15/1 28/16/1
f 29/14/1 30/17/1 31/18/1 32/15/1
f 33/19/1 34/20/1 35/21/1 36/22/1
f 37/20/1 38/23/1 39/24/1 40/21/1
f 41/13/1 42/14/1 43/15/1 44/16/1
f 45/14/1 46/17/1 47/18/1 48/15/1
f 49/25/1 50/26/1 51/14/1 52/13/1
f 53/26/1 54/27/1 55/17/1 56/14/1
f 57/28/1 58/29/1 59/20/1 60/19/1
f 61/29/1 62/30/1 63/23/1 64/20/1
f 65/25/1 66/26/1 67/14/1 68/13/1
f 69/26/1 70/27/1 71/17/1 72/14/1

