# Tiled2Unity generated file. Do not modify by hand.
# Wavefront file for 'CasaDeLucas_mesh_0002.obj'

# Vertices (Count = 432)
v -2.5 -3 0
v -3 -3 0
v -3 -2.5 0
v -2.5 -2.5 0
v -3 -3 0
v -3.5 -3 0
v -3.5 -2.5 0
v -3 -2.5 0
v -3.5 -3 0
v -4 -3 0
v -4 -2.5 0
v -3.5 -2.5 0
v -4 -3 0
v -4.5 -3 0
v -4.5 -2.5 0
v -4 -2.5 0
v -4.5 -3 0
v -5 -3 0
v -5 -2.5 0
v -4.5 -2.5 0
v -5 -3 0
v -5.5 -3 0
v -5.5 -2.5 0
v -5 -2.5 0
v -5.5 -3 0
v -6 -3 0
v -6 -2.5 0
v -5.5 -2.5 0
v -6 -3 0
v -6.5 -3 0
v -6.5 -2.5 0
v -6 -2.5 0
v -6.5 -3 0
v -7 -3 0
v -7 -2.5 0
v -6.5 -2.5 0
v -7 -3 0
v -7.5 -3 0
v -7.5 -2.5 0
v -7 -2.5 0
v -2.5 -3.5 0
v -3 -3.5 0
v -3 -3 0
v -2.5 -3 0
v -3 -3.5 0
v -3.5 -3.5 0
v -3.5 -3 0
v -3 -3 0
v -3.5 -3.5 0
v -4 -3.5 0
v -4 -3 0
v -3.5 -3 0
v -4 -3.5 0
v -4.5 -3.5 0
v -4.5 -3 0
v -4 -3 0
v -4.5 -3.5 0
v -5 -3.5 0
v -5 -3 0
v -4.5 -3 0
v -5 -3.5 0
v -5.5 -3.5 0
v -5.5 -3 0
v -5 -3 0
v -5.5 -3.5 0
v -6 -3.5 0
v -6 -3 0
v -5.5 -3 0
v -6 -3.5 0
v -6.5 -3.5 0
v -6.5 -3 0
v -6 -3 0
v -6.5 -3.5 0
v -7 -3.5 0
v -7 -3 0
v -6.5 -3 0
v -7 -3.5 0
v -7.5 -3.5 0
v -7.5 -3 0
v -7 -3 0
v -2.5 -4 0
v -3 -4 0
v -3 -3.5 0
v -2.5 -3.5 0
v -3 -4 0
v -3.5 -4 0
v -3.5 -3.5 0
v -3 -3.5 0
v -3.5 -4 0
v -4 -4 0
v -4 -3.5 0
v -3.5 -3.5 0
v -4 -4 0
v -4.5 -4 0
v -4.5 -3.5 0
v -4 -3.5 0
v -4.5 -4 0
v -5 -4 0
v -5 -3.5 0
v -4.5 -3.5 0
v -5 -4 0
v -5.5 -4 0
v -5.5 -3.5 0
v -5 -3.5 0
v -5.5 -4 0
v -6 -4 0
v -6 -3.5 0
v -5.5 -3.5 0
v -6 -4 0
v -6.5 -4 0
v -6.5 -3.5 0
v -6 -3.5 0
v -6.5 -4 0
v -7 -4 0
v -7 -3.5 0
v -6.5 -3.5 0
v -7 -4 0
v -7.5 -4 0
v -7.5 -3.5 0
v -7 -3.5 0
v -2.5 -4.5 0
v -3 -4.5 0
v -3 -4 0
v -2.5 -4 0
v -3 -4.5 0
v -3.5 -4.5 0
v -3.5 -4 0
v -3 -4 0
v -3.5 -4.5 0
v -4 -4.5 0
v -4 -4 0
v -3.5 -4 0
v -4 -4.5 0
v -4.5 -4.5 0
v -4.5 -4 0
v -4 -4 0
v -4.5 -4.5 0
v -5 -4.5 0
v -5 -4 0
v -4.5 -4 0
v -5 -4.5 0
v -5.5 -4.5 0
v -5.5 -4 0
v -5 -4 0
v -5.5 -4.5 0
v -6 -4.5 0
v -6 -4 0
v -5.5 -4 0
v -6 -4.5 0
v -6.5 -4.5 0
v -6.5 -4 0
v -6 -4 0
v -6.5 -4.5 0
v -7 -4.5 0
v -7 -4 0
v -6.5 -4 0
v -7 -4.5 0
v -7.5 -4.5 0
v -7.5 -4 0
v -7 -4 0
v -2.5 -5 0
v -3 -5 0
v -3 -4.5 0
v -2.5 -4.5 0
v -3 -5 0
v -3.5 -5 0
v -3.5 -4.5 0
v -3 -4.5 0
v -3.5 -5 0
v -4 -5 0
v -4 -4.5 0
v -3.5 -4.5 0
v -4 -5 0
v -4.5 -5 0
v -4.5 -4.5 0
v -4 -4.5 0
v -4.5 -5 0
v -5 -5 0
v -5 -4.5 0
v -4.5 -4.5 0
v -5 -5 0
v -5.5 -5 0
v -5.5 -4.5 0
v -5 -4.5 0
v -5.5 -5 0
v -6 -5 0
v -6 -4.5 0
v -5.5 -4.5 0
v -6 -5 0
v -6.5 -5 0
v -6.5 -4.5 0
v -6 -4.5 0
v -6.5 -5 0
v -7 -5 0
v -7 -4.5 0
v -6.5 -4.5 0
v -7 -5 0
v -7.5 -5 0
v -7.5 -4.5 0
v -7 -4.5 0
v -2.5 -5.5 0
v -3 -5.5 0
v -3 -5 0
v -2.5 -5 0
v -3 -5.5 0
v -3.5 -5.5 0
v -3.5 -5 0
v -3 -5 0
v -3.5 -5.5 0
v -4 -5.5 0
v -4 -5 0
v -3.5 -5 0
v -4 -5.5 0
v -4.5 -5.5 0
v -4.5 -5 0
v -4 -5 0
v -4.5 -5.5 0
v -5 -5.5 0
v -5 -5 0
v -4.5 -5 0
v -5 -5.5 0
v -5.5 -5.5 0
v -5.5 -5 0
v -5 -5 0
v -5.5 -5.5 0
v -6 -5.5 0
v -6 -5 0
v -5.5 -5 0
v -6 -5.5 0
v -6.5 -5.5 0
v -6.5 -5 0
v -6 -5 0
v -6.5 -5.5 0
v -7 -5.5 0
v -7 -5 0
v -6.5 -5 0
v -7 -5.5 0
v -7.5 -5.5 0
v -7.5 -5 0
v -7 -5 0
v -2.5 -6 0
v -3 -6 0
v -3 -5.5 0
v -2.5 -5.5 0
v -3 -6 0
v -3.5 -6 0
v -3.5 -5.5 0
v -3 -5.5 0
v -3.5 -6 0
v -4 -6 0
v -4 -5.5 0
v -3.5 -5.5 0
v -2.5 -6.5 0
v -3 -6.5 0
v -3 -6 0
v -2.5 -6 0
v -3 -6.5 0
v -3.5 -6.5 0
v -3.5 -6 0
v -3 -6 0
v -3.5 -6.5 0
v -4 -6.5 0
v -4 -6 0
v -3.5 -6 0
v -2.5 -7 0
v -3 -7 0
v -3 -6.5 0
v -2.5 -6.5 0
v -3 -7 0
v -3.5 -7 0
v -3.5 -6.5 0
v -3 -6.5 0
v -3.5 -7 0
v -4 -7 0
v -4 -6.5 0
v -3.5 -6.5 0
v -4 -7 0
v -4.5 -7 0
v -4.5 -6.5 0
v -4 -6.5 0
v -4.5 -7 0
v -5 -7 0
v -5 -6.5 0
v -4.5 -6.5 0
v -5 -7 0
v -5.5 -7 0
v -5.5 -6.5 0
v -5 -6.5 0
v -5.5 -7 0
v -6 -7 0
v -6 -6.5 0
v -5.5 -6.5 0
v -6 -7 0
v -6.5 -7 0
v -6.5 -6.5 0
v -6 -6.5 0
v -6.5 -7 0
v -7 -7 0
v -7 -6.5 0
v -6.5 -6.5 0
v -7 -7 0
v -7.5 -7 0
v -7.5 -6.5 0
v -7 -6.5 0
v -2.5 -7.5 0
v -3 -7.5 0
v -3 -7 0
v -2.5 -7 0
v -3 -7.5 0
v -3.5 -7.5 0
v -3.5 -7 0
v -3 -7 0
v -3.5 -7.5 0
v -4 -7.5 0
v -4 -7 0
v -3.5 -7 0
v -4 -7.5 0
v -4.5 -7.5 0
v -4.5 -7 0
v -4 -7 0
v -4.5 -7.5 0
v -5 -7.5 0
v -5 -7 0
v -4.5 -7 0
v -5 -7.5 0
v -5.5 -7.5 0
v -5.5 -7 0
v -5 -7 0
v -5.5 -7.5 0
v -6 -7.5 0
v -6 -7 0
v -5.5 -7 0
v -6 -7.5 0
v -6.5 -7.5 0
v -6.5 -7 0
v -6 -7 0
v -6.5 -7.5 0
v -7 -7.5 0
v -7 -7 0
v -6.5 -7 0
v -7 -7.5 0
v -7.5 -7.5 0
v -7.5 -7 0
v -7 -7 0
v -2.5 -8 0
v -3 -8 0
v -3 -7.5 0
v -2.5 -7.5 0
v -3 -8 0
v -3.5 -8 0
v -3.5 -7.5 0
v -3 -7.5 0
v -3.5 -8 0
v -4 -8 0
v -4 -7.5 0
v -3.5 -7.5 0
v -4 -8 0
v -4.5 -8 0
v -4.5 -7.5 0
v -4 -7.5 0
v -4.5 -8 0
v -5 -8 0
v -5 -7.5 0
v -4.5 -7.5 0
v -5 -8 0
v -5.5 -8 0
v -5.5 -7.5 0
v -5 -7.5 0
v -5.5 -8 0
v -6 -8 0
v -6 -7.5 0
v -5.5 -7.5 0
v -6 -8 0
v -6.5 -8 0
v -6.5 -7.5 0
v -6 -7.5 0
v -6.5 -8 0
v -7 -8 0
v -7 -7.5 0
v -6.5 -7.5 0
v -7 -8 0
v -7.5 -8 0
v -7.5 -7.5 0
v -7 -7.5 0
v -2.5 -8.5 0
v -3 -8.5 0
v -3 -8 0
v -2.5 -8 0
v -3 -8.5 0
v -3.5 -8.5 0
v -3.5 -8 0
v -3 -8 0
v -3.5 -8.5 0
v -4 -8.5 0
v -4 -8 0
v -3.5 -8 0
v -4 -8.5 0
v -4.5 -8.5 0
v -4.5 -8 0
v -4 -8 0
v -4.5 -8.5 0
v -5 -8.5 0
v -5 -8 0
v -4.5 -8 0
v -5 -8.5 0
v -5.5 -8.5 0
v -5.5 -8 0
v -5 -8 0
v -5.5 -8.5 0
v -6 -8.5 0
v -6 -8 0
v -5.5 -8 0
v -6 -8.5 0
v -6.5 -8.5 0
v -6.5 -8 0
v -6 -8 0
v -6.5 -8.5 0
v -7 -8.5 0
v -7 -8 0
v -6.5 -8 0
v -7 -8.5 0
v -7.5 -8.5 0
v -7.5 -8 0
v -7 -8 0
v -4.5 -9 0
v -5 -9 0
v -5 -8.5 0
v -4.5 -8.5 0
v -5 -9 0
v -5.5 -9 0
v -5.5 -8.5 0
v -5 -8.5 0

# Texture cooridinates (Count = 9)
vt 0.4375 0.59375
vt 0.5 0.59375
vt 0.5 0.625
vt 0.4375 0.625
vt 0.375 0.59375
vt 0.375 0.625
vt 0.4375 0.5625
vt 0.5 0.5625
vt 0.375 0.5625

# Normal
vn 0 0 -1

# Mesh description
g CasaDeLucas_mesh_0002

# Faces
f 1/1/1 2/2/1 3/3/1 4/4/1
f 5/5/1 6/1/1 7/4/1 8/6/1
f 9/1/1 10/2/1 11/3/1 12/4/1
f 13/5/1 14/1/1 15/4/1 16/6/1
f 17/1/1 18/2/1 19/3/1 20/4/1
f 21/5/1 22/1/1 23/4/1 24/6/1
f 25/1/1 26/2/1 27/3/1 28/4/1
f 29/5/1 30/1/1 31/4/1 32/6/1
f 33/1/1 34/2/1 35/3/1 36/4/1
f 37/5/1 38/1/1 39/4/1 40/6/1
f 41/7/1 42/8/1 43/2/1 44/1/1
f 45/9/1 46/7/1 47/1/1 48/5/1
f 49/7/1 50/8/1 51/2/1 52/1/1
f 53/9/1 54/7/1 55/1/1 56/5/1
f 57/7/1 58/8/1 59/2/1 60/1/1
f 61/9/1 62/7/1 63/1/1 64/5/1
f 65/7/1 66/8/1 67/2/1 68/1/1
f 69/9/1 70/7/1 71/1/1 72/5/1
f 73/7/1 74/8/1 75/2/1 76/1/1
f 77/9/1 78/7/1 79/1/1 80/5/1
f 81/1/1 82/2/1 83/3/1 84/4/1
f 85/5/1 86/1/1 87/4/1 88/6/1
f 89/1/1 90/2/1 91/3/1 92/4/1
f 93/5/1 94/1/1 95/4/1 96/6/1
f 97/1/1 98/2/1 99/3/1 100/4/1
f 101/5/1 102/1/1 103/4/1 104/6/1
f 105/1/1 106/2/1 107/3/1 108/4/1
f 109/5/1 110/1/1 111/4/1 112/6/1
f 113/1/1 114/2/1 115/3/1 116/4/1
f 117/5/1 118/1/1 119/4/1 120/6/1
f 121/7/1 122/8/1 123/2/1 124/1/1
f 125/9/1 126/7/1 127/1/1 128/5/1
f 129/7/1 130/8/1 131/2/1 132/1/1
f 133/9/1 134/7/1 135/1/1 136/5/1
f 137/7/1 138/8/1 139/2/1 140/1/1
f 141/9/1 142/7/1 143/1/1 144/5/1
f 145/7/1 146/8/1 147/2/1 148/1/1
f 149/9/1 150/7/1 151/1/1 152/5/1
f 153/7/1 154/8/1 155/2/1 156/1/1
f 157/9/1 158/7/1 159/1/1 160/5/1
f 161/1/1 162/2/1 163/3/1 164/4/1
f 165/5/1 166/1/1 167/4/1 168/6/1
f 169/1/1 170/2/1 171/3/1 172/4/1
f 173/5/1 174/1/1 175/4/1 176/6/1
f 177/1/1 178/2/1 179/3/1 180/4/1
f 181/5/1 182/1/1 183/4/1 184/6/1
f 185/1/1 186/2/1 187/3/1 188/4/1
f 189/5/1 190/1/1 191/4/1 192/6/1
f 193/1/1 194/2/1 195/3/1 196/4/1
f 197/5/1 198/1/1 199/4/1 200/6/1
f 201/7/1 202/8/1 203/2/1 204/1/1
f 205/9/1 206/7/1 207/1/1 208/5/1
f 209/7/1 210/8/1 211/2/1 212/1/1
f 213/9/1 214/7/1 215/1/1 216/5/1
f 217/7/1 218/8/1 219/2/1 220/1/1
f 221/9/1 222/7/1 223/1/1 224/5/1
f 225/7/1 226/8/1 227/2/1 228/1/1
f 229/9/1 230/7/1 231/1/1 232/5/1
f 233/7/1 234/8/1 235/2/1 236/1/1
f 237/9/1 238/7/1 239/1/1 240/5/1
f 241/1/1 242/2/1 243/3/1 244/4/1
f 245/5/1 246/1/1 247/4/1 248/6/1
f 249/1/1 250/2/1 251/3/1 252/4/1
f 253/7/1 254/8/1 255/2/1 256/1/1
f 257/9/1 258/7/1 259/1/1 260/5/1
f 261/7/1 262/8/1 263/2/1 264/1/1
f 265/1/1 266/2/1 267/3/1 268/4/1
f 269/5/1 270/1/1 271/4/1 272/6/1
f 273/1/1 274/2/1 275/3/1 276/4/1
f 277/5/1 278/1/1 279/4/1 280/6/1
f 281/1/1 282/2/1 283/3/1 284/4/1
f 285/5/1 286/1/1 287/4/1 288/6/1
f 289/1/1 290/2/1 291/3/1 292/4/1
f 293/5/1 294/1/1 295/4/1 296/6/1
f 297/1/1 298/2/1 299/3/1 300/4/1
f 301/5/1 302/1/1 303/4/1 304/6/1
f 305/7/1 306/8/1 307/2/1 308/1/1
f 309/9/1 310/7/1 311/1/1 312/5/1
f 313/7/1 314/8/1 315/2/1 316/1/1
f 317/9/1 318/7/1 319/1/1 320/5/1
f 321/7/1 322/8/1 323/2/1 324/1/1
f 325/9/1 326/7/1 327/1/1 328/5/1
f 329/7/1 330/8/1 331/2/1 332/1/1
f 333/9/1 334/7/1 335/1/1 336/5/1
f 337/7/1 338/8/1 339/2/1 340/1/1
f 341/9/1 342/7/1 343/1/1 344/5/1
f 345/1/1 346/2/1 347/3/1 348/4/1
f 349/5/1 350/1/1 351/4/1 352/6/1
f 353/1/1 354/2/1 355/3/1 356/4/1
f 357/5/1 358/1/1 359/4/1 360/6/1
f 361/1/1 362/2/1 363/3/1 364/4/1
f 365/5/1 366/1/1 367/4/1 368/6/1
f 369/1/1 370/2/1 371/3/1 372/4/1
f 373/5/1 374/1/1 375/4/1 376/6/1
f 377/1/1 378/2/1 379/3/1 380/4/1
f 381/5/1 382/1/1 383/4/1 384/6/1
f 385/7/1 386/8/1 387/2/1 388/1/1
f 389/9/1 390/7/1 391/1/1 392/5/1
f 393/7/1 394/8/1 395/2/1 396/1/1
f 397/9/1 398/7/1 399/1/1 400/5/1
f 401/7/1 402/8/1 403/2/1 404/1/1
f 405/9/1 406/7/1 407/1/1 408/5/1
f 409/7/1 410/8/1 411/2/1 412/1/1
f 413/9/1 414/7/1 415/1/1 416/5/1
f 417/7/1 418/8/1 419/2/1 420/1/1
f 421/9/1 422/7/1 423/1/1 424/5/1
f 425/1/1 426/2/1 427/3/1 428/4/1
f 429/5/1 430/1/1 431/4/1 432/6/1

