# Tiled2Unity generated file. Do not modify by hand.
# Wavefront file for 'CasaDeLucas_mesh_0004.obj'

# Vertices (Count = 128)
v -2.5 -1.5 0
v -3 -1.5 0
v -3 -1 0
v -2.5 -1 0
v -3 -1.5 0
v -3.5 -1.5 0
v -3.5 -1 0
v -3 -1 0
v -5.5 -1.5 0
v -6 -1.5 0
v -6 -1 0
v -5.5 -1 0
v -6 -1.5 0
v -6.5 -1.5 0
v -6.5 -1 0
v -6 -1 0
v -6.5 -1.5 0
v -7 -1.5 0
v -7 -1 0
v -6.5 -1 0
v -7 -1.5 0
v -7.5 -1.5 0
v -7.5 -1 0
v -7 -1 0
v -2.5 -2 0
v -3 -2 0
v -3 -1.5 0
v -2.5 -1.5 0
v -3 -2 0
v -3.5 -2 0
v -3.5 -1.5 0
v -3 -1.5 0
v -5.5 -2 0
v -6 -2 0
v -6 -1.5 0
v -5.5 -1.5 0
v -6 -2 0
v -6.5 -2 0
v -6.5 -1.5 0
v -6 -1.5 0
v -6.5 -2 0
v -7 -2 0
v -7 -1.5 0
v -6.5 -1.5 0
v -7 -2 0
v -7.5 -2 0
v -7.5 -1.5 0
v -7 -1.5 0
v -2.5 -2.5 0
v -3 -2.5 0
v -3 -2 0
v -2.5 -2 0
v -3 -2.5 0
v -3.5 -2.5 0
v -3.5 -2 0
v -3 -2 0
v -5.5 -2.5 0
v -6 -2.5 0
v -6 -2 0
v -5.5 -2 0
v -6 -2.5 0
v -6.5 -2.5 0
v -6.5 -2 0
v -6 -2 0
v -6.5 -2.5 0
v -7 -2.5 0
v -7 -2 0
v -6.5 -2 0
v -7 -2.5 0
v -7.5 -2.5 0
v -7.5 -2 0
v -7 -2 0
v -2.5 -3 0
v -3 -3 0
v -3 -2.5 0
v -2.5 -2.5 0
v -3 -3 0
v -3.5 -3 0
v -3.5 -2.5 0
v -3 -2.5 0
v -5.5 -3 0
v -6 -3 0
v -6 -2.5 0
v -5.5 -2.5 0
v -6 -3 0
v -6.5 -3 0
v -6.5 -2.5 0
v -6 -2.5 0
v -6.5 -3 0
v -7 -3 0
v -7 -2.5 0
v -6.5 -2.5 0
v -7 -3 0
v -7.5 -3 0
v -7.5 -2.5 0
v -7 -2.5 0
v -6.5 -6.5 0
v -7 -6.5 0
v -7 -6 0
v -6.5 -6 0
v -7 -6.5 0
v -7.5 -6.5 0
v -7.5 -6 0
v -7 -6 0
v -6.5 -7 0
v -7 -7 0
v -7 -6.5 0
v -6.5 -6.5 0
v -7 -7 0
v -7.5 -7 0
v -7.5 -6.5 0
v -7 -6.5 0
v -2.5 -8 0
v -3 -8 0
v -3 -7.5 0
v -2.5 -7.5 0
v -3 -8 0
v -3.5 -8 0
v -3.5 -7.5 0
v -3 -7.5 0
v -2.5 -8.5 0
v -3 -8.5 0
v -3 -8 0
v -2.5 -8 0
v -3 -8.5 0
v -3.5 -8.5 0
v -3.5 -8 0
v -3 -8 0

# Texture cooridinates (Count = 60)
vt 0.3125 0.90625
vt 0.34375 0.90625
vt 0.34375 0.9375
vt 0.3125 0.9375
vt 0.28125 0.90625
vt 0.28125 0.9375
vt 0.25 0.78125
vt 0.28125 0.78125
vt 0.28125 0.8125
vt 0.25 0.8125
vt 0.3125 0.78125
vt 0.3125 0.8125
vt 0.1875 0.78125
vt 0.21875 0.78125
vt 0.21875 0.8125
vt 0.1875 0.8125
vt 0.3125 0.875
vt 0.34375 0.875
vt 0.28125 0.875
vt 0.3125 0.75
vt 0.34375 0.75
vt 0.34375 0.78125
vt 0.375 0.75
vt 0.375 0.78125
vt 0.1875 0.75
vt 0.21875 0.75
vt 0.25 0.75
vt 0.25 0.84375
vt 0.28125 0.84375
vt 0.25 0.875
vt 0.3125 0.84375
vt 0.25 0.71875
vt 0.28125 0.71875
vt 0.28125 0.75
vt 0.3125 0.71875
vt 0.1875 0.71875
vt 0.21875 0.71875
vt 0.25 0.6875
vt 0.28125 0.6875
vt 0.3125 0.6875
vt 0.1875 0.6875
vt 0.21875 0.6875
vt 0.6875 0.53125
vt 0.71875 0.53125
vt 0.71875 0.5625
vt 0.6875 0.5625
vt 0.75 0.53125
vt 0.75 0.5625
vt 0.6875 0.5
vt 0.71875 0.5
vt 0.75 0.5
vt 0.375 0.96875
vt 0.40625 0.96875
vt 0.40625 1
vt 0.375 1
vt 0.4375 0.96875
vt 0.4375 1
vt 0.375 0.9375
vt 0.40625 0.9375
vt 0.4375 0.9375

# Normal
vn 0 0 -1

# Mesh description
g CasaDeLucas_mesh_0004

# Faces
f 1/1/1 2/2/1 3/3/1 4/4/1
f 5/5/1 6/1/1 7/4/1 8/6/1
f 9/7/1 10/8/1 11/9/1 12/10/1
f 13/8/1 14/11/1 15/12/1 16/9/1
f 17/13/1 18/14/1 19/15/1 20/16/1
f 21/14/1 22/7/1 23/10/1 24/15/1
f 25/17/1 26/18/1 27/2/1 28/1/1
f 29/19/1 30/17/1 31/1/1 32/5/1
f 33/20/1 34/21/1 35/22/1 36/11/1
f 37/21/1 38/23/1 39/24/1 40/22/1
f 41/25/1 42/26/1 43/14/1 44/13/1
f 45/26/1 46/27/1 47/7/1 48/14/1
f 49/28/1 50/29/1 51/19/1 52/30/1
f 53/29/1 54/31/1 55/17/1 56/19/1
f 57/32/1 58/33/1 59/34/1 60/27/1
f 61/33/1 62/35/1 63/20/1 64/34/1
f 65/36/1 66/37/1 67/26/1 68/25/1
f 69/37/1 70/32/1 71/27/1 72/26/1
f 73/10/1 74/9/1 75/29/1 76/28/1
f 77/9/1 78/12/1 79/31/1 80/29/1
f 81/38/1 82/39/1 83/33/1 84/32/1
f 85/39/1 86/40/1 87/35/1 88/33/1
f 89/41/1 90/42/1 91/37/1 92/36/1
f 93/42/1 94/38/1 95/32/1 96/37/1
f 97/43/1 98/44/1 99/45/1 100/46/1
f 101/44/1 102/47/1 103/48/1 104/45/1
f 105/49/1 106/50/1 107/44/1 108/43/1
f 109/50/1 110/51/1 111/47/1 112/44/1
f 113/52/1 114/53/1 115/54/1 116/55/1
f 117/53/1 118/56/1 119/57/1 120/54/1
f 121/58/1 122/59/1 123/53/1 124/52/1
f 125/59/1 126/60/1 127/56/1 128/53/1

