# Tiled2Unity generated file. Do not modify by hand.
# Wavefront file for 'CasaDeClara_mesh_0001.obj'

# Vertices (Count = 224)
v -2 -2.5 0
v -2.5 -2.5 0
v -2.5 -2 0
v -2 -2 0
v -2.5 -2.5 0
v -3 -2.5 0
v -3 -2 0
v -2.5 -2 0
v -3 -2.5 0
v -3.5 -2.5 0
v -3.5 -2 0
v -3 -2 0
v -3.5 -2.5 0
v -4 -2.5 0
v -4 -2 0
v -3.5 -2 0
v -4 -2.5 0
v -4.5 -2.5 0
v -4.5 -2 0
v -4 -2 0
v -4.5 -2.5 0
v -5 -2.5 0
v -5 -2 0
v -4.5 -2 0
v -5 -2.5 0
v -5.5 -2.5 0
v -5.5 -2 0
v -5 -2 0
v -5.5 -2.5 0
v -6 -2.5 0
v -6 -2 0
v -5.5 -2 0
v -6 -2.5 0
v -6.5 -2.5 0
v -6.5 -2 0
v -6 -2 0
v -6.5 -2.5 0
v -7 -2.5 0
v -7 -2 0
v -6.5 -2 0
v -7 -2.5 0
v -7.5 -2.5 0
v -7.5 -2 0
v -7 -2 0
v -7.5 -2.5 0
v -8 -2.5 0
v -8 -2 0
v -7.5 -2 0
v -2 -3 0
v -2.5 -3 0
v -2.5 -2.5 0
v -2 -2.5 0
v -7.5 -3 0
v -8 -3 0
v -8 -2.5 0
v -7.5 -2.5 0
v -2 -3.5 0
v -2.5 -3.5 0
v -2.5 -3 0
v -2 -3 0
v -7.5 -3.5 0
v -8 -3.5 0
v -8 -3 0
v -7.5 -3 0
v -2 -4 0
v -2.5 -4 0
v -2.5 -3.5 0
v -2 -3.5 0
v -7.5 -4 0
v -8 -4 0
v -8 -3.5 0
v -7.5 -3.5 0
v -2 -4.5 0
v -2.5 -4.5 0
v -2.5 -4 0
v -2 -4 0
v -7.5 -4.5 0
v -8 -4.5 0
v -8 -4 0
v -7.5 -4 0
v -2 -5 0
v -2.5 -5 0
v -2.5 -4.5 0
v -2 -4.5 0
v -5 -5 0
v -5.5 -5 0
v -5.5 -4.5 0
v -5 -4.5 0
v -5.5 -5 0
v -6 -5 0
v -6 -4.5 0
v -5.5 -4.5 0
v -6 -5 0
v -6.5 -5 0
v -6.5 -4.5 0
v -6 -4.5 0
v -6.5 -5 0
v -7 -5 0
v -7 -4.5 0
v -6.5 -4.5 0
v -7 -5 0
v -7.5 -5 0
v -7.5 -4.5 0
v -7 -4.5 0
v -7.5 -5 0
v -8 -5 0
v -8 -4.5 0
v -7.5 -4.5 0
v -2 -5.5 0
v -2.5 -5.5 0
v -2.5 -5 0
v -2 -5 0
v -5 -5.5 0
v -5.5 -5.5 0
v -5.5 -5 0
v -5 -5 0
v -5.5 -5.5 0
v -6 -5.5 0
v -6 -5 0
v -5.5 -5 0
v -6 -5.5 0
v -6.5 -5.5 0
v -6.5 -5 0
v -6 -5 0
v -6.5 -5.5 0
v -7 -5.5 0
v -7 -5 0
v -6.5 -5 0
v -7 -5.5 0
v -7.5 -5.5 0
v -7.5 -5 0
v -7 -5 0
v -7.5 -5.5 0
v -8 -5.5 0
v -8 -5 0
v -7.5 -5 0
v -2 -6 0
v -2.5 -6 0
v -2.5 -5.5 0
v -2 -5.5 0
v -7.5 -6 0
v -8 -6 0
v -8 -5.5 0
v -7.5 -5.5 0
v -2 -6.5 0
v -2.5 -6.5 0
v -2.5 -6 0
v -2 -6 0
v -7.5 -6.5 0
v -8 -6.5 0
v -8 -6 0
v -7.5 -6 0
v -2 -7 0
v -2.5 -7 0
v -2.5 -6.5 0
v -2 -6.5 0
v -7.5 -7 0
v -8 -7 0
v -8 -6.5 0
v -7.5 -6.5 0
v -2 -7.5 0
v -2.5 -7.5 0
v -2.5 -7 0
v -2 -7 0
v -7.5 -7.5 0
v -8 -7.5 0
v -8 -7 0
v -7.5 -7 0
v -2 -8 0
v -2.5 -8 0
v -2.5 -7.5 0
v -2 -7.5 0
v -7.5 -8 0
v -8 -8 0
v -8 -7.5 0
v -7.5 -7.5 0
v -2 -8.5 0
v -2.5 -8.5 0
v -2.5 -8 0
v -2 -8 0
v -7.5 -8.5 0
v -8 -8.5 0
v -8 -8 0
v -7.5 -8 0
v -2 -9 0
v -2.5 -9 0
v -2.5 -8.5 0
v -2 -8.5 0
v -2.5 -9 0
v -3 -9 0
v -3 -8.5 0
v -2.5 -8.5 0
v -3 -9 0
v -3.5 -9 0
v -3.5 -8.5 0
v -3 -8.5 0
v -3.5 -9 0
v -4 -9 0
v -4 -8.5 0
v -3.5 -8.5 0
v -4 -9 0
v -4.5 -9 0
v -4.5 -8.5 0
v -4 -8.5 0
v -5.5 -9 0
v -6 -9 0
v -6 -8.5 0
v -5.5 -8.5 0
v -6 -9 0
v -6.5 -9 0
v -6.5 -8.5 0
v -6 -8.5 0
v -6.5 -9 0
v -7 -9 0
v -7 -8.5 0
v -6.5 -8.5 0
v -7 -9 0
v -7.5 -9 0
v -7.5 -8.5 0
v -7 -8.5 0
v -7.5 -9 0
v -8 -9 0
v -8 -8.5 0
v -7.5 -8.5 0

# Texture cooridinates (Count = 29)
vt 0.09375 0.2666667
vt 0.125 0.2666667
vt 0.125 0.3
vt 0.09375 0.3
vt 0.03125 0.1333333
vt 0.0625 0.1333333
vt 0.0625 0.1666667
vt 0.03125 0.1666667
vt 0.09375 0.1333333
vt 0.09375 0.1666667
vt 0.0625 0.2666667
vt 0.0625 0.3
vt 0.09375 0.2
vt 0.125 0.2
vt 0.125 0.2333333
vt 0.09375 0.2333333
vt 0 0.2
vt 0.03125 0.2
vt 0.03125 0.2333333
vt 0 0.2333333
vt 0.125 0.1666667
vt 0 0.1666667
vt 0.03125 0.2666667
vt 0 0.2666667
vt 0.0625 0.2333333
vt 0.09375 0.3333333
vt 0.0625 0.3333333
vt 0 0.1333333
vt 0.125 0.3333333

# Normal
vn 0 0 -1

# Mesh description
g CasaDeClara_mesh_0001

# Faces
f 1/1/1 2/2/1 3/3/1 4/4/1
f 5/5/1 6/6/1 7/7/1 8/8/1
f 9/5/1 10/6/1 11/7/1 12/8/1
f 13/5/1 14/6/1 15/7/1 16/8/1
f 17/5/1 18/6/1 19/7/1 20/8/1
f 21/5/1 22/6/1 23/7/1 24/8/1
f 25/5/1 26/6/1 27/7/1 28/8/1
f 29/5/1 30/6/1 31/7/1 32/8/1
f 33/5/1 34/6/1 35/7/1 36/8/1
f 37/5/1 38/6/1 39/7/1 40/8/1
f 41/6/1 42/9/1 43/10/1 44/7/1
f 45/11/1 46/1/1 47/4/1 48/12/1
f 49/13/1 50/14/1 51/15/1 52/16/1
f 53/17/1 54/18/1 55/19/1 56/20/1
f 57/10/1 58/21/1 59/14/1 60/13/1
f 61/22/1 62/8/1 63/18/1 64/17/1
f 65/10/1 66/21/1 67/14/1 68/13/1
f 69/22/1 70/8/1 71/18/1 72/17/1
f 73/10/1 74/21/1 75/14/1 76/13/1
f 77/22/1 78/8/1 79/18/1 80/17/1
f 81/10/1 82/21/1 83/14/1 84/13/1
f 85/20/1 86/19/1 87/23/1 88/24/1
f 89/19/1 90/25/1 91/11/1 92/23/1
f 93/25/1 94/16/1 95/1/1 96/11/1
f 97/19/1 98/25/1 99/11/1 100/23/1
f 101/25/1 102/16/1 103/1/1 104/11/1
f 105/12/1 106/4/1 107/26/1 108/27/1
f 109/10/1 110/21/1 111/14/1 112/13/1
f 113/28/1 114/5/1 115/8/1 116/22/1
f 117/5/1 118/6/1 119/7/1 120/8/1
f 121/5/1 122/6/1 123/7/1 124/8/1
f 125/5/1 126/6/1 127/7/1 128/8/1
f 129/5/1 130/6/1 131/7/1 132/8/1
f 133/11/1 134/1/1 135/4/1 136/12/1
f 137/13/1 138/14/1 139/15/1 140/16/1
f 141/22/1 142/8/1 143/18/1 144/17/1
f 145/10/1 146/21/1 147/14/1 148/13/1
f 149/22/1 150/8/1 151/18/1 152/17/1
f 153/13/1 154/14/1 155/15/1 156/16/1
f 157/22/1 158/8/1 159/18/1 160/17/1
f 161/10/1 162/21/1 163/14/1 164/13/1
f 165/22/1 166/8/1 167/18/1 168/17/1
f 169/13/1 170/14/1 171/15/1 172/16/1
f 173/22/1 174/8/1 175/18/1 176/17/1
f 177/10/1 178/21/1 179/14/1 180/13/1
f 181/22/1 182/8/1 183/18/1 184/17/1
f 185/4/1 186/3/1 187/29/1 188/26/1
f 189/19/1 190/25/1 191/11/1 192/23/1
f 193/19/1 194/25/1 195/11/1 196/23/1
f 197/25/1 198/16/1 199/1/1 200/11/1
f 201/16/1 202/15/1 203/2/1 204/1/1
f 205/20/1 206/19/1 207/23/1 208/24/1
f 209/19/1 210/25/1 211/11/1 212/23/1
f 213/19/1 214/25/1 215/11/1 216/23/1
f 217/25/1 218/16/1 219/1/1 220/11/1
f 221/12/1 222/4/1 223/26/1 224/27/1

